<svg width="56" height="56" viewBox="0 0 56 56" fill="none" xmlns="http://www.w3.org/2000/svg">
<rect width="56" height="56" fill="white"/>
<path d="M22.0547 7.44531C21.4617 7.44531 20.9805 7.92656 20.9805 8.51953C20.9805 9.1125 21.4617 9.59375 22.0547 9.59375C22.6477 9.59375 23.1289 9.1125 23.1289 8.51953C23.1289 7.92656 22.6477 7.44531 22.0547 7.44531Z" fill="#008D3D"/>
<path d="M28.5 16.0391C27.9077 16.0391 27.4258 15.5572 27.4258 14.9648C27.4258 14.3725 27.9077 13.8906 28.5 13.8906C28.8805 13.8906 29.2823 14.0847 29.6618 14.4521C30.0884 14.8647 30.7682 14.8534 31.1808 14.4272C31.5933 14.0008 31.5822 13.3208 31.1559 12.9081C30.6107 12.3806 30.0653 12.0822 29.5742 11.9193V10.668C29.5742 10.0747 29.0932 9.59375 28.5 9.59375C27.9068 9.59375 27.4258 10.0747 27.4258 10.668V11.927C26.1755 12.3704 25.2774 13.5644 25.2774 14.9648C25.2774 16.7418 26.723 18.1875 28.5 18.1875C29.0923 18.1875 29.5742 18.6694 29.5742 19.2617C29.5742 19.854 29.0923 20.3359 28.5 20.3359C28.0411 20.3359 27.5457 20.0473 27.1051 19.5233C26.7235 19.0691 26.0457 19.0106 25.5917 19.3923C25.1375 19.7741 25.0789 20.4517 25.4606 20.9058C26.0349 21.5889 26.7102 22.0649 27.4258 22.3049V23.5586C27.4258 24.1519 27.9068 24.6328 28.5 24.6328C29.0932 24.6328 29.5742 24.1519 29.5742 23.5586V22.2996C30.8245 21.8562 31.7227 20.6622 31.7227 19.2617C31.7227 17.4847 30.277 16.0391 28.5 16.0391Z" fill="#008D3D"/>
<path d="M51.7031 16.6836C49.3338 16.6836 47.4062 18.6112 47.4062 20.9805V28.6364C45.9793 28.2689 44.4046 28.6485 43.294 29.7589L36.0898 36.9631C35.0746 37.9769 34.5156 39.3261 34.5156 40.7622V47.084H33.4414C32.8482 47.084 32.3672 47.5649 32.3672 48.1582V54.9258C32.3672 55.5191 32.8482 56 33.4414 56H48.4805C49.0737 56 49.5547 55.5191 49.5547 54.9258V48.1582C49.5547 47.5649 49.0737 47.084 48.4805 47.084H47.4062V46.577C47.4062 46.2945 47.521 46.0177 47.7212 45.8176L54.4265 39.1123C55.4412 38.0975 56 36.7485 56 35.3138V20.9805C56 18.6112 54.0724 16.6836 51.7031 16.6836ZM47.4062 53.8516H34.5156V49.2324H47.4062V53.8516ZM53.8516 35.3138C53.8516 36.1746 53.5162 36.9842 52.9072 37.5932L46.2019 44.2984C45.6019 44.8985 45.2578 45.729 45.2578 46.577V47.084H36.6641V40.7622C36.6641 39.9005 36.9992 39.0912 37.6084 38.4828L44.8132 31.278C45.6195 30.4716 46.9148 30.4354 47.7619 31.1955C47.768 31.2009 47.7742 31.2064 47.7804 31.2117C47.8049 31.2326 47.8279 31.2552 47.8511 31.2784C48.2569 31.6839 48.4805 32.2231 48.4805 32.7969C48.4805 33.3706 48.2569 33.9099 47.8509 34.3157L42.5131 39.6535C42.0936 40.073 42.0936 40.7532 42.5131 41.1728C42.9327 41.5923 43.6126 41.5924 44.0323 41.1728L49.3699 35.8353C50.1817 35.0238 50.6289 33.9449 50.6289 32.7969C50.6289 31.7398 50.2488 30.7417 49.5547 29.9566V20.9805C49.5547 19.7958 50.5185 18.832 51.7031 18.832C52.8878 18.832 53.8516 19.7958 53.8516 20.9805V35.3138Z" fill="#2C2C2C"/>
<path d="M23.5586 47.084H22.4844V40.7622C22.4844 39.3261 21.9254 37.9769 20.9109 36.9637L13.7061 29.7589C12.5954 28.6482 11.0207 28.2688 9.59375 28.6364V20.9805C9.59375 18.6112 7.66617 16.6836 5.29688 16.6836C2.92758 16.6836 1 18.6112 1 20.9805V35.3138C1 36.7485 1.55881 38.0975 2.57352 39.1123L9.27879 45.8175C9.47902 46.0177 9.59375 46.2944 9.59375 46.577V47.084H8.51953C7.92635 47.084 7.44531 47.5649 7.44531 48.1582V54.9258C7.44531 55.5191 7.92635 56 8.51953 56H23.5586C24.1518 56 24.6328 55.5191 24.6328 54.9258V48.1582C24.6328 47.5649 24.1518 47.084 23.5586 47.084ZM4.09278 37.5933C3.48381 36.9842 3.14844 36.1746 3.14844 35.3138V20.9805C3.14844 19.7958 4.11223 18.832 5.29688 18.832C6.48152 18.832 7.44531 19.7958 7.44531 20.9805V29.9565C6.75115 30.7416 6.37109 31.7396 6.37109 32.7969C6.37109 33.9449 6.81829 35.0238 7.62997 35.8349L13.0011 41.206C13.4207 41.6255 14.1006 41.6255 14.5203 41.206C14.9398 40.7865 14.9398 40.1063 14.5203 39.6867L9.14892 34.3153C8.74308 33.9099 8.51953 33.3706 8.51953 32.7969C8.51953 32.2231 8.74308 31.6839 9.14859 31.2785C9.17201 31.2552 9.19511 31.2326 9.21949 31.2117L9.23797 31.1955C10.085 30.4354 11.3804 30.4717 12.1867 31.278L19.392 38.4833C20.0007 39.0912 20.3358 39.9004 20.3358 40.7621V47.084H11.7421V46.577C11.7422 45.729 11.3981 44.8985 10.7981 44.2984L4.09278 37.5933ZM22.4844 53.8516H9.59375V49.2324H22.4844V53.8516Z" fill="#2C2C2C"/>
<path d="M28.5 1C19.6151 1 12.3867 8.22842 12.3867 17.1133C12.3867 25.9981 19.6151 33.2266 28.5 33.2266C37.3849 33.2266 44.6133 25.9981 44.6133 17.1133C44.6133 8.22842 37.3849 1 28.5 1ZM28.5 31.0781C20.7997 31.0781 14.5352 24.8135 14.5352 17.1133C14.5352 9.41307 20.7997 3.14844 28.5 3.14844C36.2003 3.14844 42.4648 9.41307 42.4648 17.1133C42.4648 24.8135 36.2003 31.0781 28.5 31.0781Z" fill="#008D3D"/>
<path d="M35.9179 7.91463C33.1227 5.6577 29.4643 4.80649 25.8825 5.57875C25.3025 5.70378 24.9337 6.27527 25.0587 6.85524C25.1838 7.4351 25.7554 7.80356 26.3352 7.67884C29.2796 7.04398 32.2805 7.73911 34.5684 9.58612C36.8559 11.4332 38.168 14.1767 38.168 17.1133C38.168 22.4442 33.8309 26.7812 28.5 26.7812C23.1691 26.7812 18.832 22.4442 18.832 17.1133C18.832 15.5209 19.2273 13.9424 19.9752 12.5487C20.2557 12.026 20.0593 11.3748 19.5366 11.0942C19.0138 10.8136 18.3625 11.0101 18.0821 11.5328C17.1672 13.2379 16.6836 15.1675 16.6836 17.1133C16.6836 23.6288 21.9844 28.9297 28.5 28.9297C35.0156 28.9297 40.3164 23.6288 40.3164 17.1133C40.3164 13.5242 38.7132 10.1715 35.9179 7.91463Z" fill="#008D3D"/>
</svg>
