<svg width="57" height="57" viewBox="0 0 57 57" fill="none" xmlns="http://www.w3.org/2000/svg">
<rect width="56" height="56" fill="white"/>
<mask id="path-2-outside-1_17_7" maskUnits="userSpaceOnUse" x="13.3383" y="16.7524" width="43" height="40" fill="black">
<rect fill="white" x="13.3383" y="16.7524" width="43" height="40"/>
<path fill-rule="evenodd" clip-rule="evenodd" d="M41.1756 17.7524C33.0015 17.7524 26.3514 24.4026 26.3514 32.5767C26.3514 34.5827 26.7615 36.5588 27.5372 38.3828H16.4867V32.796C16.4867 32.2027 16.0058 31.7218 15.4125 31.7218C14.8192 31.7218 14.3383 32.2027 14.3383 32.796V39.457C14.3383 40.0503 14.8192 40.5312 15.4125 40.5312H28.6672C28.9713 41.0099 29.303 41.4726 29.6626 41.9156C29.6791 41.9408 29.6967 41.9654 29.7155 41.9895L38.9744 53.8516H33.9393C33.346 53.8516 32.8651 54.3325 32.8651 54.9258C32.8651 55.5191 33.346 56 33.9393 56H48.4461C49.0394 56 49.5203 55.5191 49.5203 54.9258C49.5203 54.3325 49.0394 53.8516 48.4461 53.8516H43.3761L52.6867 41.9177C52.6906 41.9129 52.6942 41.908 52.698 41.903C54.8274 39.275 55.9998 35.9644 55.9998 32.5767C55.9998 24.4025 49.3496 17.7524 41.1756 17.7524ZM51.0062 40.5783C50.9929 40.5946 50.9801 40.6114 50.9678 40.6283L41.1755 53.1797L31.484 40.7637C31.4584 40.7224 31.4299 40.6825 31.3985 40.6444C29.5293 38.382 28.4999 35.5168 28.4999 32.5767C28.4999 25.5873 34.1863 19.9009 41.1757 19.9009C48.1651 19.9009 53.8515 25.5873 53.8515 32.5767C53.8514 35.4854 52.8409 38.3272 51.0062 40.5783ZM49.5603 30.0913C49.3785 29.5263 48.7733 29.2159 48.2086 29.3976C47.6439 29.5793 47.3334 30.1845 47.5151 30.7493C48.2849 33.1414 47.6602 35.7303 45.885 37.5055C43.2882 40.1023 39.0629 40.1023 36.4661 37.5055C35.2082 36.2476 34.5153 34.5751 34.5153 32.7962C34.5153 31.0172 35.2081 29.3447 36.4661 28.0867C38.1635 26.3892 40.6563 25.7357 42.9716 26.3813C43.5428 26.5408 44.1355 26.2067 44.2948 25.6352C44.4541 25.0637 44.1201 24.4713 43.5486 24.312C40.4877 23.4584 37.1916 24.3228 34.9469 26.5676C33.2832 28.2314 32.3669 30.4434 32.3669 32.7963C32.3669 35.1491 33.2832 37.3611 34.9469 39.0249C36.6642 40.7421 38.9198 41.6008 41.1756 41.6008C43.4313 41.6008 45.687 40.7421 47.4042 39.0249C49.7518 36.6772 50.578 33.2541 49.5603 30.0913ZM47.4041 26.5674L47.4138 26.577C47.8333 26.9966 47.8333 27.6768 47.4138 28.0963C47.2041 28.3061 46.9291 28.4109 46.6542 28.4109C46.3793 28.4109 46.1044 28.3061 45.8946 28.0963L45.8849 28.0866C45.4654 27.667 45.4654 26.9868 45.8849 26.5674C46.3045 26.1479 46.9846 26.1479 47.4041 26.5674Z"/>
</mask>
<path fill-rule="evenodd" clip-rule="evenodd" d="M41.1756 17.7524C33.0015 17.7524 26.3514 24.4026 26.3514 32.5767C26.3514 34.5827 26.7615 36.5588 27.5372 38.3828H16.4867V32.796C16.4867 32.2027 16.0058 31.7218 15.4125 31.7218C14.8192 31.7218 14.3383 32.2027 14.3383 32.796V39.457C14.3383 40.0503 14.8192 40.5312 15.4125 40.5312H28.6672C28.9713 41.0099 29.303 41.4726 29.6626 41.9156C29.6791 41.9408 29.6967 41.9654 29.7155 41.9895L38.9744 53.8516H33.9393C33.346 53.8516 32.8651 54.3325 32.8651 54.9258C32.8651 55.5191 33.346 56 33.9393 56H48.4461C49.0394 56 49.5203 55.5191 49.5203 54.9258C49.5203 54.3325 49.0394 53.8516 48.4461 53.8516H43.3761L52.6867 41.9177C52.6906 41.9129 52.6942 41.908 52.698 41.903C54.8274 39.275 55.9998 35.9644 55.9998 32.5767C55.9998 24.4025 49.3496 17.7524 41.1756 17.7524ZM51.0062 40.5783C50.9929 40.5946 50.9801 40.6114 50.9678 40.6283L41.1755 53.1797L31.484 40.7637C31.4584 40.7224 31.4299 40.6825 31.3985 40.6444C29.5293 38.382 28.4999 35.5168 28.4999 32.5767C28.4999 25.5873 34.1863 19.9009 41.1757 19.9009C48.1651 19.9009 53.8515 25.5873 53.8515 32.5767C53.8514 35.4854 52.8409 38.3272 51.0062 40.5783ZM49.5603 30.0913C49.3785 29.5263 48.7733 29.2159 48.2086 29.3976C47.6439 29.5793 47.3334 30.1845 47.5151 30.7493C48.2849 33.1414 47.6602 35.7303 45.885 37.5055C43.2882 40.1023 39.0629 40.1023 36.4661 37.5055C35.2082 36.2476 34.5153 34.5751 34.5153 32.7962C34.5153 31.0172 35.2081 29.3447 36.4661 28.0867C38.1635 26.3892 40.6563 25.7357 42.9716 26.3813C43.5428 26.5408 44.1355 26.2067 44.2948 25.6352C44.4541 25.0637 44.1201 24.4713 43.5486 24.312C40.4877 23.4584 37.1916 24.3228 34.9469 26.5676C33.2832 28.2314 32.3669 30.4434 32.3669 32.7963C32.3669 35.1491 33.2832 37.3611 34.9469 39.0249C36.6642 40.7421 38.9198 41.6008 41.1756 41.6008C43.4313 41.6008 45.687 40.7421 47.4042 39.0249C49.7518 36.6772 50.578 33.2541 49.5603 30.0913ZM47.4041 26.5674L47.4138 26.577C47.8333 26.9966 47.8333 27.6768 47.4138 28.0963C47.2041 28.3061 46.9291 28.4109 46.6542 28.4109C46.3793 28.4109 46.1044 28.3061 45.8946 28.0963L45.8849 28.0866C45.4654 27.667 45.4654 26.9868 45.8849 26.5674C46.3045 26.1479 46.9846 26.1479 47.4041 26.5674Z" fill="#008D3D"/>
<path d="M27.5372 38.3828V38.5028H27.7186L27.6476 38.3359L27.5372 38.3828ZM16.4867 38.3828H16.3667V38.5028H16.4867V38.3828ZM28.6672 40.5312L28.7684 40.4669L28.7331 40.4112H28.6672V40.5312ZM29.6626 41.9156L29.7638 41.8498L29.7558 41.84L29.6626 41.9156ZM29.7155 41.9895L29.8101 41.9157L29.81 41.9156L29.7155 41.9895ZM38.9744 53.8516V53.9716H39.2203L39.069 53.7777L38.9744 53.8516ZM43.3761 53.8516L43.2815 53.7777L43.1303 53.9716H43.3761V53.8516ZM52.6867 41.9177L52.593 41.8428L52.5921 41.8439L52.6867 41.9177ZM52.698 41.903L52.6047 41.8274L52.6025 41.8304L52.698 41.903ZM50.9678 40.6283L51.0625 40.7021L51.0649 40.6988L50.9678 40.6283ZM51.0062 40.5783L51.0992 40.6542L51.0992 40.6541L51.0062 40.5783ZM41.1755 53.1797L41.0809 53.2536L41.1755 53.3748L41.2701 53.2536L41.1755 53.1797ZM31.484 40.7637L31.3813 40.8272L31.3894 40.8375L31.484 40.7637ZM31.3985 40.6444L31.491 40.568L31.491 40.5679L31.3985 40.6444ZM53.8515 32.5767L53.9715 32.5767V32.5767H53.8515ZM48.2086 29.3976L48.2453 29.5119L48.2454 29.5119L48.2086 29.3976ZM49.5603 30.0913L49.4461 30.128L49.4461 30.128L49.5603 30.0913ZM47.5151 30.7493L47.4008 30.7861L47.4009 30.7861L47.5151 30.7493ZM45.885 37.5055L45.8001 37.4207L45.8001 37.4207L45.885 37.5055ZM36.4661 37.5055L36.3812 37.5904L36.4661 37.5055ZM36.4661 28.0867L36.551 28.1715L36.551 28.1715L36.4661 28.0867ZM42.9716 26.3813L43.0038 26.2658L43.0038 26.2658L42.9716 26.3813ZM44.2948 25.6352L44.1792 25.603V25.603L44.2948 25.6352ZM43.5486 24.312L43.5164 24.4276L43.5164 24.4276L43.5486 24.312ZM34.9469 26.5676L35.0318 26.6525L35.0318 26.6525L34.9469 26.5676ZM47.4042 39.0249L47.4891 39.1098V39.1097L47.4042 39.0249ZM47.4138 26.577L47.4987 26.4922V26.4922L47.4138 26.577ZM47.4041 26.5674L47.489 26.4825L47.489 26.4825L47.4041 26.5674ZM47.4138 28.0963L47.3289 28.0114L47.3289 28.0115L47.4138 28.0963ZM45.8946 28.0963L45.9795 28.0114L45.979 28.011L45.8946 28.0963ZM45.8849 28.0866L45.8 28.1715L45.8005 28.1719L45.8849 28.0866ZM45.8849 26.5674L45.8 26.4825L45.8 26.4825L45.8849 26.5674ZM26.4714 32.5767C26.4714 24.4689 33.0678 17.8724 41.1756 17.8724V17.6324C32.9352 17.6324 26.2314 24.3363 26.2314 32.5767H26.4714ZM27.6476 38.3359C26.8782 36.5265 26.4714 34.5663 26.4714 32.5767H26.2314C26.2314 34.599 26.6448 36.5911 27.4268 38.4298L27.6476 38.3359ZM16.4867 38.5028H27.5372V38.2628H16.4867V38.5028ZM16.3667 32.796V38.3828H16.6067V32.796H16.3667ZM15.4125 31.8418C15.9395 31.8418 16.3667 32.269 16.3667 32.796H16.6067C16.6067 32.1365 16.072 31.6018 15.4125 31.6018V31.8418ZM14.4583 32.796C14.4583 32.269 14.8855 31.8418 15.4125 31.8418V31.6018C14.7529 31.6018 14.2183 32.1365 14.2183 32.796H14.4583ZM14.4583 39.457V32.796H14.2183V39.457H14.4583ZM15.4125 40.4112C14.8855 40.4112 14.4583 39.984 14.4583 39.457H14.2183C14.2183 40.1166 14.7529 40.6513 15.4125 40.6513V40.4112ZM28.6672 40.4112H15.4125V40.6513H28.6672V40.4112ZM29.7558 41.84C29.3992 41.4007 29.0701 40.9418 28.7684 40.4669L28.5659 40.5956C28.8724 41.0781 29.2068 41.5445 29.5695 41.9912L29.7558 41.84ZM29.81 41.9156C29.7933 41.8942 29.7777 41.8724 29.7632 41.8501L29.5621 41.9811C29.5805 42.0093 29.6001 42.0367 29.6209 42.0634L29.81 41.9156ZM39.069 53.7777L29.8101 41.9157L29.6209 42.0633L38.8798 53.9254L39.069 53.7777ZM33.9393 53.9716H38.9744V53.7316H33.9393V53.9716ZM32.9851 54.9258C32.9851 54.3988 33.4123 53.9716 33.9393 53.9716V53.7316C33.2797 53.7316 32.7451 54.2662 32.7451 54.9258H32.9851ZM33.9393 55.88C33.4123 55.88 32.9851 55.4528 32.9851 54.9258H32.7451C32.7451 55.5853 33.2797 56.12 33.9393 56.12V55.88ZM48.4461 55.88H33.9393V56.12H48.4461V55.88ZM49.4003 54.9258C49.4003 55.4528 48.9731 55.88 48.4461 55.88V56.12C49.1057 56.12 49.6403 55.5853 49.6403 54.9258H49.4003ZM48.4461 53.9716C48.9731 53.9716 49.4003 54.3988 49.4003 54.9258H49.6403C49.6403 54.2662 49.1057 53.7316 48.4461 53.7316V53.9716ZM43.3761 53.9716H48.4461V53.7316H43.3761V53.9716ZM52.5921 41.8439L43.2815 53.7777L43.4707 53.9254L52.7813 41.9916L52.5921 41.8439ZM52.6025 41.8304C52.5973 41.8371 52.5956 41.8395 52.593 41.8428L52.7804 41.9927C52.7855 41.9864 52.7911 41.9788 52.7935 41.9757L52.6025 41.8304ZM55.8798 32.5767C55.8798 35.937 54.7168 39.2208 52.6047 41.8275L52.7912 41.9786C54.938 39.3291 56.1198 35.9919 56.1198 32.5767H55.8798ZM41.1756 17.8724C49.2834 17.8724 55.8798 24.4688 55.8798 32.5767H56.1198C56.1198 24.3362 49.4159 17.6324 41.1756 17.6324V17.8724ZM51.0649 40.6988C51.0761 40.6834 51.0875 40.6685 51.0992 40.6542L50.9132 40.5024C50.8982 40.5208 50.8841 40.5394 50.8707 40.5577L51.0649 40.6988ZM41.2701 53.2536L51.0624 40.7021L50.8732 40.5544L41.0809 53.1059L41.2701 53.2536ZM31.3894 40.8375L41.0809 53.2536L41.2701 53.1059L31.5786 40.6899L31.3894 40.8375ZM31.3059 40.7208C31.3339 40.7546 31.3592 40.79 31.3819 40.8268L31.586 40.7006C31.5577 40.6547 31.526 40.6104 31.491 40.568L31.3059 40.7208ZM28.3799 32.5767C28.3799 35.5446 29.419 38.4368 31.306 40.7208L31.491 40.5679C29.6396 38.3271 28.6199 35.489 28.6199 32.5767H28.3799ZM41.1757 19.7809C34.12 19.7809 28.3799 25.521 28.3799 32.5767H28.6199C28.6199 25.6535 34.2525 20.0209 41.1757 20.0209V19.7809ZM53.9715 32.5767C53.9715 25.521 48.2314 19.7809 41.1757 19.7809V20.0209C48.0988 20.0209 53.7315 25.6535 53.7315 32.5767H53.9715ZM51.0992 40.6541C52.9514 38.3815 53.9714 35.513 53.9715 32.5767L53.7315 32.5767C53.7314 35.4579 52.7304 38.2728 50.9132 40.5025L51.0992 40.6541ZM48.2454 29.5119C48.747 29.3504 49.2846 29.6262 49.4461 30.128L49.6745 30.0545C49.4725 29.4265 48.7996 29.0813 48.1718 29.2834L48.2454 29.5119ZM47.6293 30.7126C47.4679 30.2108 47.7438 29.6732 48.2453 29.5119L48.1719 29.2834C47.544 29.4854 47.1989 30.1582 47.4008 30.7861L47.6293 30.7126ZM45.9698 37.5904C47.7769 35.7833 48.4129 33.1474 47.6293 30.7126L47.4009 30.7861C48.1569 33.1354 47.5435 35.6773 45.8001 37.4207L45.9698 37.5904ZM36.3812 37.5904C39.0249 40.2341 43.3262 40.2341 45.9698 37.5904L45.8001 37.4207C43.2503 39.9706 39.1009 39.9706 36.551 37.4207L36.3812 37.5904ZM34.3953 32.7962C34.3953 34.6069 35.1008 36.31 36.3812 37.5904L36.551 37.4207C35.3155 36.1853 34.6353 34.5432 34.6353 32.7962H34.3953ZM36.3812 28.0018C35.1007 29.2823 34.3953 30.9854 34.3953 32.7962H34.6353C34.6353 31.0491 35.3154 29.407 36.551 28.1715L36.3812 28.0018ZM43.0038 26.2658C40.6469 25.6085 38.1093 26.2737 36.3812 28.0018L36.551 28.1715C38.2177 26.5047 40.6657 25.8629 42.9393 26.4969L43.0038 26.2658ZM44.1792 25.603C44.0377 26.1106 43.5112 26.4074 43.0038 26.2658L42.9393 26.4969C43.5744 26.6742 44.2333 26.3028 44.4104 25.6674L44.1792 25.603ZM43.5164 24.4276C44.024 24.5691 44.3207 25.0953 44.1792 25.603L44.4104 25.6674C44.5875 25.0321 44.2162 24.3735 43.5809 24.1964L43.5164 24.4276ZM35.0318 26.6525C37.2458 24.4383 40.4971 23.5856 43.5164 24.4276L43.5809 24.1964C40.4782 23.3312 37.1374 24.2073 34.8621 26.4828L35.0318 26.6525ZM32.4869 32.7963C32.4869 30.4752 33.3905 28.2937 35.0318 26.6525L34.8621 26.4828C33.1758 28.169 32.2469 30.4116 32.2469 32.7963H32.4869ZM35.0318 38.94C33.3905 37.2988 32.4869 35.1173 32.4869 32.7963H32.2469C32.2469 35.1809 33.1758 37.4235 34.8621 39.1098L35.0318 38.94ZM41.1756 41.4808C38.9502 41.4808 36.7256 40.6338 35.0318 38.94L34.8621 39.1098C36.6028 40.8505 38.8894 41.7208 41.1756 41.7208V41.4808ZM47.3194 38.94C45.6256 40.6338 43.4009 41.4808 41.1756 41.4808V41.7208C43.4617 41.7208 45.7483 40.8505 47.4891 39.1098L47.3194 38.94ZM49.4461 30.128C50.45 33.248 49.6351 36.6242 47.3194 38.94L47.4891 39.1097C49.8685 36.7302 50.706 33.2601 49.6745 30.0545L49.4461 30.128ZM47.4987 26.4922L47.489 26.4825L47.3193 26.6522L47.3289 26.6619L47.4987 26.4922ZM47.4987 28.1811C47.965 27.7148 47.965 26.9586 47.4987 26.4922L47.3289 26.6619C47.7016 27.0346 47.7016 27.6388 47.3289 28.0114L47.4987 28.1811ZM46.6542 28.5309C46.9596 28.5309 47.2656 28.4144 47.4987 28.1811L47.3289 28.0115C47.1427 28.1978 46.8986 28.2909 46.6542 28.2909V28.5309ZM45.8098 28.1811C46.043 28.4144 46.3488 28.5309 46.6542 28.5309V28.2909C46.4098 28.2909 46.1659 28.1978 45.9795 28.0114L45.8098 28.1811ZM45.8005 28.1719L45.8103 28.1816L45.979 28.011L45.9692 28.0013L45.8005 28.1719ZM45.8 26.4825C45.3337 26.9489 45.3337 27.705 45.8 28.1715L45.9697 28.0018C45.5971 27.629 45.5971 27.0248 45.9697 26.6522L45.8 26.4825ZM47.489 26.4825C47.0226 26.0162 46.2665 26.0162 45.8 26.4825L45.9697 26.6522C46.3424 26.2796 46.9467 26.2796 47.3193 26.6522L47.489 26.4825Z" fill="#008D3D" mask="url(#path-2-outside-1_17_7)"/>
<mask id="path-4-outside-2_17_7" maskUnits="userSpaceOnUse" x="0" y="0" width="57" height="57" fill="black">
<rect fill="white" width="57" height="57"/>
<path fill-rule="evenodd" clip-rule="evenodd" d="M19.5282 2.07422C19.5282 1.48093 20.0092 1 20.6025 1C21.1957 1 21.6767 1.48093 21.6767 2.07422V10.8835C21.6767 11.4767 21.1957 11.9577 20.6025 11.9577H2.07422C1.48093 11.9577 1 11.4767 1 10.8835C1 10.2902 1.48093 9.80924 2.07422 9.80924H19.5282V2.07422ZM2.07422 46.1172H26.1725C26.7658 46.1172 27.2467 46.5981 27.2467 47.1914V54.9258C27.2467 55.5191 26.7658 56 26.1725 56C25.5792 56 25.0983 55.5191 25.0983 54.9258V48.2656H2.07422C1.48093 48.2656 1 47.7847 1 47.1914C1 46.5981 1.48093 46.1172 2.07422 46.1172ZM10.2224 17.5436H2.07422C1.48093 17.5436 1 18.0246 1 18.6179C1 19.2111 1.48093 19.6921 2.07422 19.6921H9.14816V38.3828H2.07422C1.48093 38.3828 1 38.8638 1 39.4571C1 40.0504 1.48093 40.5313 2.07422 40.5313H10.2224C10.8157 40.5313 11.2966 40.0504 11.2966 39.4571V18.6179C11.2966 18.0246 10.8157 17.5436 10.2224 17.5436ZM15.4128 27.9629C15.6953 27.9629 15.9724 28.0778 16.1723 28.2776C16.3721 28.4774 16.487 28.7546 16.487 29.0371C16.487 29.3196 16.3721 29.5968 16.1723 29.7966C15.9714 29.9975 15.6953 30.1113 15.4128 30.1113C15.1292 30.1113 14.8531 29.9975 14.6533 29.7966C14.4524 29.5968 14.3386 29.3207 14.3386 29.0371C14.3386 28.7546 14.4524 28.4774 14.6533 28.2776C14.8531 28.0778 15.1292 27.9629 15.4128 27.9629ZM28.5 17.5436H15.4125C14.8192 17.5436 14.3383 18.0246 14.3383 18.6179V24.5791C14.3383 25.1724 14.8192 25.6533 15.4125 25.6533C16.0058 25.6533 16.4867 25.1724 16.4867 24.5791V19.6921H28.5C29.0933 19.6921 29.5742 19.2111 29.5742 18.6179C29.5742 18.0246 29.0933 17.5436 28.5 17.5436ZM42.8945 2.07422C42.8945 1.48093 43.3755 1 43.9688 1C44.562 1 45.043 1.48093 45.043 2.07422V10.8822C45.043 11.4754 44.562 11.9564 43.9688 11.9564L25.7926 11.9577C25.5078 11.9577 25.2344 11.8445 25.033 11.643C24.8315 11.4416 24.7183 11.1683 24.7183 10.8835V2.07422C24.7183 1.48093 25.1993 1 25.7925 1C26.3858 1 26.8668 1.48093 26.8668 2.07422V9.80924L42.8945 9.80806V2.07422ZM54.9258 9.80924H50.1992V2.07422C50.1992 1.48093 49.7183 1 49.125 1C48.5317 1 48.0508 1.48093 48.0508 2.07422V10.8835C48.0508 11.4767 48.5317 11.9577 49.125 11.9577H54.9258C55.5191 11.9577 56 11.4767 56 10.8835C56 10.2902 55.5191 9.80924 54.9258 9.80924ZM51.5337 17.5436H54.9258C55.519 17.5436 56 18.0246 56 18.6179C56 19.2111 55.519 19.6921 54.9258 19.6921H51.5337C50.9404 19.6921 50.4595 19.2111 50.4595 18.6179C50.4595 18.0246 50.9404 17.5436 51.5337 17.5436Z"/>
</mask>
<path fill-rule="evenodd" clip-rule="evenodd" d="M19.5282 2.07422C19.5282 1.48093 20.0092 1 20.6025 1C21.1957 1 21.6767 1.48093 21.6767 2.07422V10.8835C21.6767 11.4767 21.1957 11.9577 20.6025 11.9577H2.07422C1.48093 11.9577 1 11.4767 1 10.8835C1 10.2902 1.48093 9.80924 2.07422 9.80924H19.5282V2.07422ZM2.07422 46.1172H26.1725C26.7658 46.1172 27.2467 46.5981 27.2467 47.1914V54.9258C27.2467 55.5191 26.7658 56 26.1725 56C25.5792 56 25.0983 55.5191 25.0983 54.9258V48.2656H2.07422C1.48093 48.2656 1 47.7847 1 47.1914C1 46.5981 1.48093 46.1172 2.07422 46.1172ZM10.2224 17.5436H2.07422C1.48093 17.5436 1 18.0246 1 18.6179C1 19.2111 1.48093 19.6921 2.07422 19.6921H9.14816V38.3828H2.07422C1.48093 38.3828 1 38.8638 1 39.4571C1 40.0504 1.48093 40.5313 2.07422 40.5313H10.2224C10.8157 40.5313 11.2966 40.0504 11.2966 39.4571V18.6179C11.2966 18.0246 10.8157 17.5436 10.2224 17.5436ZM15.4128 27.9629C15.6953 27.9629 15.9724 28.0778 16.1723 28.2776C16.3721 28.4774 16.487 28.7546 16.487 29.0371C16.487 29.3196 16.3721 29.5968 16.1723 29.7966C15.9714 29.9975 15.6953 30.1113 15.4128 30.1113C15.1292 30.1113 14.8531 29.9975 14.6533 29.7966C14.4524 29.5968 14.3386 29.3207 14.3386 29.0371C14.3386 28.7546 14.4524 28.4774 14.6533 28.2776C14.8531 28.0778 15.1292 27.9629 15.4128 27.9629ZM28.5 17.5436H15.4125C14.8192 17.5436 14.3383 18.0246 14.3383 18.6179V24.5791C14.3383 25.1724 14.8192 25.6533 15.4125 25.6533C16.0058 25.6533 16.4867 25.1724 16.4867 24.5791V19.6921H28.5C29.0933 19.6921 29.5742 19.2111 29.5742 18.6179C29.5742 18.0246 29.0933 17.5436 28.5 17.5436ZM42.8945 2.07422C42.8945 1.48093 43.3755 1 43.9688 1C44.562 1 45.043 1.48093 45.043 2.07422V10.8822C45.043 11.4754 44.562 11.9564 43.9688 11.9564L25.7926 11.9577C25.5078 11.9577 25.2344 11.8445 25.033 11.643C24.8315 11.4416 24.7183 11.1683 24.7183 10.8835V2.07422C24.7183 1.48093 25.1993 1 25.7925 1C26.3858 1 26.8668 1.48093 26.8668 2.07422V9.80924L42.8945 9.80806V2.07422ZM54.9258 9.80924H50.1992V2.07422C50.1992 1.48093 49.7183 1 49.125 1C48.5317 1 48.0508 1.48093 48.0508 2.07422V10.8835C48.0508 11.4767 48.5317 11.9577 49.125 11.9577H54.9258C55.5191 11.9577 56 11.4767 56 10.8835C56 10.2902 55.5191 9.80924 54.9258 9.80924ZM51.5337 17.5436H54.9258C55.519 17.5436 56 18.0246 56 18.6179C56 19.2111 55.519 19.6921 54.9258 19.6921H51.5337C50.9404 19.6921 50.4595 19.2111 50.4595 18.6179C50.4595 18.0246 50.9404 17.5436 51.5337 17.5436Z" fill="#2C2C2C"/>
<path d="M19.5282 9.80924V9.92924H19.6482V9.80924H19.5282ZM25.0983 48.2656H25.2183V48.1456H25.0983V48.2656ZM9.14816 19.6921H9.26816V19.5721H9.14816V19.6921ZM9.14816 38.3828V38.5028H9.26816V38.3828H9.14816ZM16.1723 28.2776L16.2571 28.1928H16.2571L16.1723 28.2776ZM16.1723 29.7966L16.2571 29.8814H16.2571L16.1723 29.7966ZM14.6533 29.7966L14.7384 29.712L14.7379 29.7115L14.6533 29.7966ZM14.6533 28.2776L14.7379 28.3627L14.7382 28.3625L14.6533 28.2776ZM16.4867 19.6921V19.5721H16.3667V19.6921H16.4867ZM43.9688 11.9564V11.8364H43.9687L43.9688 11.9564ZM25.7926 11.9577V12.0777H25.7927L25.7926 11.9577ZM26.8668 9.80924H26.7468V9.92925L26.8668 9.92924L26.8668 9.80924ZM42.8945 9.80806L42.8945 9.92806L43.0145 9.92805V9.80806H42.8945ZM50.1992 9.80924H50.0792V9.92924H50.1992V9.80924ZM20.6025 0.88C19.9429 0.88 19.4082 1.41465 19.4082 2.07422H19.6482C19.6482 1.5472 20.0754 1.12 20.6025 1.12V0.88ZM21.7967 2.07422C21.7967 1.41465 21.262 0.88 20.6025 0.88V1.12C21.1295 1.12 21.5567 1.5472 21.5567 2.07422H21.7967ZM21.7967 10.8835V2.07422H21.5567V10.8835H21.7967ZM20.6025 12.0777C21.262 12.0777 21.7967 11.543 21.7967 10.8835H21.5567C21.5567 11.4105 21.1295 11.8377 20.6025 11.8377V12.0777ZM2.07422 12.0777H20.6025V11.8377H2.07422V12.0777ZM0.88 10.8835C0.88 11.543 1.41465 12.0777 2.07422 12.0777V11.8377C1.5472 11.8377 1.12 11.4105 1.12 10.8835H0.88ZM2.07422 9.68924C1.41465 9.68924 0.88 10.2239 0.88 10.8835H1.12C1.12 10.3564 1.5472 9.92924 2.07422 9.92924V9.68924ZM19.5282 9.68924H2.07422V9.92924H19.5282V9.68924ZM19.4082 2.07422V9.80924H19.6482V2.07422H19.4082ZM26.1725 45.9972H2.07422V46.2372H26.1725V45.9972ZM27.3667 47.1914C27.3667 46.5318 26.8321 45.9972 26.1725 45.9972V46.2372C26.6995 46.2372 27.1267 46.6644 27.1267 47.1914H27.3667ZM27.3667 54.9258V47.1914H27.1267V54.9258H27.3667ZM26.1725 56.12C26.8321 56.12 27.3667 55.5853 27.3667 54.9258H27.1267C27.1267 55.4528 26.6995 55.88 26.1725 55.88V56.12ZM24.9783 54.9258C24.9783 55.5853 25.5129 56.12 26.1725 56.12V55.88C25.6455 55.88 25.2183 55.4528 25.2183 54.9258H24.9783ZM24.9783 48.2656V54.9258H25.2183V48.2656H24.9783ZM2.07422 48.3856H25.0983V48.1456H2.07422V48.3856ZM0.88 47.1914C0.88 47.851 1.41465 48.3856 2.07422 48.3856V48.1456C1.5472 48.1456 1.12 47.7184 1.12 47.1914H0.88ZM2.07422 45.9972C1.41465 45.9972 0.88 46.5318 0.88 47.1914H1.12C1.12 46.6644 1.5472 46.2372 2.07422 46.2372V45.9972ZM2.07422 17.6636H10.2224V17.4236H2.07422V17.6636ZM1.12 18.6179C1.12 18.0908 1.5472 17.6636 2.07422 17.6636V17.4236C1.41465 17.4236 0.88 17.9583 0.88 18.6179H1.12ZM2.07422 19.5721C1.5472 19.5721 1.12 19.1449 1.12 18.6179H0.88C0.88 19.2774 1.41465 19.8121 2.07422 19.8121V19.5721ZM9.14816 19.5721H2.07422V19.8121H9.14816V19.5721ZM9.26816 38.3828V19.6921H9.02816V38.3828H9.26816ZM2.07422 38.5028H9.14816V38.2628H2.07422V38.5028ZM1.12 39.4571C1.12 38.93 1.5472 38.5028 2.07422 38.5028V38.2628C1.41465 38.2628 0.88 38.7975 0.88 39.4571H1.12ZM2.07422 40.4113C1.5472 40.4113 1.12 39.9841 1.12 39.4571H0.88C0.88 40.1166 1.41465 40.6513 2.07422 40.6513V40.4113ZM10.2224 40.4113H2.07422V40.6513H10.2224V40.4113ZM11.1766 39.4571C11.1766 39.9841 10.7494 40.4113 10.2224 40.4113V40.6513C10.8819 40.6513 11.4166 40.1166 11.4166 39.4571H11.1766ZM11.1766 18.6179V39.4571H11.4166V18.6179H11.1766ZM10.2224 17.6636C10.7494 17.6636 11.1766 18.0908 11.1766 18.6179H11.4166C11.4166 17.9583 10.8819 17.4236 10.2224 17.4236V17.6636ZM16.2571 28.1928C16.0348 27.9705 15.7272 27.8429 15.4128 27.8429V28.0829C15.6634 28.0829 15.9101 28.1852 16.0874 28.3625L16.2571 28.1928ZM16.607 29.0371C16.607 28.7227 16.4794 28.4151 16.2571 28.1928L16.0874 28.3625C16.2647 28.5398 16.367 28.7865 16.367 29.0371H16.607ZM16.2571 29.8814C16.4794 29.6592 16.607 29.3515 16.607 29.0371H16.367C16.367 29.2878 16.2647 29.5344 16.0874 29.7117L16.2571 29.8814ZM15.4128 30.2313C15.7271 30.2313 16.0337 30.1049 16.2571 29.8814L16.0874 29.7117C15.9091 29.8901 15.6635 29.9913 15.4128 29.9913V30.2313ZM14.5682 29.8812C14.7908 30.1049 15.0975 30.2313 15.4128 30.2313V29.9913C15.1608 29.9913 14.9155 29.89 14.7384 29.712L14.5682 29.8812ZM14.2186 29.0371C14.2186 29.3524 14.345 29.6591 14.5687 29.8817L14.7379 29.7115C14.5599 29.5344 14.4586 29.289 14.4586 29.0371H14.2186ZM14.5687 28.1926C14.3449 28.4151 14.2186 28.723 14.2186 29.0371H14.4586C14.4586 28.7862 14.5599 28.5398 14.7379 28.3627L14.5687 28.1926ZM15.4128 27.8429C15.0973 27.8429 14.7907 27.9706 14.5685 28.1928L14.7382 28.3625C14.9155 28.1851 15.1611 28.0829 15.4128 28.0829V27.8429ZM15.4125 17.6636H28.5V17.4236H15.4125V17.6636ZM14.4583 18.6179C14.4583 18.0908 14.8855 17.6636 15.4125 17.6636V17.4236C14.7529 17.4236 14.2183 17.9583 14.2183 18.6179H14.4583ZM14.4583 24.5791V18.6179H14.2183V24.5791H14.4583ZM15.4125 25.5333C14.8855 25.5333 14.4583 25.1061 14.4583 24.5791H14.2183C14.2183 25.2387 14.7529 25.7733 15.4125 25.7733V25.5333ZM16.3667 24.5791C16.3667 25.1061 15.9395 25.5333 15.4125 25.5333V25.7733C16.072 25.7733 16.6067 25.2387 16.6067 24.5791H16.3667ZM16.3667 19.6921V24.5791H16.6067V19.6921H16.3667ZM28.5 19.5721H16.4867V19.8121H28.5V19.5721ZM29.4542 18.6179C29.4542 19.1449 29.027 19.5721 28.5 19.5721V19.8121C29.1596 19.8121 29.6942 19.2774 29.6942 18.6179H29.4542ZM28.5 17.6636C29.027 17.6636 29.4542 18.0908 29.4542 18.6179H29.6942C29.6942 17.9583 29.1596 17.4236 28.5 17.4236V17.6636ZM43.9688 0.88C43.3092 0.88 42.7745 1.41465 42.7745 2.07422H43.0145C43.0145 1.5472 43.4417 1.12 43.9688 1.12V0.88ZM45.163 2.07422C45.163 1.41465 44.6283 0.88 43.9688 0.88V1.12C44.4958 1.12 44.923 1.5472 44.923 2.07422H45.163ZM45.163 10.8822V2.07422H44.923V10.8822H45.163ZM43.9688 12.0764C44.6283 12.0764 45.163 11.5416 45.163 10.8822H44.923C44.923 11.4091 44.4958 11.8364 43.9688 11.8364V12.0764ZM25.7927 12.0777L43.9688 12.0764L43.9687 11.8364L25.7926 11.8377L25.7927 12.0777ZM24.9481 11.7279C25.172 11.9518 25.4759 12.0777 25.7926 12.0777V11.8377C25.5396 11.8377 25.2967 11.7371 25.1178 11.5582L24.9481 11.7279ZM24.5983 10.8835C24.5983 11.2002 24.7242 11.504 24.9481 11.7279L25.1178 11.5582C24.9389 11.3793 24.8383 11.1365 24.8383 10.8835H24.5983ZM24.5983 2.07422V10.8835H24.8383V2.07422H24.5983ZM25.7925 0.88C25.133 0.88 24.5983 1.41465 24.5983 2.07422H24.8383C24.8383 1.5472 25.2655 1.12 25.7925 1.12V0.88ZM26.9868 2.07422C26.9868 1.41465 26.4521 0.88 25.7925 0.88V1.12C26.3196 1.12 26.7468 1.5472 26.7468 2.07422H26.9868ZM26.9868 9.80924V2.07422H26.7468V9.80924H26.9868ZM42.8945 9.68806L26.8668 9.68924L26.8668 9.92924L42.8945 9.92806L42.8945 9.68806ZM42.7745 2.07422V9.80806H43.0145V2.07422H42.7745ZM50.1992 9.92924H54.9258V9.68924H50.1992V9.92924ZM50.0792 2.07422V9.80924H50.3192V2.07422H50.0792ZM49.125 1.12C49.652 1.12 50.0792 1.5472 50.0792 2.07422H50.3192C50.3192 1.41465 49.7846 0.88 49.125 0.88V1.12ZM48.1708 2.07422C48.1708 1.5472 48.598 1.12 49.125 1.12V0.88C48.4654 0.88 47.9308 1.41465 47.9308 2.07422H48.1708ZM48.1708 10.8835V2.07422H47.9308V10.8835H48.1708ZM49.125 11.8377C48.598 11.8377 48.1708 11.4105 48.1708 10.8835H47.9308C47.9308 11.543 48.4654 12.0777 49.125 12.0777V11.8377ZM54.9258 11.8377H49.125V12.0777H54.9258V11.8377ZM55.88 10.8835C55.88 11.4105 55.4528 11.8377 54.9258 11.8377V12.0777C55.5853 12.0777 56.12 11.543 56.12 10.8835H55.88ZM54.9258 9.92924C55.4528 9.92924 55.88 10.3564 55.88 10.8835H56.12C56.12 10.2239 55.5853 9.68924 54.9258 9.68924V9.92924ZM54.9258 17.4236H51.5337V17.6636H54.9258V17.4236ZM56.12 18.6179C56.12 17.9583 55.5853 17.4236 54.9258 17.4236V17.6636C55.4528 17.6636 55.88 18.0908 55.88 18.6179H56.12ZM54.9258 19.8121C55.5853 19.8121 56.12 19.2774 56.12 18.6179H55.88C55.88 19.1449 55.4528 19.5721 54.9258 19.5721V19.8121ZM51.5337 19.8121H54.9258V19.5721H51.5337V19.8121ZM50.3395 18.6179C50.3395 19.2774 50.8741 19.8121 51.5337 19.8121V19.5721C51.0067 19.5721 50.5795 19.1449 50.5795 18.6179H50.3395ZM51.5337 17.4236C50.8741 17.4236 50.3395 17.9583 50.3395 18.6179H50.5795C50.5795 18.0908 51.0067 17.6636 51.5337 17.6636V17.4236Z" fill="#2C2C2C" mask="url(#path-4-outside-2_17_7)"/>
</svg>
