<svg width="56" height="57" viewBox="0 0 56 57" fill="none" xmlns="http://www.w3.org/2000/svg">
<rect width="56" height="56" fill="white"/>
<mask id="path-2-outside-1_17_8" maskUnits="userSpaceOnUse" x="16.2286" y="31.8314" width="40" height="25" fill="black">
<rect fill="white" x="16.2286" y="31.8314" width="40" height="25"/>
<path fill-rule="evenodd" clip-rule="evenodd" d="M19.6167 32.8314H52.6507C53.9675 32.8314 55.0388 33.9027 55.0388 35.2195V53.6119C55.0388 54.9287 53.9675 56 52.6507 56H19.6167C18.3 56 17.2286 54.9287 17.2286 53.6119V35.2195C17.2286 33.9027 18.3 32.8314 19.6167 32.8314ZM52.6507 54.3659C53.0663 54.3659 53.4046 54.0276 53.4046 53.6119V35.2195C53.4046 34.8036 53.0664 34.4655 52.6507 34.4655H19.6167C19.201 34.4655 18.8627 34.8037 18.8627 35.2195V53.6119C18.8627 54.0277 19.201 54.3659 19.6167 54.3659H52.6507ZM37.6073 43.5766C39.389 44.1697 40.3618 45.6759 40.0858 47.414C39.8579 48.8482 38.7043 50.3036 36.8762 50.6512V51.0795C36.8762 51.5306 36.5104 51.8965 36.0592 51.8965C35.6079 51.8965 35.2421 51.5308 35.2421 51.0795V50.7149C34.3073 50.6662 33.585 50.4731 32.5255 49.8204C32.1413 49.5836 32.0216 49.0804 32.2584 48.6961C32.4951 48.3119 32.9986 48.1923 33.3826 48.4291C34.1283 48.8884 34.5801 49.0363 35.2421 49.0793V44.4467C34.5054 44.1373 33.9668 43.8443 33.5339 43.5245C32.717 42.921 32.334 41.8606 32.5347 40.7571C32.7617 39.5086 33.6555 38.5195 34.8673 38.1757C34.9947 38.1395 35.1193 38.1102 35.2421 38.0849V37.7521C35.2421 37.3009 35.6079 36.935 36.0592 36.935C36.5104 36.935 36.8762 37.3008 36.8762 37.7521V38.0256C38.1688 38.2066 38.9599 38.8779 39.0068 38.9187C39.3477 39.2146 39.3839 39.7308 39.0879 40.0714C38.7936 40.4102 38.2816 40.448 37.941 40.1575C37.9089 40.1309 37.5234 39.8226 36.8762 39.6833V43.3255C37.1214 43.4128 37.3671 43.4967 37.6073 43.5766ZM34.1424 41.0494C34.0733 41.4299 34.1321 41.9345 34.5048 42.2099C34.7123 42.3632 34.9638 42.5097 35.2421 42.65V39.7712C34.5645 39.9955 34.2293 40.5719 34.1424 41.0494ZM36.8762 48.9676C37.8156 48.6698 38.3552 47.8912 38.4718 47.1576C38.6202 46.2234 38.1042 45.4643 37.0912 45.1272C37.0302 45.1069 36.9713 45.087 36.9125 45.067L36.9123 45.0669L36.8762 45.0547V48.9676ZM32.2319 51.5218H23.7977C23.2652 50.6879 22.543 49.9684 21.7066 49.4384V39.3695C22.5352 38.8446 23.2524 38.133 23.7832 37.3092H32.2217C32.673 37.3092 33.0388 36.9433 33.0388 36.4921C33.0388 36.0408 32.673 35.6751 32.2217 35.6751H23.7647C23.2157 35.6751 22.7133 35.9486 22.4207 36.4068C22.0128 37.0456 21.4576 37.5964 20.815 37.9998C20.35 38.2918 20.0724 38.7967 20.0724 39.3508V49.4572C20.0724 50.0114 20.3499 50.5163 20.8146 50.8079C21.4633 51.2151 22.0225 51.7722 22.4316 52.4189C22.7236 52.8805 23.2274 53.156 23.7792 53.156H32.2319C32.6832 53.156 33.049 52.7902 33.049 52.339C33.049 51.8878 32.6832 51.5218 32.2319 51.5218ZM49.8904 36.4075C50.2913 37.0352 50.8348 37.5788 51.4624 37.9796C51.9211 38.2726 52.1949 38.7753 52.1949 39.324V49.4837C52.1949 50.0326 51.9213 50.5352 51.4628 50.828C50.8291 51.2327 50.2817 51.7824 49.8794 52.4181C49.5872 52.88 49.0832 53.1559 48.5314 53.1559H39.8984C39.4472 53.1559 39.0814 52.7901 39.0814 52.3389C39.0814 51.8877 39.4472 51.5218 39.8984 51.5218H48.5127C49.0362 50.7019 49.7434 49.9917 50.5607 49.4652V39.3427C49.7512 38.8211 49.0488 38.1189 48.5272 37.3092H39.879C39.4277 37.3092 39.0619 36.9434 39.0619 36.4921C39.0619 36.0409 39.4277 35.6751 39.879 35.6751H48.5459C49.0948 35.6751 49.5973 35.9488 49.8904 36.4075Z"/>
</mask>
<path fill-rule="evenodd" clip-rule="evenodd" d="M19.6167 32.8314H52.6507C53.9675 32.8314 55.0388 33.9027 55.0388 35.2195V53.6119C55.0388 54.9287 53.9675 56 52.6507 56H19.6167C18.3 56 17.2286 54.9287 17.2286 53.6119V35.2195C17.2286 33.9027 18.3 32.8314 19.6167 32.8314ZM52.6507 54.3659C53.0663 54.3659 53.4046 54.0276 53.4046 53.6119V35.2195C53.4046 34.8036 53.0664 34.4655 52.6507 34.4655H19.6167C19.201 34.4655 18.8627 34.8037 18.8627 35.2195V53.6119C18.8627 54.0277 19.201 54.3659 19.6167 54.3659H52.6507ZM37.6073 43.5766C39.389 44.1697 40.3618 45.6759 40.0858 47.414C39.8579 48.8482 38.7043 50.3036 36.8762 50.6512V51.0795C36.8762 51.5306 36.5104 51.8965 36.0592 51.8965C35.6079 51.8965 35.2421 51.5308 35.2421 51.0795V50.7149C34.3073 50.6662 33.585 50.4731 32.5255 49.8204C32.1413 49.5836 32.0216 49.0804 32.2584 48.6961C32.4951 48.3119 32.9986 48.1923 33.3826 48.4291C34.1283 48.8884 34.5801 49.0363 35.2421 49.0793V44.4467C34.5054 44.1373 33.9668 43.8443 33.5339 43.5245C32.717 42.921 32.334 41.8606 32.5347 40.7571C32.7617 39.5086 33.6555 38.5195 34.8673 38.1757C34.9947 38.1395 35.1193 38.1102 35.2421 38.0849V37.7521C35.2421 37.3009 35.6079 36.935 36.0592 36.935C36.5104 36.935 36.8762 37.3008 36.8762 37.7521V38.0256C38.1688 38.2066 38.9599 38.8779 39.0068 38.9187C39.3477 39.2146 39.3839 39.7308 39.0879 40.0714C38.7936 40.4102 38.2816 40.448 37.941 40.1575C37.9089 40.1309 37.5234 39.8226 36.8762 39.6833V43.3255C37.1214 43.4128 37.3671 43.4967 37.6073 43.5766ZM34.1424 41.0494C34.0733 41.4299 34.1321 41.9345 34.5048 42.2099C34.7123 42.3632 34.9638 42.5097 35.2421 42.65V39.7712C34.5645 39.9955 34.2293 40.5719 34.1424 41.0494ZM36.8762 48.9676C37.8156 48.6698 38.3552 47.8912 38.4718 47.1576C38.6202 46.2234 38.1042 45.4643 37.0912 45.1272C37.0302 45.1069 36.9713 45.087 36.9125 45.067L36.9123 45.0669L36.8762 45.0547V48.9676ZM32.2319 51.5218H23.7977C23.2652 50.6879 22.543 49.9684 21.7066 49.4384V39.3695C22.5352 38.8446 23.2524 38.133 23.7832 37.3092H32.2217C32.673 37.3092 33.0388 36.9433 33.0388 36.4921C33.0388 36.0408 32.673 35.6751 32.2217 35.6751H23.7647C23.2157 35.6751 22.7133 35.9486 22.4207 36.4068C22.0128 37.0456 21.4576 37.5964 20.815 37.9998C20.35 38.2918 20.0724 38.7967 20.0724 39.3508V49.4572C20.0724 50.0114 20.3499 50.5163 20.8146 50.8079C21.4633 51.2151 22.0225 51.7722 22.4316 52.4189C22.7236 52.8805 23.2274 53.156 23.7792 53.156H32.2319C32.6832 53.156 33.049 52.7902 33.049 52.339C33.049 51.8878 32.6832 51.5218 32.2319 51.5218ZM49.8904 36.4075C50.2913 37.0352 50.8348 37.5788 51.4624 37.9796C51.9211 38.2726 52.1949 38.7753 52.1949 39.324V49.4837C52.1949 50.0326 51.9213 50.5352 51.4628 50.828C50.8291 51.2327 50.2817 51.7824 49.8794 52.4181C49.5872 52.88 49.0832 53.1559 48.5314 53.1559H39.8984C39.4472 53.1559 39.0814 52.7901 39.0814 52.3389C39.0814 51.8877 39.4472 51.5218 39.8984 51.5218H48.5127C49.0362 50.7019 49.7434 49.9917 50.5607 49.4652V39.3427C49.7512 38.8211 49.0488 38.1189 48.5272 37.3092H39.879C39.4277 37.3092 39.0619 36.9434 39.0619 36.4921C39.0619 36.0409 39.4277 35.6751 39.879 35.6751H48.5459C49.0948 35.6751 49.5973 35.9488 49.8904 36.4075Z" fill="#008D3D"/>
<path d="M40.0858 47.414L40.3327 47.4532V47.4532L40.0858 47.414ZM37.6073 43.5766L37.6863 43.3394L37.6863 43.3394L37.6073 43.5766ZM36.8762 50.6512L36.8295 50.4056L36.6262 50.4442V50.6512H36.8762ZM35.2421 50.7149H35.4921V50.4776L35.2551 50.4652L35.2421 50.7149ZM32.5255 49.8204L32.3944 50.0332L32.3944 50.0332L32.5255 49.8204ZM32.2584 48.6961L32.4712 48.8272L32.2584 48.6961ZM33.3826 48.4291L33.2515 48.6419L33.2515 48.6419L33.3826 48.4291ZM35.2421 49.0793L35.2259 49.3288L35.4921 49.346V49.0793H35.2421ZM35.2421 44.4467H35.4921V44.2805L35.3389 44.2162L35.2421 44.4467ZM33.5339 43.5245L33.3854 43.7256L33.3854 43.7256L33.5339 43.5245ZM32.5347 40.7571L32.2887 40.7123L32.2887 40.7124L32.5347 40.7571ZM34.8673 38.1757L34.9355 38.4163L34.9357 38.4162L34.8673 38.1757ZM35.2421 38.0849L35.2927 38.3297L35.4921 38.2885V38.0849H35.2421ZM36.8762 38.0256H36.6262V38.243L36.8416 38.2732L36.8762 38.0256ZM39.0068 38.9187L38.8428 39.1073L38.8429 39.1074L39.0068 38.9187ZM39.0879 40.0714L38.8992 39.9075L38.8992 39.9075L39.0879 40.0714ZM37.941 40.1575L38.1033 39.9672L38.1002 39.9647L37.941 40.1575ZM36.8762 39.6833L36.9288 39.4389L36.6262 39.3738V39.6833H36.8762ZM36.8762 43.3255H36.6262V43.5019L36.7924 43.5611L36.8762 43.3255ZM34.5048 42.2099L34.3562 42.4109L34.3562 42.411L34.5048 42.2099ZM34.1424 41.0494L33.8965 41.0046L33.8965 41.0047L34.1424 41.0494ZM35.2421 42.65L35.1296 42.8732L35.4921 43.0559V42.65H35.2421ZM35.2421 39.7712H35.4921V39.4251L35.1636 39.5338L35.2421 39.7712ZM38.4718 47.1576L38.2249 47.1184V47.1184L38.4718 47.1576ZM36.8762 48.9676H36.6262V49.3091L36.9518 49.2059L36.8762 48.9676ZM37.0912 45.1272L37.0122 45.3644L37.0122 45.3644L37.0912 45.1272ZM36.9125 45.067L36.832 45.3037L36.8323 45.3038L36.9125 45.067ZM36.9123 45.0669L36.9928 44.8303L36.9926 44.8302L36.9123 45.0669ZM36.8762 45.0547L36.9565 44.818L36.6262 44.706V45.0547H36.8762ZM23.7977 51.5218L23.587 51.6564L23.6607 51.7718H23.7977V51.5218ZM21.7066 49.4384H21.4566V49.5759L21.5728 49.6496L21.7066 49.4384ZM21.7066 39.3695L21.5728 39.1583L21.4566 39.232V39.3695H21.7066ZM23.7832 37.3092V37.0592H23.6469L23.5731 37.1738L23.7832 37.3092ZM22.4207 36.4068L22.6314 36.5414L22.6314 36.5414L22.4207 36.4068ZM20.815 37.9998L20.6821 37.788L20.6821 37.7881L20.815 37.9998ZM20.8146 50.8079L20.9475 50.5962L20.9475 50.5962L20.8146 50.8079ZM22.4316 52.4189L22.6429 52.2853L22.6429 52.2852L22.4316 52.4189ZM51.4624 37.9796L51.597 37.7689L51.597 37.7689L51.4624 37.9796ZM49.8904 36.4075L50.1011 36.2729L50.1011 36.2729L49.8904 36.4075ZM51.4628 50.828L51.5974 51.0387L51.5974 51.0387L51.4628 50.828ZM49.8794 52.4181L49.6682 52.2844L49.6681 52.2844L49.8794 52.4181ZM48.5127 51.5218V51.7718H48.6497L48.7234 51.6564L48.5127 51.5218ZM50.5607 49.4652L50.6961 49.6754L50.8107 49.6016V49.4652H50.5607ZM50.5607 39.3427H50.8107V39.2063L50.6961 39.1325L50.5607 39.3427ZM48.5272 37.3092L48.7374 37.1738L48.6635 37.0592H48.5272V37.3092ZM52.6507 32.5814H19.6167V33.0814H52.6507V32.5814ZM55.2888 35.2195C55.2888 33.7646 54.1055 32.5814 52.6507 32.5814V33.0814C53.8294 33.0814 54.7888 34.0407 54.7888 35.2195H55.2888ZM55.2888 53.6119V35.2195H54.7888V53.6119H55.2888ZM52.6507 56.25C54.1055 56.25 55.2888 55.0668 55.2888 53.6119H54.7888C54.7888 54.7906 53.8294 55.75 52.6507 55.75V56.25ZM19.6167 56.25H52.6507V55.75H19.6167V56.25ZM16.9786 53.6119C16.9786 55.0668 18.1619 56.25 19.6167 56.25V55.75C18.438 55.75 17.4786 54.7906 17.4786 53.6119H16.9786ZM16.9786 35.2195V53.6119H17.4786V35.2195H16.9786ZM19.6167 32.5814C18.1619 32.5814 16.9786 33.7646 16.9786 35.2195H17.4786C17.4786 34.0407 18.438 33.0814 19.6167 33.0814V32.5814ZM53.1546 53.6119C53.1546 53.8896 52.9282 54.1159 52.6507 54.1159V54.6159C53.2044 54.6159 53.6546 54.1657 53.6546 53.6119H53.1546ZM53.1546 35.2195V53.6119H53.6546V35.2195H53.1546ZM52.6507 34.7155C52.9283 34.7155 53.1546 34.9417 53.1546 35.2195H53.6546C53.6546 34.6656 53.2045 34.2155 52.6507 34.2155V34.7155ZM19.6167 34.7155H52.6507V34.2155H19.6167V34.7155ZM19.1127 35.2195C19.1127 34.9418 19.3391 34.7155 19.6167 34.7155V34.2155C19.0629 34.2155 18.6127 34.6657 18.6127 35.2195H19.1127ZM19.1127 53.6119V35.2195H18.6127V53.6119H19.1127ZM19.6167 54.1159C19.3391 54.1159 19.1127 53.8896 19.1127 53.6119H18.6127C18.6127 54.1658 19.063 54.6159 19.6167 54.6159V54.1159ZM52.6507 54.1159H19.6167V54.6159H52.6507V54.1159ZM40.3327 47.4532C40.6298 45.5827 39.5725 43.9672 37.6863 43.3394L37.5284 43.8138C39.2056 44.3721 40.0939 45.7692 39.8389 47.3748L40.3327 47.4532ZM36.9229 50.8968C38.863 50.5279 40.0897 48.9829 40.3327 47.4532L39.8389 47.3748C39.6262 48.7135 38.5457 50.0792 36.8295 50.4056L36.9229 50.8968ZM37.1262 51.0795V50.6512H36.6262V51.0795H37.1262ZM36.0592 52.1465C36.6485 52.1465 37.1262 51.6687 37.1262 51.0795H36.6262C36.6262 51.3926 36.3724 51.6465 36.0592 51.6465V52.1465ZM34.9921 51.0795C34.9921 51.6688 35.4698 52.1465 36.0592 52.1465V51.6465C35.746 51.6465 35.4921 51.3927 35.4921 51.0795H34.9921ZM34.9921 50.7149V51.0795H35.4921V50.7149H34.9921ZM32.3944 50.0332C33.4883 50.7071 34.2511 50.9136 35.2291 50.9645L35.2551 50.4652C34.3636 50.4188 33.6817 50.239 32.6567 49.6075L32.3944 50.0332ZM32.0455 48.565C31.7363 49.0668 31.8927 49.7241 32.3944 50.0332L32.6567 49.6075C32.3899 49.4432 32.3069 49.0939 32.4712 48.8272L32.0455 48.565ZM33.5138 48.2162C33.0122 47.907 32.3547 48.0632 32.0455 48.565L32.4712 48.8272C32.6356 48.5605 32.985 48.4776 33.2515 48.6419L33.5138 48.2162ZM35.2583 48.8298C34.6448 48.79 34.232 48.6587 33.5138 48.2162L33.2515 48.6419C34.0245 49.1181 34.5153 49.2826 35.2259 49.3288L35.2583 48.8298ZM34.9921 44.4467V49.0793H35.4921V44.4467H34.9921ZM33.3854 43.7256C33.8395 44.061 34.3974 44.3631 35.1453 44.6772L35.3389 44.2162C34.6135 43.9116 34.0941 43.6275 33.6824 43.3234L33.3854 43.7256ZM32.2887 40.7124C32.0732 41.8975 32.4822 43.0584 33.3854 43.7256L33.6824 43.3234C32.9517 42.7836 32.5948 41.8237 32.7806 40.8018L32.2887 40.7124ZM34.7991 37.9352C33.4947 38.3053 32.5327 39.371 32.2887 40.7123L32.7806 40.8018C32.9908 39.6463 33.8163 38.7337 34.9355 38.4163L34.7991 37.9352ZM35.1916 37.84C35.0642 37.8663 34.9335 37.897 34.799 37.9353L34.9357 38.4162C35.056 38.382 35.1745 38.3541 35.2927 38.3297L35.1916 37.84ZM34.9921 37.7521V38.0849H35.4921V37.7521H34.9921ZM36.0592 36.685C35.4698 36.685 34.9921 37.1628 34.9921 37.7521H35.4921C35.4921 37.4389 35.746 37.185 36.0592 37.185V36.685ZM37.1262 37.7521C37.1262 37.1627 36.6485 36.685 36.0592 36.685V37.185C36.3724 37.185 36.6262 37.4389 36.6262 37.7521H37.1262ZM37.1262 38.0256V37.7521H36.6262V38.0256H37.1262ZM39.1709 38.73C39.1061 38.6737 38.2711 37.9685 36.9109 37.778L36.8416 38.2732C38.0666 38.4447 38.8137 39.082 38.8428 39.1073L39.1709 38.73ZM39.2767 40.2354C39.6632 39.7905 39.6159 39.1164 39.1707 38.7299L38.8429 39.1074C39.0795 39.3128 39.1046 39.671 38.8992 39.9075L39.2767 40.2354ZM37.7787 40.3477C38.2237 40.7272 38.8923 40.6778 39.2767 40.2354L38.8992 39.9075C38.6949 40.1427 38.3395 40.1688 38.1032 39.9673L37.7787 40.3477ZM36.8236 39.9277C37.4184 40.0557 37.768 40.3388 37.7818 40.3502L38.1002 39.9647C38.0497 39.923 37.6285 39.5895 36.9288 39.4389L36.8236 39.9277ZM37.1262 43.3255V39.6833H36.6262V43.3255H37.1262ZM37.6863 43.3394C37.4473 43.2599 37.2032 43.1765 36.96 43.09L36.7924 43.5611C37.0395 43.649 37.287 43.7335 37.5284 43.8138L37.6863 43.3394ZM34.6533 42.0088C34.3939 41.8171 34.3263 41.4359 34.3884 41.0941L33.8965 41.0047C33.8203 41.4238 33.8703 42.0519 34.3562 42.4109L34.6533 42.0088ZM35.3546 42.4267C35.0837 42.2901 34.8456 42.1508 34.6533 42.0088L34.3562 42.411C34.5791 42.5755 34.8439 42.7292 35.1296 42.8732L35.3546 42.4267ZM34.9921 39.7712V42.65H35.4921V39.7712H34.9921ZM34.3884 41.0942C34.4631 40.6838 34.7499 40.1974 35.3207 40.0085L35.1636 39.5338C34.3791 39.7935 33.9956 40.46 33.8965 41.0046L34.3884 41.0942ZM38.2249 47.1184C38.1218 47.7668 37.6422 48.4625 36.8007 48.7292L36.9518 49.2059C37.9891 48.8771 38.5886 48.0156 38.7187 47.1968L38.2249 47.1184ZM37.0122 45.3644C37.478 45.5194 37.8101 45.7647 38.0103 46.0591C38.2087 46.351 38.2899 46.709 38.2249 47.1184L38.7187 47.1968C38.8021 46.672 38.6994 46.1834 38.4237 45.7779C38.1497 45.3749 37.7173 45.0721 37.1701 44.89L37.0122 45.3644ZM36.8323 45.3038C36.891 45.3237 36.9504 45.3439 37.0122 45.3644L37.1701 44.89C37.1099 44.87 37.0517 44.8502 36.9928 44.8303L36.8323 45.3038ZM36.8317 45.3036L36.832 45.3037L36.9931 44.8304L36.9928 44.8303L36.8317 45.3036ZM36.7959 45.2915L36.832 45.3037L36.9926 44.8302L36.9565 44.818L36.7959 45.2915ZM37.1262 48.9676V45.0547H36.6262V48.9676H37.1262ZM23.7977 51.7718H32.2319V51.2718H23.7977V51.7718ZM21.5728 49.6496C22.3783 50.16 23.0742 50.8534 23.587 51.6564L24.0084 51.3873C23.4562 50.5225 22.7077 49.7768 21.8405 49.2272L21.5728 49.6496ZM21.4566 39.3695V49.4384H21.9566V39.3695H21.4566ZM23.5731 37.1738C23.062 37.967 22.3708 38.6528 21.5728 39.1583L21.8404 39.5807C22.6996 39.0363 23.4429 38.2989 23.9934 37.4446L23.5731 37.1738ZM32.2217 37.0592H23.7832V37.5592H32.2217V37.0592ZM32.7888 36.4921C32.7888 36.8052 32.5349 37.0592 32.2217 37.0592V37.5592C32.8111 37.5592 33.2888 37.0813 33.2888 36.4921H32.7888ZM32.2217 35.9251C32.5349 35.9251 32.7888 36.1789 32.7888 36.4921H33.2888C33.2888 35.9028 32.8111 35.4251 32.2217 35.4251V35.9251ZM23.7647 35.9251H32.2217V35.4251H23.7647V35.9251ZM22.6314 36.5414C22.8775 36.1559 23.3 35.9251 23.7647 35.9251V35.4251C23.1314 35.4251 22.5491 35.7412 22.21 36.2723L22.6314 36.5414ZM20.948 38.2115C21.6219 37.7885 22.2036 37.2113 22.6314 36.5414L22.21 36.2723C21.822 36.8798 21.2934 37.4043 20.6821 37.788L20.948 38.2115ZM20.3224 39.3508C20.3224 38.8818 20.5566 38.4572 20.948 38.2115L20.6821 37.7881C20.1434 38.1263 19.8224 38.7117 19.8224 39.3508H20.3224ZM20.3224 49.4572V39.3508H19.8224V49.4572H20.3224ZM20.9475 50.5962C20.5565 50.3508 20.3224 49.9264 20.3224 49.4572H19.8224C19.8224 50.0964 20.1433 50.6817 20.6817 51.0197L20.9475 50.5962ZM22.6429 52.2852C22.2138 51.607 21.6278 51.0232 20.9475 50.5962L20.6817 51.0196C21.2988 51.4071 21.8312 51.9375 22.2204 52.5526L22.6429 52.2852ZM23.7792 52.906C23.312 52.906 22.8885 52.6735 22.6429 52.2853L22.2204 52.5526C22.5587 53.0875 23.1428 53.406 23.7792 53.406V52.906ZM32.2319 52.906H23.7792V53.406H32.2319V52.906ZM32.799 52.339C32.799 52.6521 32.5451 52.906 32.2319 52.906V53.406C32.8213 53.406 33.299 52.9282 33.299 52.339H32.799ZM32.2319 51.7718C32.5451 51.7718 32.799 52.0258 32.799 52.339H33.299C33.299 51.7498 32.8214 51.2718 32.2319 51.2718V51.7718ZM51.597 37.7689C51 37.3877 50.4824 36.8701 50.1011 36.2729L49.6797 36.542C50.1001 37.2004 50.6697 37.7699 51.3278 38.1903L51.597 37.7689ZM52.4449 39.324C52.4449 38.6908 52.1283 38.1084 51.597 37.7689L51.3278 38.1903C51.7139 38.4369 51.9449 38.8597 51.9449 39.324H52.4449ZM52.4449 49.4837V39.324H51.9449V49.4837H52.4449ZM51.5974 51.0387C52.1286 50.6994 52.4449 50.117 52.4449 49.4837H51.9449C51.9449 49.9483 51.714 50.3709 51.3283 50.6173L51.5974 51.0387ZM50.0907 52.5518C50.4734 51.9471 50.9946 51.4236 51.5974 51.0387L51.3283 50.6173C50.6637 51.0417 50.0901 51.6178 49.6682 52.2844L50.0907 52.5518ZM48.5314 53.4059C49.168 53.4059 49.7522 53.0869 50.0907 52.5517L49.6681 52.2844C49.4223 52.6731 48.9985 52.9059 48.5314 52.9059V53.4059ZM39.8984 53.4059H48.5314V52.9059H39.8984V53.4059ZM38.8314 52.3389C38.8314 52.9281 39.3091 53.4059 39.8984 53.4059V52.9059C39.5852 52.9059 39.3314 52.652 39.3314 52.3389H38.8314ZM39.8984 51.2718C39.3091 51.2718 38.8314 51.7497 38.8314 52.3389H39.3314C39.3314 52.0258 39.5852 51.7718 39.8984 51.7718V51.2718ZM48.5127 51.2718H39.8984V51.7718H48.5127V51.2718ZM50.4253 49.2551C49.5778 49.8011 48.8448 50.537 48.302 51.3873L48.7234 51.6564C49.2275 50.8667 49.9091 50.1824 50.6961 49.6754L50.4253 49.2551ZM50.3107 39.3427V49.4652H50.8107V39.3427H50.3107ZM48.317 37.4446C48.858 38.2843 49.5858 39.012 50.4253 39.5528L50.6961 39.1325C49.9165 38.6303 49.2397 37.9535 48.7374 37.1738L48.317 37.4446ZM39.879 37.5592H48.5272V37.0592H39.879V37.5592ZM38.8119 36.4921C38.8119 37.0815 39.2896 37.5592 39.879 37.5592V37.0592C39.5658 37.0592 39.3119 36.8053 39.3119 36.4921H38.8119ZM39.879 35.4251C39.2896 35.4251 38.8119 35.9029 38.8119 36.4921H39.3119C39.3119 36.179 39.5658 35.9251 39.879 35.9251V35.4251ZM48.5459 35.4251H39.879V35.9251H48.5459V35.4251ZM50.1011 36.2729C49.7616 35.7415 49.1792 35.4251 48.5459 35.4251V35.9251C49.0104 35.9251 49.4331 36.156 49.6797 36.5421L50.1011 36.2729Z" fill="#008D3D" mask="url(#path-2-outside-1_17_8)"/>
<mask id="path-4-outside-2_17_8" maskUnits="userSpaceOnUse" x="0" y="0" width="52" height="49" fill="black">
<rect fill="white" width="52" height="49"/>
<path fill-rule="evenodd" clip-rule="evenodd" d="M2.63421 26.1923C2.63421 34.8318 7.354 42.7663 14.9518 46.8992C15.3483 47.1149 15.4949 47.611 15.2793 48.0074C15.064 48.4031 14.5681 48.5506 14.171 48.3347C6.04689 43.9155 1 35.431 1 26.1923C1 12.2674 12.2694 1 26.1923 1C40.1174 1 51.3846 12.2693 51.3846 26.1921C51.3846 27.5593 51.2737 28.9319 51.0549 30.272C50.9823 30.7173 50.5636 31.0197 50.1168 30.9467C49.6715 30.874 49.3695 30.4541 49.4421 30.0087C49.6467 28.7555 49.7505 27.4714 49.7505 26.1923C49.7505 13.1706 39.2122 2.6341 26.1924 2.6341C13.1707 2.6341 2.63421 13.1724 2.63421 26.1923ZM15.0685 41.9605C14.388 41.4796 13.7452 40.9573 13.14 40.4003L14.0916 39.4487C14.4108 39.1296 14.4108 38.6122 14.0916 38.2931C13.7726 37.9741 13.2551 37.9741 12.9361 38.2931L11.9847 39.2444C8.93021 35.914 7.11005 31.5823 6.9154 27.0094H8.26226C8.71354 27.0094 9.07931 26.6435 9.07931 26.1924C9.07931 25.7411 8.71343 25.3753 8.26226 25.3753H6.91433C7.11134 20.67 9.00078 16.3951 11.989 13.1447L12.936 14.0916C13.0955 14.2511 13.3046 14.3309 13.5137 14.3309C13.7227 14.3309 13.9319 14.2511 14.0914 14.0916C14.4105 13.7726 14.4105 13.2551 14.0914 12.9361L13.1445 11.9892C16.3948 9.00078 20.6698 7.11145 25.3751 6.91433V8.26215C25.3751 8.71343 25.741 9.0792 26.1922 9.0792C26.6433 9.0792 27.0092 8.71332 27.0092 8.26215V6.91433C31.7145 7.11134 35.9895 9.00078 39.2398 11.9892L38.2928 12.9361C37.9737 13.2551 37.9737 13.7726 38.2928 14.0916C38.612 14.4108 39.1292 14.4107 39.4484 14.0916L40.3954 13.1447C43.3836 16.3951 45.2731 20.67 45.4701 25.3753H44.1223C43.671 25.3753 43.3052 25.7412 43.3052 26.1924C43.3052 26.6436 43.671 27.0094 44.1223 27.0094H45.4703C45.4281 28.0174 45.3089 29.0206 45.1125 30.0017C45.0237 30.4441 45.3106 30.8747 45.753 30.9634C46.1963 31.0523 46.626 30.7652 46.7147 30.3227C46.9855 28.9713 47.1228 27.5817 47.1228 26.1923C47.1228 14.6511 37.7332 5.26154 26.192 5.26154C14.6508 5.26154 5.26132 14.6511 5.26132 26.1923C5.26132 32.9791 8.57485 39.3726 14.125 43.295C14.4937 43.5555 15.0036 43.4676 15.2639 43.0993C15.5246 42.7308 15.4371 42.2209 15.0685 41.9605ZM26.1923 12.1573C25.741 12.1573 25.3752 12.5231 25.3752 12.9743V23.2404C24.0816 23.599 23.129 24.7861 23.129 26.1923C23.129 27.8814 24.5033 29.2556 26.1924 29.2556C27.5988 29.2556 28.7862 28.3026 29.1444 27.0086L34.6985 27.0069C35.1497 27.0068 35.5154 26.6409 35.5153 26.1897C35.5152 25.7385 35.1494 25.3728 34.6982 25.3728H34.698L29.1439 25.3745C28.8573 24.3416 28.0424 23.5268 27.0094 23.2405V12.9743C27.0094 12.5231 26.6435 12.1573 26.1923 12.1573ZM27.6215 26.1924C27.6215 26.9804 26.9804 27.6215 26.1923 27.6215C25.4042 27.6215 24.7631 26.9804 24.7631 26.1924C24.7631 25.4043 25.4042 24.7631 26.1923 24.7631C26.9804 24.7631 27.6215 25.4042 27.6215 26.1924Z"/>
</mask>
<path fill-rule="evenodd" clip-rule="evenodd" d="M2.63421 26.1923C2.63421 34.8318 7.354 42.7663 14.9518 46.8992C15.3483 47.1149 15.4949 47.611 15.2793 48.0074C15.064 48.4031 14.5681 48.5506 14.171 48.3347C6.04689 43.9155 1 35.431 1 26.1923C1 12.2674 12.2694 1 26.1923 1C40.1174 1 51.3846 12.2693 51.3846 26.1921C51.3846 27.5593 51.2737 28.9319 51.0549 30.272C50.9823 30.7173 50.5636 31.0197 50.1168 30.9467C49.6715 30.874 49.3695 30.4541 49.4421 30.0087C49.6467 28.7555 49.7505 27.4714 49.7505 26.1923C49.7505 13.1706 39.2122 2.6341 26.1924 2.6341C13.1707 2.6341 2.63421 13.1724 2.63421 26.1923ZM15.0685 41.9605C14.388 41.4796 13.7452 40.9573 13.14 40.4003L14.0916 39.4487C14.4108 39.1296 14.4108 38.6122 14.0916 38.2931C13.7726 37.9741 13.2551 37.9741 12.9361 38.2931L11.9847 39.2444C8.93021 35.914 7.11005 31.5823 6.9154 27.0094H8.26226C8.71354 27.0094 9.07931 26.6435 9.07931 26.1924C9.07931 25.7411 8.71343 25.3753 8.26226 25.3753H6.91433C7.11134 20.67 9.00078 16.3951 11.989 13.1447L12.936 14.0916C13.0955 14.2511 13.3046 14.3309 13.5137 14.3309C13.7227 14.3309 13.9319 14.2511 14.0914 14.0916C14.4105 13.7726 14.4105 13.2551 14.0914 12.9361L13.1445 11.9892C16.3948 9.00078 20.6698 7.11145 25.3751 6.91433V8.26215C25.3751 8.71343 25.741 9.0792 26.1922 9.0792C26.6433 9.0792 27.0092 8.71332 27.0092 8.26215V6.91433C31.7145 7.11134 35.9895 9.00078 39.2398 11.9892L38.2928 12.9361C37.9737 13.2551 37.9737 13.7726 38.2928 14.0916C38.612 14.4108 39.1292 14.4107 39.4484 14.0916L40.3954 13.1447C43.3836 16.3951 45.2731 20.67 45.4701 25.3753H44.1223C43.671 25.3753 43.3052 25.7412 43.3052 26.1924C43.3052 26.6436 43.671 27.0094 44.1223 27.0094H45.4703C45.4281 28.0174 45.3089 29.0206 45.1125 30.0017C45.0237 30.4441 45.3106 30.8747 45.753 30.9634C46.1963 31.0523 46.626 30.7652 46.7147 30.3227C46.9855 28.9713 47.1228 27.5817 47.1228 26.1923C47.1228 14.6511 37.7332 5.26154 26.192 5.26154C14.6508 5.26154 5.26132 14.6511 5.26132 26.1923C5.26132 32.9791 8.57485 39.3726 14.125 43.295C14.4937 43.5555 15.0036 43.4676 15.2639 43.0993C15.5246 42.7308 15.4371 42.2209 15.0685 41.9605ZM26.1923 12.1573C25.741 12.1573 25.3752 12.5231 25.3752 12.9743V23.2404C24.0816 23.599 23.129 24.7861 23.129 26.1923C23.129 27.8814 24.5033 29.2556 26.1924 29.2556C27.5988 29.2556 28.7862 28.3026 29.1444 27.0086L34.6985 27.0069C35.1497 27.0068 35.5154 26.6409 35.5153 26.1897C35.5152 25.7385 35.1494 25.3728 34.6982 25.3728H34.698L29.1439 25.3745C28.8573 24.3416 28.0424 23.5268 27.0094 23.2405V12.9743C27.0094 12.5231 26.6435 12.1573 26.1923 12.1573ZM27.6215 26.1924C27.6215 26.9804 26.9804 27.6215 26.1923 27.6215C25.4042 27.6215 24.7631 26.9804 24.7631 26.1924C24.7631 25.4043 25.4042 24.7631 26.1923 24.7631C26.9804 24.7631 27.6215 25.4042 27.6215 26.1924Z" fill="#2C2C2C"/>
<path d="M14.9518 46.8992L15.0713 46.6796L15.0713 46.6796L14.9518 46.8992ZM15.2793 48.0074L15.4989 48.1268L15.4989 48.1268L15.2793 48.0074ZM14.171 48.3347L14.0515 48.5543L14.0516 48.5543L14.171 48.3347ZM51.0549 30.272L50.8082 30.2318L50.8082 30.2318L51.0549 30.272ZM50.1168 30.9467L50.0765 31.1935H50.0765L50.1168 30.9467ZM49.4421 30.0087L49.1954 29.9685L49.1954 29.9685L49.4421 30.0087ZM13.14 40.4003L12.9632 40.2235L12.7789 40.4078L12.9707 40.5843L13.14 40.4003ZM15.0685 41.9605L14.9242 42.1647L14.9243 42.1647L15.0685 41.9605ZM14.0916 39.4487L13.9149 39.2718L13.9148 39.2719L14.0916 39.4487ZM14.0916 38.2931L13.9148 38.4699L13.9149 38.4699L14.0916 38.2931ZM12.9361 38.2931L13.1129 38.4699H13.1129L12.9361 38.2931ZM11.9847 39.2444L11.8005 39.4134L11.9769 39.6058L12.1615 39.4212L11.9847 39.2444ZM6.9154 27.0094V26.7594H6.65453L6.66563 27.02L6.9154 27.0094ZM6.91433 25.3753L6.66455 25.3649L6.65364 25.6253H6.91433V25.3753ZM11.989 13.1447L12.1658 12.9679L11.9815 12.7836L11.805 12.9755L11.989 13.1447ZM12.936 14.0916L12.7592 14.2684H12.7592L12.936 14.0916ZM14.0914 14.0916L13.9146 13.9148L13.9146 13.9148L14.0914 14.0916ZM14.0914 12.9361L13.9146 13.1129L13.9146 13.1129L14.0914 12.9361ZM13.1445 11.9892L12.9753 11.8051L12.7833 11.9816L12.9677 12.1659L13.1445 11.9892ZM25.3751 6.91433H25.6251V6.65364L25.3646 6.66455L25.3751 6.91433ZM27.0092 6.91433L27.0197 6.66455L26.7592 6.65364V6.91433H27.0092ZM39.2398 11.9892L39.4166 12.1659L39.601 11.9816L39.409 11.8051L39.2398 11.9892ZM38.2928 12.9361L38.116 12.7593L38.116 12.7593L38.2928 12.9361ZM38.2928 14.0916L38.116 14.2684L38.116 14.2684L38.2928 14.0916ZM39.4484 14.0916L39.6252 14.2685L39.6252 14.2684L39.4484 14.0916ZM40.3954 13.1447L40.5794 12.9755L40.4029 12.7836L40.2186 12.9679L40.3954 13.1447ZM45.4701 25.3753V25.6253H45.7308L45.7199 25.3649L45.4701 25.3753ZM45.4703 27.0094L45.7201 27.0199L45.731 26.7594H45.4703V27.0094ZM45.1125 30.0017L45.3576 30.0508L45.3576 30.0507L45.1125 30.0017ZM45.753 30.9634L45.8022 30.7183L45.8022 30.7183L45.753 30.9634ZM46.7147 30.3227L46.4695 30.2736L46.4695 30.2736L46.7147 30.3227ZM14.125 43.295L13.9807 43.4992L13.9808 43.4992L14.125 43.295ZM15.2639 43.0993L15.0598 42.9549L15.0597 42.955L15.2639 43.0993ZM25.3752 23.2404L25.442 23.4813L25.6252 23.4305V23.2404H25.3752ZM29.1444 27.0086L29.1443 26.7586L28.9542 26.7586L28.9035 26.9419L29.1444 27.0086ZM34.6985 27.0069L34.6984 26.7569H34.6984L34.6985 27.0069ZM34.698 25.3728V25.1228H34.698L34.698 25.3728ZM29.1439 25.3745L28.903 25.4413L28.9538 25.6245L29.144 25.6245L29.1439 25.3745ZM27.0094 23.2405H26.7594V23.4307L26.9426 23.4814L27.0094 23.2405ZM15.0713 46.6796C7.55381 42.5904 2.88421 34.7401 2.88421 26.1923H2.38421C2.38421 34.9235 7.1542 42.9422 14.8324 47.1188L15.0713 46.6796ZM15.4989 48.1268C15.7805 47.6091 15.5891 46.9613 15.0713 46.6796L14.8324 47.1188C15.1076 47.2686 15.2093 47.6129 15.0597 47.8879L15.4989 48.1268ZM14.0516 48.5543C14.5702 48.8363 15.2177 48.6437 15.4989 48.1268L15.0597 47.8879C14.9102 48.1626 14.5661 48.2649 14.2904 48.1151L14.0516 48.5543ZM0.75 26.1923C0.75 35.5227 5.84708 44.0914 14.0515 48.5543L14.2905 48.1151C6.24671 43.7396 1.25 35.3393 1.25 26.1923H0.75ZM26.1923 0.75C12.1314 0.75 0.75 12.1293 0.75 26.1923H1.25C1.25 12.4055 12.4075 1.25 26.1923 1.25V0.75ZM51.6346 26.1921C51.6346 12.1312 40.2554 0.75 26.1923 0.75V1.25C39.9793 1.25 51.1346 12.4074 51.1346 26.1921H51.6346ZM51.3017 30.3123C51.5226 28.9588 51.6346 27.5727 51.6346 26.1921H51.1346C51.1346 27.5459 51.0247 28.9051 50.8082 30.2318L51.3017 30.3123ZM50.0765 31.1935C50.6598 31.2887 51.2069 30.8936 51.3017 30.3123L50.8082 30.2318C50.7578 30.541 50.4674 30.7507 50.1571 30.7L50.0765 31.1935ZM49.1954 29.9685C49.1005 30.5501 49.4949 31.0985 50.0765 31.1935L50.1571 30.7C49.848 30.6495 49.6384 30.3582 49.6889 30.049L49.1954 29.9685ZM49.5005 26.1923C49.5005 27.458 49.3978 28.7286 49.1954 29.9685L49.6888 30.049C49.8957 28.7823 50.0005 27.4848 50.0005 26.1923H49.5005ZM26.1924 2.8841C39.0742 2.8841 49.5005 13.3087 49.5005 26.1923H50.0005C50.0005 13.0325 39.3503 2.3841 26.1924 2.3841V2.8841ZM2.88421 26.1923C2.88421 13.3105 13.3088 2.8841 26.1924 2.8841V2.3841C13.0326 2.3841 2.38421 13.0343 2.38421 26.1923H2.88421ZM12.9707 40.5843C13.5835 41.1482 14.2346 41.6773 14.9242 42.1647L15.2128 41.7563C14.5413 41.2818 13.9069 40.7663 13.3093 40.2164L12.9707 40.5843ZM13.9148 39.2719L12.9632 40.2235L13.3167 40.5771L14.2684 39.6254L13.9148 39.2719ZM13.9149 38.4699C14.1363 38.6913 14.1363 39.0504 13.9149 39.2718L14.2684 39.6255C14.6852 39.2088 14.6852 38.533 14.2684 38.1163L13.9149 38.4699ZM13.1129 38.4699C13.3343 38.2485 13.6934 38.2485 13.9148 38.4699L14.2684 38.1163C13.8517 37.6997 13.176 37.6997 12.7593 38.1163L13.1129 38.4699ZM12.1615 39.4212L13.1129 38.4699L12.7593 38.1163L11.808 39.0677L12.1615 39.4212ZM6.66563 27.02C6.86281 31.6524 8.70656 36.0401 11.8005 39.4134L12.169 39.0755C9.15385 35.788 7.35729 31.5122 7.16517 26.9988L6.66563 27.02ZM8.26226 26.7594H6.9154V27.2594H8.26226V26.7594ZM8.82931 26.1924C8.82931 26.5055 8.57544 26.7594 8.26226 26.7594V27.2594C8.85163 27.2594 9.32931 26.7816 9.32931 26.1924H8.82931ZM8.26226 25.6253C8.57538 25.6253 8.82931 25.8792 8.82931 26.1924H9.32931C9.32931 25.603 8.85148 25.1253 8.26226 25.1253V25.6253ZM6.91433 25.6253H8.26226V25.1253H6.91433V25.6253ZM11.805 12.9755C8.77837 16.2676 6.86413 20.5982 6.66455 25.3649L7.16411 25.3858C7.35855 20.7418 9.22319 16.5225 12.1731 13.3139L11.805 12.9755ZM13.1127 13.9148L12.1658 12.9679L11.8123 13.3215L12.7592 14.2684L13.1127 13.9148ZM13.5137 14.0809C13.3683 14.0809 13.2235 14.0256 13.1127 13.9148L12.7592 14.2684C12.9675 14.4767 13.241 14.5809 13.5137 14.5809V14.0809ZM13.9146 13.9148C13.8038 14.0256 13.6591 14.0809 13.5137 14.0809V14.5809C13.7863 14.5809 14.0599 14.4767 14.2682 14.2684L13.9146 13.9148ZM13.9146 13.1129C14.1361 13.3343 14.1361 13.6934 13.9146 13.9148L14.2681 14.2684C14.685 13.8517 14.685 13.176 14.2681 12.7593L13.9146 13.1129ZM12.9677 12.1659L13.9146 13.1129L14.2682 12.7593L13.3212 11.8124L12.9677 12.1659ZM25.3646 6.66455C20.598 6.86424 16.2674 8.77837 12.9753 11.8051L13.3137 12.1732C16.5223 9.2232 20.7416 7.35866 25.3856 7.16411L25.3646 6.66455ZM25.6251 8.26215V6.91433H25.1251V8.26215H25.6251ZM26.1922 8.8292C25.879 8.8292 25.6251 8.57534 25.6251 8.26215H25.1251C25.1251 8.85152 25.6029 9.3292 26.1922 9.3292V8.8292ZM26.7592 8.26215C26.7592 8.57525 26.5052 8.8292 26.1922 8.8292V9.3292C26.7814 9.3292 27.2592 8.85139 27.2592 8.26215H26.7592ZM26.7592 6.91433V8.26215H27.2592V6.91433H26.7592ZM39.409 11.8051C36.1169 8.77837 31.7863 6.86413 27.0197 6.66455L26.9987 7.16411C31.6427 7.35855 35.862 9.2232 39.0706 12.1732L39.409 11.8051ZM38.4696 13.1129L39.4166 12.1659L39.0631 11.8124L38.116 12.7593L38.4696 13.1129ZM38.4696 13.9148C38.2482 13.6934 38.2482 13.3343 38.4696 13.1129L38.116 12.7593C37.6993 13.176 37.6993 13.8517 38.116 14.2684L38.4696 13.9148ZM39.2717 13.9148C39.05 14.1363 38.6911 14.1363 38.4695 13.9148L38.116 14.2684C38.533 14.6852 39.2083 14.685 39.6252 14.2685L39.2717 13.9148ZM40.2186 12.9679L39.2717 13.9148L39.6252 14.2684L40.5721 13.3215L40.2186 12.9679ZM45.7199 25.3649C45.5203 20.5982 43.606 16.2676 40.5794 12.9755L40.2113 13.3139C43.1612 16.5225 45.0259 20.7418 45.2203 25.3858L45.7199 25.3649ZM44.1223 25.6253H45.4701V25.1253H44.1223V25.6253ZM43.5552 26.1924C43.5552 25.8792 43.8091 25.6253 44.1223 25.6253V25.1253C43.5329 25.1253 43.0552 25.6031 43.0552 26.1924H43.5552ZM44.1223 26.7594C43.809 26.7594 43.5552 26.5056 43.5552 26.1924H43.0552C43.0552 26.7817 43.5329 27.2594 44.1223 27.2594V26.7594ZM45.4703 26.7594H44.1223V27.2594H45.4703V26.7594ZM45.3576 30.0507C45.5567 29.0566 45.6773 28.0405 45.7201 27.0199L45.2205 26.999C45.1788 27.9942 45.0612 28.9845 44.8673 29.9526L45.3576 30.0507ZM45.8022 30.7183C45.495 30.6567 45.296 30.3579 45.3576 30.0508L44.8674 29.9525C44.7515 30.5304 45.1261 31.0927 45.7039 31.2085L45.8022 30.7183ZM46.4695 30.2736C46.408 30.5809 46.1098 30.78 45.8022 30.7183L45.7038 31.2085C46.2827 31.3247 46.8441 30.9495 46.9598 30.3718L46.4695 30.2736ZM46.8728 26.1923C46.8728 27.5653 46.7371 28.9384 46.4695 30.2736L46.9598 30.3719C47.2339 29.0041 47.3728 27.598 47.3728 26.1923H46.8728ZM26.192 5.51154C37.5952 5.51154 46.8728 14.7891 46.8728 26.1923H47.3728C47.3728 14.513 37.8713 5.01154 26.192 5.01154V5.51154ZM5.51132 26.1923C5.51132 14.7891 14.7889 5.51154 26.192 5.51154V5.01154C14.5128 5.01154 5.01132 14.513 5.01132 26.1923H5.51132ZM14.2693 43.0908C8.78532 39.2152 5.51132 32.8977 5.51132 26.1923H5.01132C5.01132 33.0604 8.36438 39.53 13.9807 43.4992L14.2693 43.0908ZM15.0597 42.955C14.8791 43.2106 14.5252 43.2716 14.2693 43.0908L13.9808 43.4992C14.4622 43.8394 15.1281 43.7246 15.4681 43.2436L15.0597 42.955ZM14.9243 42.1647C15.18 42.3454 15.2407 42.6992 15.0598 42.9549L15.468 43.2437C15.8085 42.7625 15.6941 42.0964 15.2128 41.7563L14.9243 42.1647ZM25.6252 12.9743C25.6252 12.6612 25.8791 12.4073 26.1923 12.4073V11.9073C25.6029 11.9073 25.1252 12.3851 25.1252 12.9743H25.6252ZM25.6252 23.2404V12.9743H25.1252V23.2404H25.6252ZM23.379 26.1923C23.379 24.9017 24.2535 23.8108 25.442 23.4813L25.3084 22.9995C23.9097 23.3872 22.879 24.6705 22.879 26.1923H23.379ZM26.1924 29.0056C24.6413 29.0056 23.379 27.7433 23.379 26.1923H22.879C22.879 28.0194 24.3652 29.5056 26.1924 29.5056V29.0056ZM28.9035 26.9419C28.5743 28.1307 27.4832 29.0056 26.1924 29.0056V29.5056C27.7144 29.5056 28.998 28.4744 29.3854 27.0753L28.9035 26.9419ZM34.6984 26.7569L29.1443 26.7586L29.1445 27.2586L34.6985 27.2569L34.6984 26.7569ZM35.2653 26.1897C35.2654 26.5029 35.0116 26.7569 34.6984 26.7569L34.6985 27.2569C35.2879 27.2568 35.7654 26.7788 35.7653 26.1896L35.2653 26.1897ZM34.6982 25.6228C35.0114 25.6228 35.2652 25.8766 35.2653 26.1897L35.7653 26.1896C35.7651 25.6004 35.2874 25.1228 34.6982 25.1228V25.6228ZM34.698 25.6228H34.6982V25.1228H34.698V25.6228ZM29.144 25.6245L34.6981 25.6228L34.698 25.1228L29.1438 25.1245L29.144 25.6245ZM26.9426 23.4814C27.891 23.7443 28.6398 24.493 28.903 25.4413L29.3848 25.3076C29.0747 24.1902 28.1937 23.3093 27.0762 22.9996L26.9426 23.4814ZM26.7594 12.9743V23.2405H27.2594V12.9743H26.7594ZM26.1923 12.4073C26.5055 12.4073 26.7594 12.6612 26.7594 12.9743H27.2594C27.2594 12.3851 26.7816 11.9073 26.1923 11.9073V12.4073ZM26.1923 27.8715C27.1185 27.8715 27.8715 27.1185 27.8715 26.1924H27.3715C27.3715 26.8423 26.8423 27.3715 26.1923 27.3715V27.8715ZM24.5131 26.1924C24.5131 27.1185 25.2661 27.8715 26.1923 27.8715V27.3715C25.5423 27.3715 25.0131 26.8423 25.0131 26.1924H24.5131ZM26.1923 24.5131C25.2661 24.5131 24.5131 25.2663 24.5131 26.1924H25.0131C25.0131 25.5424 25.5423 25.0131 26.1923 25.0131V24.5131ZM27.8715 26.1924C27.8715 25.2661 27.1185 24.5131 26.1923 24.5131V25.0131C26.8423 25.0131 27.3715 25.5423 27.3715 26.1924H27.8715Z" fill="#2C2C2C" mask="url(#path-4-outside-2_17_8)"/>
</svg>
