<svg width="50" height="52" viewBox="0 0 50 52" fill="none" xmlns="http://www.w3.org/2000/svg">
<rect y="1" width="50" height="50" fill="white"/>
<mask id="path-2-outside-1_17_16" maskUnits="userSpaceOnUse" x="1" y="0" width="47" height="52" fill="black">
<rect fill="white" x="1" width="47" height="52"/>
<path fill-rule="evenodd" clip-rule="evenodd" d="M44.7504 17.8731C45.5278 17.8731 46.2585 17.5702 46.8081 17.0206C47.3578 16.471 47.6605 15.7402 47.6605 14.9629C47.6605 14.1856 47.3577 13.4548 46.8081 12.9051L42.8087 8.90567C42.2589 8.35605 41.5282 8.05321 40.7509 8.05321C39.9735 8.05321 39.2427 8.35605 38.6932 8.90567C38.1435 9.45529 37.8408 10.1861 37.8408 10.9634C37.8408 11.659 38.0839 12.3169 38.5288 12.8416L36.7196 14.6507C34.3605 12.9151 31.6711 11.7283 28.8099 11.1573V8.03143H28.9808C30.9194 8.03143 32.4965 6.45434 32.4965 4.51571C32.4965 2.57709 30.9194 1 28.9808 1H20.6798C18.7411 1 17.1641 2.57709 17.1641 4.51571C17.1641 6.45434 18.7411 8.03143 20.6798 8.03143H20.8507V11.1573C17.9895 11.7284 15.3001 12.9151 12.9409 14.6507L11.1318 12.8416C11.5767 12.3169 11.8197 11.659 11.8197 10.9634C11.8197 10.1861 11.5169 9.45529 10.9673 8.90567C10.4177 8.35605 9.68691 8.05321 8.90955 8.05321C8.13228 8.05321 7.4015 8.35605 6.85178 8.90567L2.85237 12.9051C2.30274 13.4548 2 14.1856 2 14.9629C2 15.7402 2.30274 16.471 2.85237 17.0206C3.40199 17.5702 4.13277 17.8731 4.91013 17.8731C5.60576 17.8731 6.26368 17.6299 6.78831 17.1851L8.5987 18.9955C2.83069 26.861 3.49935 38.0033 10.6049 45.1089C13.8344 48.3384 18.1085 50.3888 22.64 50.8823C23.3627 50.9611 24.0874 51 24.8108 51C28.5552 51 32.2626 49.9564 35.4399 47.9811C35.8979 47.6964 36.0385 47.0941 35.7537 46.6361C35.4691 46.1782 34.8669 46.0376 34.4087 46.3224C27.2099 50.7977 17.9892 49.7309 11.986 43.7278C4.90369 36.6454 4.90369 25.1217 11.9861 18.0394C15.4168 14.6085 19.9784 12.719 24.8303 12.719C29.6821 12.719 34.2437 14.6085 37.6744 18.0394C43.6776 24.0426 44.7445 33.2631 40.2691 40.4621C39.9844 40.9202 40.1248 41.5223 40.5829 41.807C41.0409 42.092 41.6431 41.9513 41.9278 41.4932C44.2848 37.702 45.3152 33.1562 44.8289 28.6933C44.4469 25.1857 43.1313 21.8326 41.0588 18.9984L42.8721 17.1852C43.3969 17.63 44.0549 17.8731 44.7504 17.8731ZM40.0743 10.2868C40.2551 10.106 40.4954 10.0065 40.751 10.0065C41.0066 10.0065 41.2469 10.1061 41.4277 10.2869L45.4271 14.2863C45.6079 14.467 45.7075 14.7074 45.7075 14.963C45.7075 15.2185 45.6078 15.4589 45.4271 15.6397C45.2463 15.8205 45.006 15.92 44.7504 15.92C44.4948 15.92 44.2545 15.8204 44.0737 15.6396L40.0743 11.6402C39.8934 11.4594 39.7939 11.2191 39.7939 10.9635C39.7939 10.708 39.8935 10.4675 40.0743 10.2868ZM19.1172 4.51571C19.1172 3.65417 19.8182 2.95317 20.6798 2.95317H28.9808C29.8423 2.95317 30.5433 3.65417 30.5433 4.51571C30.5433 5.37726 29.8423 6.07825 28.9808 6.07825H20.6798C19.8182 6.07825 19.1172 5.37726 19.1172 4.51571ZM4.91023 15.9199C4.65466 15.9199 4.41432 15.8203 4.23355 15.6395C4.05279 15.4588 3.95327 15.2184 3.95327 14.9629C3.95327 14.7073 4.05288 14.4669 4.23365 14.2862L8.23307 10.2868C8.41384 10.1059 8.65417 10.0064 8.90975 10.0064C9.16532 10.0064 9.40566 10.106 9.58642 10.2868C9.76719 10.4675 9.8667 10.7079 9.8667 10.9634C9.8667 11.219 9.76709 11.4593 9.58633 11.6401L5.58691 15.6395C5.40614 15.8204 5.1658 15.9199 4.91023 15.9199ZM8.17711 15.8116L9.7583 14.2304L11.4177 15.8898C11.1411 16.1379 10.0841 17.1949 9.83672 17.4711L8.17711 15.8116ZM22.8038 10.8664V8.03143H26.8567V10.8664C26.1876 10.7999 25.5115 10.7659 24.8303 10.7659C24.149 10.7659 23.4729 10.7999 22.8038 10.8664ZM39.8233 17.4717C39.5752 17.1941 38.5195 16.1379 38.2429 15.8898L39.9023 14.2304L41.4835 15.8116L39.8233 17.4717ZM24.8303 15.4536C16.3221 15.4536 9.40024 22.3755 9.40024 30.8836C9.40024 39.3918 16.3221 46.3137 24.8303 46.3137C33.3384 46.3137 40.2604 39.3918 40.2604 30.8836C40.2604 22.3755 33.3385 15.4536 24.8303 15.4536ZM24.8303 44.3606C17.3992 44.3606 11.3534 38.3149 11.3534 30.8836C11.3534 23.4524 17.3992 17.4067 24.8303 17.4067C32.2616 17.4067 38.3072 23.4524 38.3072 30.8836C38.3072 38.3149 32.2616 44.3606 24.8303 44.3606ZM24.843 21.7036C25.0999 21.7036 25.3508 21.5991 25.5334 21.4173C25.715 21.2358 25.8196 20.9838 25.8196 20.727C25.8196 20.4702 25.7151 20.2182 25.5334 20.0366C25.3518 19.8549 25.0999 19.7504 24.843 19.7504C24.5852 19.7504 24.3342 19.8548 24.1526 20.0366C23.9709 20.2182 23.8665 20.4702 23.8665 20.727C23.8665 20.9838 23.9709 21.2358 24.1526 21.4173C24.3342 21.5991 24.5862 21.7036 24.843 21.7036ZM24.1516 40.3497C24.3342 40.168 24.5862 40.0636 24.843 40.0636C25.0999 40.0636 25.3518 40.168 25.5334 40.3497C25.7151 40.5314 25.8196 40.7833 25.8196 41.0402C25.8196 41.297 25.715 41.549 25.5334 41.7305C25.3518 41.9122 25.0999 42.0167 24.843 42.0167C24.5862 42.0167 24.3342 41.9121 24.1516 41.7305C23.97 41.549 23.8665 41.297 23.8665 41.0402C23.8665 40.7833 23.97 40.5314 24.1516 40.3497ZM35.69 30.193C35.5084 30.0114 35.2564 29.9069 34.9996 29.9069C34.7418 29.9069 34.4898 30.0113 34.3092 30.193C34.1266 30.3747 34.023 30.6257 34.023 30.8835C34.023 31.1413 34.1266 31.3923 34.3092 31.5738C34.4908 31.7555 34.7419 31.86 34.9996 31.86C35.2564 31.86 35.5084 31.7555 35.69 31.5738C35.8716 31.3923 35.9762 31.1403 35.9762 30.8835C35.9762 30.6266 35.8716 30.3747 35.69 30.193ZM13.9961 30.193C14.1777 30.0113 14.4287 29.9069 14.6865 29.9069C14.9433 29.9069 15.1953 30.0113 15.3769 30.193C15.5586 30.3747 15.6631 30.6266 15.6631 30.8835C15.6631 31.1403 15.5586 31.3923 15.3769 31.5738C15.1943 31.7555 14.9433 31.86 14.6865 31.86C14.4297 31.86 14.1777 31.7555 13.9961 31.5738C13.8134 31.3923 13.7099 31.1403 13.7099 30.8835C13.7099 30.6266 13.8134 30.3747 13.9961 30.193ZM17.6612 37.0889C17.4043 37.0889 17.1524 37.1933 16.9707 37.375C16.7881 37.5566 16.6846 37.8086 16.6846 38.0654C16.6846 38.3223 16.7881 38.5742 16.9707 38.7558C17.1524 38.9374 17.4043 39.042 17.6612 39.042C17.918 39.042 18.17 38.9375 18.3516 38.7558C18.5332 38.5742 18.6377 38.3223 18.6377 38.0654C18.6377 37.8086 18.5332 37.5566 18.3516 37.375C18.17 37.1933 17.918 37.0889 17.6612 37.0889ZM31.3334 37.375C31.516 37.1933 31.767 37.0889 32.0248 37.0889C32.2816 37.0889 32.5336 37.1933 32.7152 37.375C32.8969 37.5566 33.0014 37.8086 33.0014 38.0654C33.0014 38.3223 32.8968 38.5742 32.7152 38.7558C32.5336 38.9375 32.2816 39.042 32.0248 39.042C31.767 39.042 31.516 38.9374 31.3334 38.7558C31.1518 38.5742 31.0482 38.3223 31.0482 38.0654C31.0482 37.8086 31.1518 37.5566 31.3334 37.375ZM17.6612 22.7252C17.4034 22.7252 17.1524 22.8297 16.9707 23.0113C16.7891 23.193 16.6846 23.4449 16.6846 23.7017C16.6846 23.9586 16.7891 24.2105 16.9707 24.3922C17.1524 24.5737 17.4043 24.6783 17.6612 24.6783C17.918 24.6783 18.17 24.5738 18.3516 24.3922C18.5332 24.2105 18.6377 23.9586 18.6377 23.7017C18.6377 23.4449 18.5332 23.193 18.3516 23.0113C18.17 22.8297 17.918 22.7252 17.6612 22.7252ZM32.7151 23.0111C33.0965 23.3926 33.0965 24.011 32.7151 24.3923L27.6234 29.484C27.8354 29.9054 27.9555 30.3805 27.9555 30.8834C27.9555 32.6066 26.5536 34.0085 24.8304 34.0085C23.1073 34.0085 21.7054 32.6066 21.7054 30.8834C21.7054 29.1602 23.1073 27.7583 24.8304 27.7583C25.3399 27.7583 25.8208 27.8817 26.2462 28.0989L31.3339 23.0111C31.7155 22.6299 32.3337 22.6299 32.7151 23.0111ZM23.6584 30.8835C23.6584 31.5297 24.1841 32.0554 24.8303 32.0554C25.4767 32.0554 26.0023 31.5297 26.0023 30.8835C26.0023 30.2373 25.4766 29.7116 24.8303 29.7116C24.1841 29.7116 23.6584 30.2373 23.6584 30.8835ZM37.6744 43.7275C37.856 43.5459 38.108 43.4414 38.3648 43.4414C38.6216 43.4414 38.8736 43.5459 39.0552 43.7275C39.2369 43.9092 39.3414 44.1611 39.3414 44.418C39.3414 44.6748 39.2368 44.9268 39.0552 45.1084C38.8736 45.29 38.6216 45.3945 38.3648 45.3945C38.108 45.3945 37.856 45.2899 37.6744 45.1084C37.4927 44.9268 37.3882 44.6758 37.3882 44.418C37.3882 44.1611 37.4928 43.9092 37.6744 43.7275Z"/>
</mask>
<path fill-rule="evenodd" clip-rule="evenodd" d="M44.7504 17.8731C45.5278 17.8731 46.2585 17.5702 46.8081 17.0206C47.3578 16.471 47.6605 15.7402 47.6605 14.9629C47.6605 14.1856 47.3577 13.4548 46.8081 12.9051L42.8087 8.90567C42.2589 8.35605 41.5282 8.05321 40.7509 8.05321C39.9735 8.05321 39.2427 8.35605 38.6932 8.90567C38.1435 9.45529 37.8408 10.1861 37.8408 10.9634C37.8408 11.659 38.0839 12.3169 38.5288 12.8416L36.7196 14.6507C34.3605 12.9151 31.6711 11.7283 28.8099 11.1573V8.03143H28.9808C30.9194 8.03143 32.4965 6.45434 32.4965 4.51571C32.4965 2.57709 30.9194 1 28.9808 1H20.6798C18.7411 1 17.1641 2.57709 17.1641 4.51571C17.1641 6.45434 18.7411 8.03143 20.6798 8.03143H20.8507V11.1573C17.9895 11.7284 15.3001 12.9151 12.9409 14.6507L11.1318 12.8416C11.5767 12.3169 11.8197 11.659 11.8197 10.9634C11.8197 10.1861 11.5169 9.45529 10.9673 8.90567C10.4177 8.35605 9.68691 8.05321 8.90955 8.05321C8.13228 8.05321 7.4015 8.35605 6.85178 8.90567L2.85237 12.9051C2.30274 13.4548 2 14.1856 2 14.9629C2 15.7402 2.30274 16.471 2.85237 17.0206C3.40199 17.5702 4.13277 17.8731 4.91013 17.8731C5.60576 17.8731 6.26368 17.6299 6.78831 17.1851L8.5987 18.9955C2.83069 26.861 3.49935 38.0033 10.6049 45.1089C13.8344 48.3384 18.1085 50.3888 22.64 50.8823C23.3627 50.9611 24.0874 51 24.8108 51C28.5552 51 32.2626 49.9564 35.4399 47.9811C35.8979 47.6964 36.0385 47.0941 35.7537 46.6361C35.4691 46.1782 34.8669 46.0376 34.4087 46.3224C27.2099 50.7977 17.9892 49.7309 11.986 43.7278C4.90369 36.6454 4.90369 25.1217 11.9861 18.0394C15.4168 14.6085 19.9784 12.719 24.8303 12.719C29.6821 12.719 34.2437 14.6085 37.6744 18.0394C43.6776 24.0426 44.7445 33.2631 40.2691 40.4621C39.9844 40.9202 40.1248 41.5223 40.5829 41.807C41.0409 42.092 41.6431 41.9513 41.9278 41.4932C44.2848 37.702 45.3152 33.1562 44.8289 28.6933C44.4469 25.1857 43.1313 21.8326 41.0588 18.9984L42.8721 17.1852C43.3969 17.63 44.0549 17.8731 44.7504 17.8731ZM40.0743 10.2868C40.2551 10.106 40.4954 10.0065 40.751 10.0065C41.0066 10.0065 41.2469 10.1061 41.4277 10.2869L45.4271 14.2863C45.6079 14.467 45.7075 14.7074 45.7075 14.963C45.7075 15.2185 45.6078 15.4589 45.4271 15.6397C45.2463 15.8205 45.006 15.92 44.7504 15.92C44.4948 15.92 44.2545 15.8204 44.0737 15.6396L40.0743 11.6402C39.8934 11.4594 39.7939 11.2191 39.7939 10.9635C39.7939 10.708 39.8935 10.4675 40.0743 10.2868ZM19.1172 4.51571C19.1172 3.65417 19.8182 2.95317 20.6798 2.95317H28.9808C29.8423 2.95317 30.5433 3.65417 30.5433 4.51571C30.5433 5.37726 29.8423 6.07825 28.9808 6.07825H20.6798C19.8182 6.07825 19.1172 5.37726 19.1172 4.51571ZM4.91023 15.9199C4.65466 15.9199 4.41432 15.8203 4.23355 15.6395C4.05279 15.4588 3.95327 15.2184 3.95327 14.9629C3.95327 14.7073 4.05288 14.4669 4.23365 14.2862L8.23307 10.2868C8.41384 10.1059 8.65417 10.0064 8.90975 10.0064C9.16532 10.0064 9.40566 10.106 9.58642 10.2868C9.76719 10.4675 9.8667 10.7079 9.8667 10.9634C9.8667 11.219 9.76709 11.4593 9.58633 11.6401L5.58691 15.6395C5.40614 15.8204 5.1658 15.9199 4.91023 15.9199ZM8.17711 15.8116L9.7583 14.2304L11.4177 15.8898C11.1411 16.1379 10.0841 17.1949 9.83672 17.4711L8.17711 15.8116ZM22.8038 10.8664V8.03143H26.8567V10.8664C26.1876 10.7999 25.5115 10.7659 24.8303 10.7659C24.149 10.7659 23.4729 10.7999 22.8038 10.8664ZM39.8233 17.4717C39.5752 17.1941 38.5195 16.1379 38.2429 15.8898L39.9023 14.2304L41.4835 15.8116L39.8233 17.4717ZM24.8303 15.4536C16.3221 15.4536 9.40024 22.3755 9.40024 30.8836C9.40024 39.3918 16.3221 46.3137 24.8303 46.3137C33.3384 46.3137 40.2604 39.3918 40.2604 30.8836C40.2604 22.3755 33.3385 15.4536 24.8303 15.4536ZM24.8303 44.3606C17.3992 44.3606 11.3534 38.3149 11.3534 30.8836C11.3534 23.4524 17.3992 17.4067 24.8303 17.4067C32.2616 17.4067 38.3072 23.4524 38.3072 30.8836C38.3072 38.3149 32.2616 44.3606 24.8303 44.3606ZM24.843 21.7036C25.0999 21.7036 25.3508 21.5991 25.5334 21.4173C25.715 21.2358 25.8196 20.9838 25.8196 20.727C25.8196 20.4702 25.7151 20.2182 25.5334 20.0366C25.3518 19.8549 25.0999 19.7504 24.843 19.7504C24.5852 19.7504 24.3342 19.8548 24.1526 20.0366C23.9709 20.2182 23.8665 20.4702 23.8665 20.727C23.8665 20.9838 23.9709 21.2358 24.1526 21.4173C24.3342 21.5991 24.5862 21.7036 24.843 21.7036ZM24.1516 40.3497C24.3342 40.168 24.5862 40.0636 24.843 40.0636C25.0999 40.0636 25.3518 40.168 25.5334 40.3497C25.7151 40.5314 25.8196 40.7833 25.8196 41.0402C25.8196 41.297 25.715 41.549 25.5334 41.7305C25.3518 41.9122 25.0999 42.0167 24.843 42.0167C24.5862 42.0167 24.3342 41.9121 24.1516 41.7305C23.97 41.549 23.8665 41.297 23.8665 41.0402C23.8665 40.7833 23.97 40.5314 24.1516 40.3497ZM35.69 30.193C35.5084 30.0114 35.2564 29.9069 34.9996 29.9069C34.7418 29.9069 34.4898 30.0113 34.3092 30.193C34.1266 30.3747 34.023 30.6257 34.023 30.8835C34.023 31.1413 34.1266 31.3923 34.3092 31.5738C34.4908 31.7555 34.7419 31.86 34.9996 31.86C35.2564 31.86 35.5084 31.7555 35.69 31.5738C35.8716 31.3923 35.9762 31.1403 35.9762 30.8835C35.9762 30.6266 35.8716 30.3747 35.69 30.193ZM13.9961 30.193C14.1777 30.0113 14.4287 29.9069 14.6865 29.9069C14.9433 29.9069 15.1953 30.0113 15.3769 30.193C15.5586 30.3747 15.6631 30.6266 15.6631 30.8835C15.6631 31.1403 15.5586 31.3923 15.3769 31.5738C15.1943 31.7555 14.9433 31.86 14.6865 31.86C14.4297 31.86 14.1777 31.7555 13.9961 31.5738C13.8134 31.3923 13.7099 31.1403 13.7099 30.8835C13.7099 30.6266 13.8134 30.3747 13.9961 30.193ZM17.6612 37.0889C17.4043 37.0889 17.1524 37.1933 16.9707 37.375C16.7881 37.5566 16.6846 37.8086 16.6846 38.0654C16.6846 38.3223 16.7881 38.5742 16.9707 38.7558C17.1524 38.9374 17.4043 39.042 17.6612 39.042C17.918 39.042 18.17 38.9375 18.3516 38.7558C18.5332 38.5742 18.6377 38.3223 18.6377 38.0654C18.6377 37.8086 18.5332 37.5566 18.3516 37.375C18.17 37.1933 17.918 37.0889 17.6612 37.0889ZM31.3334 37.375C31.516 37.1933 31.767 37.0889 32.0248 37.0889C32.2816 37.0889 32.5336 37.1933 32.7152 37.375C32.8969 37.5566 33.0014 37.8086 33.0014 38.0654C33.0014 38.3223 32.8968 38.5742 32.7152 38.7558C32.5336 38.9375 32.2816 39.042 32.0248 39.042C31.767 39.042 31.516 38.9374 31.3334 38.7558C31.1518 38.5742 31.0482 38.3223 31.0482 38.0654C31.0482 37.8086 31.1518 37.5566 31.3334 37.375ZM17.6612 22.7252C17.4034 22.7252 17.1524 22.8297 16.9707 23.0113C16.7891 23.193 16.6846 23.4449 16.6846 23.7017C16.6846 23.9586 16.7891 24.2105 16.9707 24.3922C17.1524 24.5737 17.4043 24.6783 17.6612 24.6783C17.918 24.6783 18.17 24.5738 18.3516 24.3922C18.5332 24.2105 18.6377 23.9586 18.6377 23.7017C18.6377 23.4449 18.5332 23.193 18.3516 23.0113C18.17 22.8297 17.918 22.7252 17.6612 22.7252ZM32.7151 23.0111C33.0965 23.3926 33.0965 24.011 32.7151 24.3923L27.6234 29.484C27.8354 29.9054 27.9555 30.3805 27.9555 30.8834C27.9555 32.6066 26.5536 34.0085 24.8304 34.0085C23.1073 34.0085 21.7054 32.6066 21.7054 30.8834C21.7054 29.1602 23.1073 27.7583 24.8304 27.7583C25.3399 27.7583 25.8208 27.8817 26.2462 28.0989L31.3339 23.0111C31.7155 22.6299 32.3337 22.6299 32.7151 23.0111ZM23.6584 30.8835C23.6584 31.5297 24.1841 32.0554 24.8303 32.0554C25.4767 32.0554 26.0023 31.5297 26.0023 30.8835C26.0023 30.2373 25.4766 29.7116 24.8303 29.7116C24.1841 29.7116 23.6584 30.2373 23.6584 30.8835ZM37.6744 43.7275C37.856 43.5459 38.108 43.4414 38.3648 43.4414C38.6216 43.4414 38.8736 43.5459 39.0552 43.7275C39.2369 43.9092 39.3414 44.1611 39.3414 44.418C39.3414 44.6748 39.2368 44.9268 39.0552 45.1084C38.8736 45.29 38.6216 45.3945 38.3648 45.3945C38.108 45.3945 37.856 45.2899 37.6744 45.1084C37.4927 44.9268 37.3882 44.6758 37.3882 44.418C37.3882 44.1611 37.4928 43.9092 37.6744 43.7275Z" fill="#008D3D"/>
<path d="M46.8081 17.0206L46.7374 16.9499L46.7374 16.9499L46.8081 17.0206ZM46.8081 12.9051L46.8788 12.8344L46.8788 12.8344L46.8081 12.9051ZM42.8087 8.90567L42.8794 8.83496L42.8794 8.83495L42.8087 8.90567ZM38.6932 8.90567L38.7639 8.97639L38.7639 8.97637L38.6932 8.90567ZM38.5288 12.8416L38.5995 12.9123L38.6646 12.8472L38.605 12.7769L38.5288 12.8416ZM36.7196 14.6507L36.6604 14.7313L36.7296 14.7822L36.7903 14.7214L36.7196 14.6507ZM28.8099 11.1573H28.7099V11.2393L28.7903 11.2554L28.8099 11.1573ZM28.8099 8.03143V7.93143H28.7099V8.03143H28.8099ZM20.8507 8.03143H20.9507V7.93143H20.8507V8.03143ZM20.8507 11.1573L20.8702 11.2554L20.9507 11.2393V11.1573H20.8507ZM12.9409 14.6507L12.8702 14.7214L12.9309 14.7822L13.0002 14.7313L12.9409 14.6507ZM11.1318 12.8416L11.0555 12.7769L10.9959 12.8472L11.0611 12.9123L11.1318 12.8416ZM6.85178 8.90567L6.78108 8.83495L6.78107 8.83496L6.85178 8.90567ZM2.85237 12.9051L2.78165 12.8344L2.78165 12.8344L2.85237 12.9051ZM2.85237 17.0206L2.78165 17.0913H2.78165L2.85237 17.0206ZM6.78831 17.1851L6.85902 17.1144L6.79389 17.0492L6.72363 17.1088L6.78831 17.1851ZM8.5987 18.9955L8.67934 19.0546L8.73008 18.9854L8.66941 18.9248L8.5987 18.9955ZM10.6049 45.1089L10.5342 45.1796L10.6049 45.1089ZM22.64 50.8823L22.6508 50.7829H22.6508L22.64 50.8823ZM35.4399 47.9811L35.3871 47.8961L35.3871 47.8961L35.4399 47.9811ZM35.7537 46.6361L35.6688 46.6889L35.6688 46.6889L35.7537 46.6361ZM34.4087 46.3224L34.4615 46.4074H34.4615L34.4087 46.3224ZM11.986 43.7278L11.9153 43.7986L11.9153 43.7986L11.986 43.7278ZM11.9861 18.0394L12.0568 18.1101L12.0568 18.1101L11.9861 18.0394ZM37.6744 18.0394L37.6037 18.1101L37.6037 18.1101L37.6744 18.0394ZM40.2691 40.4621L40.3541 40.5149L40.3541 40.5149L40.2691 40.4621ZM40.5829 41.807L40.6357 41.7221L40.6357 41.7221L40.5829 41.807ZM41.9278 41.4932L41.8428 41.4404L41.8428 41.4404L41.9278 41.4932ZM44.8289 28.6933L44.7295 28.7041V28.7041L44.8289 28.6933ZM41.0588 18.9984L40.9881 18.9277L40.9275 18.9883L40.9781 19.0574L41.0588 18.9984ZM42.8721 17.1852L42.9368 17.1089L42.8665 17.0493L42.8014 17.1145L42.8721 17.1852ZM41.4277 10.2869L41.4984 10.2161L41.4277 10.2869ZM45.4271 14.2863L45.3564 14.357L45.3564 14.357L45.4271 14.2863ZM45.4271 15.6397L45.4978 15.7104L45.4978 15.7104L45.4271 15.6397ZM44.0737 15.6396L44.003 15.7103L44.0737 15.6396ZM40.0743 11.6402L40.145 11.5695L40.145 11.5695L40.0743 11.6402ZM4.23355 15.6395L4.30426 15.5688L4.23355 15.6395ZM4.23365 14.2862L4.16294 14.2155L4.16294 14.2155L4.23365 14.2862ZM8.23307 10.2868L8.30378 10.3575L8.3038 10.3575L8.23307 10.2868ZM9.58642 10.2868L9.51571 10.3575L9.58642 10.2868ZM9.58633 11.6401L9.65704 11.7108V11.7108L9.58633 11.6401ZM5.58691 15.6395L5.5162 15.5688L5.51618 15.5688L5.58691 15.6395ZM9.7583 14.2304L9.82901 14.1597L9.7583 14.089L9.68759 14.1597L9.7583 14.2304ZM8.17711 15.8116L8.1064 15.7409L8.03569 15.8116L8.1064 15.8823L8.17711 15.8116ZM11.4177 15.8898L11.4845 15.9643L11.5631 15.8938L11.4884 15.8191L11.4177 15.8898ZM9.83672 17.4711L9.76601 17.5418L9.84072 17.6165L9.91121 17.5378L9.83672 17.4711ZM22.8038 8.03143V7.93143H22.7038V8.03143H22.8038ZM22.8038 10.8664H22.7038V10.9768L22.8137 10.9659L22.8038 10.8664ZM26.8567 8.03143H26.9567V7.93143H26.8567V8.03143ZM26.8567 10.8664L26.8468 10.9659L26.9567 10.9768V10.8664H26.8567ZM38.2429 15.8898L38.1722 15.8191L38.0975 15.8938L38.1761 15.9643L38.2429 15.8898ZM39.8233 17.4717L39.7488 17.5383L39.8192 17.6172L39.894 17.5424L39.8233 17.4717ZM39.9023 14.2304L39.973 14.1597L39.9023 14.089L39.8316 14.1597L39.9023 14.2304ZM41.4835 15.8116L41.5542 15.8823L41.6249 15.8116L41.5542 15.7409L41.4835 15.8116ZM25.5334 21.4173L25.604 21.4882L25.6042 21.4881L25.5334 21.4173ZM24.1526 20.0366L24.2233 20.1073L24.2233 20.1073L24.1526 20.0366ZM24.1526 21.4173L24.2233 21.3466L24.2233 21.3466L24.1526 21.4173ZM24.1516 40.3497L24.0811 40.2789L24.0809 40.279L24.1516 40.3497ZM25.5334 40.3497L25.4627 40.4204L25.4627 40.4205L25.5334 40.3497ZM25.5334 41.7305L25.4627 41.6598L25.4627 41.6598L25.5334 41.7305ZM24.1516 41.7305L24.0809 41.8012L24.0811 41.8014L24.1516 41.7305ZM35.69 30.193L35.7608 30.1224L35.7607 30.1223L35.69 30.193ZM34.3092 30.193L34.3797 30.264L34.3801 30.2635L34.3092 30.193ZM34.3092 31.5738L34.3799 31.5031L34.3797 31.5029L34.3092 31.5738ZM35.69 31.5738L35.6193 31.5031L35.6193 31.5031L35.69 31.5738ZM13.9961 30.193L14.0666 30.2639L14.0668 30.2637L13.9961 30.193ZM15.3769 30.193L15.3062 30.2637L15.3062 30.2638L15.3769 30.193ZM15.3769 31.5738L15.4475 31.6447L15.4476 31.6445L15.3769 31.5738ZM13.9961 31.5738L14.0668 31.5031L14.0666 31.5029L13.9961 31.5738ZM16.9707 37.375L17.0413 37.4459L17.0415 37.4457L16.9707 37.375ZM16.9707 38.7558L17.0415 38.6851L17.0413 38.6848L16.9707 38.7558ZM18.3516 38.7558L18.2809 38.685L18.2809 38.6851L18.3516 38.7558ZM18.3516 37.375L18.2809 37.4457L18.2809 37.4457L18.3516 37.375ZM31.3334 37.375L31.2629 37.3041L31.2627 37.3043L31.3334 37.375ZM32.7152 37.375L32.6445 37.4457L32.6445 37.4457L32.7152 37.375ZM32.7152 38.7558L32.6445 38.6851L32.6445 38.6851L32.7152 38.7558ZM31.3334 38.7558L31.2627 38.8265L31.2629 38.8267L31.3334 38.7558ZM16.9707 24.3922L16.9 24.4629L16.9001 24.4629L16.9707 24.3922ZM32.7151 24.3923L32.7858 24.463H32.7858L32.7151 24.3923ZM32.7151 23.0111L32.7858 22.9404L32.7858 22.9404L32.7151 23.0111ZM27.6234 29.484L27.5527 29.4132L27.5016 29.4643L27.5341 29.5289L27.6234 29.484ZM26.2462 28.0989L26.2007 28.1879L26.2655 28.221L26.3169 28.1696L26.2462 28.0989ZM31.3339 23.0111L31.2633 22.9404L31.2632 22.9404L31.3339 23.0111ZM37.6744 43.7275L37.6037 43.6568L37.6036 43.6568L37.6744 43.7275ZM39.0552 45.1084L39.1259 45.1791L39.126 45.1791L39.0552 45.1084ZM37.6744 45.1084L37.6037 45.1791L37.6037 45.1791L37.6744 45.1084ZM46.7374 16.9499C46.2066 17.4808 45.5012 17.7731 44.7504 17.7731V17.9731C45.5543 17.9731 46.3105 17.6597 46.8788 17.0913L46.7374 16.9499ZM47.5605 14.9629C47.5605 15.7137 47.2683 16.419 46.7374 16.9499L46.8788 17.0913C47.4473 16.523 47.7605 15.7667 47.7605 14.9629H47.5605ZM46.7374 12.9758C47.2682 13.5068 47.5605 14.2121 47.5605 14.9629H47.7605C47.7605 14.1591 47.4472 13.4028 46.8788 12.8344L46.7374 12.9758ZM42.7379 8.97638L46.7374 12.9758L46.8788 12.8344L42.8794 8.83496L42.7379 8.97638ZM40.7509 8.15321C41.5016 8.15321 42.207 8.4455 42.7379 8.97639L42.8794 8.83495C42.3109 8.26659 41.5547 7.95321 40.7509 7.95321V8.15321ZM38.7639 8.97637C39.2947 8.4455 40.0001 8.15321 40.7509 8.15321V7.95321C39.947 7.95321 39.1908 8.26659 38.6225 8.83497L38.7639 8.97637ZM37.9408 10.9634C37.9408 10.2126 38.233 9.50726 38.7639 8.97639L38.6225 8.83495C38.054 9.40333 37.7408 10.1595 37.7408 10.9634H37.9408ZM38.605 12.7769C38.1755 12.2703 37.9408 11.6352 37.9408 10.9634H37.7408C37.7408 11.6827 37.9924 12.3635 38.4525 12.9063L38.605 12.7769ZM36.7903 14.7214L38.5995 12.9123L38.458 12.7709L36.6489 14.58L36.7903 14.7214ZM28.7903 11.2554C31.6371 11.8235 34.313 13.0044 36.6604 14.7313L36.7789 14.5702C34.408 12.8259 31.705 11.6331 28.8294 11.0592L28.7903 11.2554ZM28.7099 8.03143V11.1573H28.9099V8.03143H28.7099ZM28.9808 7.93143H28.8099V8.13143H28.9808V7.93143ZM32.3965 4.51571C32.3965 6.39911 30.8642 7.93143 28.9808 7.93143V8.13143C30.9746 8.13143 32.5965 6.50957 32.5965 4.51571H32.3965ZM28.9808 1.1C30.8642 1.1 32.3965 2.63232 32.3965 4.51571H32.5965C32.5965 2.52186 30.9746 0.9 28.9808 0.9V1.1ZM20.6798 1.1H28.9808V0.9H20.6798V1.1ZM17.2641 4.51571C17.2641 2.63232 18.7964 1.1 20.6798 1.1V0.9C18.6859 0.9 17.0641 2.52186 17.0641 4.51571H17.2641ZM20.6798 7.93143C18.7964 7.93143 17.2641 6.39911 17.2641 4.51571H17.0641C17.0641 6.50957 18.6859 8.13143 20.6798 8.13143V7.93143ZM20.8507 7.93143H20.6798V8.13143H20.8507V7.93143ZM20.9507 11.1573V8.03143H20.7507V11.1573H20.9507ZM13.0002 14.7313C15.3476 13.0044 18.0234 11.8236 20.8702 11.2554L20.8311 11.0592C17.9555 11.6332 15.2527 12.8259 12.8816 14.5702L13.0002 14.7313ZM11.0611 12.9123L12.8702 14.7214L13.0116 14.58L11.2025 12.7709L11.0611 12.9123ZM11.7197 10.9634C11.7197 11.6353 11.4851 12.2703 11.0555 12.7769L11.208 12.9063C11.6683 12.3635 11.9197 11.6827 11.9197 10.9634H11.7197ZM10.8966 8.97638C11.4275 9.50725 11.7197 10.2126 11.7197 10.9634H11.9197C11.9197 10.1595 11.6064 9.40333 11.038 8.83496L10.8966 8.97638ZM8.90955 8.15321C9.66038 8.15321 10.3657 8.4455 10.8966 8.97638L11.038 8.83496C10.4697 8.26659 9.71345 7.95321 8.90955 7.95321V8.15321ZM6.92249 8.97639C7.45347 8.4455 8.15882 8.15321 8.90955 8.15321V7.95321C8.10575 7.95321 7.34954 8.26659 6.78108 8.83495L6.92249 8.97639ZM2.92308 12.9758L6.92249 8.97638L6.78107 8.83496L2.78165 12.8344L2.92308 12.9758ZM2.1 14.9629C2.1 14.2121 2.3922 13.5068 2.92308 12.9758L2.78165 12.8344C2.21328 13.4029 1.9 14.1591 1.9 14.9629H2.1ZM2.92308 16.9499C2.3922 16.419 2.1 15.7137 2.1 14.9629H1.9C1.9 15.7667 2.21328 16.523 2.78165 17.0913L2.92308 16.9499ZM4.91013 17.7731C4.1593 17.7731 3.45395 17.4808 2.92308 16.9499L2.78165 17.0913C3.35002 17.6597 4.10624 17.9731 4.91013 17.9731V17.7731ZM6.72363 17.1088C6.21705 17.5383 5.58203 17.7731 4.91013 17.7731V17.9731C5.62948 17.9731 6.31032 17.7215 6.85298 17.2614L6.72363 17.1088ZM8.66941 18.9248L6.85902 17.1144L6.71759 17.2558L8.52799 19.0662L8.66941 18.9248ZM10.6756 45.0382C3.60554 37.9681 2.94003 26.881 8.67934 19.0546L8.51806 18.9363C2.72134 26.841 3.39317 38.0385 10.5342 45.1796L10.6756 45.0382ZM22.6508 50.7829C18.142 50.2918 13.889 48.2516 10.6756 45.0382L10.5342 45.1796C13.7797 48.4252 18.075 50.4857 22.6292 50.9817L22.6508 50.7829ZM24.8108 50.9C24.091 50.9 23.3699 50.8613 22.6508 50.7829L22.6291 50.9817C23.3555 51.0609 24.0838 51.1 24.8108 51.1V50.9ZM35.3871 47.8961C32.2259 49.8615 28.5368 50.9 24.8108 50.9V51.1C28.5736 51.1 32.2993 50.0513 35.4927 48.066L35.3871 47.8961ZM35.6688 46.6889C35.9244 47.1 35.7982 47.6406 35.3871 47.8961L35.4927 48.066C35.9976 47.7522 36.1525 47.0882 35.8386 46.5833L35.6688 46.6889ZM34.4615 46.4074C34.8728 46.1517 35.4133 46.2779 35.6688 46.6889L35.8386 46.5833C35.5249 46.0785 34.861 45.9235 34.3559 46.2375L34.4615 46.4074ZM11.9153 43.7986C17.9513 49.8344 27.2232 50.9073 34.4615 46.4074L34.3559 46.2375C27.1967 50.6882 18.0271 49.6274 12.0567 43.6571L11.9153 43.7986ZM11.9154 17.9687C4.79392 25.09 4.79392 36.6771 11.9153 43.7986L12.0567 43.6571C5.01345 36.6138 5.01345 25.1534 12.0568 18.1101L11.9154 17.9687ZM24.8303 12.619C19.9519 12.619 15.3649 14.5191 11.9154 17.9687L12.0568 18.1101C15.4688 14.698 20.0049 12.819 24.8303 12.819V12.619ZM37.7452 17.9687C34.2956 14.5191 29.7087 12.619 24.8303 12.619V12.819C29.6556 12.819 34.1917 14.698 37.6037 18.1101L37.7452 17.9687ZM40.3541 40.5149C44.8541 33.2764 43.7811 24.0047 37.7452 17.9687L37.6037 18.1101C43.5741 24.0805 44.635 33.2499 40.1842 40.4093L40.3541 40.5149ZM40.6357 41.7221C40.2245 41.4665 40.0984 40.9261 40.3541 40.5149L40.1842 40.4093C39.8703 40.9142 40.0251 41.5781 40.5301 41.8919L40.6357 41.7221ZM41.8428 41.4404C41.5873 41.8517 41.0468 41.9778 40.6357 41.7221L40.5301 41.8919C41.035 42.2061 41.6989 42.051 42.0127 41.546L41.8428 41.4404ZM44.7295 28.7041C45.2133 33.1449 44.188 37.6683 41.8428 41.4404L42.0127 41.546C44.3816 37.7357 45.417 33.1675 44.9283 28.6824L44.7295 28.7041ZM40.9781 19.0574C43.0404 21.8776 44.3494 25.2142 44.7295 28.7041L44.9283 28.6825C44.5444 25.1572 43.2222 21.7875 41.1395 18.9394L40.9781 19.0574ZM42.8014 17.1145L40.9881 18.9277L41.1295 19.0691L42.9428 17.2559L42.8014 17.1145ZM44.7504 17.7731C44.0786 17.7731 43.4436 17.5384 42.9368 17.1089L42.8075 17.2615C43.3503 17.7216 44.0312 17.9731 44.7504 17.9731V17.7731ZM40.751 9.90648C40.4689 9.90648 40.2031 10.0165 40.0036 10.216L40.145 10.3575C40.307 10.1955 40.5219 10.1065 40.751 10.1065V9.90648ZM41.4984 10.2161C41.2989 10.0166 41.0331 9.90648 40.751 9.90648V10.1065C40.98 10.1065 41.1949 10.1955 41.357 10.3576L41.4984 10.2161ZM45.4978 14.2156L41.4984 10.2161L41.357 10.3576L45.3564 14.357L45.4978 14.2156ZM45.8075 14.963C45.8075 14.6809 45.6974 14.4151 45.4978 14.2155L45.3564 14.357C45.5185 14.519 45.6075 14.7339 45.6075 14.963H45.8075ZM45.4978 15.7104C45.6973 15.5108 45.8075 15.2451 45.8075 14.963H45.6075C45.6075 15.192 45.5184 15.4069 45.3563 15.569L45.4978 15.7104ZM44.7504 16.02C45.0325 16.02 45.2983 15.91 45.4978 15.7104L45.3564 15.569C45.1944 15.731 44.9795 15.82 44.7504 15.82V16.02ZM44.003 15.7103C44.2025 15.9098 44.4683 16.02 44.7504 16.02V15.82C44.5214 15.82 44.3065 15.7309 44.1444 15.5689L44.003 15.7103ZM40.0036 11.7109L44.003 15.7103L44.1444 15.5689L40.145 11.5695L40.0036 11.7109ZM39.6939 10.9635C39.6939 11.2456 39.804 11.5114 40.0036 11.7109L40.145 11.5695C39.9829 11.4075 39.8939 11.1926 39.8939 10.9635H39.6939ZM40.0036 10.216C39.8041 10.4156 39.6939 10.6814 39.6939 10.9635H39.8939C39.8939 10.7345 39.983 10.5195 40.145 10.3575L40.0036 10.216ZM20.6798 2.85317C19.763 2.85317 19.0172 3.59894 19.0172 4.51571H19.2172C19.2172 3.7094 19.8735 3.05317 20.6798 3.05317V2.85317ZM28.9808 2.85317H20.6798V3.05317H28.9808V2.85317ZM30.6433 4.51571C30.6433 3.59894 29.8975 2.85317 28.9808 2.85317V3.05317C29.7871 3.05317 30.4433 3.7094 30.4433 4.51571H30.6433ZM28.9808 6.17825C29.8975 6.17825 30.6433 5.43249 30.6433 4.51571H30.4433C30.4433 5.32203 29.7871 5.97825 28.9808 5.97825V6.17825ZM20.6798 6.17825H28.9808V5.97825H20.6798V6.17825ZM19.0172 4.51571C19.0172 5.43249 19.763 6.17825 20.6798 6.17825V5.97825C19.8735 5.97825 19.2172 5.32203 19.2172 4.51571H19.0172ZM4.16284 15.7102C4.36235 15.9097 4.62812 16.0199 4.91023 16.0199V15.8199C4.6812 15.8199 4.46629 15.7308 4.30426 15.5688L4.16284 15.7102ZM3.85327 14.9629C3.85327 15.2449 3.96332 15.5107 4.16284 15.7102L4.30426 15.5688C4.14226 15.4068 4.05327 15.1919 4.05327 14.9629H3.85327ZM4.16294 14.2155C3.96343 14.415 3.85327 14.6807 3.85327 14.9629H4.05327C4.05327 14.7338 4.14233 14.5189 4.30436 14.3569L4.16294 14.2155ZM8.16236 10.216L4.16294 14.2155L4.30436 14.3569L8.30378 10.3575L8.16236 10.216ZM8.90975 9.90638C8.62765 9.90638 8.36187 10.0164 8.16234 10.2161L8.3038 10.3575C8.4658 10.1954 8.68069 10.1064 8.90975 10.1064V9.90638ZM9.65713 10.216C9.45763 10.0165 9.19186 9.90638 8.90975 9.90638V10.1064C9.13878 10.1064 9.35369 10.1954 9.51571 10.3575L9.65713 10.216ZM9.9667 10.9634C9.9667 10.6813 9.85666 10.4156 9.65713 10.216L9.51571 10.3575C9.67772 10.5195 9.7667 10.7344 9.7667 10.9634H9.9667ZM9.65704 11.7108C9.85654 11.5113 9.9667 11.2456 9.9667 10.9634H9.7667C9.7667 11.1925 9.67764 11.4074 9.51562 11.5694L9.65704 11.7108ZM5.65762 15.7102L9.65704 11.7108L9.51562 11.5694L5.5162 15.5688L5.65762 15.7102ZM4.91023 16.0199C5.19232 16.0199 5.45811 15.9099 5.65764 15.7102L5.51618 15.5688C5.35418 15.7309 5.13928 15.8199 4.91023 15.8199V16.0199ZM9.68759 14.1597L8.1064 15.7409L8.24782 15.8823L9.82901 14.3011L9.68759 14.1597ZM11.4884 15.8191L9.82901 14.1597L9.68759 14.3011L11.347 15.9605L11.4884 15.8191ZM9.91121 17.5378C10.1561 17.2644 11.2106 16.2099 11.4845 15.9643L11.351 15.8154C11.0717 16.0658 10.0121 17.1255 9.76223 17.4044L9.91121 17.5378ZM8.1064 15.8823L9.76601 17.5418L9.90743 17.4004L8.24782 15.7409L8.1064 15.8823ZM22.7038 8.03143V10.8664H22.9038V8.03143H22.7038ZM26.8567 7.93143H22.8038V8.13143H26.8567V7.93143ZM26.9567 10.8664V8.03143H26.7567V10.8664H26.9567ZM24.8303 10.8659C25.5082 10.8659 26.181 10.8997 26.8468 10.9659L26.8666 10.7669C26.1943 10.7 25.5149 10.6659 24.8303 10.6659V10.8659ZM22.8137 10.9659C23.4795 10.8997 24.1523 10.8659 24.8303 10.8659V10.6659C24.1457 10.6659 23.4663 10.7 22.794 10.7669L22.8137 10.9659ZM38.1761 15.9643C38.45 16.2099 39.5031 17.2635 39.7488 17.5383L39.8979 17.4051C39.6472 17.1246 38.5889 16.0659 38.3097 15.8154L38.1761 15.9643ZM39.8316 14.1597L38.1722 15.8191L38.3136 15.9605L39.973 14.3011L39.8316 14.1597ZM41.5542 15.7409L39.973 14.1597L39.8316 14.3011L41.4128 15.8823L41.5542 15.7409ZM39.894 17.5424L41.5542 15.8823L41.4128 15.7409L39.7526 17.401L39.894 17.5424ZM9.50024 30.8836C9.50024 22.4307 16.3773 15.5536 24.8303 15.5536V15.3536C16.2669 15.3536 9.30024 22.3203 9.30024 30.8836H9.50024ZM24.8303 46.2137C16.3773 46.2137 9.50024 39.3365 9.50024 30.8836H9.30024C9.30024 39.447 16.2669 46.4137 24.8303 46.4137V46.2137ZM40.1604 30.8836C40.1604 39.3365 33.2832 46.2137 24.8303 46.2137V46.4137C33.3937 46.4137 40.3604 39.447 40.3604 30.8836H40.1604ZM24.8303 15.5536C33.2833 15.5536 40.1604 22.4307 40.1604 30.8836H40.3604C40.3604 22.3203 33.3938 15.3536 24.8303 15.3536V15.5536ZM11.2534 30.8836C11.2534 38.3701 17.3439 44.4606 24.8303 44.4606V44.2606C17.4544 44.2606 11.4534 38.2597 11.4534 30.8836H11.2534ZM24.8303 17.3067C17.3439 17.3067 11.2534 23.3972 11.2534 30.8836H11.4534C11.4534 23.5076 17.4544 17.5067 24.8303 17.5067V17.3067ZM38.4072 30.8836C38.4072 23.3972 32.3168 17.3067 24.8303 17.3067V17.5067C32.2063 17.5067 38.2072 23.5076 38.2072 30.8836H38.4072ZM24.8303 44.4606C32.3168 44.4606 38.4072 38.3701 38.4072 30.8836H38.2072C38.2072 38.2597 32.2063 44.2606 24.8303 44.2606V44.4606ZM25.4629 21.3465C25.2988 21.5097 25.0731 21.6036 24.843 21.6036V21.8036C25.1266 21.8036 25.4028 21.6884 25.604 21.4882L25.4629 21.3465ZM25.7196 20.727C25.7196 20.9573 25.6256 21.1838 25.4627 21.3466L25.6042 21.4881C25.8044 21.2878 25.9196 21.0104 25.9196 20.727H25.7196ZM25.4627 20.1073C25.6256 20.2702 25.7196 20.4967 25.7196 20.727H25.9196C25.9196 20.4436 25.8045 20.1662 25.6042 19.9659L25.4627 20.1073ZM24.843 19.8504C25.0733 19.8504 25.2998 19.9444 25.4627 20.1073L25.6042 19.9659C25.4038 19.7655 25.1264 19.6504 24.843 19.6504V19.8504ZM24.2233 20.1073C24.3862 19.9443 24.6118 19.8504 24.843 19.8504V19.6504C24.5586 19.6504 24.2822 19.7654 24.0819 19.9659L24.2233 20.1073ZM23.9665 20.727C23.9665 20.4967 24.0604 20.2702 24.2233 20.1073L24.0819 19.9659C23.8815 20.1662 23.7665 20.4436 23.7665 20.727H23.9665ZM24.2233 21.3466C24.0604 21.1838 23.9665 20.9573 23.9665 20.727H23.7665C23.7665 21.0104 23.8815 21.2878 24.0819 21.4881L24.2233 21.3466ZM24.843 21.6036C24.6127 21.6036 24.3862 21.5096 24.2233 21.3466L24.0819 21.488C24.2822 21.6885 24.5596 21.8036 24.843 21.8036V21.6036ZM24.843 39.9636C24.5596 39.9636 24.2823 40.0786 24.0811 40.2789L24.2222 40.4206C24.3861 40.2574 24.6128 40.1636 24.843 40.1636V39.9636ZM25.6042 40.2791C25.4038 40.0785 25.1264 39.9636 24.843 39.9636V40.1636C25.0733 40.1636 25.2998 40.2575 25.4627 40.4204L25.6042 40.2791ZM25.9196 41.0402C25.9196 40.7568 25.8045 40.4794 25.6042 40.279L25.4627 40.4205C25.6256 40.5834 25.7196 40.8099 25.7196 41.0402H25.9196ZM25.6042 41.8012C25.8044 41.601 25.9196 41.3236 25.9196 41.0402H25.7196C25.7196 41.2704 25.6256 41.497 25.4627 41.6598L25.6042 41.8012ZM24.843 42.1167C25.1264 42.1167 25.4038 42.0017 25.6042 41.8012L25.4627 41.6598C25.2998 41.8228 25.0733 41.9167 24.843 41.9167V42.1167ZM24.0811 41.8014C24.2823 42.0015 24.5595 42.1167 24.843 42.1167V41.9167C24.6128 41.9167 24.3862 41.8228 24.2221 41.6596L24.0811 41.8014ZM23.7665 41.0402C23.7665 41.3233 23.8803 41.6008 24.0809 41.8012L24.2223 41.6598C24.0596 41.4972 23.9665 41.2707 23.9665 41.0402H23.7665ZM24.0809 40.279C23.8804 40.4796 23.7665 40.757 23.7665 41.0402H23.9665C23.9665 40.8096 24.0596 40.5832 24.2223 40.4205L24.0809 40.279ZM34.9996 30.0069C35.2299 30.0069 35.4564 30.1008 35.6193 30.2638L35.7607 30.1223C35.5604 29.922 35.283 29.8069 34.9996 29.8069V30.0069ZM34.3801 30.2635C34.5419 30.1008 34.7682 30.0069 34.9996 30.0069V29.8069C34.7154 29.8069 34.4378 29.9218 34.2383 30.1225L34.3801 30.2635ZM34.123 30.8835C34.123 30.652 34.2161 30.4267 34.3797 30.2639L34.2386 30.1221C34.037 30.3227 33.923 30.5993 33.923 30.8835H34.123ZM34.3797 31.5029C34.2161 31.3403 34.123 31.1149 34.123 30.8835H33.923C33.923 31.1677 34.037 31.4442 34.2387 31.6447L34.3797 31.5029ZM34.9996 31.76C34.7685 31.76 34.5428 31.6661 34.3799 31.5031L34.2385 31.6445C34.4388 31.8448 34.7153 31.96 34.9996 31.96V31.76ZM35.6193 31.5031C35.4564 31.6661 35.2299 31.76 34.9996 31.76V31.96C35.283 31.96 35.5604 31.845 35.7608 31.6445L35.6193 31.5031ZM35.8762 30.8835C35.8762 31.1137 35.7821 31.3403 35.6193 31.5031L35.7607 31.6445C35.961 31.4443 36.0762 31.1669 36.0762 30.8835H35.8762ZM35.6193 30.2637C35.7822 30.4267 35.8762 30.6532 35.8762 30.8835H36.0762C36.0762 30.6001 35.961 30.3227 35.7608 30.1224L35.6193 30.2637ZM14.6865 29.8069C14.4021 29.8069 14.1257 29.9219 13.9253 30.1224L14.0668 30.2637C14.2297 30.1007 14.4553 30.0069 14.6865 30.0069V29.8069ZM15.4476 30.1224C15.2473 29.9219 14.9699 29.8069 14.6865 29.8069V30.0069C14.9168 30.0069 15.1433 30.1008 15.3062 30.2637L15.4476 30.1224ZM15.7631 30.8835C15.7631 30.6001 15.648 30.3227 15.4476 30.1223L15.3062 30.2638C15.4691 30.4267 15.5631 30.6532 15.5631 30.8835H15.7631ZM15.4476 31.6445C15.648 31.4443 15.7631 31.1669 15.7631 30.8835H15.5631C15.5631 31.1138 15.4691 31.3403 15.3062 31.5031L15.4476 31.6445ZM14.6865 31.96C14.97 31.96 15.2463 31.8449 15.4475 31.6447L15.3064 31.5029C15.1423 31.6662 14.9166 31.76 14.6865 31.76V31.96ZM13.9253 31.6445C14.1257 31.8449 14.4031 31.96 14.6865 31.96V31.76C14.4562 31.76 14.2297 31.666 14.0668 31.5031L13.9253 31.6445ZM13.6099 30.8835C13.6099 31.1666 13.7238 31.4442 13.9256 31.6447L14.0666 31.5029C13.903 31.3403 13.8099 31.114 13.8099 30.8835H13.6099ZM13.9255 30.1221C13.7239 30.3228 13.6099 30.6003 13.6099 30.8835H13.8099C13.8099 30.653 13.903 30.4266 14.0666 30.2639L13.9255 30.1221ZM17.0415 37.4457C17.2044 37.2827 17.4309 37.1889 17.6612 37.1889V36.9889C17.3778 36.9889 17.1004 37.1038 16.9 37.3043L17.0415 37.4457ZM16.7846 38.0654C16.7846 37.8349 16.8777 37.6086 17.0413 37.4459L16.9002 37.3041C16.6985 37.5047 16.5846 37.7823 16.5846 38.0654H16.7846ZM17.0413 38.6848C16.8777 38.5223 16.7846 38.2959 16.7846 38.0654H16.5846C16.5846 38.3486 16.6985 38.6262 16.9002 38.8267L17.0413 38.6848ZM17.6612 38.942C17.4309 38.942 17.2044 38.848 17.0415 38.6851L16.9 38.8265C17.1004 39.0268 17.3778 39.142 17.6612 39.142V38.942ZM18.2809 38.6851C18.118 38.8481 17.8915 38.942 17.6612 38.942V39.142C17.9446 39.142 18.222 39.0269 18.4223 38.8265L18.2809 38.6851ZM18.5377 38.0654C18.5377 38.2957 18.4438 38.5222 18.2809 38.685L18.4223 38.8265C18.6227 38.6262 18.7377 38.3488 18.7377 38.0654H18.5377ZM18.2809 37.4457C18.4438 37.6086 18.5377 37.8352 18.5377 38.0654H18.7377C18.7377 37.782 18.6227 37.5047 18.4223 37.3043L18.2809 37.4457ZM17.6612 37.1889C17.8915 37.1889 18.118 37.2827 18.2809 37.4457L18.4223 37.3043C18.2219 37.1038 17.9445 36.9889 17.6612 36.9889V37.1889ZM32.0248 36.9889C31.7404 36.9889 31.4641 37.1039 31.2629 37.3041L31.4039 37.4459C31.568 37.2826 31.7936 37.1889 32.0248 37.1889V36.9889ZM32.786 37.3043C32.5856 37.1038 32.3082 36.9889 32.0248 36.9889V37.1889C32.2551 37.1889 32.4816 37.2827 32.6445 37.4457L32.786 37.3043ZM33.1014 38.0654C33.1014 37.782 32.9863 37.5047 32.7859 37.3043L32.6445 37.4457C32.8074 37.6086 32.9014 37.8352 32.9014 38.0654H33.1014ZM32.7859 38.8265C32.9862 38.6262 33.1014 38.3488 33.1014 38.0654H32.9014C32.9014 38.2957 32.8074 38.5222 32.6445 38.6851L32.7859 38.8265ZM32.0248 39.142C32.3082 39.142 32.5856 39.0269 32.786 38.8265L32.6445 38.6851C32.4816 38.8481 32.2551 38.942 32.0248 38.942V39.142ZM31.2629 38.8267C31.4641 39.0268 31.7403 39.142 32.0248 39.142V38.942C31.7937 38.942 31.568 38.848 31.4039 38.6849L31.2629 38.8267ZM30.9482 38.0654C30.9482 38.3486 31.0621 38.626 31.2627 38.8265L31.4041 38.685C31.2414 38.5224 31.1482 38.296 31.1482 38.0654H30.9482ZM31.2627 37.3043C31.0621 37.5048 30.9482 37.7823 30.9482 38.0654H31.1482C31.1482 37.8349 31.2414 37.6084 31.4041 37.4457L31.2627 37.3043ZM17.0415 23.082C17.2044 22.9191 17.43 22.8252 17.6612 22.8252V22.6252C17.3768 22.6252 17.1004 22.7403 16.9 22.9406L17.0415 23.082ZM16.7846 23.7017C16.7846 23.4715 16.8785 23.2449 17.0415 23.082L16.9 22.9406C16.6997 23.141 16.5846 23.4184 16.5846 23.7017H16.7846ZM17.0415 24.3215C16.8785 24.1586 16.7846 23.932 16.7846 23.7017H16.5846C16.5846 23.9851 16.6997 24.2625 16.9 24.4629L17.0415 24.3215ZM17.6612 24.5783C17.4309 24.5783 17.2044 24.4843 17.0414 24.3214L16.9001 24.4629C17.1004 24.6631 17.3778 24.7783 17.6612 24.7783V24.5783ZM18.2809 24.3215C18.118 24.4844 17.8915 24.5783 17.6612 24.5783V24.7783C17.9446 24.7783 18.222 24.6633 18.4223 24.4629L18.2809 24.3215ZM18.5377 23.7017C18.5377 23.932 18.4438 24.1586 18.2809 24.3215L18.4223 24.4629C18.6227 24.2625 18.7377 23.9851 18.7377 23.7017H18.5377ZM18.2809 23.082C18.4438 23.2449 18.5377 23.4715 18.5377 23.7017H18.7377C18.7377 23.4184 18.6227 23.141 18.4223 22.9406L18.2809 23.082ZM17.6612 22.8252C17.8915 22.8252 18.118 22.9191 18.2809 23.082L18.4223 22.9406C18.222 22.7402 17.9446 22.6252 17.6612 22.6252V22.8252ZM32.7858 24.463C33.2062 24.0426 33.2062 23.3609 32.7858 22.9404L32.6444 23.0818C32.9867 23.4242 32.9867 23.9793 32.6444 24.3216L32.7858 24.463ZM27.6941 29.5547L32.7858 24.463L32.6444 24.3216L27.5527 29.4132L27.6941 29.5547ZM28.0555 30.8834C28.0555 30.3644 27.9315 29.8739 27.7127 29.439L27.5341 29.5289C27.7393 29.9368 27.8555 30.3966 27.8555 30.8834H28.0555ZM24.8304 34.1085C26.6089 34.1085 28.0555 32.6618 28.0555 30.8834H27.8555C27.8555 32.5514 26.4984 33.9085 24.8304 33.9085V34.1085ZM21.6054 30.8834C21.6054 32.6618 23.052 34.1085 24.8304 34.1085V33.9085C23.1625 33.9085 21.8054 32.5514 21.8054 30.8834H21.6054ZM24.8304 27.6583C23.052 27.6583 21.6054 29.105 21.6054 30.8834H21.8054C21.8054 29.2154 23.1625 27.8583 24.8304 27.8583V27.6583ZM26.2917 28.0098C25.8527 27.7857 25.3563 27.6583 24.8304 27.6583V27.8583C25.3236 27.8583 25.7889 27.9777 26.2007 28.1879L26.2917 28.0098ZM31.2632 22.9404L26.1755 28.0281L26.3169 28.1696L31.4046 23.0818L31.2632 22.9404ZM32.7858 22.9404C32.3653 22.5201 31.6838 22.5201 31.2633 22.9404L31.4046 23.0819C31.7471 22.7396 32.302 22.7396 32.6444 23.0819L32.7858 22.9404ZM24.8303 31.9554C24.2394 31.9554 23.7584 31.4745 23.7584 30.8835H23.5584C23.5584 31.5849 24.1289 32.1554 24.8303 32.1554V31.9554ZM25.9023 30.8835C25.9023 31.4745 25.4214 31.9554 24.8303 31.9554V32.1554C25.5319 32.1554 26.1023 31.5849 26.1023 30.8835H25.9023ZM24.8303 29.8116C25.4213 29.8116 25.9023 30.2925 25.9023 30.8835H26.1023C26.1023 30.1821 25.5318 29.6116 24.8303 29.6116V29.8116ZM23.7584 30.8835C23.7584 30.2925 24.2394 29.8116 24.8303 29.8116V29.6116C24.1289 29.6116 23.5584 30.1821 23.5584 30.8835H23.7584ZM38.3648 43.3414C38.0814 43.3414 37.804 43.4565 37.6037 43.6568L37.7451 43.7982C37.908 43.6353 38.1345 43.5414 38.3648 43.5414V43.3414ZM39.1259 43.6568C38.9256 43.4565 38.6482 43.3414 38.3648 43.3414V43.5414C38.5951 43.5414 38.8216 43.6353 38.9845 43.7982L39.1259 43.6568ZM39.4414 44.418C39.4414 44.1346 39.3263 43.8572 39.1259 43.6568L38.9845 43.7982C39.1474 43.9612 39.2414 44.1877 39.2414 44.418H39.4414ZM39.126 45.1791C39.3262 44.9787 39.4414 44.7014 39.4414 44.418H39.2414C39.2414 44.6482 39.1474 44.8748 38.9845 45.0377L39.126 45.1791ZM38.3648 45.4945C38.6482 45.4945 38.9256 45.3795 39.1259 45.1791L38.9845 45.0377C38.8216 45.2006 38.5951 45.2945 38.3648 45.2945V45.4945ZM37.6037 45.1791C37.804 45.3794 38.0814 45.4945 38.3648 45.4945V45.2945C38.1345 45.2945 37.908 45.2005 37.7451 45.0377L37.6037 45.1791ZM37.2882 44.418C37.2882 44.7024 37.4033 44.9788 37.6037 45.1791L37.7451 45.0377C37.5821 44.8747 37.4882 44.6492 37.4882 44.418H37.2882ZM37.6036 43.6568C37.4034 43.8572 37.2882 44.1346 37.2882 44.418H37.4882C37.4882 44.1877 37.5823 43.9612 37.7451 43.7982L37.6036 43.6568Z" fill="#008D3D" mask="url(#path-2-outside-1_17_16)"/>
</svg>
