<svg width="52" height="52" viewBox="0 0 52 52" fill="none" xmlns="http://www.w3.org/2000/svg">
<rect x="1" y="1" width="50" height="50" fill="white"/>
<mask id="path-2-outside-1_17_18" maskUnits="userSpaceOnUse" x="0" y="0" width="52" height="52" fill="black">
<rect fill="white" width="52" height="52"/>
<path fill-rule="evenodd" clip-rule="evenodd" d="M30.8999 3.19689L35.3701 7.66669H51V29.3333H16V18.6941C14.3077 18.6323 12.665 18.1033 11.2543 17.1666L10.7502 16.8334H9.33333V19.3334H1V1.00003H9.33333V2.60607L10.1801 2.63577C10.5988 2.65245 11.0146 2.56253 11.389 2.37413L13.2567 1.43989C13.8357 1.1518 14.4733 1.00084 15.1199 1.00003H25.5967C27.5869 0.994334 29.4965 1.78535 30.8999 3.19689ZM2.66667 17.6667H7.66666V2.6667H2.66667V17.6667ZM11.2498 15.1667L12.1768 15.7799C13.314 16.5351 14.6361 16.966 16 17.0266V12.9999C15.3864 12.7745 14.8131 12.4514 14.3024 12.0433L13.8141 11.6474L14.8643 10.3526L15.3473 10.7441C16.9985 12.0641 19.3533 12.0291 20.9642 10.6611L21.5477 10.161L26.4643 15.0776C27.1182 15.7286 28.1761 15.7266 28.8275 15.0727C29.4786 14.4184 29.4765 13.3605 28.8227 12.7094L22.936 6.82237L24.114 5.6444L26.1367 7.66669H33.0133L29.7215 4.37487C28.6302 3.27745 27.1446 2.66222 25.5967 2.6667H15.1199C14.7313 2.6667 14.3476 2.75703 14.0001 2.93077L12.134 3.86502C11.5094 4.1763 10.8169 4.32644 10.1191 4.30162L9.33333 4.27355V15.1667H11.2498ZM25.2883 16.2576L24.031 14.9999C23.2681 15.9365 22.191 16.5636 21 16.7642V20.2359C23.0968 20.5943 24.739 22.2366 25.0975 24.3333H41.9025C42.261 22.2366 43.9032 20.5943 46 20.2359V16.7642C43.9032 16.4057 42.261 14.7634 41.9025 12.6667H30.7432C31.1412 13.6494 31.0395 14.7634 30.4702 15.6574C32.016 14.0168 34.5795 13.8821 36.2889 15.3518C37.9987 16.8216 38.2497 19.3761 36.8594 21.151C35.469 22.9255 32.9287 23.2929 31.0924 21.9847C29.256 20.6765 28.7734 18.1558 29.9966 16.2617C28.6892 17.5454 26.5937 17.5434 25.2883 16.2576ZM33.5 16C32.1194 16 31 17.1194 31 18.5C31 19.8806 32.1194 21 33.5 21C34.8806 21 36 19.8806 36 18.5C36 17.1194 34.8806 16 33.5 16ZM17.6667 27.6667H49.3333V9.33336H27.8034L29.47 11H43.5V11.8334C43.5 13.6742 44.9925 15.1667 46.8333 15.1667H47.6666V21.8334H46.8333C44.9925 21.8334 43.5 23.3259 43.5 25.1667V26H23.5V25.1667C23.5 23.3259 22.0075 21.8334 20.1667 21.8334H19.3333V15.1667H20.1667C21.2218 15.1647 22.213 14.6621 22.8384 13.8125L21.4167 12.3908C20.305 13.1114 18.9879 13.4483 17.6667 13.3491V27.6667ZM40.5443 35.7583L42.6666 37.0298V34.3333H51V50.9999H42.6666V49.7426L40.2216 50.7082C39.7341 50.9011 39.2145 51.0004 38.69 50.9999H26.9485C26.1733 50.9999 25.414 50.7839 24.7549 50.3758L9.58317 41.2982C8.55615 40.7033 7.92708 39.6031 7.93603 38.4157C7.93603 37.8343 8.0878 37.2626 8.3767 36.7576C8.70711 36.1778 9.20638 35.7123 9.80818 35.4242C10.0747 35.2924 10.3583 35.1992 10.6509 35.1475C11.4264 34.9986 12.2301 35.1312 12.9165 35.5218L21.3817 40.1015C21.7503 39.0741 22.5954 38.2904 23.6477 37.9999L33.2717 35.4165C33.904 35.2496 34.5551 35.1654 35.209 35.1666H38.4031C39.1571 35.167 39.8973 35.3713 40.5443 35.7583ZM38.6924 49.3333C39.0062 49.3329 39.3174 49.2735 39.6092 49.1583L42.6666 47.9498V38.9724L39.6873 37.1885C39.2995 36.9562 38.8556 36.8333 38.4031 36.8333H35.209C34.7007 36.8333 34.1946 36.9 33.7034 37.0314L24.0835 39.6051C23.4092 39.7927 22.921 40.3778 22.8575 41.0748C22.851 41.1456 22.8575 41.3474 22.8575 41.3474C22.8632 41.4516 22.8791 41.555 22.9059 41.6559C23.1041 42.3818 23.7641 42.8847 24.5168 42.8835C24.6182 42.875 25.1085 42.7749 25.4885 42.6874L34.1185 40.3806L34.5482 41.9908L25.8901 44.3076C25.4401 44.4281 24.9807 44.5103 24.5168 44.5526C23.0093 44.551 21.6897 43.5406 21.295 42.086C21.2875 42.0575 21.2842 42.0293 21.2809 42.001C21.2782 41.9788 21.2756 41.9566 21.271 41.9342L12.0917 36.9741C11.8431 36.8317 11.5615 36.7568 11.2751 36.7576C11.168 36.7576 11.061 36.7678 10.9556 36.7873C10.8112 36.8125 10.6712 36.8581 10.539 36.9224C10.2391 37.0648 9.98925 37.2955 9.82324 37.5832C9.67797 37.8371 9.60107 38.1244 9.59985 38.4165C9.59578 39.0126 9.91194 39.5652 10.4283 39.8635L25.6208 48.9516C26.0187 49.2006 26.4789 49.3329 26.9485 49.3333H38.6924ZM49.3333 49.3333V36H44.3333V49.3333H49.3333Z"/>
</mask>
<path fill-rule="evenodd" clip-rule="evenodd" d="M30.8999 3.19689L35.3701 7.66669H51V29.3333H16V18.6941C14.3077 18.6323 12.665 18.1033 11.2543 17.1666L10.7502 16.8334H9.33333V19.3334H1V1.00003H9.33333V2.60607L10.1801 2.63577C10.5988 2.65245 11.0146 2.56253 11.389 2.37413L13.2567 1.43989C13.8357 1.1518 14.4733 1.00084 15.1199 1.00003H25.5967C27.5869 0.994334 29.4965 1.78535 30.8999 3.19689ZM2.66667 17.6667H7.66666V2.6667H2.66667V17.6667ZM11.2498 15.1667L12.1768 15.7799C13.314 16.5351 14.6361 16.966 16 17.0266V12.9999C15.3864 12.7745 14.8131 12.4514 14.3024 12.0433L13.8141 11.6474L14.8643 10.3526L15.3473 10.7441C16.9985 12.0641 19.3533 12.0291 20.9642 10.6611L21.5477 10.161L26.4643 15.0776C27.1182 15.7286 28.1761 15.7266 28.8275 15.0727C29.4786 14.4184 29.4765 13.3605 28.8227 12.7094L22.936 6.82237L24.114 5.6444L26.1367 7.66669H33.0133L29.7215 4.37487C28.6302 3.27745 27.1446 2.66222 25.5967 2.6667H15.1199C14.7313 2.6667 14.3476 2.75703 14.0001 2.93077L12.134 3.86502C11.5094 4.1763 10.8169 4.32644 10.1191 4.30162L9.33333 4.27355V15.1667H11.2498ZM25.2883 16.2576L24.031 14.9999C23.2681 15.9365 22.191 16.5636 21 16.7642V20.2359C23.0968 20.5943 24.739 22.2366 25.0975 24.3333H41.9025C42.261 22.2366 43.9032 20.5943 46 20.2359V16.7642C43.9032 16.4057 42.261 14.7634 41.9025 12.6667H30.7432C31.1412 13.6494 31.0395 14.7634 30.4702 15.6574C32.016 14.0168 34.5795 13.8821 36.2889 15.3518C37.9987 16.8216 38.2497 19.3761 36.8594 21.151C35.469 22.9255 32.9287 23.2929 31.0924 21.9847C29.256 20.6765 28.7734 18.1558 29.9966 16.2617C28.6892 17.5454 26.5937 17.5434 25.2883 16.2576ZM33.5 16C32.1194 16 31 17.1194 31 18.5C31 19.8806 32.1194 21 33.5 21C34.8806 21 36 19.8806 36 18.5C36 17.1194 34.8806 16 33.5 16ZM17.6667 27.6667H49.3333V9.33336H27.8034L29.47 11H43.5V11.8334C43.5 13.6742 44.9925 15.1667 46.8333 15.1667H47.6666V21.8334H46.8333C44.9925 21.8334 43.5 23.3259 43.5 25.1667V26H23.5V25.1667C23.5 23.3259 22.0075 21.8334 20.1667 21.8334H19.3333V15.1667H20.1667C21.2218 15.1647 22.213 14.6621 22.8384 13.8125L21.4167 12.3908C20.305 13.1114 18.9879 13.4483 17.6667 13.3491V27.6667ZM40.5443 35.7583L42.6666 37.0298V34.3333H51V50.9999H42.6666V49.7426L40.2216 50.7082C39.7341 50.9011 39.2145 51.0004 38.69 50.9999H26.9485C26.1733 50.9999 25.414 50.7839 24.7549 50.3758L9.58317 41.2982C8.55615 40.7033 7.92708 39.6031 7.93603 38.4157C7.93603 37.8343 8.0878 37.2626 8.3767 36.7576C8.70711 36.1778 9.20638 35.7123 9.80818 35.4242C10.0747 35.2924 10.3583 35.1992 10.6509 35.1475C11.4264 34.9986 12.2301 35.1312 12.9165 35.5218L21.3817 40.1015C21.7503 39.0741 22.5954 38.2904 23.6477 37.9999L33.2717 35.4165C33.904 35.2496 34.5551 35.1654 35.209 35.1666H38.4031C39.1571 35.167 39.8973 35.3713 40.5443 35.7583ZM38.6924 49.3333C39.0062 49.3329 39.3174 49.2735 39.6092 49.1583L42.6666 47.9498V38.9724L39.6873 37.1885C39.2995 36.9562 38.8556 36.8333 38.4031 36.8333H35.209C34.7007 36.8333 34.1946 36.9 33.7034 37.0314L24.0835 39.6051C23.4092 39.7927 22.921 40.3778 22.8575 41.0748C22.851 41.1456 22.8575 41.3474 22.8575 41.3474C22.8632 41.4516 22.8791 41.555 22.9059 41.6559C23.1041 42.3818 23.7641 42.8847 24.5168 42.8835C24.6182 42.875 25.1085 42.7749 25.4885 42.6874L34.1185 40.3806L34.5482 41.9908L25.8901 44.3076C25.4401 44.4281 24.9807 44.5103 24.5168 44.5526C23.0093 44.551 21.6897 43.5406 21.295 42.086C21.2875 42.0575 21.2842 42.0293 21.2809 42.001C21.2782 41.9788 21.2756 41.9566 21.271 41.9342L12.0917 36.9741C11.8431 36.8317 11.5615 36.7568 11.2751 36.7576C11.168 36.7576 11.061 36.7678 10.9556 36.7873C10.8112 36.8125 10.6712 36.8581 10.539 36.9224C10.2391 37.0648 9.98925 37.2955 9.82324 37.5832C9.67797 37.8371 9.60107 38.1244 9.59985 38.4165C9.59578 39.0126 9.91194 39.5652 10.4283 39.8635L25.6208 48.9516C26.0187 49.2006 26.4789 49.3329 26.9485 49.3333H38.6924ZM49.3333 49.3333V36H44.3333V49.3333H49.3333Z" fill="#008D3D"/>
<path d="M35.3701 7.66669L35.2287 7.80812L35.2873 7.86669H35.3701V7.66669ZM30.8999 3.19689L30.7581 3.3379L30.7585 3.33832L30.8999 3.19689ZM51 7.66669H51.2V7.46669H51V7.66669ZM51 29.3333V29.5333H51.2V29.3333H51ZM16 29.3333H15.8V29.5333H16V29.3333ZM16 18.6941H16.2V18.5013L16.0073 18.4942L16 18.6941ZM11.2543 17.1666L11.3649 17L11.3646 16.9998L11.2543 17.1666ZM10.7502 16.8334L10.8604 16.6665L10.8103 16.6334H10.7502V16.8334ZM9.33333 16.8334V16.6334H9.13333V16.8334H9.33333ZM9.33333 19.3334V19.5334H9.53333V19.3334H9.33333ZM1 19.3334H0.8V19.5334H1V19.3334ZM1 1.00003V0.800031H0.8V1.00003H1ZM9.33333 1.00003H9.53333V0.800031H9.33333V1.00003ZM9.33333 2.60607H9.13333V2.79918L9.32632 2.80595L9.33333 2.60607ZM10.1801 2.63577L10.1881 2.43593L10.1871 2.43589L10.1801 2.63577ZM11.389 2.37413L11.2995 2.19526L11.2991 2.19548L11.389 2.37413ZM13.2567 1.43989L13.1676 1.26083L13.1672 1.26102L13.2567 1.43989ZM15.1199 1.00003V0.80003L15.1196 0.800031L15.1199 1.00003ZM25.5967 1.00003V1.20003L25.5973 1.20003L25.5967 1.00003ZM7.66666 17.6667V17.8667H7.86666V17.6667H7.66666ZM2.66667 17.6667H2.46667V17.8667H2.66667V17.6667ZM7.66666 2.6667H7.86666V2.4667H7.66666V2.6667ZM2.66667 2.6667V2.4667H2.46667V2.6667H2.66667ZM12.1768 15.7799L12.2874 15.6133L12.2871 15.6131L12.1768 15.7799ZM11.2498 15.1667L11.3602 14.9999L11.31 14.9667H11.2498V15.1667ZM16 17.0266L15.9911 17.2264L16.2 17.2357V17.0266H16ZM16 12.9999H16.2V12.8603L16.069 12.8122L16 12.9999ZM14.3024 12.0433L14.1764 12.1987L14.1775 12.1996L14.3024 12.0433ZM13.8141 11.6474L13.6588 11.5214L13.5328 11.6768L13.6882 11.8028L13.8141 11.6474ZM14.8643 10.3526L14.9903 10.1973L14.8349 10.0714L14.709 10.2267L14.8643 10.3526ZM15.3473 10.7441L15.2214 10.8995L15.2224 10.9003L15.3473 10.7441ZM20.9642 10.6611L21.0936 10.8135L21.0943 10.8129L20.9642 10.6611ZM21.5477 10.161L21.6891 10.0196L21.5581 9.88862L21.4175 10.0091L21.5477 10.161ZM26.4643 15.0776L26.3228 15.219L26.3231 15.2193L26.4643 15.0776ZM28.8275 15.0727L28.9692 15.2139L28.9693 15.2138L28.8275 15.0727ZM28.8227 12.7094L28.6812 12.8508L28.6815 12.8511L28.8227 12.7094ZM22.936 6.82237L22.7946 6.68095L22.6532 6.82237L22.7946 6.96379L22.936 6.82237ZM24.114 5.6444L24.2554 5.50296L24.114 5.36157L23.9726 5.50297L24.114 5.6444ZM26.1367 7.66669L25.9953 7.80813L26.0539 7.86669H26.1367V7.66669ZM33.0133 7.66669V7.86669H33.4962L33.1548 7.52527L33.0133 7.66669ZM29.7215 4.37487L29.5797 4.51589L29.5801 4.51629L29.7215 4.37487ZM25.5967 2.6667V2.8667L25.5973 2.8667L25.5967 2.6667ZM14.0001 2.93077L13.9106 2.75189L13.9105 2.75194L14.0001 2.93077ZM12.134 3.86502L12.2232 4.04402L12.2236 4.04386L12.134 3.86502ZM10.1191 4.30162L10.1119 4.5015L10.1119 4.5015L10.1191 4.30162ZM9.33333 4.27355L9.34047 4.07368L9.13333 4.06627V4.27355H9.33333ZM9.33333 15.1667H9.13333V15.3667H9.33333V15.1667ZM24.031 14.9999L24.1724 14.8585L24.0158 14.7018L23.8759 14.8736L24.031 14.9999ZM25.2883 16.2576L25.1469 16.399L25.148 16.4001L25.2883 16.2576ZM21 16.7642L20.9668 16.567L20.8 16.595V16.7642H21ZM21 20.2359H20.8V20.4046L20.9663 20.433L21 20.2359ZM25.0975 24.3333L24.9003 24.3671L24.9288 24.5333H25.0975V24.3333ZM41.9025 24.3333V24.5333H42.0712L42.0996 24.3671L41.9025 24.3333ZM46 20.2359L46.0337 20.433L46.2 20.4046V20.2359H46ZM46 16.7642H46.2V16.5955L46.0337 16.567L46 16.7642ZM41.9025 12.6667L42.0996 12.633L42.0712 12.4667H41.9025V12.6667ZM30.7432 12.6667V12.4667H30.4465L30.5579 12.7418L30.7432 12.6667ZM30.4702 15.6574L30.3015 15.55L30.6158 15.7946L30.4702 15.6574ZM36.2889 15.3518L36.1585 15.5035L36.1585 15.5035L36.2889 15.3518ZM36.8594 21.151L37.0168 21.2743L37.0168 21.2743L36.8594 21.151ZM31.0924 21.9847L30.9763 22.1476L31.0924 21.9847ZM29.9966 16.2617L30.1646 16.3702L29.8564 16.119L29.9966 16.2617ZM49.3333 27.6667V27.8667H49.5333V27.6667H49.3333ZM17.6667 27.6667H17.4667V27.8667H17.6667V27.6667ZM49.3333 9.33336H49.5333V9.13336H49.3333V9.33336ZM27.8034 9.33336V9.13336H27.3205L27.6619 9.47478L27.8034 9.33336ZM29.47 11L29.3286 11.1414L29.3872 11.2H29.47V11ZM43.5 11H43.7V10.8H43.5V11ZM47.6666 15.1667H47.8666V14.9667H47.6666V15.1667ZM47.6666 21.8334V22.0334H47.8666V21.8334H47.6666ZM43.5 26V26.2H43.7V26H43.5ZM23.5 26H23.3V26.2H23.5V26ZM19.3333 21.8334H19.1333V22.0334H19.3333V21.8334ZM19.3333 15.1667V14.9667H19.1333V15.1667H19.3333ZM20.1667 15.1667V15.3667L20.167 15.3667L20.1667 15.1667ZM22.8384 13.8125L22.9994 13.9311L23.1013 13.7927L22.9798 13.6711L22.8384 13.8125ZM21.4167 12.3908L21.5581 12.2494L21.4437 12.135L21.3079 12.223L21.4167 12.3908ZM17.6667 13.3491L17.6816 13.1496L17.4667 13.1335V13.3491H17.6667ZM42.6666 37.0298L42.5639 37.2014L42.8666 37.3828V37.0298H42.6666ZM40.5443 35.7583L40.647 35.5867L40.6469 35.5866L40.5443 35.7583ZM42.6666 34.3333V34.1333H42.4666V34.3333H42.6666ZM51 34.3333H51.2V34.1333H51V34.3333ZM51 50.9999V51.1999H51.2V50.9999H51ZM42.6666 50.9999H42.4666V51.1999H42.6666V50.9999ZM42.6666 49.7426H42.8666V49.4486L42.5932 49.5566L42.6666 49.7426ZM40.2216 50.7082L40.1481 50.5222L40.148 50.5222L40.2216 50.7082ZM38.69 50.9999L38.6902 50.7999H38.69V50.9999ZM24.7549 50.3758L24.8602 50.2057L24.8576 50.2041L24.7549 50.3758ZM9.58317 41.2982L9.68586 41.1266L9.68341 41.1251L9.58317 41.2982ZM7.93603 38.4157L8.13603 38.4172V38.4157H7.93603ZM8.3767 36.7576L8.5503 36.8569L8.55047 36.8566L8.3767 36.7576ZM9.80818 35.4242L9.89454 35.6046L9.89686 35.6035L9.80818 35.4242ZM10.6509 35.1475L10.6857 35.3445L10.6886 35.3439L10.6509 35.1475ZM12.9165 35.5218L12.8176 35.6957L12.8213 35.6978L12.9165 35.5218ZM21.3817 40.1015L21.2865 40.2774L21.4913 40.3882L21.5699 40.1691L21.3817 40.1015ZM23.6477 37.9999L23.5958 37.8067L23.5945 37.8071L23.6477 37.9999ZM33.2717 35.4165L33.2207 35.2231L33.2199 35.2233L33.2717 35.4165ZM35.209 35.1666L35.2086 35.3666H35.209V35.1666ZM38.4031 35.1666L38.4032 34.9666H38.4031V35.1666ZM39.6092 49.1583L39.6826 49.3443L39.6827 49.3443L39.6092 49.1583ZM38.6924 49.3333V49.5333H38.6927L38.6924 49.3333ZM42.6666 47.9498L42.7402 48.1358L42.8666 48.0858V47.9498H42.6666ZM42.6666 38.9724H42.8666V38.859L42.7694 38.8008L42.6666 38.9724ZM39.6873 37.1885L39.5845 37.3601L39.5846 37.3601L39.6873 37.1885ZM33.7034 37.0314L33.7551 37.2247L33.7551 37.2247L33.7034 37.0314ZM24.0835 39.6051L24.0318 39.4119L24.0299 39.4124L24.0835 39.6051ZM22.8575 41.0748L23.0567 41.0931L23.0567 41.093L22.8575 41.0748ZM22.8575 41.3474L22.6575 41.3539L22.6578 41.3584L22.8575 41.3474ZM22.9059 41.6559L22.7126 41.7073L22.713 41.7085L22.9059 41.6559ZM24.5168 42.8835L24.5172 43.0835L24.5254 43.0835L24.5336 43.0828L24.5168 42.8835ZM25.4885 42.6874L25.5334 42.8824L25.5402 42.8806L25.4885 42.6874ZM34.1185 40.3806L34.3117 40.3291L34.2601 40.1358L34.0668 40.1874L34.1185 40.3806ZM34.5482 41.9908L34.5999 42.184L34.7929 42.1323L34.7414 41.9392L34.5482 41.9908ZM25.8901 44.3076L25.8384 44.1144L25.8384 44.1144L25.8901 44.3076ZM24.5168 44.5526L24.5166 44.7526L24.5258 44.7526L24.535 44.7518L24.5168 44.5526ZM21.295 42.086L21.1016 42.137L21.102 42.1383L21.295 42.086ZM21.2809 42.001L21.4795 41.9777L21.4795 41.9777L21.2809 42.001ZM21.271 41.9342L21.4668 41.8935L21.4479 41.8024L21.3661 41.7582L21.271 41.9342ZM12.0917 36.9741L11.9923 37.1477L11.9966 37.15L12.0917 36.9741ZM11.2751 36.7576V36.9576H11.2756L11.2751 36.7576ZM10.9556 36.7873L10.9901 36.9843L10.9921 36.984L10.9556 36.7873ZM10.539 36.9224L10.6248 37.1031L10.6264 37.1023L10.539 36.9224ZM9.82324 37.5832L9.65001 37.4832L9.64964 37.4839L9.82324 37.5832ZM9.59985 38.4165L9.79984 38.4179L9.79985 38.4174L9.59985 38.4165ZM10.4283 39.8635L10.531 39.6918L10.5283 39.6903L10.4283 39.8635ZM25.6208 48.9516L25.7269 48.782L25.7234 48.78L25.6208 48.9516ZM26.9485 49.3333L26.9483 49.5333H26.9485V49.3333ZM49.3333 36H49.5333V35.8H49.3333V36ZM49.3333 49.3333V49.5333H49.5333V49.3333H49.3333ZM44.3333 36V35.8H44.1333V36H44.3333ZM44.3333 49.3333H44.1333V49.5333H44.3333V49.3333ZM35.5115 7.52527L31.0413 3.05546L30.7585 3.33832L35.2287 7.80812L35.5115 7.52527ZM51 7.46669H35.3701V7.86669H51V7.46669ZM51.2 29.3333V7.66669H50.8V29.3333H51.2ZM16 29.5333H51V29.1333H16V29.5333ZM15.8 18.6941V29.3333H16.2V18.6941H15.8ZM11.1437 17.3332C12.5851 18.2903 14.2635 18.8308 15.9927 18.894L16.0073 18.4942C14.3519 18.4337 12.745 17.9163 11.3649 17L11.1437 17.3332ZM10.6399 17.0002L11.144 17.3335L11.3646 16.9998L10.8604 16.6665L10.6399 17.0002ZM9.33333 17.0334H10.7502V16.6334H9.33333V17.0334ZM9.53333 19.3334V16.8334H9.13333V19.3334H9.53333ZM1 19.5334H9.33333V19.1334H1V19.5334ZM0.8 1.00003V19.3334H1.2V1.00003H0.8ZM9.33333 0.800031H1V1.20003H9.33333V0.800031ZM9.53333 2.60607V1.00003H9.13333V2.60607H9.53333ZM10.1871 2.43589L9.34034 2.40619L9.32632 2.80595L10.1731 2.83565L10.1871 2.43589ZM11.2991 2.19548C10.9551 2.36861 10.5729 2.45126 10.1881 2.43593L10.1721 2.83561C10.6247 2.85365 11.0742 2.75644 11.4789 2.55279L11.2991 2.19548ZM13.1672 1.26102L11.2995 2.19526L11.4785 2.553L13.3461 1.61876L13.1672 1.26102ZM15.1196 0.800031C14.4421 0.800884 13.7741 0.959074 13.1676 1.26083L13.3458 1.61895C13.8973 1.34453 14.5045 1.20081 15.1201 1.20003L15.1196 0.800031ZM25.5967 0.800031H15.1199V1.20003H25.5967V0.800031ZM31.0417 3.05588C29.6006 1.60644 27.6398 0.794182 25.5962 0.800031L25.5973 1.20003C27.534 1.19449 29.3923 1.96426 30.7581 3.3379L31.0417 3.05588ZM7.66666 17.4667H2.66667V17.8667H7.66666V17.4667ZM7.46666 2.6667V17.6667H7.86666V2.6667H7.46666ZM2.66667 2.8667H7.66666V2.4667H2.66667V2.8667ZM2.86667 17.6667V2.6667H2.46667V17.6667H2.86667ZM12.2871 15.6131L11.3602 14.9999L11.1395 15.3335L12.0664 15.9467L12.2871 15.6131ZM16.0089 16.8268C14.6812 16.7678 13.3944 16.3484 12.2874 15.6133L12.0661 15.9465C13.2337 16.7218 14.5909 17.1642 15.9911 17.2264L16.0089 16.8268ZM15.8 12.9999V17.0266H16.2V12.9999H15.8ZM14.1775 12.1996C14.705 12.6211 15.2972 12.9548 15.931 13.1877L16.069 12.8122C15.4756 12.5942 14.9211 12.2818 14.4273 11.8871L14.1775 12.1996ZM13.6882 11.8028L14.1764 12.1987L14.4284 11.888L13.9401 11.4921L13.6882 11.8028ZM14.709 10.2267L13.6588 11.5214L13.9694 11.7734L15.0197 10.4786L14.709 10.2267ZM15.4732 10.5887L14.9903 10.1973L14.7384 10.508L15.2214 10.8995L15.4732 10.5887ZM20.8347 10.5086C19.2968 11.8147 17.0487 11.8481 15.4722 10.5879L15.2224 10.9003C16.9484 12.28 19.4098 12.2435 21.0936 10.8135L20.8347 10.5086ZM21.4175 10.0091L20.834 10.5092L21.0943 10.8129L21.6778 10.3129L21.4175 10.0091ZM26.6057 14.9362L21.6891 10.0196L21.4063 10.3024L26.3228 15.219L26.6057 14.9362ZM28.6859 14.9315C28.1123 15.5072 27.181 15.509 26.6054 14.9358L26.3231 15.2193C27.0553 15.9483 28.2398 15.946 28.9692 15.2139L28.6859 14.9315ZM28.6815 12.8511C29.2571 13.4242 29.259 14.3555 28.6858 14.9316L28.9693 15.2138C29.6982 14.4813 29.696 13.2967 28.9638 12.5677L28.6815 12.8511ZM22.7946 6.96379L28.6812 12.8508L28.9641 12.568L23.0774 6.68096L22.7946 6.96379ZM23.9726 5.50297L22.7946 6.68095L23.0774 6.9638L24.2554 5.78582L23.9726 5.50297ZM26.2781 7.52526L24.2554 5.50296L23.9726 5.78583L25.9953 7.80813L26.2781 7.52526ZM33.0133 7.46669H26.1367V7.86669H33.0133V7.46669ZM29.5801 4.51629L32.8719 7.80811L33.1548 7.52527L29.8629 4.23344L29.5801 4.51629ZM25.5973 2.8667C27.0917 2.86237 28.5261 3.45638 29.5797 4.51589L29.8633 4.23384C28.7343 3.09853 27.1975 2.46207 25.5962 2.4667L25.5973 2.8667ZM15.1199 2.8667H25.5967V2.4667H15.1199V2.8667ZM14.0895 3.10966C14.4092 2.94984 14.7622 2.8667 15.1199 2.8667V2.4667C14.7003 2.4667 14.286 2.56422 13.9106 2.75189L14.0895 3.10966ZM12.2236 4.04386L14.0896 3.10961L13.9105 2.75194L12.0445 3.68618L12.2236 4.04386ZM10.1119 4.5015C10.8431 4.5275 11.5688 4.37018 12.2232 4.04402L12.0448 3.68602C11.4501 3.98242 10.7906 4.12539 10.1262 4.10175L10.1119 4.5015ZM9.32619 4.47342L10.1119 4.5015L10.1262 4.10175L9.34047 4.07368L9.32619 4.47342ZM9.53333 15.1667V4.27355H9.13333V15.1667H9.53333ZM11.2498 14.9667H9.33333V15.3667H11.2498V14.9667ZM23.8895 15.1413L25.1469 16.399L25.4298 16.1162L24.1724 14.8585L23.8895 15.1413ZM21.0332 16.9614C22.2721 16.7527 23.3925 16.1005 24.1861 15.1262L23.8759 14.8736C23.1436 15.7726 22.1099 16.3744 20.9668 16.567L21.0332 16.9614ZM21.2 20.2359V16.7642H20.8V20.2359H21.2ZM25.2946 24.2996C24.9218 22.1193 23.2141 20.4115 21.0337 20.0387L20.9663 20.433C22.9794 20.7772 24.5562 22.3539 24.9003 24.3671L25.2946 24.2996ZM41.9025 24.1334H25.0975V24.5333H41.9025V24.1334ZM45.9663 20.0387C43.7859 20.4115 42.0781 22.1193 41.7053 24.2996L42.0996 24.3671C42.4438 22.3539 44.0205 20.7772 46.0337 20.433L45.9663 20.0387ZM45.8 16.7642V20.2359H46.2V16.7642H45.8ZM41.7053 12.7004C42.0781 14.8808 43.7859 16.5885 45.9663 16.9613L46.0337 16.567C44.0205 16.2229 42.4438 14.6461 42.0996 12.633L41.7053 12.7004ZM30.7432 12.8667H41.9025V12.4667H30.7432V12.8667ZM30.6389 15.7648C31.2429 14.8163 31.3508 13.6342 30.9286 12.5916L30.5579 12.7418C30.9315 13.6645 30.836 14.7106 30.3015 15.55L30.6389 15.7648ZM36.4193 15.2002C34.6288 13.6607 31.9438 13.8018 30.3246 15.5203L30.6158 15.7946C32.0883 14.2318 34.5302 14.1035 36.1585 15.5035L36.4193 15.2002ZM37.0168 21.2743C38.4731 19.4153 38.2102 16.7396 36.4193 15.2002L36.1585 15.5035C37.7872 16.9035 38.0264 19.3369 36.7019 21.0276L37.0168 21.2743ZM30.9763 22.1476C32.8997 23.5178 35.5605 23.133 37.0168 21.2743L36.7019 21.0276C35.3775 22.718 32.9577 23.068 31.2084 21.8218L30.9763 22.1476ZM29.8286 16.1532C28.5474 18.1371 29.0529 20.7774 30.9763 22.1476L31.2084 21.8218C29.4591 20.5757 28.9994 18.1745 30.1646 16.3702L29.8286 16.1532ZM25.148 16.4001C26.531 17.7625 28.7514 17.7646 30.1367 16.4044L29.8564 16.119C28.627 17.3262 26.6563 17.3243 25.4287 16.1151L25.148 16.4001ZM31.2 18.5C31.2 17.2299 32.2298 16.2 33.5 16.2V15.8C32.0089 15.8 30.8 17.0089 30.8 18.5H31.2ZM33.5 20.8C32.2298 20.8 31.2 19.7702 31.2 18.5H30.8C30.8 19.9911 32.0089 21.2 33.5 21.2V20.8ZM35.8 18.5C35.8 19.7702 34.7701 20.8 33.5 20.8V21.2C34.9911 21.2 36.2 19.9911 36.2 18.5H35.8ZM33.5 16.2C34.7701 16.2 35.8 17.2299 35.8 18.5H36.2C36.2 17.0089 34.9911 15.8 33.5 15.8V16.2ZM49.3333 27.4667H17.6667V27.8667H49.3333V27.4667ZM49.1333 9.33336V27.6667H49.5333V9.33336H49.1333ZM27.8034 9.53336H49.3333V9.13336H27.8034V9.53336ZM29.6115 10.8586L27.9448 9.19194L27.6619 9.47478L29.3286 11.1414L29.6115 10.8586ZM43.5 10.8H29.47V11.2H43.5V10.8ZM43.7 11.8334V11H43.3V11.8334H43.7ZM46.8333 14.9667C45.1029 14.9667 43.7 13.5637 43.7 11.8334H43.3C43.3 13.7846 44.882 15.3667 46.8333 15.3667V14.9667ZM47.6666 14.9667H46.8333V15.3667H47.6666V14.9667ZM47.8666 21.8334V15.1667H47.4666V21.8334H47.8666ZM46.8333 22.0334H47.6666V21.6334H46.8333V22.0334ZM43.7 25.1667C43.7 23.4363 45.1029 22.0334 46.8333 22.0334V21.6334C44.882 21.6334 43.3 23.2154 43.3 25.1667H43.7ZM43.7 26V25.1667H43.3V26H43.7ZM23.5 26.2H43.5V25.8H23.5V26.2ZM23.3 25.1667V26H23.7V25.1667H23.3ZM20.1667 22.0334C21.897 22.0334 23.3 23.4363 23.3 25.1667H23.7C23.7 23.2154 22.1179 21.6334 20.1667 21.6334V22.0334ZM19.3333 22.0334H20.1667V21.6334H19.3333V22.0334ZM19.1333 15.1667V21.8334H19.5333V15.1667H19.1333ZM20.1667 14.9667H19.3333V15.3667H20.1667V14.9667ZM22.6773 13.694C22.0895 14.4925 21.1579 14.9648 20.1663 14.9667L20.167 15.3667C21.2856 15.3645 22.3364 14.8318 22.9994 13.9311L22.6773 13.694ZM21.2752 12.5322L22.6969 13.9539L22.9798 13.6711L21.5581 12.2494L21.2752 12.5322ZM17.6517 13.5485C19.0165 13.6511 20.3771 13.303 21.5254 12.5586L21.3079 12.223C20.2329 12.9198 18.9592 13.2456 17.6816 13.1496L17.6517 13.5485ZM17.8667 27.6667V13.3491H17.4667V27.6667H17.8667ZM42.7694 36.8583L40.647 35.5867L40.4415 35.9298L42.5639 37.2014L42.7694 36.8583ZM42.4666 34.3333V37.0298H42.8666V34.3333H42.4666ZM51 34.1333H42.6666V34.5333H51V34.1333ZM51.2 50.9999V34.3333H50.8V50.9999H51.2ZM42.6666 51.1999H51V50.7999H42.6666V51.1999ZM42.4666 49.7426V50.9999H42.8666V49.7426H42.4666ZM40.295 50.8942L42.7401 49.9286L42.5932 49.5566L40.1481 50.5222L40.295 50.8942ZM38.6898 51.1999C39.2397 51.2004 39.7843 51.0963 40.2952 50.8942L40.148 50.5222C39.6839 50.7058 39.1893 50.8003 38.6902 50.7999L38.6898 51.1999ZM26.9485 51.1999H38.69V50.7999H26.9485V51.1999ZM24.6496 50.5458C25.3404 50.9735 26.1361 51.1999 26.9485 51.1999V50.7999C26.2105 50.7999 25.4877 50.5943 24.8602 50.2057L24.6496 50.5458ZM9.48048 41.4698L24.6522 50.5474L24.8576 50.2041L9.68585 41.1266L9.48048 41.4698ZM7.73604 38.4142C7.72654 39.6735 8.39372 40.8404 9.48292 41.4713L9.68341 41.1251C8.71858 40.5663 8.12761 39.5327 8.13602 38.4172L7.73604 38.4142ZM8.20311 36.6583C7.89689 37.1935 7.73603 37.7995 7.73603 38.4157H8.13603C8.13603 37.8691 8.27872 37.3316 8.5503 36.8569L8.20311 36.6583ZM9.72182 35.2438C9.08317 35.5495 8.55345 36.0435 8.20294 36.6586L8.55047 36.8566C8.86076 36.3121 9.32958 35.875 9.89454 35.6046L9.72182 35.2438ZM10.6161 34.9506C10.3048 35.0055 10.003 35.1047 9.71951 35.2449L9.89686 35.6035C10.1464 35.48 10.4119 35.3928 10.6857 35.3445L10.6161 34.9506ZM13.0154 35.348C12.2875 34.9338 11.4355 34.7932 10.6132 34.9511L10.6886 35.3439C11.4174 35.204 12.1726 35.3286 12.8176 35.6957L13.0154 35.348ZM21.4768 39.9256L13.0117 35.3459L12.8213 35.6978L21.2865 40.2774L21.4768 39.9256ZM23.5945 37.8071C22.4795 38.1149 21.584 38.9453 21.1934 40.034L21.5699 40.1691C21.9166 39.2029 22.7113 38.4659 23.7009 38.1927L23.5945 37.8071ZM33.2199 35.2233L23.5958 37.8067L23.6995 38.193L33.3236 35.6096L33.2199 35.2233ZM35.2093 34.9666C34.538 34.9654 33.8697 35.0518 33.2207 35.2231L33.3227 35.6098C33.9384 35.4474 34.5721 35.3654 35.2086 35.3666L35.2093 34.9666ZM38.4031 34.9666H35.209V35.3666H38.4031V34.9666ZM40.6469 35.5866C39.9689 35.1811 39.1933 34.967 38.4032 34.9666L38.403 35.3666C39.121 35.367 39.8257 35.5615 40.4416 35.9299L40.6469 35.5866ZM39.5358 48.9723C39.2673 49.0782 38.9809 49.1329 38.6922 49.1333L38.6927 49.5333C39.0315 49.5328 39.3676 49.4687 39.6826 49.3443L39.5358 48.9723ZM42.5931 47.7638L39.5357 48.9723L39.6827 49.3443L42.7402 48.1358L42.5931 47.7638ZM42.4666 38.9724V47.9498H42.8666V38.9724H42.4666ZM39.5846 37.3601L42.5639 39.144L42.7694 38.8008L39.7901 37.0169L39.5846 37.3601ZM38.4031 37.0333C38.8194 37.0333 39.2278 37.1463 39.5845 37.3601L39.7901 37.017C39.3713 36.766 38.8918 36.6333 38.4031 36.6333V37.0333ZM35.209 37.0333H38.4031V36.6333H35.209V37.0333ZM33.7551 37.2247C34.2294 37.0977 34.7183 37.0333 35.209 37.0333V36.6333C34.6832 36.6333 34.1597 36.7023 33.6517 36.8382L33.7551 37.2247ZM24.1352 39.7983L33.7551 37.2247L33.6517 36.8382L24.0318 39.4119L24.1352 39.7983ZM23.0567 41.093C23.1126 40.4788 23.5429 39.9631 24.1371 39.7978L24.0299 39.4124C23.2756 39.6223 22.7293 40.2768 22.6583 41.0567L23.0567 41.093ZM22.8575 41.3474C23.0574 41.341 23.0574 41.341 23.0574 41.341C23.0574 41.341 23.0574 41.341 23.0574 41.341C23.0574 41.341 23.0574 41.341 23.0574 41.341C23.0574 41.341 23.0574 41.341 23.0574 41.3409C23.0574 41.3408 23.0574 41.3407 23.0574 41.3406C23.0574 41.3402 23.0573 41.3397 23.0573 41.339C23.0573 41.3376 23.0572 41.3355 23.0571 41.3328C23.057 41.3274 23.0568 41.3195 23.0565 41.3097C23.056 41.2902 23.0554 41.2636 23.055 41.2349C23.0542 41.173 23.0545 41.116 23.0567 41.0931L22.6583 41.0565C22.6539 41.1044 22.6543 41.1837 22.6551 41.2404C22.6555 41.2711 22.6561 41.2993 22.6566 41.3199C22.6569 41.3302 22.6571 41.3386 22.6573 41.3445C22.6574 41.3474 22.6575 41.3497 22.6575 41.3513C22.6575 41.3521 22.6576 41.3527 22.6576 41.3532C22.6576 41.3534 22.6576 41.3536 22.6576 41.3537C22.6576 41.3537 22.6576 41.3538 22.6576 41.3538C22.6576 41.3538 22.6576 41.3539 22.6576 41.3539C22.6576 41.3539 22.6576 41.3539 22.6576 41.3539C22.6576 41.3539 22.6576 41.3539 22.8575 41.3474ZM23.0992 41.6044C23.076 41.5174 23.0622 41.4277 23.0572 41.3365L22.6578 41.3584C22.6642 41.4756 22.6821 41.5925 22.7126 41.7073L23.0992 41.6044ZM24.5165 42.6835C23.854 42.6846 23.2732 42.242 23.0989 41.6032L22.713 41.7085C22.9349 42.5216 23.6742 43.0849 24.5172 43.0835L24.5165 42.6835ZM25.4436 42.4925C25.2554 42.5358 25.0395 42.5823 24.8584 42.619C24.6706 42.6571 24.5363 42.6811 24.5 42.6842L24.5336 43.0828C24.5987 43.0773 24.7602 43.047 24.9379 43.0111C25.1223 42.9737 25.3416 42.9264 25.5334 42.8823L25.4436 42.4925ZM34.0668 40.1874L25.4369 42.4942L25.5402 42.8806L34.1701 40.5739L34.0668 40.1874ZM34.7414 41.9392L34.3117 40.3291L33.9252 40.4322L34.3549 42.0423L34.7414 41.9392ZM25.9418 44.5009L34.5999 42.184L34.4965 41.7976L25.8384 44.1144L25.9418 44.5009ZM24.535 44.7518C25.0103 44.7084 25.4809 44.6242 25.9418 44.5008L25.8384 44.1144C25.3993 44.232 24.9511 44.3122 24.4987 44.3534L24.535 44.7518ZM21.102 42.1383C21.5203 43.6801 22.9189 44.7509 24.5166 44.7526L24.517 44.3526C23.0997 44.3511 21.8591 43.4012 21.488 42.0336L21.102 42.1383ZM21.0822 42.0243C21.0853 42.0506 21.0899 42.0927 21.1016 42.137L21.4884 42.0349C21.485 42.0223 21.483 42.008 21.4795 41.9777L21.0822 42.0243ZM21.0752 41.9749C21.0777 41.9873 21.0795 42.0008 21.0822 42.0243L21.4795 41.9777C21.477 41.9569 21.4735 41.9259 21.4668 41.8935L21.0752 41.9749ZM11.9966 37.15L21.1759 42.1102L21.3661 41.7582L12.1868 36.7981L11.9966 37.15ZM11.2756 36.9576C11.5268 36.9569 11.774 37.0225 11.9923 37.1476L12.1911 36.8005C11.9122 36.6408 11.5962 36.5567 11.2745 36.5576L11.2756 36.9576ZM10.9921 36.984C11.0859 36.9666 11.1807 36.9576 11.2751 36.9576V36.5576C11.1554 36.5576 11.0362 36.569 10.9192 36.5907L10.9921 36.984ZM10.6264 37.1023C10.7421 37.046 10.8643 37.0063 10.9901 36.9843L10.9212 36.5903C10.7581 36.6188 10.6003 36.6702 10.4515 36.7425L10.6264 37.1023ZM9.99646 37.6832C10.1422 37.4306 10.3616 37.2281 10.6248 37.1031L10.4532 36.7417C10.1166 36.9016 9.83629 37.1605 9.65001 37.4832L9.99646 37.6832ZM9.79985 38.4174C9.80092 38.1598 9.86874 37.9064 9.99683 37.6825L9.64964 37.4839C9.4872 37.7678 9.40121 38.089 9.39985 38.4157L9.79985 38.4174ZM10.5283 39.6903C10.0743 39.428 9.79626 38.9421 9.79984 38.4179L9.39985 38.4152C9.39529 39.0832 9.74958 39.7024 10.3283 40.0367L10.5283 39.6903ZM25.7234 48.78L10.531 39.6918L10.3256 40.0351L25.5181 49.1232L25.7234 48.78ZM26.9486 49.1333C26.5165 49.1329 26.093 49.0112 25.7268 48.7821L25.5147 49.1211C25.9444 49.3901 26.4413 49.5328 26.9483 49.5333L26.9486 49.1333ZM38.6924 49.1333H26.9485V49.5333H38.6924V49.1333ZM49.1333 36V49.3333H49.5333V36H49.1333ZM44.3333 36.2H49.3333V35.8H44.3333V36.2ZM44.5333 49.3333V36H44.1333V49.3333H44.5333ZM49.3333 49.1333H44.3333V49.5333H49.3333V49.1333Z" fill="#008D3D" mask="url(#path-2-outside-1_17_18)"/>
</svg>
