<svg width="52" height="52" viewBox="0 0 52 52" fill="none" xmlns="http://www.w3.org/2000/svg">
<rect x="1" y="1" width="50" height="50" fill="white"/>
<mask id="path-2-outside-1_17_17" maskUnits="userSpaceOnUse" x="0" y="0" width="52" height="52" fill="black">
<rect fill="white" width="52" height="52"/>
<path fill-rule="evenodd" clip-rule="evenodd" d="M49.7858 20.8421C51.1453 22.1813 51.3963 24.2517 50.3962 25.8771L48.9548 28.2196C48.6299 28.7475 48.5524 29.3887 48.7422 29.9789L49.5855 32.6017C50.1707 34.4213 49.4315 36.3738 47.7878 37.3497L45.4515 38.7367C44.9161 39.0545 44.549 39.589 44.4444 40.2027L43.9847 42.8999C43.6614 44.7962 42.0938 46.1871 40.1726 46.2826L37.4962 46.4157C36.87 46.4467 36.2934 46.7508 35.9141 47.2499L34.2831 49.3962C33.1311 50.912 31.043 51.4274 29.318 50.6221L26.8992 49.4925C26.3295 49.2264 25.6758 49.2264 25.1059 49.4925L22.687 50.6221C22.1402 50.8772 21.5565 50.9997 20.978 50.9997C19.7321 50.9997 18.5088 50.4312 17.7222 49.3963L16.0906 47.2495C15.7114 46.7505 15.1348 46.4465 14.5088 46.4155L11.8328 46.2825C9.91166 46.1869 8.34401 44.796 8.02074 42.8998L7.56092 40.2025C7.45632 39.5887 7.08919 39.0544 6.55379 38.7364L4.21751 37.3494C2.57388 36.3735 1.83464 34.4212 2.41976 32.6014L3.26311 29.9787C3.45278 29.3887 3.37533 28.7474 3.05049 28.2194L1.60903 25.877C0.608925 24.2517 0.859928 22.1813 2.21925 20.8421L4.16877 18.9217C4.611 18.4859 4.83954 17.8808 4.7954 17.2615L4.60007 14.5186C4.46382 12.6062 5.65076 10.8841 7.48631 10.3307L10.0672 9.55263C10.6654 9.37224 11.1512 8.93997 11.3997 8.36666L12.4808 5.87334C13.2364 4.13087 15.1377 3.13164 17.001 3.49741L19.6204 4.01152C20.2367 4.13233 20.8707 3.97558 21.3596 3.58091L23.4446 1.89753C24.9268 0.700823 27.0784 0.700823 28.5606 1.89753L30.6456 3.58091C31.1344 3.97558 31.7684 4.13253 32.3848 4.01152L35.0039 3.4975C36.8673 3.13184 38.769 4.13107 39.5242 5.87383L40.6047 8.36647C40.8532 8.93987 41.3389 9.37214 41.9373 9.55263L44.5187 10.3308C46.3542 10.8842 47.5413 12.6064 47.405 14.5188L47.2097 17.2615C47.1656 17.8808 47.3941 18.486 47.8363 18.9217L49.7858 20.8421ZM46.8829 30.5763C46.5183 29.4424 46.6672 28.2103 47.2914 27.1958L48.733 24.8533C49.2535 24.0074 49.1229 22.93 48.4154 22.2331L46.466 20.3126C45.6159 19.4753 45.1771 18.3126 45.2618 17.1225L45.4572 14.3796C45.5281 13.3844 44.9103 12.4881 43.9551 12.2002L41.3736 11.422C40.2238 11.0753 39.2905 10.2446 38.8128 9.14282L37.7322 6.65018C37.3391 5.74325 36.3499 5.22307 35.3798 5.41362L32.7607 5.92764C31.5761 6.16009 30.3578 5.85859 29.4185 5.10011L27.3335 3.41683C26.5621 2.79401 25.4425 2.79401 24.6711 3.41683L22.5863 5.1005C21.6471 5.85879 20.4289 6.16038 19.2442 5.92803L16.6248 5.41391C16.4907 5.38754 16.3562 5.37475 16.2229 5.37475C15.3927 5.37475 14.6114 5.86894 14.2726 6.65027L13.1915 9.1435C12.7139 10.245 11.7806 11.0757 10.631 11.4223L8.05004 12.2004C7.09476 12.4884 6.47712 13.3846 6.54802 14.3797L6.74336 17.1227C6.82803 18.3127 6.38922 19.4754 5.53923 20.3127L3.58971 22.2332C2.88231 22.9301 2.75163 24.0076 3.27209 24.8534L4.71355 27.1959C5.33784 28.2104 5.48658 29.4425 5.12209 30.5764L4.27874 33.1992C3.97412 34.1462 4.35893 35.1623 5.21429 35.6701L7.55057 37.0572C8.57949 37.668 9.28483 38.6947 9.48593 39.8743L9.94564 42.5714C10.1139 43.5581 10.9296 44.282 11.9293 44.3317L14.6054 44.4647C15.8084 44.5245 16.9163 45.1087 17.6452 46.0677L19.2768 48.2144C19.8763 49.0031 20.9629 49.2711 21.8606 48.8521L24.2795 47.7225C25.3744 47.2113 26.6304 47.2113 27.7253 47.7225L30.1441 48.8521C31.0418 49.2711 32.1285 49.0029 32.728 48.2142L34.359 46.068C35.0879 45.1088 36.1959 44.5245 37.3991 44.4647L40.0756 44.3317C41.0754 44.2821 41.8911 43.5581 42.0594 42.5713L42.5191 39.8742C42.7201 38.6947 43.4255 37.668 44.4544 37.0571L46.7907 35.67C47.646 35.1621 48.0307 34.1461 47.7263 33.1991L46.8829 30.5763ZM12.9014 12.8626C13.2848 12.4831 13.903 12.4863 14.2823 12.8695C14.6618 13.2528 14.6586 13.8711 14.2755 14.2504L14.2612 14.2647C14.0708 14.453 13.8225 14.5471 13.5742 14.5471C13.3227 14.5471 13.0713 14.4506 12.8802 14.2577C12.5008 13.8745 12.5039 13.2562 12.8872 12.8768L12.9014 12.8626ZM44.2415 22.5905C43.5552 18.9011 41.7848 15.5434 39.1216 12.8803C33.1151 6.87378 23.8265 5.70579 16.5331 10.04C16.0695 10.3155 15.9171 10.9147 16.1926 11.3784C16.4682 11.842 17.0673 11.9943 17.5309 11.7189C24.0557 7.84117 32.3662 8.88679 37.7407 14.2613C42.5461 19.0668 43.9404 26.2159 41.2928 32.4744C41.0826 32.971 41.3149 33.5441 41.8116 33.7541C41.9358 33.8067 42.0647 33.8315 42.1916 33.8315C42.5721 33.8315 42.9338 33.6076 43.0914 33.2352C44.5138 29.8731 44.9114 26.1921 44.2415 22.5905ZM37.7441 37.7336C38.1273 37.3542 38.7456 37.3574 39.125 37.7405C39.5044 38.1238 39.5013 38.7421 39.1181 39.1214L39.1039 39.1357C38.9135 39.324 38.6652 39.4181 38.4169 39.4181C38.1653 39.4181 37.9139 39.3216 37.7229 39.1288C37.3434 38.7455 37.3466 38.1272 37.7298 37.7478L37.7441 37.7336ZM35.8127 40.62C35.5372 40.1564 34.938 40.004 34.4744 40.2794C31.8404 41.8448 28.9162 42.6078 26.0109 42.6077C21.7191 42.6075 17.4694 40.9419 14.2646 37.7371C9.45917 32.9316 8.06488 25.7824 10.7125 19.5239C10.9227 19.0273 10.6904 18.4543 10.1937 18.2442C9.69718 18.0342 9.12407 18.2664 8.91399 18.7631C7.49158 22.1253 7.09398 25.8062 7.76387 29.408C8.45018 33.0973 10.2206 36.455 12.8837 39.1182C16.4656 42.6999 21.2143 44.5611 26.0112 44.5611C29.2585 44.5611 32.5281 43.7081 35.4721 41.9584C35.9357 41.6828 36.0881 41.0836 35.8127 40.62ZM28.7077 18.3763C28.9728 17.9066 29.5685 17.7408 30.0381 18.006C30.5077 18.2711 30.6735 18.8666 30.4083 19.3363L21.3557 35.3719C21.1764 35.6898 20.8453 35.8685 20.5045 35.8685C20.3418 35.8685 20.1772 35.8278 20.0254 35.7421C19.5557 35.4771 19.3901 34.8815 19.6551 34.4118L28.7077 18.3763ZM31.8853 28.3861C29.624 28.3861 27.7841 30.2259 27.7841 32.4873C27.7841 34.7487 29.6239 36.5886 31.8853 36.5886C34.1467 36.5886 35.9865 34.7488 35.9865 32.4873C35.9865 30.2259 34.1468 28.3861 31.8853 28.3861ZM31.8853 34.6355C30.7007 34.6355 29.737 33.6718 29.737 32.4872C29.737 31.3027 30.7007 30.339 31.8853 30.339C33.0699 30.339 34.0336 31.3027 34.0336 32.4872C34.0336 33.6718 33.0699 34.6355 31.8853 34.6355ZM16.0185 19.5111C16.0185 17.2496 17.8584 15.4098 20.1197 15.4098C22.3812 15.4098 24.221 17.2496 24.221 19.5111C24.221 21.7725 22.3811 23.6123 20.1197 23.6123C17.8583 23.6123 16.0185 21.7725 16.0185 19.5111ZM17.9715 19.511C17.9715 20.6956 18.9351 21.6592 20.1197 21.6592C21.3043 21.6592 22.268 20.6956 22.268 19.511C22.268 18.3264 21.3043 17.3627 20.1197 17.3627C18.9351 17.3627 17.9715 18.3264 17.9715 19.511Z"/>
</mask>
<path fill-rule="evenodd" clip-rule="evenodd" d="M49.7858 20.8421C51.1453 22.1813 51.3963 24.2517 50.3962 25.8771L48.9548 28.2196C48.6299 28.7475 48.5524 29.3887 48.7422 29.9789L49.5855 32.6017C50.1707 34.4213 49.4315 36.3738 47.7878 37.3497L45.4515 38.7367C44.9161 39.0545 44.549 39.589 44.4444 40.2027L43.9847 42.8999C43.6614 44.7962 42.0938 46.1871 40.1726 46.2826L37.4962 46.4157C36.87 46.4467 36.2934 46.7508 35.9141 47.2499L34.2831 49.3962C33.1311 50.912 31.043 51.4274 29.318 50.6221L26.8992 49.4925C26.3295 49.2264 25.6758 49.2264 25.1059 49.4925L22.687 50.6221C22.1402 50.8772 21.5565 50.9997 20.978 50.9997C19.7321 50.9997 18.5088 50.4312 17.7222 49.3963L16.0906 47.2495C15.7114 46.7505 15.1348 46.4465 14.5088 46.4155L11.8328 46.2825C9.91166 46.1869 8.34401 44.796 8.02074 42.8998L7.56092 40.2025C7.45632 39.5887 7.08919 39.0544 6.55379 38.7364L4.21751 37.3494C2.57388 36.3735 1.83464 34.4212 2.41976 32.6014L3.26311 29.9787C3.45278 29.3887 3.37533 28.7474 3.05049 28.2194L1.60903 25.877C0.608925 24.2517 0.859928 22.1813 2.21925 20.8421L4.16877 18.9217C4.611 18.4859 4.83954 17.8808 4.7954 17.2615L4.60007 14.5186C4.46382 12.6062 5.65076 10.8841 7.48631 10.3307L10.0672 9.55263C10.6654 9.37224 11.1512 8.93997 11.3997 8.36666L12.4808 5.87334C13.2364 4.13087 15.1377 3.13164 17.001 3.49741L19.6204 4.01152C20.2367 4.13233 20.8707 3.97558 21.3596 3.58091L23.4446 1.89753C24.9268 0.700823 27.0784 0.700823 28.5606 1.89753L30.6456 3.58091C31.1344 3.97558 31.7684 4.13253 32.3848 4.01152L35.0039 3.4975C36.8673 3.13184 38.769 4.13107 39.5242 5.87383L40.6047 8.36647C40.8532 8.93987 41.3389 9.37214 41.9373 9.55263L44.5187 10.3308C46.3542 10.8842 47.5413 12.6064 47.405 14.5188L47.2097 17.2615C47.1656 17.8808 47.3941 18.486 47.8363 18.9217L49.7858 20.8421ZM46.8829 30.5763C46.5183 29.4424 46.6672 28.2103 47.2914 27.1958L48.733 24.8533C49.2535 24.0074 49.1229 22.93 48.4154 22.2331L46.466 20.3126C45.6159 19.4753 45.1771 18.3126 45.2618 17.1225L45.4572 14.3796C45.5281 13.3844 44.9103 12.4881 43.9551 12.2002L41.3736 11.422C40.2238 11.0753 39.2905 10.2446 38.8128 9.14282L37.7322 6.65018C37.3391 5.74325 36.3499 5.22307 35.3798 5.41362L32.7607 5.92764C31.5761 6.16009 30.3578 5.85859 29.4185 5.10011L27.3335 3.41683C26.5621 2.79401 25.4425 2.79401 24.6711 3.41683L22.5863 5.1005C21.6471 5.85879 20.4289 6.16038 19.2442 5.92803L16.6248 5.41391C16.4907 5.38754 16.3562 5.37475 16.2229 5.37475C15.3927 5.37475 14.6114 5.86894 14.2726 6.65027L13.1915 9.1435C12.7139 10.245 11.7806 11.0757 10.631 11.4223L8.05004 12.2004C7.09476 12.4884 6.47712 13.3846 6.54802 14.3797L6.74336 17.1227C6.82803 18.3127 6.38922 19.4754 5.53923 20.3127L3.58971 22.2332C2.88231 22.9301 2.75163 24.0076 3.27209 24.8534L4.71355 27.1959C5.33784 28.2104 5.48658 29.4425 5.12209 30.5764L4.27874 33.1992C3.97412 34.1462 4.35893 35.1623 5.21429 35.6701L7.55057 37.0572C8.57949 37.668 9.28483 38.6947 9.48593 39.8743L9.94564 42.5714C10.1139 43.5581 10.9296 44.282 11.9293 44.3317L14.6054 44.4647C15.8084 44.5245 16.9163 45.1087 17.6452 46.0677L19.2768 48.2144C19.8763 49.0031 20.9629 49.2711 21.8606 48.8521L24.2795 47.7225C25.3744 47.2113 26.6304 47.2113 27.7253 47.7225L30.1441 48.8521C31.0418 49.2711 32.1285 49.0029 32.728 48.2142L34.359 46.068C35.0879 45.1088 36.1959 44.5245 37.3991 44.4647L40.0756 44.3317C41.0754 44.2821 41.8911 43.5581 42.0594 42.5713L42.5191 39.8742C42.7201 38.6947 43.4255 37.668 44.4544 37.0571L46.7907 35.67C47.646 35.1621 48.0307 34.1461 47.7263 33.1991L46.8829 30.5763ZM12.9014 12.8626C13.2848 12.4831 13.903 12.4863 14.2823 12.8695C14.6618 13.2528 14.6586 13.8711 14.2755 14.2504L14.2612 14.2647C14.0708 14.453 13.8225 14.5471 13.5742 14.5471C13.3227 14.5471 13.0713 14.4506 12.8802 14.2577C12.5008 13.8745 12.5039 13.2562 12.8872 12.8768L12.9014 12.8626ZM44.2415 22.5905C43.5552 18.9011 41.7848 15.5434 39.1216 12.8803C33.1151 6.87378 23.8265 5.70579 16.5331 10.04C16.0695 10.3155 15.9171 10.9147 16.1926 11.3784C16.4682 11.842 17.0673 11.9943 17.5309 11.7189C24.0557 7.84117 32.3662 8.88679 37.7407 14.2613C42.5461 19.0668 43.9404 26.2159 41.2928 32.4744C41.0826 32.971 41.3149 33.5441 41.8116 33.7541C41.9358 33.8067 42.0647 33.8315 42.1916 33.8315C42.5721 33.8315 42.9338 33.6076 43.0914 33.2352C44.5138 29.8731 44.9114 26.1921 44.2415 22.5905ZM37.7441 37.7336C38.1273 37.3542 38.7456 37.3574 39.125 37.7405C39.5044 38.1238 39.5013 38.7421 39.1181 39.1214L39.1039 39.1357C38.9135 39.324 38.6652 39.4181 38.4169 39.4181C38.1653 39.4181 37.9139 39.3216 37.7229 39.1288C37.3434 38.7455 37.3466 38.1272 37.7298 37.7478L37.7441 37.7336ZM35.8127 40.62C35.5372 40.1564 34.938 40.004 34.4744 40.2794C31.8404 41.8448 28.9162 42.6078 26.0109 42.6077C21.7191 42.6075 17.4694 40.9419 14.2646 37.7371C9.45917 32.9316 8.06488 25.7824 10.7125 19.5239C10.9227 19.0273 10.6904 18.4543 10.1937 18.2442C9.69718 18.0342 9.12407 18.2664 8.91399 18.7631C7.49158 22.1253 7.09398 25.8062 7.76387 29.408C8.45018 33.0973 10.2206 36.455 12.8837 39.1182C16.4656 42.6999 21.2143 44.5611 26.0112 44.5611C29.2585 44.5611 32.5281 43.7081 35.4721 41.9584C35.9357 41.6828 36.0881 41.0836 35.8127 40.62ZM28.7077 18.3763C28.9728 17.9066 29.5685 17.7408 30.0381 18.006C30.5077 18.2711 30.6735 18.8666 30.4083 19.3363L21.3557 35.3719C21.1764 35.6898 20.8453 35.8685 20.5045 35.8685C20.3418 35.8685 20.1772 35.8278 20.0254 35.7421C19.5557 35.4771 19.3901 34.8815 19.6551 34.4118L28.7077 18.3763ZM31.8853 28.3861C29.624 28.3861 27.7841 30.2259 27.7841 32.4873C27.7841 34.7487 29.6239 36.5886 31.8853 36.5886C34.1467 36.5886 35.9865 34.7488 35.9865 32.4873C35.9865 30.2259 34.1468 28.3861 31.8853 28.3861ZM31.8853 34.6355C30.7007 34.6355 29.737 33.6718 29.737 32.4872C29.737 31.3027 30.7007 30.339 31.8853 30.339C33.0699 30.339 34.0336 31.3027 34.0336 32.4872C34.0336 33.6718 33.0699 34.6355 31.8853 34.6355ZM16.0185 19.5111C16.0185 17.2496 17.8584 15.4098 20.1197 15.4098C22.3812 15.4098 24.221 17.2496 24.221 19.5111C24.221 21.7725 22.3811 23.6123 20.1197 23.6123C17.8583 23.6123 16.0185 21.7725 16.0185 19.5111ZM17.9715 19.511C17.9715 20.6956 18.9351 21.6592 20.1197 21.6592C21.3043 21.6592 22.268 20.6956 22.268 19.511C22.268 18.3264 21.3043 17.3627 20.1197 17.3627C18.9351 17.3627 17.9715 18.3264 17.9715 19.511Z" fill="#008D3D"/>
<path d="M50.3962 25.8771L50.2258 25.7723V25.7723L50.3962 25.8771ZM49.7858 20.8421L49.6454 20.9846L49.6454 20.9846L49.7858 20.8421ZM48.9548 28.2196L49.1251 28.3245L49.1251 28.3244L48.9548 28.2196ZM48.7422 29.9789L48.5518 30.0401V30.0401L48.7422 29.9789ZM49.5855 32.6017L49.3951 32.6629V32.6629L49.5855 32.6017ZM47.7878 37.3497L47.6857 37.1777L47.7878 37.3497ZM45.4515 38.7367L45.5536 38.9087L45.5536 38.9087L45.4515 38.7367ZM44.4444 40.2027L44.6415 40.2363L44.6415 40.2363L44.4444 40.2027ZM43.9847 42.8999L44.1818 42.9335V42.9335L43.9847 42.8999ZM40.1726 46.2826L40.1826 46.4824L40.1726 46.2826ZM37.4962 46.4157L37.5061 46.6154H37.5061L37.4962 46.4157ZM35.9141 47.2499L36.0733 47.3709V47.3709L35.9141 47.2499ZM34.2831 49.3962L34.1238 49.2751V49.2751L34.2831 49.3962ZM29.318 50.6221L29.2334 50.8033L29.2334 50.8033L29.318 50.6221ZM26.8992 49.4925L26.9838 49.3112H26.9838L26.8992 49.4925ZM25.1059 49.4925L25.0213 49.3112L25.0213 49.3112L25.1059 49.4925ZM22.687 50.6221L22.7716 50.8033L22.7716 50.8033L22.687 50.6221ZM17.7222 49.3963L17.8815 49.2752L17.8815 49.2752L17.7222 49.3963ZM16.0906 47.2495L15.9314 47.3705L15.9314 47.3706L16.0906 47.2495ZM14.5088 46.4155L14.4989 46.6152H14.4989L14.5088 46.4155ZM11.8328 46.2825L11.8228 46.4822H11.8228L11.8328 46.2825ZM8.02074 42.8998L7.82358 42.9334L8.02074 42.8998ZM7.56092 40.2025L7.36376 40.2361L7.36377 40.2361L7.56092 40.2025ZM6.55379 38.7364L6.6559 38.5645L6.65589 38.5645L6.55379 38.7364ZM4.21751 37.3494L4.1154 37.5214L4.1154 37.5214L4.21751 37.3494ZM2.41976 32.6014L2.22936 32.5402L2.22936 32.5402L2.41976 32.6014ZM3.26311 29.9787L3.45351 30.0399L3.45351 30.0399L3.26311 29.9787ZM3.05049 28.2194L3.22083 28.1146L3.22082 28.1146L3.05049 28.2194ZM1.60903 25.877L1.4387 25.9818L1.4387 25.9818L1.60903 25.877ZM2.21925 20.8421L2.0789 20.6996L2.07889 20.6996L2.21925 20.8421ZM4.16877 18.9217L4.30912 19.0642L4.30915 19.0641L4.16877 18.9217ZM4.7954 17.2615L4.5959 17.2757L4.5959 17.2758L4.7954 17.2615ZM4.60007 14.5186L4.79956 14.5044L4.79956 14.5044L4.60007 14.5186ZM7.48631 10.3307L7.54403 10.5222H7.54404L7.48631 10.3307ZM10.0672 9.55263L10.125 9.74412L10.125 9.74411L10.0672 9.55263ZM11.3997 8.36666L11.2162 8.2871L11.2162 8.28713L11.3997 8.36666ZM12.4808 5.87334L12.2973 5.79376L12.2973 5.79378L12.4808 5.87334ZM17.001 3.49741L16.9624 3.69366L16.9625 3.69366L17.001 3.49741ZM19.6204 4.01152L19.5819 4.20778L19.5819 4.20779L19.6204 4.01152ZM21.3596 3.58091L21.4853 3.73653L21.4853 3.73652L21.3596 3.58091ZM23.4446 1.89753L23.5703 2.05314V2.05314L23.4446 1.89753ZM28.5606 1.89753L28.4349 2.05314V2.05314L28.5606 1.89753ZM30.6456 3.58091L30.7712 3.4253V3.4253L30.6456 3.58091ZM32.3848 4.01152L32.3463 3.81527L32.3463 3.81527L32.3848 4.01152ZM35.0039 3.4975L34.9654 3.30125L34.9654 3.30125L35.0039 3.4975ZM39.5242 5.87383L39.3407 5.95335L39.3407 5.95337L39.5242 5.87383ZM40.6047 8.36647L40.7882 8.28695L40.7882 8.28693L40.6047 8.36647ZM41.9373 9.55263L41.8795 9.74411L41.8795 9.74412L41.9373 9.55263ZM44.5187 10.3308L44.5764 10.1393V10.1393L44.5187 10.3308ZM47.405 14.5188L47.2055 14.5046V14.5046L47.405 14.5188ZM47.2097 17.2615L47.4092 17.2758V17.2757L47.2097 17.2615ZM47.8363 18.9217L47.696 19.0641L47.696 19.0642L47.8363 18.9217ZM47.2914 27.1958L47.121 27.091L47.121 27.091L47.2914 27.1958ZM46.8829 30.5763L46.6925 30.6375V30.6375L46.8829 30.5763ZM48.733 24.8533L48.9033 24.9581L48.9033 24.9581L48.733 24.8533ZM48.4154 22.2331L48.275 22.3755L48.275 22.3755L48.4154 22.2331ZM46.466 20.3126L46.6063 20.1702L46.6063 20.1702L46.466 20.3126ZM45.2618 17.1225L45.4613 17.1367V17.1367L45.2618 17.1225ZM45.4572 14.3796L45.2577 14.3654V14.3654L45.4572 14.3796ZM43.9551 12.2002L43.8973 12.3917L43.8973 12.3917L43.9551 12.2002ZM41.3736 11.422L41.4314 11.2305H41.4314L41.3736 11.422ZM38.8128 9.14282L38.6293 9.22237L38.6293 9.22238L38.8128 9.14282ZM37.7322 6.65018L37.5487 6.72972L37.5487 6.72972L37.7322 6.65018ZM35.3798 5.41362L35.4184 5.60988L35.4184 5.60987L35.3798 5.41362ZM32.7607 5.92764L32.7992 6.1239L32.7992 6.1239L32.7607 5.92764ZM29.4185 5.10011L29.5441 4.9445L29.5441 4.9445L29.4185 5.10011ZM27.3335 3.41683L27.2079 3.57244L27.2079 3.57245L27.3335 3.41683ZM24.6711 3.41683L24.5455 3.26122L24.5455 3.26123L24.6711 3.41683ZM22.5863 5.1005L22.712 5.25612L22.712 5.2561L22.5863 5.1005ZM19.2442 5.92803L19.2057 6.12429L19.2057 6.12429L19.2442 5.92803ZM16.6248 5.41391L16.5862 5.61016L16.5862 5.61017L16.6248 5.41391ZM14.2726 6.65027L14.0891 6.57071L14.0891 6.57071L14.2726 6.65027ZM13.1915 9.1435L13.008 9.06394L13.008 9.06394L13.1915 9.1435ZM10.631 11.4223L10.5733 11.2308L10.5732 11.2308L10.631 11.4223ZM8.05004 12.2004L7.99231 12.0089L7.9923 12.0089L8.05004 12.2004ZM6.54802 14.3797L6.74752 14.3655L6.74752 14.3655L6.54802 14.3797ZM6.74336 17.1227L6.94285 17.1085L6.94285 17.1085L6.74336 17.1227ZM5.53923 20.3127L5.39887 20.1703H5.39887L5.53923 20.3127ZM3.58971 22.2332L3.44935 22.0907L3.44934 22.0907L3.58971 22.2332ZM3.27209 24.8534L3.44243 24.7485L3.44243 24.7485L3.27209 24.8534ZM4.71355 27.1959L4.88389 27.0911L4.88389 27.0911L4.71355 27.1959ZM5.12209 30.5764L5.31249 30.6376L5.3125 30.6376L5.12209 30.5764ZM4.27874 33.1992L4.46913 33.2605L4.46914 33.2605L4.27874 33.1992ZM5.21429 35.6701L5.31639 35.4981L5.31638 35.4981L5.21429 35.6701ZM7.55057 37.0572L7.44847 37.2291L7.44848 37.2291L7.55057 37.0572ZM9.48593 39.8743L9.68309 39.8407L9.68308 39.8406L9.48593 39.8743ZM9.94564 42.5714L9.74849 42.605L9.74849 42.605L9.94564 42.5714ZM11.9293 44.3317L11.9393 44.1319H11.9393L11.9293 44.3317ZM14.6054 44.4647L14.5955 44.6644H14.5955L14.6054 44.4647ZM17.6452 46.0677L17.8044 45.9467L17.6452 46.0677ZM19.2768 48.2144L19.436 48.0934H19.436L19.2768 48.2144ZM21.8606 48.8521L21.9452 49.0334L21.9452 49.0334L21.8606 48.8521ZM24.2795 47.7225L24.1948 47.5413L24.1948 47.5413L24.2795 47.7225ZM27.7253 47.7225L27.81 47.5413L27.81 47.5413L27.7253 47.7225ZM30.1441 48.8521L30.0595 49.0334L30.0596 49.0334L30.1441 48.8521ZM32.728 48.2142L32.8872 48.3352L32.8872 48.3352L32.728 48.2142ZM34.359 46.068L34.5183 46.189L34.5183 46.189L34.359 46.068ZM37.3991 44.4647L37.409 44.6644H37.409L37.3991 44.4647ZM40.0756 44.3317L40.0657 44.1319L40.0656 44.1319L40.0756 44.3317ZM42.0594 42.5713L42.2565 42.6049V42.6049L42.0594 42.5713ZM42.5191 39.8742L42.7162 39.9078L42.7162 39.9078L42.5191 39.8742ZM44.4544 37.0571L44.3523 36.8851L44.3523 36.8851L44.4544 37.0571ZM46.7907 35.67L46.8928 35.842L46.8928 35.842L46.7907 35.67ZM47.7263 33.1991L47.9167 33.1379L47.9167 33.1379L47.7263 33.1991ZM14.2823 12.8695L14.1402 13.0102L14.1402 13.0102L14.2823 12.8695ZM12.9014 12.8626L12.7607 12.7204L12.76 12.7212L12.9014 12.8626ZM14.2755 14.2504L14.1348 14.1083L14.1341 14.109L14.2755 14.2504ZM14.2612 14.2647L14.4019 14.4069L14.4027 14.4061L14.2612 14.2647ZM12.8802 14.2577L12.7381 14.3985L12.7381 14.3985L12.8802 14.2577ZM12.8872 12.8768L13.0279 13.019L13.0286 13.0183L12.8872 12.8768ZM39.1216 12.8803L39.2631 12.7389L39.2631 12.7388L39.1216 12.8803ZM44.2415 22.5905L44.4381 22.5539V22.5539L44.2415 22.5905ZM16.5331 10.04L16.6353 10.212L16.6353 10.212L16.5331 10.04ZM16.1926 11.3784L16.0206 11.4805L16.0207 11.4806L16.1926 11.3784ZM17.5309 11.7189L17.633 11.8909L17.6331 11.8908L17.5309 11.7189ZM37.7407 14.2613L37.8822 14.1199V14.1199L37.7407 14.2613ZM41.2928 32.4744L41.4769 32.5524L41.477 32.5523L41.2928 32.4744ZM41.8116 33.7541L41.7336 33.9383L41.7337 33.9383L41.8116 33.7541ZM43.0914 33.2352L43.2756 33.3132L43.2756 33.3132L43.0914 33.2352ZM39.125 37.7405L38.9828 37.8812L39.125 37.7405ZM37.7441 37.7336L37.6033 37.5915L37.6026 37.5922L37.7441 37.7336ZM39.1181 39.1214L38.9774 38.9793L38.9767 38.98L39.1181 39.1214ZM39.1039 39.1357L39.2445 39.2779L39.2453 39.2771L39.1039 39.1357ZM37.7229 39.1288L37.5807 39.2695L37.5808 39.2695L37.7229 39.1288ZM37.7298 37.7478L37.8705 37.89L37.8712 37.8893L37.7298 37.7478ZM34.4744 40.2794L34.3722 40.1075L34.3722 40.1075L34.4744 40.2794ZM35.8127 40.62L35.9847 40.5178L35.9846 40.5178L35.8127 40.62ZM26.0109 42.6077L26.0109 42.8077H26.0109L26.0109 42.6077ZM14.2646 37.7371L14.1231 37.8785L14.1231 37.8785L14.2646 37.7371ZM10.7125 19.5239L10.5283 19.446L10.5283 19.446L10.7125 19.5239ZM10.1937 18.2442L10.2716 18.06L10.2716 18.06L10.1937 18.2442ZM8.91399 18.7631L9.09819 18.841L9.0982 18.841L8.91399 18.7631ZM7.76387 29.408L7.56725 29.4446L7.56725 29.4446L7.76387 29.408ZM12.8837 39.1182L12.7423 39.2596H12.7423L12.8837 39.1182ZM35.4721 41.9584L35.5743 42.1303L35.5744 42.1303L35.4721 41.9584ZM30.0381 18.006L29.9397 18.1802L29.9398 18.1802L30.0381 18.006ZM28.7077 18.3763L28.8819 18.4746L28.8819 18.4746L28.7077 18.3763ZM30.4083 19.3363L30.2342 19.238L30.2341 19.238L30.4083 19.3363ZM21.3557 35.3719L21.1815 35.2736L21.1815 35.2736L21.3557 35.3719ZM20.0254 35.7421L20.1237 35.568L20.0254 35.7421ZM19.6551 34.4118L19.481 34.3135L19.481 34.3135L19.6551 34.4118ZM50.5665 25.9819C51.6154 24.2772 51.352 22.1042 49.9261 20.6996L49.6454 20.9846C50.9385 22.2584 51.1771 24.2263 50.2258 25.7723L50.5665 25.9819ZM49.1251 28.3244L50.5665 25.9819L50.2258 25.7723L48.7845 28.1148L49.1251 28.3244ZM48.9326 29.9177C48.7607 29.3831 48.8308 28.8026 49.1251 28.3245L48.7845 28.1148C48.4289 28.6925 48.3441 29.3943 48.5518 30.0401L48.9326 29.9177ZM49.7759 32.5405L48.9326 29.9177L48.5518 30.0401L49.3951 32.6629L49.7759 32.5405ZM47.8899 37.5217C49.6138 36.4981 50.3896 34.4489 49.7759 32.5405L49.3951 32.6629C49.9517 34.3938 49.2492 36.2494 47.6857 37.1777L47.8899 37.5217ZM45.5536 38.9087L47.8899 37.5217L47.6857 37.1777L45.3494 38.5648L45.5536 38.9087ZM44.6415 40.2363C44.7363 39.6804 45.0686 39.1966 45.5536 38.9087L45.3494 38.5648C44.7636 38.9125 44.3617 39.4975 44.2472 40.1691L44.6415 40.2363ZM44.1818 42.9335L44.6415 40.2363L44.2472 40.1691L43.7875 42.8663L44.1818 42.9335ZM40.1826 46.4824C42.1974 46.3822 43.8428 44.9222 44.1818 42.9335L43.7875 42.8663C43.48 44.6701 41.9903 45.992 40.1627 46.0829L40.1826 46.4824ZM37.5061 46.6154L40.1826 46.4824L40.1627 46.0829L37.4863 46.2159L37.5061 46.6154ZM36.0733 47.3709C36.4169 46.9188 36.9389 46.6436 37.5061 46.6154L37.4863 46.2159C36.8012 46.2499 36.1699 46.5827 35.7548 47.1289L36.0733 47.3709ZM34.4423 49.5172L36.0733 47.3709L35.7548 47.1289L34.1238 49.2751L34.4423 49.5172ZM29.2334 50.8033C31.0437 51.6485 33.2333 51.108 34.4423 49.5172L34.1238 49.2751C33.0288 50.716 31.0423 51.2064 29.4026 50.4408L29.2334 50.8033ZM26.8145 49.6737L29.2334 50.8033L29.4026 50.4408L26.9838 49.3112L26.8145 49.6737ZM25.1905 49.6737C25.7068 49.4327 26.2985 49.4327 26.8146 49.6737L26.9838 49.3112C26.3605 49.0201 25.6448 49.0202 25.0213 49.3112L25.1905 49.6737ZM22.7716 50.8033L25.1905 49.6737L25.0213 49.3112L22.6024 50.4408L22.7716 50.8033ZM20.978 51.1997C21.5848 51.1997 22.1974 51.0712 22.7716 50.8033L22.6025 50.4408C22.0829 50.6832 21.5283 50.7997 20.978 50.7997V51.1997ZM17.563 49.5173C18.389 50.6041 19.6723 51.1997 20.978 51.1997V50.7997C19.7919 50.7997 18.6287 50.2583 17.8815 49.2752L17.563 49.5173ZM15.9314 47.3706L17.563 49.5173L17.8815 49.2752L16.2499 47.1285L15.9314 47.3706ZM14.4989 46.6152C15.0659 46.6434 15.5879 46.9185 15.9314 47.3705L16.2499 47.1285C15.8349 46.5824 15.2036 46.2497 14.5187 46.2157L14.4989 46.6152ZM11.8228 46.4822L14.4989 46.6152L14.5187 46.2157L11.8427 46.0827L11.8228 46.4822ZM7.82358 42.9334C8.16261 44.922 9.8081 46.382 11.8228 46.4822L11.8427 46.0827C10.0152 45.9918 8.52541 44.6699 8.21789 42.8662L7.82358 42.9334ZM7.36377 40.2361L7.82358 42.9334L8.21789 42.8662L7.75808 40.1689L7.36377 40.2361ZM6.45168 38.9084C6.93666 39.1964 7.26902 39.6801 7.36376 40.2361L7.75808 40.1689C7.64362 39.4972 7.24173 38.9123 6.6559 38.5645L6.45168 38.9084ZM4.1154 37.5214L6.45168 38.9084L6.65589 38.5645L4.31961 37.1774L4.1154 37.5214ZM2.22936 32.5402C1.61568 34.4487 2.39156 36.4978 4.1154 37.5214L4.31961 37.1774C2.75619 36.2492 2.0536 34.3936 2.61016 32.6627L2.22936 32.5402ZM3.07271 29.9175L2.22936 32.5402L2.61016 32.6627L3.45351 30.0399L3.07271 29.9175ZM2.88015 28.3242C3.17437 28.8025 3.2445 29.3831 3.07271 29.9175L3.45351 30.0399C3.66106 29.3943 3.57628 28.6924 3.22083 28.1146L2.88015 28.3242ZM1.4387 25.9818L2.88016 28.3242L3.22082 28.1146L1.77936 25.7722L1.4387 25.9818ZM2.07889 20.6996C0.653198 22.1042 0.389763 24.2772 1.4387 25.9818L1.77936 25.7722C0.828087 24.2263 1.06666 22.2584 2.35961 20.9846L2.07889 20.6996ZM4.02842 18.7792L2.0789 20.6996L2.3596 20.9846L4.30912 19.0642L4.02842 18.7792ZM4.5959 17.2758C4.63589 17.8366 4.42899 18.3845 4.02839 18.7792L4.30915 19.0641C4.79301 18.5873 5.0432 17.925 4.99489 17.2473L4.5959 17.2758ZM4.40057 14.5328L4.5959 17.2757L4.99489 17.2473L4.79956 14.5044L4.40057 14.5328ZM7.42858 10.1392C5.50351 10.7196 4.25768 12.5271 4.40057 14.5328L4.79956 14.5044C4.66996 12.6852 5.79802 11.0486 7.54403 10.5222L7.42858 10.1392ZM10.0095 9.36114L7.42858 10.1392L7.54404 10.5222L10.125 9.74412L10.0095 9.36114ZM11.2162 8.28713C10.9911 8.8064 10.5514 9.19774 10.0095 9.36115L10.125 9.74411C10.7795 9.54674 11.3113 9.07353 11.5832 8.44619L11.2162 8.28713ZM12.2973 5.79378L11.2162 8.2871L11.5832 8.44622L12.6643 5.9529L12.2973 5.79378ZM17.0395 3.30115C15.084 2.91728 13.0903 3.96508 12.2973 5.79376L12.6643 5.95291C13.3825 4.29666 15.1914 3.34601 16.9624 3.69366L17.0395 3.30115ZM19.6589 3.81527L17.0395 3.30115L16.9625 3.69366L19.5819 4.20778L19.6589 3.81527ZM21.234 3.42529C20.7911 3.78279 20.2172 3.92471 19.6589 3.81526L19.5819 4.20779C20.2562 4.33996 20.9503 4.16837 21.4853 3.73653L21.234 3.42529ZM23.319 1.74192L21.234 3.4253L21.4853 3.73652L23.5703 2.05314L23.319 1.74192ZM28.6862 1.74192C27.1307 0.486027 24.8745 0.486027 23.319 1.74192L23.5703 2.05314C24.9791 0.91562 27.0261 0.91562 28.4349 2.05314L28.6862 1.74192ZM30.7712 3.4253L28.6862 1.74192L28.4349 2.05314L30.5199 3.73652L30.7712 3.4253ZM32.3463 3.81527C31.7879 3.92488 31.214 3.78281 30.7712 3.4253L30.5199 3.73652C31.0548 4.16835 31.7489 4.34018 32.4233 4.20777L32.3463 3.81527ZM34.9654 3.30125L32.3463 3.81527L32.4233 4.20778L35.0424 3.69376L34.9654 3.30125ZM39.7077 5.7943C38.9151 3.96525 36.921 2.91749 34.9654 3.30125L35.0424 3.69376C36.8136 3.34619 38.6229 4.29688 39.3407 5.95335L39.7077 5.7943ZM40.7882 8.28693L39.7077 5.79428L39.3407 5.95337L40.4212 8.44601L40.7882 8.28693ZM41.995 9.36115C41.4529 9.19765 41.0133 8.80631 40.7882 8.28695L40.4212 8.44599C40.6931 9.07342 41.2248 9.54663 41.8795 9.74411L41.995 9.36115ZM44.5764 10.1393L41.995 9.36114L41.8795 9.74412L44.461 10.5223L44.5764 10.1393ZM47.6045 14.533C47.7474 12.5273 46.5015 10.7197 44.5764 10.1393L44.461 10.5223C46.207 11.0487 47.3351 12.6854 47.2055 14.5046L47.6045 14.533ZM47.4092 17.2757L47.6045 14.533L47.2055 14.5046L47.0102 17.2473L47.4092 17.2757ZM47.9767 18.7792C47.5761 18.3846 47.3692 17.8367 47.4092 17.2758L47.0102 17.2473C46.9619 17.925 47.2121 18.5874 47.696 19.0641L47.9767 18.7792ZM49.9261 20.6996L47.9767 18.7792L47.696 19.0642L49.6454 20.9846L49.9261 20.6996ZM47.121 27.091C46.4662 28.1553 46.31 29.448 46.6925 30.6375L47.0733 30.5151C46.7266 29.4368 46.8681 28.2654 47.4617 27.3006L47.121 27.091ZM48.5627 24.7484L47.121 27.091L47.4617 27.3006L48.9033 24.9581L48.5627 24.7484ZM48.275 22.3755C48.9162 23.0071 49.0343 23.9819 48.5627 24.7484L48.9033 24.9581C49.4726 24.0328 49.3296 22.8529 48.5557 22.0906L48.275 22.3755ZM46.3256 20.4551L48.275 22.3755L48.5558 22.0906L46.6063 20.1702L46.3256 20.4551ZM45.0623 17.1083C44.9734 18.3568 45.4338 19.5767 46.3256 20.4551L46.6063 20.1702C45.7979 19.3738 45.3807 18.2685 45.4613 17.1367L45.0623 17.1083ZM45.2577 14.3654L45.0623 17.1083L45.4613 17.1367L45.6567 14.3938L45.2577 14.3654ZM43.8973 12.3917C44.7631 12.6526 45.3219 13.4634 45.2577 14.3654L45.6567 14.3938C45.7342 13.3053 45.0576 12.3236 44.0128 12.0087L43.8973 12.3917ZM41.3159 11.6135L43.8973 12.3917L44.0128 12.0087L41.4314 11.2305L41.3159 11.6135ZM38.6293 9.22238C39.1304 10.3781 40.1097 11.2498 41.3159 11.6135L41.4314 11.2305C40.3379 10.9008 39.4506 10.1111 38.9963 9.06326L38.6293 9.22238ZM37.5487 6.72972L38.6293 9.22237L38.9963 9.06327L37.9157 6.57063L37.5487 6.72972ZM35.4184 5.60987C36.2961 5.43745 37.193 5.90902 37.5487 6.72972L37.9157 6.57064C37.4853 5.57748 36.4036 5.0087 35.3413 5.21737L35.4184 5.60987ZM32.7992 6.1239L35.4184 5.60988L35.3413 5.21736L32.7222 5.73138L32.7992 6.1239ZM29.2928 5.25572C30.2782 6.05136 31.5566 6.36773 32.7992 6.1239L32.7222 5.73138C31.5956 5.95244 30.4375 5.66581 29.5441 4.9445L29.2928 5.25572ZM27.2079 3.57245L29.2929 5.25573L29.5441 4.9445L27.4591 3.26121L27.2079 3.57245ZM24.7968 3.57244C25.4948 3.00881 26.5098 3.00881 27.2079 3.57244L27.4591 3.26122C26.6145 2.57921 25.3901 2.57921 24.5455 3.26122L24.7968 3.57244ZM22.712 5.2561L24.7968 3.57243L24.5455 3.26123L22.4607 4.94491L22.712 5.2561ZM19.2057 6.12429C20.4484 6.36802 21.7267 6.05155 22.712 5.25612L22.4607 4.94489C21.5675 5.66602 20.4093 5.95274 19.2827 5.73177L19.2057 6.12429ZM16.5862 5.61017L19.2057 6.12429L19.2827 5.73177L16.6633 5.21766L16.5862 5.61017ZM16.2229 5.57475C16.3434 5.57475 16.4649 5.58631 16.5862 5.61016L16.6634 5.21767C16.5164 5.18878 16.369 5.17475 16.2229 5.17475V5.57475ZM14.4561 6.72984C14.7624 6.02336 15.4705 5.57475 16.2229 5.57475V5.17475C15.3149 5.17475 14.4603 5.71452 14.0891 6.57071L14.4561 6.72984ZM13.375 9.22307L14.4561 6.72984L14.0891 6.57071L13.008 9.06394L13.375 9.22307ZM10.6887 11.6137C11.8947 11.2502 12.874 10.3785 13.375 9.22306L13.008 9.06394C12.5538 10.1114 11.6665 10.9012 10.5733 11.2308L10.6887 11.6137ZM8.10777 12.3919L10.6887 11.6137L10.5732 11.2308L7.99231 12.0089L8.10777 12.3919ZM6.74752 14.3655C6.68326 13.4636 7.24202 12.6529 8.10777 12.3919L7.9923 12.0089C6.9475 12.3239 6.27098 13.3055 6.34853 14.3939L6.74752 14.3655ZM6.94285 17.1085L6.74752 14.3655L6.34853 14.3939L6.54386 17.1369L6.94285 17.1085ZM5.67958 20.4552C6.57126 19.5769 7.03168 18.3569 6.94285 17.1085L6.54386 17.1369C6.62439 18.2686 6.20717 19.374 5.39887 20.1703L5.67958 20.4552ZM3.73006 22.3756L5.67958 20.4552L5.39887 20.1703L3.44935 22.0907L3.73006 22.3756ZM3.44243 24.7485C2.9708 23.9821 3.08903 23.0072 3.73007 22.3756L3.44934 22.0907C2.67559 22.853 2.53246 24.033 3.10176 24.9582L3.44243 24.7485ZM4.88389 27.0911L3.44243 24.7485L3.10176 24.9582L4.54322 27.3007L4.88389 27.0911ZM5.3125 30.6376C5.69486 29.4481 5.5388 28.1554 4.88389 27.0911L4.54322 27.3007C5.13688 28.2655 5.27831 29.4369 4.93169 30.5152L5.3125 30.6376ZM4.46914 33.2605L5.31249 30.6376L4.93169 30.5152L4.08834 33.138L4.46914 33.2605ZM5.31638 35.4981C4.54124 35.038 4.19309 34.1186 4.46913 33.2605L4.08835 33.138C3.75515 34.1738 4.17662 35.2867 5.1122 35.8421L5.31638 35.4981ZM7.65267 36.8852L5.31639 35.4981L5.11219 35.8421L7.44847 37.2291L7.65267 36.8852ZM9.68308 39.8406C9.47213 38.6033 8.73203 37.5259 7.65266 36.8852L7.44848 37.2291C8.42694 37.81 9.09754 38.7862 9.28877 39.9079L9.68308 39.8406ZM10.1428 42.5378L9.68309 39.8407L9.28877 39.9079L9.74849 42.605L10.1428 42.5378ZM11.9393 44.1319C11.0332 44.0869 10.2953 43.4321 10.1428 42.5378L9.74849 42.605C9.93253 43.6842 10.8261 44.4772 11.9194 44.5314L11.9393 44.1319ZM14.6153 44.2649L11.9393 44.1319L11.9194 44.5314L14.5955 44.6644L14.6153 44.2649ZM17.8044 45.9467C17.0398 44.9407 15.8772 44.3276 14.6153 44.2649L14.5955 44.6644C15.7395 44.7213 16.7928 45.2767 17.486 46.1887L17.8044 45.9467ZM19.436 48.0934L17.8044 45.9467L17.486 46.1887L19.1176 48.3354L19.436 48.0934ZM21.776 48.6709C20.9636 49.0501 19.9785 48.8071 19.436 48.0934L19.1176 48.3354C19.774 49.1992 20.9622 49.4922 21.9452 49.0334L21.776 48.6709ZM24.1948 47.5413L21.7759 48.6709L21.9452 49.0334L24.3641 47.9038L24.1948 47.5413ZM27.81 47.5413C26.6614 47.005 25.3434 47.005 24.1948 47.5413L24.3641 47.9038C25.4054 47.4175 26.5994 47.4175 27.6407 47.9038L27.81 47.5413ZM30.2288 48.6709L27.81 47.5413L27.6407 47.9038L30.0595 49.0334L30.2288 48.6709ZM32.5688 48.0932C32.0263 48.8069 31.0411 49.0501 30.2287 48.6709L30.0596 49.0334C31.0425 49.4922 32.2308 49.1989 32.8872 48.3352L32.5688 48.0932ZM34.1998 45.947L32.5688 48.0932L32.8872 48.3352L34.5183 46.189L34.1998 45.947ZM37.3892 44.2649C36.1271 44.3276 34.9644 44.9408 34.1998 45.947L34.5183 46.189C35.2115 45.2768 36.2648 44.7213 37.409 44.6644L37.3892 44.2649ZM40.0656 44.1319L37.3892 44.2649L37.409 44.6644L40.0855 44.5314L40.0656 44.1319ZM41.8622 42.5377C41.7097 43.4321 40.9718 44.087 40.0657 44.1319L40.0855 44.5314C41.179 44.4773 42.0725 43.6841 42.2565 42.6049L41.8622 42.5377ZM42.3219 39.8406L41.8622 42.5377L42.2565 42.6049L42.7162 39.9078L42.3219 39.8406ZM44.3523 36.8851C43.273 37.5259 42.5328 38.6033 42.3219 39.8406L42.7162 39.9078C42.9074 38.7862 43.5781 37.81 44.5565 37.229L44.3523 36.8851ZM46.6886 35.498L44.3523 36.8851L44.5565 37.229L46.8928 35.842L46.6886 35.498ZM47.5359 33.2604C47.8117 34.1185 47.4637 35.0378 46.6886 35.498L46.8928 35.842C47.8283 35.2865 48.2496 34.1737 47.9167 33.1379L47.5359 33.2604ZM46.6925 30.6375L47.5359 33.2604L47.9167 33.1379L47.0733 30.5151L46.6925 30.6375ZM14.4245 12.7288C13.9674 12.267 13.2225 12.2633 12.7607 12.7204L13.0421 13.0047C13.347 12.703 13.8386 12.7055 14.1402 13.0102L14.4245 12.7288ZM14.4162 14.3925C14.8778 13.9355 14.8816 13.1905 14.4245 12.7288L14.1402 13.0102C14.4419 13.315 14.4394 13.8067 14.1348 14.1083L14.4162 14.3925ZM14.4027 14.4061L14.4169 14.3918L14.1341 14.109L14.1198 14.1233L14.4027 14.4061ZM13.5742 14.7471C13.8731 14.7471 14.1725 14.6336 14.4018 14.4069L14.1206 14.1225C13.969 14.2723 13.7719 14.3471 13.5742 14.3471V14.7471ZM12.7381 14.3985C12.9683 14.6308 13.2715 14.7471 13.5742 14.7471V14.3471C13.3738 14.3471 13.1743 14.2704 13.0223 14.117L12.7381 14.3985ZM12.7465 12.7347C12.2847 13.1918 12.281 13.9367 12.7381 14.3985L13.0224 14.117C12.7206 13.8123 12.7231 13.3206 13.0279 13.019L12.7465 12.7347ZM12.76 12.7212L12.7457 12.7354L13.0286 13.0183L13.0428 13.004L12.76 12.7212ZM38.9802 13.0217C41.6149 15.6564 43.366 18.9776 44.0449 22.627L44.4381 22.5539C43.7444 18.8247 41.9547 15.4305 39.2631 12.7389L38.9802 13.0217ZM16.6353 10.212C23.8499 5.92453 33.0382 7.07976 38.9802 13.0217L39.2631 12.7388C33.1919 6.66781 23.8031 5.48705 16.431 9.8681L16.6353 10.212ZM16.3645 11.2762C16.1454 10.9075 16.2667 10.431 16.6353 10.212L16.431 9.8681C15.8724 10.2001 15.6887 10.922 16.0206 11.4805L16.3645 11.2762ZM17.4288 11.547C17.0601 11.766 16.5837 11.6448 16.3645 11.2762L16.0207 11.4806C16.3527 12.0391 17.0745 12.2227 17.633 11.8909L17.4288 11.547ZM37.8822 14.1199C32.4431 8.68083 24.0323 7.62242 17.4287 11.547L17.6331 11.8908C24.0791 8.05992 32.2894 9.09275 37.5993 14.4027L37.8822 14.1199ZM41.477 32.5523C44.1563 26.2189 42.7451 18.9829 37.8822 14.1199L37.5993 14.4027C42.3471 19.1506 43.7245 26.213 41.1086 32.3965L41.477 32.5523ZM41.8895 33.5699C41.4946 33.4029 41.3098 32.9472 41.4769 32.5524L41.1086 32.3965C40.8553 32.9949 41.1353 33.6852 41.7336 33.9383L41.8895 33.5699ZM42.1916 33.6315C42.0909 33.6315 41.9886 33.6118 41.8895 33.5699L41.7337 33.9383C41.883 34.0015 42.0385 34.0315 42.1916 34.0315V33.6315ZM42.9072 33.1573C42.782 33.4531 42.4946 33.6315 42.1916 33.6315V34.0315C42.6496 34.0315 43.0855 33.7621 43.2756 33.3132L42.9072 33.1573ZM44.0449 22.627C44.7076 26.1903 44.3143 29.8314 42.9072 33.1573L43.2756 33.3132C44.7133 29.9147 45.1152 26.194 44.4381 22.5539L44.0449 22.627ZM39.2671 37.5998C38.8101 37.1382 38.0651 37.1343 37.6033 37.5915L37.8848 37.8757C38.1895 37.574 38.6812 37.5766 38.9828 37.8812L39.2671 37.5998ZM39.2588 39.2636C39.7205 38.8065 39.7242 38.0615 39.2671 37.5998L38.9828 37.8812C39.2846 38.186 39.2821 38.6777 38.9774 38.9793L39.2588 39.2636ZM39.2453 39.2771L39.2596 39.2629L38.9767 38.98L38.9624 38.9943L39.2453 39.2771ZM38.4169 39.6181C38.7157 39.6181 39.0153 39.5047 39.2445 39.2779L38.9632 38.9935C38.8118 39.1433 38.6146 39.2181 38.4169 39.2181V39.6181ZM37.5808 39.2695C37.8109 39.5019 38.1141 39.6181 38.4169 39.6181V39.2181C38.2165 39.2181 38.0169 39.1414 37.865 38.988L37.5808 39.2695ZM37.5891 37.6057C37.1273 38.0628 37.1236 38.8077 37.5807 39.2695L37.865 38.988C37.5633 38.6833 37.5658 38.1916 37.8705 37.89L37.5891 37.6057ZM37.6026 37.5922L37.5884 37.6064L37.8712 37.8893L37.8855 37.875L37.6026 37.5922ZM34.5765 40.4514C34.9453 40.2323 35.4217 40.3535 35.6408 40.7222L35.9846 40.5178C35.6527 39.9592 34.9308 39.7757 34.3722 40.1075L34.5765 40.4514ZM26.0109 42.8077C28.9513 42.8078 31.911 42.0356 34.5766 40.4514L34.3722 40.1075C31.7699 41.6541 28.8811 42.4078 26.0109 42.4077L26.0109 42.8077ZM14.1231 37.8785C17.3664 41.1218 21.6675 42.8075 26.0109 42.8077L26.0109 42.4077C21.7708 42.4075 17.5723 40.762 14.406 37.5957L14.1231 37.8785ZM10.5283 19.446C7.84895 25.7795 9.26017 33.0154 14.1231 37.8785L14.406 37.5957C9.65817 32.8478 8.28081 25.7853 10.8967 19.6019L10.5283 19.446ZM10.1158 18.4284C10.5107 18.5955 10.6955 19.0511 10.5283 19.446L10.8967 19.6019C11.1499 19.0035 10.87 18.3131 10.2716 18.06L10.1158 18.4284ZM9.0982 18.841C9.26523 18.4461 9.72095 18.2614 10.1158 18.4284L10.2716 18.06C9.67341 17.807 8.98292 18.0867 8.72979 18.6852L9.0982 18.841ZM7.9605 29.3714C7.29775 25.8081 7.69111 22.167 9.09819 18.841L8.7298 18.6852C7.29204 22.0836 6.89021 25.8044 7.56725 29.4446L7.9605 29.3714ZM13.0252 38.9768C10.3905 36.342 8.63938 33.0209 7.9605 29.3714L7.56725 29.4446C8.26097 33.1738 10.0507 36.568 12.7423 39.2596L13.0252 38.9768ZM26.0112 44.3611C21.266 44.3611 16.5685 42.52 13.0252 38.9768L12.7423 39.2596C16.3626 42.8798 21.1627 44.7611 26.0112 44.7611V44.3611ZM35.37 41.7865C32.4575 43.5174 29.2234 44.3611 26.0112 44.3611V44.7611C29.2936 44.7611 32.5986 43.8988 35.5743 42.1303L35.37 41.7865ZM35.6408 40.7221C35.8598 41.0908 35.7385 41.5673 35.3699 41.7865L35.5744 42.1303C36.1328 41.7983 36.3165 41.0764 35.9847 40.5178L35.6408 40.7221ZM30.1364 17.8319C29.5706 17.5124 28.8529 17.7121 28.5336 18.278L28.8819 18.4746C29.0927 18.1011 29.5663 17.9693 29.9397 18.1802L30.1364 17.8319ZM30.5825 19.4347C30.9019 18.8688 30.7023 18.1512 30.1364 17.8318L29.9398 18.1802C30.3132 18.3909 30.445 18.8645 30.2342 19.238L30.5825 19.4347ZM21.5299 35.4702L30.5825 19.4347L30.2341 19.238L21.1815 35.2736L21.5299 35.4702ZM20.5045 36.0685C20.9145 36.0685 21.3137 35.8535 21.5299 35.4702L21.1815 35.2736C21.0391 35.5261 20.7761 35.6685 20.5045 35.6685V36.0685ZM19.9271 35.9163C20.1096 36.0193 20.3082 36.0685 20.5045 36.0685V35.6685C20.3755 35.6685 20.2448 35.6363 20.1237 35.568L19.9271 35.9163ZM19.481 34.3135C19.1616 34.8793 19.3612 35.5969 19.9271 35.9163L20.1237 35.568C19.7503 35.3572 19.6185 34.8837 19.8293 34.5101L19.481 34.3135ZM28.5336 18.2779L19.481 34.3135L19.8293 34.5102L28.8819 18.4746L28.5336 18.2779ZM27.9841 32.4873C27.9841 30.3363 29.7344 28.5861 31.8853 28.5861V28.1861C29.5135 28.1861 27.5841 30.1154 27.5841 32.4873H27.9841ZM31.8853 36.3886C29.7343 36.3886 27.9841 34.6383 27.9841 32.4873H27.5841C27.5841 34.8592 29.5134 36.7886 31.8853 36.7886V36.3886ZM35.7865 32.4873C35.7865 34.6384 34.0362 36.3886 31.8853 36.3886V36.7886C34.2571 36.7886 36.1865 34.8593 36.1865 32.4873H35.7865ZM31.8853 28.5861C34.0363 28.5861 35.7865 30.3363 35.7865 32.4873H36.1865C36.1865 30.1154 34.2572 28.1861 31.8853 28.1861V28.5861ZM29.537 32.4872C29.537 33.7823 30.5903 34.8355 31.8853 34.8355V34.4355C30.8112 34.4355 29.937 33.5614 29.937 32.4872H29.537ZM31.8853 30.139C30.5903 30.139 29.537 31.1922 29.537 32.4872H29.937C29.937 31.4131 30.8112 30.539 31.8853 30.539V30.139ZM34.2336 32.4872C34.2336 31.1922 33.1804 30.139 31.8853 30.139V30.539C32.9595 30.539 33.8336 31.4131 33.8336 32.4872H34.2336ZM31.8853 34.8355C33.1804 34.8355 34.2336 33.7823 34.2336 32.4872H33.8336C33.8336 33.5614 32.9595 34.4355 31.8853 34.4355V34.8355ZM20.1197 15.2098C17.7479 15.2098 15.8185 17.1391 15.8185 19.5111H16.2185C16.2185 17.36 17.9688 15.6098 20.1197 15.6098V15.2098ZM24.421 19.5111C24.421 17.1391 22.4917 15.2098 20.1197 15.2098V15.6098C22.2708 15.6098 24.021 17.36 24.021 19.5111H24.421ZM20.1197 23.8123C22.4916 23.8123 24.421 21.883 24.421 19.5111H24.021C24.021 21.6621 22.2707 23.4123 20.1197 23.4123V23.8123ZM15.8185 19.5111C15.8185 21.883 17.7478 23.8123 20.1197 23.8123V23.4123C17.9687 23.4123 16.2185 21.6621 16.2185 19.5111H15.8185ZM20.1197 21.4592C19.0456 21.4592 18.1715 20.5851 18.1715 19.511H17.7715C17.7715 20.806 18.8247 21.8592 20.1197 21.8592V21.4592ZM22.068 19.511C22.068 20.5851 21.1939 21.4592 20.1197 21.4592V21.8592C21.4148 21.8592 22.468 20.806 22.468 19.511H22.068ZM20.1197 17.5627C21.1939 17.5627 22.068 18.4368 22.068 19.511H22.468C22.468 18.2159 21.4148 17.1627 20.1197 17.1627V17.5627ZM18.1715 19.511C18.1715 18.4368 19.0456 17.5627 20.1197 17.5627V17.1627C18.8247 17.1627 17.7715 18.2159 17.7715 19.511H18.1715Z" fill="#008D3D" mask="url(#path-2-outside-1_17_17)"/>
</svg>
