<svg width="102" height="82" viewBox="0 0 102 82" fill="none" xmlns="http://www.w3.org/2000/svg">
<path fill-rule="evenodd" clip-rule="evenodd" d="M0 0H30.2558L50.6827 9.55765L71.1095 0H101.365L95.893 8.23103H71.1095L50.6827 17.7736L30.2558 8.23103H5.47228L0 0ZM46.0697 21.0449L50.6827 23.7132L55.2957 21.0449V42.8134L50.6827 45.4817L46.0697 42.8134V21.0449ZM83.4259 26.9694H71.1095L62.2604 31.1151V39.3311L71.1095 35.2005H77.9536L83.4259 26.9694ZM92.4258 13.447H71.1095L62.2604 17.5776V25.8087L71.1095 21.663H86.9535L92.4258 13.447ZM17.9394 26.9694H30.2558L39.0899 31.1151V39.3311L30.2558 35.2005H23.4117L17.9394 26.9694ZM8.93957 13.447H30.2558L39.0899 17.5776V25.8087L30.2558 21.663H14.4118L8.93957 13.447Z" fill="#008D3D"/>
<path d="M23.0801 52.2206V68.6676H19.854V57.9944L15.2259 65.6375H14.849L10.221 58.0245V68.6676H6.9798V52.2206H10.3114L15.045 59.9994L19.7485 52.2206H23.0801ZM28.4167 52.2206H31.6578V68.6676H28.4167V52.2206ZM42.3612 68.9992C40.7331 68.9992 39.3612 68.6374 38.2457 67.8987C37.1301 67.1751 36.3462 66.1802 35.8939 64.9289L38.6678 63.3008C39.316 64.9892 40.5672 65.8184 42.4516 65.8184C43.3561 65.8184 44.0345 65.6526 44.4566 65.336C44.8787 65.0043 45.0898 64.5822 45.0898 64.0847C45.0898 63.4968 44.8335 63.0596 44.3059 62.728C43.7933 62.4114 42.8737 62.0647 41.532 61.6878C40.7934 61.4617 40.1753 61.2506 39.6627 61.0245C39.1652 60.8134 38.6527 60.5119 38.1401 60.1501C37.6276 59.7732 37.2356 59.3059 36.9793 58.7481C36.708 58.1904 36.5723 57.527 36.5723 56.7733C36.5723 55.2808 37.1 54.105 38.1703 53.2156C39.2255 52.3261 40.4919 51.8889 41.9843 51.8889C43.3109 51.8889 44.4868 52.2055 45.4968 52.8537C46.5068 53.5171 47.2908 54.4216 47.8636 55.5824L45.135 57.1502C44.4717 55.7331 43.4315 55.0396 41.9843 55.0396C41.3059 55.0396 40.7783 55.1904 40.4014 55.4919C40.0095 55.7934 39.8135 56.2004 39.8135 56.6828C39.8135 57.1954 40.0396 57.6175 40.4617 57.9341C40.8989 58.2657 41.728 58.6125 42.9491 58.9893C43.4466 59.1401 43.8235 59.2607 44.0797 59.3511C44.3511 59.4265 44.6978 59.5622 45.1501 59.7431C45.5873 59.924 45.934 60.0898 46.1752 60.2556C46.4164 60.4064 46.7028 60.6175 47.0194 60.8888C47.3209 61.1602 47.5621 61.4315 47.7279 61.7029C47.8938 61.9893 48.0294 62.336 48.15 62.728C48.2706 63.135 48.3309 63.5722 48.3309 64.0395C48.3309 65.5621 47.7732 66.7681 46.6727 67.6575C45.5722 68.547 44.125 68.9992 42.3612 68.9992ZM63.0141 52.2206V55.311H58.582V68.6676H55.3409V55.311H50.9239V52.2206H63.0141ZM70.3557 65.5621H77.2903V68.6676H67.1146V52.2206H77.1697V55.311H70.3557V58.8235H76.5818V61.8687H70.3557V65.5621ZM90.873 68.6676L87.5565 62.9541H85.0992V68.6676H81.8581V52.2206H88.4308C89.9534 52.2206 91.2499 52.7482 92.3052 53.8186C93.3755 54.8738 93.9031 56.1703 93.9031 57.6627C93.9031 58.6878 93.6167 59.6225 93.0438 60.4969C92.4559 61.3712 91.6871 62.0194 90.7373 62.4566L94.3855 68.6676H90.873ZM85.0992 55.2507V60.1049H88.4308C89.0489 60.1049 89.5766 59.8788 90.0137 59.3964C90.4509 58.914 90.662 58.3411 90.662 57.6627C90.662 56.9994 90.4509 56.4266 90.0137 55.9442C89.5766 55.4768 89.0489 55.2507 88.4308 55.2507H85.0992Z" fill="#2B2A29"/>
<path d="M23.653 78.4061C24.271 78.7528 24.5725 79.2805 24.5725 79.989C24.5725 80.5769 24.3615 81.0593 23.9394 81.4362C23.5324 81.8131 23.0198 81.994 22.4017 81.994H19.4621V75.0594H22.2057C22.7937 75.0594 23.2912 75.2554 23.6982 75.6172C24.1052 75.979 24.3163 76.4463 24.3163 77.0192C24.3163 77.592 24.0901 78.0594 23.653 78.4061ZM22.2057 76.3408H20.8339V77.8634H22.2057C22.4168 77.8634 22.5826 77.8031 22.7334 77.6523C22.8691 77.5016 22.9444 77.3207 22.9444 77.1096C22.9444 76.8835 22.8691 76.7026 22.7334 76.5669C22.5977 76.4162 22.4168 76.3408 22.2057 76.3408ZM22.4017 80.7277C22.6429 80.7277 22.8238 80.6372 22.9897 80.4865C23.1404 80.3357 23.2158 80.1397 23.2158 79.8985C23.2158 79.6724 23.1404 79.4764 22.9897 79.3257C22.8238 79.1599 22.6429 79.0845 22.4017 79.0845H20.8339V80.7277H22.4017ZM33.2558 81.994V75.0594H34.6277V77.3508H35.8337C36.5121 77.3508 37.0698 77.5619 37.5221 78.0141C37.9744 78.4664 38.2156 79.0242 38.2156 79.6724C38.2156 80.3206 37.9744 80.8784 37.5221 81.3307C37.0698 81.7829 36.5121 81.994 35.8337 81.994H33.2558ZM38.8487 81.994V75.0594H40.2055V81.994H38.8487ZM34.6277 80.7277H35.8337C36.1352 80.7277 36.3764 80.6221 36.5573 80.4262C36.7533 80.2302 36.8588 79.9739 36.8588 79.6724C36.8588 79.3709 36.7533 79.1146 36.5573 78.9187C36.3764 78.7227 36.1352 78.6172 35.8337 78.6172H34.6277V80.7277ZM54.7078 81.994H53.1249L50.6526 78.7528V81.994H49.2807V75.0594H50.6526V78.1197L53.0344 75.0594H54.6022L52.0395 78.4363L54.7078 81.994ZM66.8131 75.0594H68.1699L66.0895 80.0945C65.5468 81.4362 64.6272 82.0694 63.3609 81.994V80.7277C63.7227 80.7578 64.0242 80.6975 64.2503 80.5618C64.4915 80.4262 64.6724 80.2151 64.8232 79.9136L62.5619 75.0594H63.9187L65.4413 78.4212L66.8131 75.0594ZM81.8883 75.0594V81.994H80.5315V76.371H78.0743V81.994H76.7175V75.0594H81.8883Z" fill="#2B2A29"/>
</svg>
