<svg width="55.239990" height="55.240234" viewBox="0 0 55.24 55.2402" fill="none" xmlns="http://www.w3.org/2000/svg" xmlns:xlink="http://www.w3.org/1999/xlink">
	<desc>
			Created with Pixso.
	</desc>
	<defs/>
	<mask id="mask_8_72" fill="white">
		<path d="M49.7489 34.9248L36.2585 34.9248C34.0377 34.9248 32.1011 36.2578 31.2886 38.2549L27.1545 38.2549C26.7202 38.2549 26.3284 38.5166 26.162 38.918C25.9958 39.3193 26.0877 39.7812 26.3948 40.0889L30.8873 44.5811L30.8873 49.749C30.8873 52.7104 33.2968 55.1201 36.2584 55.1201L49.7489 55.1201C52.7105 55.1201 55.12 52.7104 55.12 49.749L55.12 40.2959C55.12 37.3345 52.7105 34.9248 49.7489 34.9248ZM52.9716 49.749C52.9716 51.5259 51.5259 52.9717 49.7489 52.9717L36.2585 52.9717C34.4816 52.9717 33.0359 51.5259 33.0359 49.749L33.0359 44.1362C33.0359 43.8516 32.9227 43.5781 32.7213 43.3765L29.7479 40.4033L32.0722 40.4033C32.5727 40.4033 33.0069 40.0576 33.1191 39.5698C33.4573 38.1001 34.7482 37.0732 36.2585 37.0732L49.7489 37.0732C51.5259 37.0732 52.9716 38.519 52.9716 40.2959L52.9716 49.749ZM46.313 42.1641C46.7325 41.7446 47.4127 41.7446 47.832 42.1641C48.2515 42.584 48.2515 43.2642 47.832 43.6836L44.2169 47.2988C44.0072 47.5083 43.7322 47.6133 43.4573 47.6133C43.1824 47.6133 42.9075 47.5083 42.6977 47.2988L40.6103 45.2114C40.1908 44.7915 40.1908 44.1113 40.6103 43.6919C41.0299 43.2725 41.7101 43.2725 42.1296 43.6919L43.4574 45.0195L46.313 42.1641Z" clip-rule="evenodd" fill="" fill-opacity="1.000000" fill-rule="evenodd"/>
	</mask>
	<path d="M49.7489 34.9248L36.2585 34.9248C34.0377 34.9248 32.1011 36.2578 31.2886 38.2549L27.1545 38.2549C26.7202 38.2549 26.3284 38.5166 26.162 38.918C25.9958 39.3193 26.0877 39.7812 26.3948 40.0889L30.8873 44.5811L30.8873 49.749C30.8873 52.7104 33.2968 55.1201 36.2584 55.1201L49.7489 55.1201C52.7105 55.1201 55.12 52.7104 55.12 49.749L55.12 40.2959C55.12 37.3345 52.7105 34.9248 49.7489 34.9248ZM52.9716 49.749C52.9716 51.5259 51.5259 52.9717 49.7489 52.9717L36.2585 52.9717C34.4816 52.9717 33.0359 51.5259 33.0359 49.749L33.0359 44.1362C33.0359 43.8516 32.9227 43.5781 32.7213 43.3765L29.7479 40.4033L32.0722 40.4033C32.5727 40.4033 33.0069 40.0576 33.1191 39.5698C33.4573 38.1001 34.7482 37.0732 36.2585 37.0732L49.7489 37.0732C51.5259 37.0732 52.9716 38.519 52.9716 40.2959L52.9716 49.749ZM46.313 42.1641C46.7325 41.7446 47.4127 41.7446 47.832 42.1641C48.2515 42.584 48.2515 43.2642 47.832 43.6836L44.2169 47.2988C44.0072 47.5083 43.7322 47.6133 43.4573 47.6133C43.1824 47.6133 42.9075 47.5083 42.6977 47.2988L40.6103 45.2114C40.1908 44.7915 40.1908 44.1113 40.6103 43.6919C41.0299 43.2725 41.7101 43.2725 42.1296 43.6919L43.4574 45.0195L46.313 42.1641Z" clip-rule="evenodd" fill="#008D3D" fill-opacity="1.000000" fill-rule="evenodd" mask="url(#mask_8_72)"/>
	<path d="M50.9254 34.9308Q50.351 34.8047 49.7489 34.8047L36.2585 34.8047Q35.7313 34.8047 35.2224 34.9011Q34.9199 34.9584 34.624 35.0498Q34.222 35.1737 33.8479 35.3552Q33.5011 35.5234 33.1783 35.7412Q32.8453 35.9661 32.5518 36.2343Q32.2573 36.5035 32.0026 36.8164Q31.7687 37.1034 31.5773 37.4165Q31.3673 37.76 31.2085 38.1348L27.1545 38.1348Q26.9737 38.1348 26.808 38.1849Q26.6419 38.2352 26.4911 38.3359Q26.3395 38.4374 26.2291 38.5726Q26.1201 38.7059 26.0512 38.8721Q25.9823 39.0384 25.9651 39.2098Q25.9477 39.3833 25.9832 39.562Q26.0188 39.741 26.1014 39.8946Q26.1828 40.0463 26.31 40.1733L30.7673 44.6309L30.7673 49.749Q30.7673 50.3535 30.8943 50.93Q31.0016 51.4171 31.1996 51.8843Q31.3943 52.3441 31.6638 52.7549Q31.9718 53.2244 32.3774 53.6299Q32.7865 54.0391 33.2606 54.3489Q33.6678 54.6149 34.1229 54.8076Q34.5924 55.0067 35.0819 55.1141Q35.6563 55.2402 36.2584 55.2402L49.7489 55.2402Q50.351 55.2402 50.9254 55.1141Q51.415 55.0067 51.8844 54.8076Q52.3396 54.6149 52.7467 54.3489Q53.2208 54.0391 53.6299 53.6299Q54.0355 53.2244 54.3435 52.7549Q54.613 52.3441 54.8077 51.8843Q55.0057 51.4171 55.113 50.93Q55.24 50.3535 55.24 49.749L55.24 40.2959Q55.24 39.6914 55.113 39.1149Q55.0057 38.6278 54.8077 38.1606Q54.613 37.7008 54.3435 37.2901Q54.0355 36.8205 53.6299 36.415Q53.2208 36.0058 52.7467 35.696Q52.3396 35.43 51.8844 35.2373Q51.415 35.0383 50.9254 34.9308ZM30.8873 44.5811L30.8873 49.749C30.8873 52.7104 33.2968 55.1201 36.2584 55.1201L49.7489 55.1201C52.7105 55.1201 55.12 52.7104 55.12 49.749L55.12 40.2959C55.12 37.3345 52.7105 34.9248 49.7489 34.9248L36.2585 34.9248C34.0377 34.9248 32.1011 36.2578 31.2886 38.2549L27.1545 38.2549C26.7202 38.2549 26.3284 38.5166 26.162 38.918C25.9958 39.3193 26.0877 39.7812 26.3948 40.0889L30.8873 44.5811ZM49.7489 52.9717C51.5259 52.9717 52.9716 51.5259 52.9716 49.749L52.9716 40.2959C52.9716 38.519 51.5259 37.0732 49.7489 37.0732L36.2585 37.0732C34.7482 37.0732 33.4573 38.1001 33.1191 39.5698C33.0069 40.0576 32.5727 40.4033 32.0722 40.4033L29.7479 40.4033L29.868 40.5234L32.7213 43.3765C32.9227 43.5781 33.0359 43.8516 33.0359 44.1362L33.0359 49.749C33.0359 51.5259 34.4816 52.9717 36.2585 52.9717L49.7489 52.9717ZM30.0378 40.5234L32.8061 43.292Q32.8911 43.377 32.9563 43.4751Q33.02 43.5709 33.0649 43.6792Q33.1117 43.7921 33.1344 43.9096Q33.1559 44.0209 33.1559 44.1362L33.1559 49.749Q33.1559 50.0934 33.2287 50.4216Q33.2893 50.6941 33.4 50.9556Q33.5094 51.2137 33.6605 51.4445Q33.8352 51.7115 34.0657 51.9419Q34.2967 52.1728 34.5644 52.3478Q34.7947 52.4983 35.0521 52.6074Q35.3157 52.7191 35.5904 52.7797Q35.9166 52.8516 36.2585 52.8516L49.7489 52.8516Q50.0912 52.8516 50.4177 52.7795Q50.6921 52.7189 50.9553 52.6074Q51.2134 52.4981 51.4442 52.347Q51.7112 52.1723 51.9417 51.9419Q52.1724 51.7113 52.3473 51.4441Q52.4982 51.2134 52.6074 50.9556Q52.7182 50.6941 52.7787 50.4216Q52.8516 50.0934 52.8516 49.749L52.8516 40.2959Q52.8516 39.9515 52.7787 39.6234Q52.7182 39.3508 52.6074 39.0894Q52.4982 38.8315 52.3473 38.6009Q52.1724 38.3337 51.9417 38.103Q51.7112 37.8726 51.4442 37.6979Q51.2134 37.5469 50.9553 37.4375Q50.6921 37.326 50.4177 37.2654Q50.0912 37.1934 49.7489 37.1934L36.2585 37.1934Q35.9282 37.1934 35.6118 37.2596Q35.4122 37.3015 35.2182 37.3696Q34.9681 37.4578 34.7398 37.5852Q34.5219 37.7069 34.324 37.8643Q34.1231 38.024 33.9536 38.212Q33.7812 38.4034 33.6413 38.624Q33.5282 38.8023 33.441 38.9925Q33.3088 39.2809 33.2361 39.5967Q33.1893 39.7997 33.0846 39.9663Q32.9795 40.1333 32.816 40.2637Q32.6529 40.3934 32.4671 40.4584Q32.2811 40.5234 32.0722 40.5234L30.0378 40.5234ZM46.4291 41.9173Q46.3211 41.9864 46.2281 42.0791L43.4574 44.8502L42.2144 43.6069Q42.1215 43.5142 42.0135 43.4451Q41.9219 43.3864 41.8193 43.3447Q41.7172 43.3034 41.6111 43.2816Q41.493 43.2573 41.37 43.2573Q41.2465 43.2573 41.128 43.2817Q41.0223 43.3035 40.9206 43.3447Q40.8177 43.3866 40.7258 43.4455Q40.6181 43.5145 40.5255 43.6069Q40.4299 43.7026 40.3594 43.8141Q40.3033 43.903 40.2631 44.002Q40.222 44.1034 40.2002 44.2089Q40.1757 44.3278 40.1757 44.4517Q40.1757 44.572 40.1989 44.6876Q40.2207 44.7963 40.2631 44.9009Q40.3033 44.9998 40.3594 45.0887Q40.4299 45.2002 40.5255 45.2959L42.6129 47.3833Q42.707 47.4775 42.8167 47.5474Q42.9071 47.605 43.008 47.646Q43.1097 47.6872 43.2154 47.709Q43.3338 47.7334 43.4573 47.7334Q43.5812 47.7334 43.7 47.7088Q43.8053 47.6871 43.9066 47.646Q44.0082 47.6047 44.0991 47.5467Q44.2081 47.4771 44.3018 47.3833L47.9169 43.7681Q48.0086 43.6765 48.0772 43.5701Q48.137 43.4772 48.1792 43.373Q48.2192 43.2746 48.2409 43.1723Q48.2667 43.0508 48.2667 42.9238Q48.2667 42.7969 48.2409 42.6754Q48.2192 42.573 48.1792 42.4746Q48.1378 42.3725 48.0796 42.2812Q48.0102 42.1725 47.9169 42.0791Q47.8245 41.9869 47.7171 41.9179Q47.625 41.8588 47.5219 41.8169Q47.4201 41.7757 47.3144 41.7539Q47.196 41.7295 47.0726 41.7295Q46.9495 41.7295 46.8315 41.7537Q46.7253 41.7755 46.6232 41.8169Q46.5207 41.8586 46.4291 41.9173ZM43.5421 44.9349L43.4574 45.0195L43.3727 44.9349L42.1296 43.6919C41.7101 43.2725 41.0299 43.2725 40.6103 43.6919C40.1908 44.1113 40.1908 44.7915 40.6103 45.2114L42.6977 47.2988C42.9075 47.5083 43.1824 47.6133 43.4573 47.6133C43.7322 47.6133 44.0072 47.5083 44.2169 47.2988L47.832 43.6836C48.2515 43.2642 48.2515 42.584 47.832 42.1641C47.4127 41.7446 46.7325 41.7446 46.313 42.1641L43.5421 44.9349Z" clip-rule="evenodd" fill="#008D3D" fill-opacity="1.000000" fill-rule="evenodd"/>
	<mask id="mask_9_2" fill="white">
		<path d="M24.3527 10.6592L28.8452 15.1514C29.1522 15.459 29.2442 15.9209 29.0779 16.3223C28.9116 16.7236 28.5198 16.9854 28.0854 16.9854L23.9514 16.9854C23.1389 18.9824 21.2023 20.3154 18.9814 20.3154L5.49109 20.3154C2.52948 20.3154 0.119995 17.9058 0.119995 14.9443L0.119995 5.49121C0.119995 2.52979 2.52948 0.120117 5.49109 0.120117L18.9816 0.120117C21.9432 0.120117 24.3527 2.52979 24.3527 5.49121L24.3527 10.6592ZM45.8156 15.627C45.8958 15.6313 45.9753 15.644 46.053 15.666C51.1292 16.126 55.12 20.4048 55.12 25.5986L55.12 30.188C55.12 30.7812 54.639 31.2622 54.0458 31.2622L45.0581 31.2622C44.4648 31.2622 43.9839 30.7812 43.9839 30.188C43.9839 29.5947 44.4648 29.1138 45.0581 29.1138L52.9716 29.1138L52.9716 25.5986C52.9716 21.6196 49.9857 18.3271 46.1373 17.8379L41.5854 22.3896C41.3758 22.5991 41.1008 22.7041 40.8259 22.7041C40.551 22.7041 40.2761 22.5991 40.0663 22.3896L35.5145 17.8379C31.6663 18.3267 28.6805 21.6196 28.6805 25.5986L28.6805 29.1133L36.2494 29.1133C36.8427 29.1133 37.3236 29.5942 37.3236 30.1875C37.3236 30.7808 36.8427 31.2617 36.2494 31.2617L27.6063 31.2617C27.0129 31.2617 26.532 30.7808 26.532 30.1875L26.532 25.5981C26.532 20.4043 30.5228 16.126 35.5989 15.666C35.6766 15.6436 35.7563 15.6313 35.8364 15.627C34.6597 14.3901 33.9351 12.7197 33.9351 10.8818L33.9351 5.62256C33.9351 2.58838 36.4034 0.120117 39.4376 0.120117L46.6427 0.120117C47.236 0.120117 47.7169 0.601074 47.7169 1.19434L47.7169 4.77002C47.7169 4.87354 47.712 4.97656 47.705 5.07861C47.712 5.12793 47.7169 5.17871 47.7169 5.22998L47.7169 10.8818C47.7169 12.7197 46.9923 14.3901 45.8156 15.627ZM22.1208 15.6704C22.2331 15.1826 22.6673 14.8369 23.1678 14.8369L25.4921 14.8369L22.5187 11.8638C22.3173 11.6621 22.2041 11.3887 22.2041 11.104L22.2041 5.49121C22.2041 3.71436 20.7584 2.26855 18.9814 2.26855L5.49109 2.26855C3.71411 2.26855 2.26843 3.71436 2.26843 5.49121L2.26843 14.9443C2.26843 16.7212 3.71411 18.167 5.49109 18.167L18.9814 18.167C20.4918 18.167 21.7827 17.1401 22.1208 15.6704ZM43.2848 7.05371C44.5441 7.05371 45.5685 6.0293 45.5685 4.77002L45.5685 2.26855L39.4377 2.26855C37.5883 2.26855 36.0836 3.77344 36.0836 5.62256L36.0836 7.05371L43.2848 7.05371ZM17.1198 7.23877C16.9929 5.39697 15.5081 3.91211 13.6661 3.78516C12.6216 3.71338 11.626 4.06543 10.8633 4.77734C10.1113 5.47949 9.67987 6.47217 9.67987 7.50049C9.67999 8.09375 10.1609 8.57471 10.7542 8.57471C11.3475 8.57471 11.8284 8.09375 11.8284 7.50049C11.8284 7.05908 12.0063 6.6499 12.3295 6.34814C12.652 6.04688 13.0748 5.89746 13.5185 5.92871C14.2961 5.98193 14.9229 6.60889 14.9766 7.38672C15.0308 8.17285 14.5154 8.86768 13.7511 9.03857C12.9145 9.22559 12.3302 9.95312 12.3302 10.8071L12.3302 11.3804C12.3302 11.9736 12.8112 12.4546 13.4044 12.4546C13.9977 12.4546 14.4786 11.9736 14.4786 11.3804L14.4786 11.0679C16.1431 10.5713 17.2415 9.00195 17.1198 7.23877ZM40.8261 15.624C43.4411 15.624 45.5685 13.4966 45.5685 10.8818L45.5685 8.56689C44.9011 8.96973 44.1196 9.20215 43.2848 9.20215L36.0836 9.20215L36.0836 10.8818C36.0836 13.4966 38.2111 15.624 40.8261 15.624ZM13.12 14.1201C13.383 14.1201 13.641 14.2271 13.827 14.4131C14.013 14.5991 14.12 14.8569 14.12 15.1201C14.12 15.3833 14.013 15.6411 13.827 15.8271C13.641 16.0132 13.383 16.1201 13.12 16.1201C12.856 16.1201 12.599 16.0132 12.413 15.8271C12.226 15.6411 12.12 15.3833 12.12 15.1201C12.12 14.8569 12.226 14.5991 12.413 14.4131C12.599 14.2271 12.856 14.1201 13.12 14.1201ZM38.488 17.7729L40.8261 20.1108L43.1641 17.7729L38.488 17.7729ZM19.6407 39.5239C19.563 39.502 19.4835 39.4893 19.4035 39.4849C20.5802 38.2485 21.3049 36.5776 21.3049 34.7397L21.3049 29.0884C21.3049 29.0366 21.2999 28.9863 21.293 28.9365C21.3 28.8345 21.3049 28.7319 21.3049 28.6279L21.3049 25.0522C21.3049 24.459 20.824 23.978 20.2307 23.978L13.0256 23.978C9.99139 23.978 7.52307 26.4468 7.52307 29.4805L7.52307 34.7397C7.52307 36.5776 8.24762 38.2485 9.42444 39.4849C9.34454 39.4893 9.26501 39.502 9.1875 39.5239C4.11102 39.9834 0.119995 44.2622 0.119995 49.4565L0.119995 54.0459C0.119995 54.6392 0.600952 55.1201 1.19421 55.1201L27.6336 55.1201C28.2269 55.1201 28.7078 54.6392 28.7078 54.0459L28.7078 49.4565C28.7078 44.2627 24.717 39.9839 19.6407 39.5239ZM9.67151 30.9116L9.67151 29.4805C9.67151 27.6313 11.1761 26.1265 13.0256 26.1265L19.1564 26.1265L19.1564 28.6279C19.1564 29.8872 18.132 30.9116 16.8726 30.9116L9.67151 30.9116ZM41.5859 29.4282C41.3861 29.228 41.1089 29.1133 40.8264 29.1133C40.5428 29.1133 40.2668 29.228 40.067 29.4282C39.8661 29.6279 39.7522 29.9048 39.7522 30.1875C39.7522 30.4712 39.8661 30.7471 40.067 30.9468C40.2668 31.1479 40.5428 31.2617 40.8264 31.2617C41.1089 31.2617 41.3861 31.1479 41.5859 30.9468C41.7857 30.7471 41.9006 30.4712 41.9006 30.1875C41.9006 29.9048 41.7857 29.6279 41.5859 29.4282ZM9.67151 33.0601L16.8726 33.0601C17.7075 33.0601 18.489 32.8281 19.1564 32.4248L19.1564 34.7397C19.1564 37.3545 17.0289 39.4824 14.414 39.4824C11.799 39.4824 9.67151 37.3545 9.67151 34.7397L9.67151 33.0601ZM16.752 41.6309L14.414 43.9688L12.0759 41.6309L16.752 41.6309ZM26.5595 52.9717L2.26843 52.9717L2.26843 50.8232L6.72644 50.8232C7.3197 50.8232 7.80066 50.3423 7.80066 49.749C7.80066 49.1558 7.3197 48.6748 6.72644 48.6748L2.30762 48.6748C2.66846 45.0527 5.50946 42.1523 9.1026 41.6958L13.6544 46.2476C13.8558 46.4487 14.1291 46.562 14.414 46.562C14.6989 46.562 14.9722 46.4487 15.1736 46.2476L19.7253 41.6958C23.5736 42.1846 26.5595 45.4775 26.5595 49.4565L26.5595 52.9717ZM11.0233 48.6748C11.3058 48.6748 11.583 48.7896 11.7828 48.9897C11.9826 49.1895 12.0975 49.4663 12.0975 49.749C12.0975 50.0317 11.9826 50.3086 11.7828 50.5083C11.583 50.7085 11.3058 50.8232 11.0233 50.8232C10.7408 50.8232 10.4636 50.7085 10.2639 50.5083C10.064 50.3086 9.9491 50.0317 9.9491 49.749C9.9491 49.4663 10.064 49.1895 10.2639 48.9897C10.4636 48.7896 10.7408 48.6748 11.0233 48.6748Z" clip-rule="evenodd" fill="" fill-opacity="1.000000" fill-rule="evenodd"/>
	</mask>
	<path d="M24.3527 10.6592L28.8452 15.1514C29.1522 15.459 29.2442 15.9209 29.0779 16.3223C28.9116 16.7236 28.5198 16.9854 28.0854 16.9854L23.9514 16.9854C23.1389 18.9824 21.2023 20.3154 18.9814 20.3154L5.49109 20.3154C2.52948 20.3154 0.119995 17.9058 0.119995 14.9443L0.119995 5.49121C0.119995 2.52979 2.52948 0.120117 5.49109 0.120117L18.9816 0.120117C21.9432 0.120117 24.3527 2.52979 24.3527 5.49121L24.3527 10.6592ZM45.8156 15.627C45.8958 15.6313 45.9753 15.644 46.053 15.666C51.1292 16.126 55.12 20.4048 55.12 25.5986L55.12 30.188C55.12 30.7812 54.639 31.2622 54.0458 31.2622L45.0581 31.2622C44.4648 31.2622 43.9839 30.7812 43.9839 30.188C43.9839 29.5947 44.4648 29.1138 45.0581 29.1138L52.9716 29.1138L52.9716 25.5986C52.9716 21.6196 49.9857 18.3271 46.1373 17.8379L41.5854 22.3896C41.3758 22.5991 41.1008 22.7041 40.8259 22.7041C40.551 22.7041 40.2761 22.5991 40.0663 22.3896L35.5145 17.8379C31.6663 18.3267 28.6805 21.6196 28.6805 25.5986L28.6805 29.1133L36.2494 29.1133C36.8427 29.1133 37.3236 29.5942 37.3236 30.1875C37.3236 30.7808 36.8427 31.2617 36.2494 31.2617L27.6063 31.2617C27.0129 31.2617 26.532 30.7808 26.532 30.1875L26.532 25.5981C26.532 20.4043 30.5228 16.126 35.5989 15.666C35.6766 15.6436 35.7563 15.6313 35.8364 15.627C34.6597 14.3901 33.9351 12.7197 33.9351 10.8818L33.9351 5.62256C33.9351 2.58838 36.4034 0.120117 39.4376 0.120117L46.6427 0.120117C47.236 0.120117 47.7169 0.601074 47.7169 1.19434L47.7169 4.77002C47.7169 4.87354 47.712 4.97656 47.705 5.07861C47.712 5.12793 47.7169 5.17871 47.7169 5.22998L47.7169 10.8818C47.7169 12.7197 46.9923 14.3901 45.8156 15.627ZM22.1208 15.6704C22.2331 15.1826 22.6673 14.8369 23.1678 14.8369L25.4921 14.8369L22.5187 11.8638C22.3173 11.6621 22.2041 11.3887 22.2041 11.104L22.2041 5.49121C22.2041 3.71436 20.7584 2.26855 18.9814 2.26855L5.49109 2.26855C3.71411 2.26855 2.26843 3.71436 2.26843 5.49121L2.26843 14.9443C2.26843 16.7212 3.71411 18.167 5.49109 18.167L18.9814 18.167C20.4918 18.167 21.7827 17.1401 22.1208 15.6704ZM43.2848 7.05371C44.5441 7.05371 45.5685 6.0293 45.5685 4.77002L45.5685 2.26855L39.4377 2.26855C37.5883 2.26855 36.0836 3.77344 36.0836 5.62256L36.0836 7.05371L43.2848 7.05371ZM17.1198 7.23877C16.9929 5.39697 15.5081 3.91211 13.6661 3.78516C12.6216 3.71338 11.626 4.06543 10.8633 4.77734C10.1113 5.47949 9.67987 6.47217 9.67987 7.50049C9.67999 8.09375 10.1609 8.57471 10.7542 8.57471C11.3475 8.57471 11.8284 8.09375 11.8284 7.50049C11.8284 7.05908 12.0063 6.6499 12.3295 6.34814C12.652 6.04688 13.0748 5.89746 13.5185 5.92871C14.2961 5.98193 14.9229 6.60889 14.9766 7.38672C15.0308 8.17285 14.5154 8.86768 13.7511 9.03857C12.9145 9.22559 12.3302 9.95312 12.3302 10.8071L12.3302 11.3804C12.3302 11.9736 12.8112 12.4546 13.4044 12.4546C13.9977 12.4546 14.4786 11.9736 14.4786 11.3804L14.4786 11.0679C16.1431 10.5713 17.2415 9.00195 17.1198 7.23877ZM40.8261 15.624C43.4411 15.624 45.5685 13.4966 45.5685 10.8818L45.5685 8.56689C44.9011 8.96973 44.1196 9.20215 43.2848 9.20215L36.0836 9.20215L36.0836 10.8818C36.0836 13.4966 38.2111 15.624 40.8261 15.624ZM13.12 14.1201C13.383 14.1201 13.641 14.2271 13.827 14.4131C14.013 14.5991 14.12 14.8569 14.12 15.1201C14.12 15.3833 14.013 15.6411 13.827 15.8271C13.641 16.0132 13.383 16.1201 13.12 16.1201C12.856 16.1201 12.599 16.0132 12.413 15.8271C12.226 15.6411 12.12 15.3833 12.12 15.1201C12.12 14.8569 12.226 14.5991 12.413 14.4131C12.599 14.2271 12.856 14.1201 13.12 14.1201ZM38.488 17.7729L40.8261 20.1108L43.1641 17.7729L38.488 17.7729ZM19.6407 39.5239C19.563 39.502 19.4835 39.4893 19.4035 39.4849C20.5802 38.2485 21.3049 36.5776 21.3049 34.7397L21.3049 29.0884C21.3049 29.0366 21.2999 28.9863 21.293 28.9365C21.3 28.8345 21.3049 28.7319 21.3049 28.6279L21.3049 25.0522C21.3049 24.459 20.824 23.978 20.2307 23.978L13.0256 23.978C9.99139 23.978 7.52307 26.4468 7.52307 29.4805L7.52307 34.7397C7.52307 36.5776 8.24762 38.2485 9.42444 39.4849C9.34454 39.4893 9.26501 39.502 9.1875 39.5239C4.11102 39.9834 0.119995 44.2622 0.119995 49.4565L0.119995 54.0459C0.119995 54.6392 0.600952 55.1201 1.19421 55.1201L27.6336 55.1201C28.2269 55.1201 28.7078 54.6392 28.7078 54.0459L28.7078 49.4565C28.7078 44.2627 24.717 39.9839 19.6407 39.5239ZM9.67151 30.9116L9.67151 29.4805C9.67151 27.6313 11.1761 26.1265 13.0256 26.1265L19.1564 26.1265L19.1564 28.6279C19.1564 29.8872 18.132 30.9116 16.8726 30.9116L9.67151 30.9116ZM41.5859 29.4282C41.3861 29.228 41.1089 29.1133 40.8264 29.1133C40.5428 29.1133 40.2668 29.228 40.067 29.4282C39.8661 29.6279 39.7522 29.9048 39.7522 30.1875C39.7522 30.4712 39.8661 30.7471 40.067 30.9468C40.2668 31.1479 40.5428 31.2617 40.8264 31.2617C41.1089 31.2617 41.3861 31.1479 41.5859 30.9468C41.7857 30.7471 41.9006 30.4712 41.9006 30.1875C41.9006 29.9048 41.7857 29.6279 41.5859 29.4282ZM9.67151 33.0601L16.8726 33.0601C17.7075 33.0601 18.489 32.8281 19.1564 32.4248L19.1564 34.7397C19.1564 37.3545 17.0289 39.4824 14.414 39.4824C11.799 39.4824 9.67151 37.3545 9.67151 34.7397L9.67151 33.0601ZM16.752 41.6309L14.414 43.9688L12.0759 41.6309L16.752 41.6309ZM26.5595 52.9717L2.26843 52.9717L2.26843 50.8232L6.72644 50.8232C7.3197 50.8232 7.80066 50.3423 7.80066 49.749C7.80066 49.1558 7.3197 48.6748 6.72644 48.6748L2.30762 48.6748C2.66846 45.0527 5.50946 42.1523 9.1026 41.6958L13.6544 46.2476C13.8558 46.4487 14.1291 46.562 14.414 46.562C14.6989 46.562 14.9722 46.4487 15.1736 46.2476L19.7253 41.6958C23.5736 42.1846 26.5595 45.4775 26.5595 49.4565L26.5595 52.9717ZM11.0233 48.6748C11.3058 48.6748 11.583 48.7896 11.7828 48.9897C11.9826 49.1895 12.0975 49.4663 12.0975 49.749C12.0975 50.0317 11.9826 50.3086 11.7828 50.5083C11.583 50.7085 11.3058 50.8232 11.0233 50.8232C10.7408 50.8232 10.4636 50.7085 10.2639 50.5083C10.064 50.3086 9.9491 50.0317 9.9491 49.749C9.9491 49.4663 10.064 49.1895 10.2639 48.9897C10.4636 48.7896 10.7408 48.6748 11.0233 48.6748Z" clip-rule="evenodd" fill="#2C2C2C" fill-opacity="1.000000" fill-rule="evenodd" mask="url(#mask_9_2)"/>
	<path d="M24.3527 10.6592L24.3527 5.49121C24.3527 2.52979 21.9432 0.120117 18.9816 0.120117L5.49109 0.120117C2.52948 0.120117 0.119995 2.52979 0.119995 5.49121L0.119995 14.9443C0.119995 17.9058 2.52948 20.3154 5.49109 20.3154L18.9814 20.3154C21.2023 20.3154 23.1389 18.9824 23.9514 16.9854L28.0854 16.9854C28.5198 16.9854 28.9116 16.7236 29.0779 16.3223C29.2442 15.9209 29.1522 15.459 28.8452 15.1514L24.3527 10.6592ZM24.0315 17.1055Q23.8727 17.4803 23.6627 17.8238Q23.4713 18.1368 23.2374 18.4238Q22.9827 18.7367 22.6881 19.0059Q22.3947 19.2741 22.0617 19.499Q21.7389 19.7168 21.3921 19.8851Q21.018 20.0665 20.616 20.1904Q20.32 20.2818 20.0176 20.3391Q19.5087 20.4355 18.9814 20.4355L5.49109 20.4355Q4.88898 20.4355 4.31456 20.3094Q3.82502 20.202 3.35559 20.0029Q2.90044 19.8103 2.49324 19.5442Q2.01918 19.2344 1.61011 18.8252Q1.20449 18.4197 0.896479 17.9502Q0.627006 17.5394 0.432251 17.0796Q0.234292 16.6124 0.126993 16.1253Q0 15.5488 0 14.9443L0 5.49121Q0 4.88672 0.126993 4.31021Q0.234292 3.8231 0.432251 3.35596Q0.627006 2.89616 0.89648 2.48537Q1.20449 2.01584 1.61011 1.61035Q2.01918 1.20112 2.49324 0.891359Q2.90044 0.625293 3.35559 0.432617Q3.82502 0.233567 4.31456 0.126101Q4.88898 0 5.49109 0L18.9816 0Q19.584 0 20.1588 0.126248Q20.6479 0.233703 21.117 0.432617Q21.5725 0.625444 21.98 0.891777Q22.4538 1.20139 22.8625 1.61035Q23.2682 2.01584 23.5762 2.48537Q23.8456 2.89616 24.0404 3.35596Q24.2384 3.8231 24.3457 4.31021Q24.4727 4.88672 24.4727 5.49121L24.4727 10.6094L28.93 15.0669Q29.0572 15.194 29.1386 15.3456Q29.2212 15.4993 29.2567 15.6782Q29.2923 15.857 29.2749 16.0305Q29.2577 16.2019 29.1888 16.3682Q29.1199 16.5343 29.0109 16.6677Q28.9005 16.8028 28.7489 16.9043Q28.5981 17.005 28.432 17.0553Q28.2663 17.1055 28.0854 17.1055L24.0315 17.1055ZM45.9637 15.6449C45.9148 15.6356 45.8653 15.6297 45.8156 15.627C45.8504 15.5904 45.8847 15.5535 45.9187 15.5162C47.0345 14.2913 47.7169 12.6654 47.7169 10.8818L47.7169 5.22998C47.7169 5.17871 47.712 5.12793 47.705 5.07861C47.712 4.97656 47.7169 4.87354 47.7169 4.77002L47.7169 1.19434C47.7169 0.601074 47.236 0.120117 46.6427 0.120117L39.4376 0.120117C36.4034 0.120117 33.9351 2.58838 33.9351 5.62256L33.9351 10.8818C33.9351 12.6654 34.6175 14.2912 35.7332 15.5161C35.7672 15.5535 35.8016 15.5904 35.8364 15.627C35.7868 15.6297 35.7374 15.6354 35.6885 15.6447C35.6584 15.6504 35.6285 15.6575 35.5989 15.666C30.5228 16.126 26.532 20.4043 26.532 25.5981L26.532 30.1875C26.532 30.7808 27.0129 31.2617 27.6063 31.2617L36.2494 31.2617C36.8427 31.2617 37.3236 30.7808 37.3236 30.1875C37.3236 29.5942 36.8427 29.1133 36.2494 29.1133L28.6805 29.1133L28.6805 25.5986C28.6805 21.6196 31.6663 18.3267 35.5145 17.8379L40.0663 22.3896C40.2761 22.5991 40.551 22.7041 40.8259 22.7041C41.1008 22.7041 41.3758 22.5991 41.5854 22.3896L46.1373 17.8379C49.9857 18.3271 52.9716 21.6196 52.9716 25.5986L52.9716 29.1138L45.0581 29.1138C44.4648 29.1138 43.9839 29.5947 43.9839 30.188C43.9839 30.7812 44.4648 31.2622 45.0581 31.2622L54.0458 31.2622C54.639 31.2622 55.12 30.7812 55.12 30.188L55.12 25.5986C55.12 20.4048 51.1292 16.126 46.053 15.666C46.0235 15.6577 45.9937 15.6507 45.9637 15.6449ZM46.0567 15.5428Q46.0651 15.545 46.0734 15.5473Q47.0293 15.6349 47.9354 15.8958Q48.8243 16.1516 49.6652 16.5742Q50.4414 16.9645 51.1304 17.473Q51.9103 18.0486 52.5784 18.7759Q53.2615 19.5191 53.776 20.3648Q54.2131 21.0832 54.5286 21.8755Q54.8493 22.681 55.0254 23.5169Q55.24 24.5352 55.24 25.5986L55.24 30.188Q55.24 30.3186 55.2128 30.4433Q55.1894 30.5503 55.1461 30.6528Q55.1029 30.755 55.0427 30.846Q54.9767 30.9459 54.8902 31.0322Q54.804 31.1183 54.7045 31.1842Q54.6132 31.2446 54.5106 31.2881Q54.4106 31.3303 54.3064 31.3535Q54.1792 31.3818 54.0458 31.3818L45.0581 31.3818Q44.9242 31.3818 44.7967 31.3534Q44.6928 31.3302 44.5932 31.2881Q44.4906 31.2446 44.3993 31.1842Q44.2998 31.1183 44.2136 31.0322Q44.1275 30.9462 44.0616 30.8467Q44.0012 30.7554 43.9578 30.6528Q43.9145 30.5504 43.8912 30.4437Q43.8639 30.3188 43.8639 30.188Q43.8639 30.051 43.8937 29.9208Q43.9168 29.8199 43.9578 29.7231Q44.0002 29.6228 44.059 29.5331Q44.1258 29.4313 44.2136 29.3433Q44.2998 29.2572 44.3993 29.1913Q44.4906 29.1309 44.5932 29.0874Q44.6928 29.0453 44.7967 29.0221Q44.9242 28.9937 45.0581 28.9937L52.8516 28.9937L52.8516 25.5986Q52.8516 24.7934 52.6903 24.022Q52.5624 23.41 52.333 22.8193Q52.1044 22.2304 51.7875 21.6936Q51.4103 21.0545 50.9079 20.4893Q50.4235 19.9439 49.8566 19.505Q49.3476 19.1109 48.772 18.8027Q48.1425 18.4659 47.4735 18.2535Q46.8444 18.0538 46.1803 17.9642L41.6703 22.4746Q41.5782 22.5666 41.4711 22.6354Q41.3787 22.6947 41.2752 22.7368Q41.1739 22.7779 41.0685 22.7997Q40.9497 22.8242 40.8259 22.8242Q40.7024 22.8242 40.584 22.7998Q40.4783 22.778 40.3766 22.7368Q40.2737 22.695 40.1818 22.6361Q40.0741 22.5671 39.9814 22.4746L35.4715 17.9642Q34.8114 18.053 34.1859 18.2509Q33.5129 18.4638 32.8799 18.8027Q32.3047 19.1107 31.796 19.5045Q31.2288 19.9435 30.7441 20.4893Q30.2417 21.0545 29.8644 21.6936Q29.5476 22.2304 29.319 22.8193Q29.0896 23.4101 28.9617 24.022Q28.8004 24.7935 28.8005 25.5986L28.8005 28.9937L36.2494 28.9937Q36.3833 28.9937 36.5108 29.0221Q36.6147 29.0453 36.7143 29.0874Q36.8162 29.1306 36.907 29.1906Q37.0072 29.2567 37.0939 29.3433Q37.18 29.4293 37.2459 29.5288Q37.3063 29.6201 37.3497 29.7227Q37.393 29.8251 37.4163 29.9318Q37.4436 30.0567 37.4436 30.1875Q37.4436 30.3217 37.415 30.4495Q37.3918 30.5533 37.3497 30.6528Q37.3085 30.7501 37.2518 30.8374Q37.1839 30.942 37.0939 31.0322Q37.0072 31.1188 36.907 31.1849Q36.8162 31.2449 36.7143 31.2881Q36.6147 31.3302 36.5108 31.3534Q36.3833 31.3818 36.2494 31.3818L27.6063 31.3818Q27.4724 31.3818 27.3449 31.3534Q27.241 31.3302 27.1414 31.2881Q27.0388 31.2446 26.9474 31.1842Q26.8479 31.1183 26.7618 31.0322Q26.6714 30.9417 26.6033 30.8367Q26.547 30.7497 26.5059 30.6528Q26.4638 30.5531 26.4405 30.4491Q26.412 30.3215 26.412 30.1875L26.412 25.5981Q26.412 24.5384 26.6252 23.5234Q26.8014 22.6841 27.1234 21.8755Q27.4387 21.0836 27.8755 20.3656Q28.3902 19.5194 29.0735 18.7759Q29.7416 18.0486 30.5216 17.473Q31.2106 16.9645 31.9868 16.5742Q32.8302 16.1502 33.7218 15.894Q34.6243 15.6347 35.5763 15.5475Q35.5858 15.5449 35.5954 15.5424Q35.1893 15.0882 34.8717 14.5788Q34.5599 14.0787 34.3334 13.5254Q34.0955 12.944 33.9668 12.3393Q33.8151 11.6267 33.8151 10.8818L33.8151 5.62256Q33.8151 5.00241 33.9456 4.41105Q34.0554 3.91334 34.2577 3.43604Q34.4572 2.96519 34.7331 2.54456Q35.0485 2.06397 35.4637 1.64893Q35.8813 1.23117 36.3652 0.914567Q36.7834 0.64094 37.251 0.442871Q37.7315 0.239169 38.2326 0.129162Q38.8209 0 39.4376 0L46.6427 0Q46.7748 0 46.9008 0.027902Q47.0063 0.051278 47.1075 0.0942383Q47.2069 0.136104 47.2957 0.194122Q47.3985 0.261287 47.4871 0.350098Q47.5736 0.436466 47.6396 0.53634Q47.6998 0.627313 47.743 0.729492Q47.7863 0.83205 47.8097 0.938978Q47.8369 1.06369 47.8369 1.19434L47.8369 4.77002Q47.8369 4.90621 47.8255 5.07475Q47.8369 5.15999 47.8369 5.22998L47.8369 10.8818Q47.8369 11.6271 47.6851 12.34Q47.5564 12.9443 47.3186 13.5254Q47.0933 14.0758 46.7836 14.5737Q46.4649 15.0861 46.0567 15.5428ZM23.1678 14.8369C22.6673 14.8369 22.2331 15.1826 22.1208 15.6704C21.7827 17.1401 20.4918 18.167 18.9814 18.167L5.49109 18.167C3.71411 18.167 2.26843 16.7212 2.26843 14.9443L2.26843 5.49121C2.26843 3.71436 3.71411 2.26855 5.49109 2.26855L18.9814 2.26855C20.7584 2.26855 22.2041 3.71436 22.2041 5.49121L22.2041 11.104C22.2041 11.3887 22.3173 11.6621 22.5187 11.8638L25.3719 14.7168L25.4921 14.8369L23.1678 14.8369ZM25.2022 14.7168L23.1678 14.7168Q22.9589 14.7168 22.7728 14.7819Q22.5871 14.8468 22.424 14.9766Q22.2604 15.107 22.1552 15.2742Q22.0506 15.4406 22.0039 15.6436Q21.9312 15.9593 21.799 16.2477Q21.7118 16.4379 21.5987 16.6162Q21.4588 16.8369 21.2863 17.0282Q21.1169 17.2162 20.916 17.376Q20.7185 17.5331 20.501 17.6545Q20.2724 17.7823 20.0217 17.8706Q19.8282 17.9386 19.6291 17.9804Q19.3123 18.0469 18.9814 18.0469L5.49109 18.0469Q5.14875 18.0469 4.82232 17.9748Q4.54791 17.9142 4.28473 17.8027Q4.02691 17.6935 3.79628 17.5427Q3.52898 17.3679 3.29822 17.1372Q3.06772 16.9068 2.89301 16.6398Q2.74193 16.409 2.63257 16.1509Q2.5218 15.8895 2.46128 15.6169Q2.38843 15.2887 2.38843 14.9443L2.38843 5.49121Q2.38843 5.14685 2.46128 4.81867Q2.5218 4.54609 2.63257 4.28467Q2.74193 4.02654 2.89301 3.79571Q3.06772 3.52877 3.29822 3.29834Q3.52898 3.06767 3.79628 2.89287Q4.02691 2.74205 4.28473 2.63281Q4.54791 2.52131 4.82232 2.46073Q5.14875 2.38867 5.49109 2.38867L18.9814 2.38867Q19.3238 2.38867 19.6502 2.46073Q19.9246 2.52131 20.1878 2.63281Q20.4459 2.74217 20.6767 2.8932Q20.9437 3.06789 21.1743 3.29834Q21.405 3.52897 21.5798 3.79618Q21.7307 4.0268 21.84 4.28467Q21.9507 4.54609 22.0112 4.81867Q22.0841 5.14685 22.0841 5.49121L22.0841 11.104Q22.0841 11.2194 22.1056 11.3306Q22.1283 11.4481 22.175 11.561Q22.2199 11.6693 22.2837 11.7651Q22.3489 11.8633 22.4339 11.9482L25.2022 14.7168ZM43.7531 6.88303Q43.5245 6.93359 43.2848 6.93359L36.2037 6.93359L36.2037 5.62256Q36.2036 5.26606 36.2786 4.9261Q36.3418 4.6398 36.4581 4.36523Q36.5712 4.09855 36.7269 3.85974Q36.9099 3.57908 37.152 3.33691Q37.3946 3.09421 37.676 2.91092Q37.9142 2.75569 38.1802 2.64307Q38.4545 2.52691 38.7404 2.46379Q39.0808 2.38867 39.4377 2.38867L45.4485 2.38867L45.4485 4.77002Q45.4485 5.00893 45.3982 5.23674Q45.356 5.42795 45.2783 5.61133Q45.2023 5.79066 45.0975 5.95112Q44.9754 6.13801 44.8141 6.29932Q44.6527 6.46072 44.4657 6.58292Q44.3053 6.68771 44.1261 6.76367Q43.9435 6.8409 43.7531 6.88303ZM45.4485 2.26855L45.5685 2.26855L45.5685 4.77002C45.5685 6.0293 44.5441 7.05371 43.2848 7.05371L36.0836 7.05371L36.0836 5.62256C36.0836 3.77344 37.5883 2.26855 39.4377 2.26855L45.4485 2.26855ZM17.2088 8.06681Q17.2688 7.65516 17.2396 7.23047Q17.2158 6.88558 17.1321 6.55588Q17.0454 6.21437 16.8945 5.88916Q16.7641 5.60839 16.593 5.35509Q16.3866 5.04939 16.1209 4.78369Q15.8546 4.51739 15.5481 4.31065Q15.2955 4.14021 15.0155 4.01025Q14.6938 3.86102 14.3561 3.77467Q14.023 3.68953 13.6744 3.66553Q13.1615 3.63021 12.6732 3.72366Q12.392 3.77749 12.119 3.87402Q11.8284 3.97696 11.5615 4.12325Q11.1421 4.35309 10.7815 4.68994Q10.5138 4.93978 10.3016 5.23018Q10.0523 5.57146 9.87958 5.96875Q9.70657 6.36669 9.62718 6.7825Q9.55988 7.13507 9.55988 7.50049Q9.55991 7.63732 9.58967 7.76736Q9.6128 7.8684 9.65387 7.96533Q9.69603 8.06504 9.75434 8.15418Q9.82139 8.25668 9.90979 8.34521Q9.99622 8.43155 10.0961 8.49757Q10.1871 8.55776 10.2893 8.60107Q10.3897 8.64344 10.4942 8.66666Q10.6211 8.69482 10.7542 8.69482Q10.8881 8.69482 11.0156 8.66635Q11.1195 8.64316 11.2191 8.60107Q11.3217 8.55761 11.413 8.49715Q11.5125 8.43127 11.5987 8.34521Q11.6869 8.25689 11.7538 8.15466Q11.8123 8.0653 11.8546 7.96533Q11.8955 7.86854 11.9186 7.76764Q11.9484 7.63747 11.9484 7.50049Q11.9484 7.30555 11.9968 7.12347Q12.0244 7.0196 12.0678 6.91992Q12.1118 6.81878 12.1699 6.72656Q12.2697 6.56813 12.4113 6.43604Q12.5477 6.30865 12.7063 6.22172Q12.8078 6.16603 12.9185 6.12695Q13.0176 6.092 13.1196 6.07188Q13.3098 6.03436 13.5101 6.04834Q13.6431 6.0574 13.77 6.09003Q13.8961 6.12247 14.0163 6.17822Q14.1225 6.2276 14.2183 6.29235Q14.3338 6.37037 14.4342 6.4707Q14.5387 6.57544 14.619 6.6963Q14.6798 6.78786 14.7266 6.88867Q14.7831 7.01034 14.8157 7.1381Q14.8478 7.26362 14.8568 7.39502Q14.8686 7.56512 14.8429 7.72936Q14.828 7.8249 14.8004 7.91846Q14.7617 8.04949 14.7005 8.16899Q14.6463 8.27481 14.5744 8.37158Q14.4951 8.47864 14.3993 8.56798Q14.3102 8.65101 14.2069 8.71875Q14.121 8.77497 14.029 8.81811Q13.8845 8.88588 13.7249 8.92139Q13.5213 8.9669 13.3357 9.05167Q13.2207 9.10423 13.1125 9.17188Q12.967 9.26308 12.8416 9.37658Q12.7294 9.47819 12.6334 9.59766Q12.5335 9.72185 12.4565 9.85889Q12.3767 10.0009 12.3215 10.1567Q12.2782 10.2788 12.2517 10.4044Q12.2102 10.6014 12.2102 10.8071L12.2102 11.3804Q12.2102 11.5174 12.24 11.6475Q12.2631 11.7484 12.3041 11.8452Q12.3464 11.9453 12.4051 12.0348Q12.4719 12.1369 12.56 12.2251Q12.6464 12.3114 12.7463 12.3775Q12.8373 12.4376 12.9395 12.481Q13.0399 12.5233 13.1445 12.5465Q13.2713 12.5747 13.4044 12.5747Q13.5383 12.5747 13.6658 12.5462Q13.7697 12.523 13.8693 12.481Q13.9719 12.4375 14.0632 12.377Q14.1627 12.3112 14.2489 12.2251Q14.3371 12.1368 14.404 12.0345Q14.4625 11.9452 14.5048 11.8452Q14.5458 11.7484 14.5688 11.6475Q14.5986 11.5174 14.5986 11.3804L14.5986 11.156Q14.9233 11.0511 15.2201 10.8937Q15.4598 10.7665 15.6813 10.605Q15.942 10.4147 16.1641 10.1869Q16.3849 9.96041 16.5676 9.69678Q16.7484 9.43564 16.8822 9.15229Q17.0202 8.85972 17.1081 8.54346Q17.1737 8.30736 17.2088 8.06681ZM14.4786 11.0679L14.4786 11.3804C14.4786 11.9736 13.9977 12.4546 13.4044 12.4546C12.8112 12.4546 12.3302 11.9736 12.3302 11.3804L12.3302 10.8071C12.3302 9.95312 12.9145 9.22559 13.7511 9.03857C14.5154 8.86768 15.0308 8.17285 14.9766 7.38672C14.9229 6.60889 14.2961 5.98193 13.5185 5.92871C13.0748 5.89746 12.652 6.04688 12.3295 6.34814C12.0063 6.6499 11.8284 7.05908 11.8284 7.50049C11.8284 8.09375 11.3475 8.57471 10.7542 8.57471C10.1609 8.57471 9.67999 8.09375 9.67987 7.50049C9.67987 6.47217 10.1113 5.47949 10.8633 4.77734C11.626 4.06543 12.6216 3.71338 13.6661 3.78516C15.5081 3.91211 16.9929 5.39697 17.1198 7.23877C17.2415 9.00195 16.1431 10.5713 14.4786 11.0679ZM41.8213 15.3973Q41.3355 15.5044 40.8261 15.5044Q40.3167 15.5044 39.831 15.3973Q39.4215 15.307 39.0287 15.1406Q38.6436 14.9774 38.2993 14.7519Q37.9021 14.4918 37.5591 14.1489Q37.213 13.8026 36.9513 13.4013Q36.7289 13.0601 36.5674 12.6792Q36.4018 12.2884 36.3116 11.8809Q36.2036 11.3933 36.2037 10.8818L36.2037 9.32227L43.2848 9.32227Q43.6652 9.32227 44.0353 9.26054Q44.281 9.21956 44.5222 9.15137Q44.7797 9.07833 45.0251 8.97629Q45.2415 8.88634 45.4485 8.77383L45.4485 10.8818Q45.4486 11.3872 45.3431 11.8695Q45.2527 12.2828 45.0848 12.6792Q44.9232 13.0605 44.7004 13.402Q44.4389 13.803 44.0931 14.1489Q43.7501 14.4918 43.3529 14.7519Q43.0086 14.9774 42.6235 15.1406Q42.2308 15.307 41.8213 15.3973ZM45.4485 8.63679C44.8082 8.99649 44.0701 9.20215 43.2848 9.20215L36.0836 9.20215L36.0836 10.8818C36.0836 13.4966 38.2111 15.624 40.8261 15.624C43.4411 15.624 45.5685 13.4966 45.5685 10.8818L45.5685 8.56689C45.5289 8.5908 45.4889 8.6141 45.4485 8.63679ZM13.2957 14.0139Q13.209 14 13.12 14Q13.0256 14 12.9339 14.0156Q12.8102 14.0366 12.6912 14.0859Q12.5708 14.136 12.4674 14.2101Q12.3935 14.263 12.3284 14.3281Q12.2638 14.3924 12.2112 14.4654Q12.136 14.5698 12.0854 14.6919Q12.0381 14.8064 12.017 14.9256Q12 15.0213 12 15.1201Q12 15.2189 12.017 15.3147Q12.0381 15.4338 12.0854 15.5483Q12.1365 15.6716 12.2125 15.7768Q12.2645 15.8487 12.3281 15.9121Q12.3941 15.978 12.4691 16.0314Q12.5718 16.1046 12.6912 16.1543Q12.8102 16.2037 12.9339 16.2247Q13.0256 16.2402 13.12 16.2402Q13.209 16.2402 13.2957 16.2263Q13.4245 16.2056 13.5483 16.1543Q13.671 16.1034 13.7759 16.0278Q13.8481 15.9758 13.9119 15.9121Q13.9774 15.8465 14.0305 15.772Q14.1042 15.6687 14.1541 15.5483Q14.2045 15.4269 14.2253 15.3006Q14.24 15.2116 14.24 15.1201Q14.24 15.0287 14.2253 14.9396Q14.2045 14.8133 14.1541 14.6919Q14.1042 14.5716 14.0305 14.4682Q13.9774 14.3938 13.9119 14.3281Q13.8481 14.2644 13.7759 14.2124Q13.671 14.1368 13.5483 14.0859Q13.4245 14.0346 13.2957 14.0139ZM13.827 14.4131C13.641 14.2271 13.383 14.1201 13.12 14.1201C12.856 14.1201 12.599 14.2271 12.413 14.4131C12.226 14.5991 12.12 14.8569 12.12 15.1201C12.12 15.3833 12.226 15.6411 12.413 15.8271C12.599 16.0132 12.856 16.1201 13.12 16.1201C13.383 16.1201 13.641 16.0132 13.827 15.8271C14.013 15.6411 14.12 15.3833 14.12 15.1201C14.12 14.8569 14.013 14.5991 13.827 14.4131ZM38.6077 17.8926L38.488 17.7729L43.1641 17.7729L43.0445 17.8926L40.8261 20.1108L38.6077 17.8926ZM38.7775 17.8926L42.8747 17.8926L40.8261 19.941L38.7775 17.8926ZM19.661 39.4052Q20.6134 39.4922 21.5164 39.7515Q22.4088 40.0077 23.2529 40.4321Q24.0289 40.8222 24.7177 41.3305Q25.4979 41.9063 26.1663 42.6338Q26.8542 43.3825 27.3712 44.2349Q27.8036 44.9479 28.1165 45.7334Q28.4372 46.5389 28.6133 47.3748Q28.8279 48.3931 28.8278 49.4565L28.8278 54.0459Q28.8279 54.1765 28.8006 54.3012Q28.7773 54.4082 28.7339 54.5107Q28.6907 54.6129 28.6306 54.7039Q28.5646 54.8038 28.4781 54.8901Q28.3894 54.9789 28.2866 55.0461Q28.1979 55.1041 28.0985 55.146Q27.9977 55.1888 27.8925 55.2122Q27.7662 55.2402 27.6336 55.2402L1.19421 55.2402Q1.06242 55.2402 0.93675 55.2125Q0.830853 55.1891 0.729309 55.146Q0.629689 55.104 0.540694 55.0458Q0.438196 54.9787 0.349792 54.8901Q0.263439 54.8039 0.197442 54.7041Q0.137167 54.6131 0.0938721 54.5107Q0.0506012 54.4083 0.0272763 54.3016Q0 54.1767 0 54.0459L0 49.4565Q0 48.3931 0.214557 47.3748Q0.390693 46.5389 0.711426 45.7334Q1.0269 44.9412 1.46389 44.223Q1.97852 43.3771 2.66168 42.6338Q3.33053 41.9058 4.11141 41.3298Q4.79975 40.8219 5.57513 40.4321Q6.41887 40.0079 7.31087 39.7517Q8.21425 39.4923 9.16712 39.4052Q9.17509 39.403 9.18346 39.4008Q8.77513 38.9439 8.45629 38.4314Q8.14663 37.9336 7.92139 37.3833Q7.68353 36.802 7.55482 36.1975Q7.40308 35.4848 7.40308 34.7397L7.40308 29.4805Q7.40308 28.8666 7.53105 28.2808Q7.64107 27.777 7.8457 27.2939Q8.04293 26.8286 8.315 26.4121Q8.63239 25.9262 9.05164 25.5068Q9.46982 25.0886 9.95431 24.7717Q10.372 24.4986 10.8389 24.3008Q11.3179 24.098 11.8173 23.9881Q12.4072 23.8584 13.0256 23.8584L20.2307 23.8584Q20.3638 23.8584 20.4906 23.8866Q20.5952 23.9098 20.6956 23.9521Q20.7978 23.9955 20.8888 24.0557Q20.9886 24.1217 21.0751 24.208Q21.1618 24.2946 21.2279 24.3947Q21.2879 24.4855 21.331 24.5874Q21.3743 24.6898 21.3976 24.7966Q21.4249 24.9214 21.4249 25.0522L21.4249 28.6279Q21.4249 28.7641 21.4135 28.9324Q21.4249 29.0182 21.4249 29.0884L21.4249 34.7397Q21.4249 35.4846 21.2732 36.1972Q21.1444 36.8019 20.9065 37.3833Q20.6811 37.9339 20.3713 38.4319Q20.0526 38.9441 19.6445 39.4008Q19.6526 39.4029 19.661 39.4052ZM19.5066 39.3741C19.4726 39.4114 19.4383 39.4483 19.4035 39.4849C19.4531 39.4876 19.5026 39.4935 19.5515 39.5029C19.5815 39.5086 19.6112 39.5156 19.6407 39.5239C24.717 39.9839 28.7078 44.2627 28.7078 49.4565L28.7078 54.0459C28.7078 54.6392 28.2269 55.1201 27.6336 55.1201L1.19421 55.1201C0.600952 55.1201 0.119995 54.6392 0.119995 54.0459L0.119995 49.4565C0.119995 44.2622 4.11102 39.9834 9.1875 39.5239C9.21689 39.5156 9.24657 39.5086 9.27644 39.5029C9.32537 39.4935 9.37483 39.4876 9.42444 39.4849C9.38966 39.4483 9.35529 39.4114 9.32131 39.3741C8.20543 38.1496 7.52307 36.5233 7.52307 34.7397L7.52307 29.4805C7.52307 26.4468 9.99139 23.978 13.0256 23.978L20.2307 23.978C20.824 23.978 21.3049 24.459 21.3049 25.0522L21.3049 28.6279C21.3049 28.7319 21.3 28.8345 21.293 28.9365C21.2999 28.9863 21.3049 29.0366 21.3049 29.0884L21.3049 34.7397C21.3049 36.5233 20.6224 38.1496 19.5066 39.3741ZM9.67151 30.9116L16.8726 30.9116C18.132 30.9116 19.1564 29.8872 19.1564 28.6279L19.1564 26.1265L13.0256 26.1265C11.1761 26.1265 9.67151 27.6313 9.67151 29.4805L9.67151 30.9116ZM19.0364 26.2466L13.0256 26.2466Q12.6682 26.2466 12.3276 26.3219Q12.042 26.385 11.7681 26.501Q11.4985 26.6153 11.2575 26.7732Q10.9798 26.9551 10.7399 27.1948Q10.4975 27.4373 10.3143 27.7184Q10.1588 27.9569 10.046 28.2231Q9.92967 28.4977 9.86651 28.784Q9.7915 29.124 9.7915 29.4805L9.7915 30.7915L16.8726 30.7915Q17.1131 30.7915 17.3423 30.7406Q17.532 30.6985 17.7139 30.6216Q17.8931 30.5456 18.0535 30.4408Q18.2405 30.3186 18.4019 30.1572Q18.5634 29.9957 18.6857 29.8086Q18.7903 29.6483 18.8662 29.4692Q18.9439 29.2859 18.9861 29.0946Q19.0364 28.8668 19.0364 28.6279L19.0364 26.2466ZM41.7914 29.4841Q41.737 29.4094 41.6708 29.3433Q41.6012 29.2736 41.5223 29.2171Q41.4119 29.1382 41.2831 29.085Q41.1508 29.03 41.0132 29.0079Q40.921 28.9932 40.8264 28.9932Q40.7265 28.9932 40.6294 29.0096Q40.4967 29.032 40.3693 29.085Q40.2447 29.1366 40.1371 29.2125Q40.0546 29.2707 39.9821 29.3433Q39.9176 29.4073 39.8644 29.4796Q39.7796 29.5948 39.7234 29.731Q39.6727 29.8534 39.6502 29.9808Q39.6322 30.0825 39.6322 30.1875Q39.6322 30.2959 39.6513 30.4008Q39.6739 30.5251 39.7234 30.6445Q39.7749 30.7689 39.8505 30.8762Q39.9092 30.9593 39.9823 31.0322Q40.05 31.1002 40.1267 31.1557Q40.2384 31.2364 40.3694 31.2905Q40.4898 31.3405 40.6152 31.3631Q40.7191 31.3818 40.8264 31.3818Q40.9283 31.3818 41.0273 31.3648Q41.1577 31.3424 41.283 31.2905Q41.4138 31.2366 41.5254 31.1561Q41.6028 31.1003 41.671 31.0317Q41.7428 30.9597 41.8007 30.8779Q41.877 30.7698 41.929 30.6445Q41.9815 30.5182 42.0039 30.3867Q42.0206 30.2885 42.0206 30.1875Q42.0206 30.0897 42.0049 29.9946Q41.9827 29.8602 41.9291 29.731Q41.8739 29.5976 41.7914 29.4841ZM40.8264 29.1133C41.1089 29.1133 41.3861 29.228 41.5859 29.4282C41.7857 29.6279 41.9006 29.9048 41.9006 30.1875C41.9006 30.4712 41.7857 30.7471 41.5859 30.9468C41.3861 31.1479 41.1089 31.2617 40.8264 31.2617C40.5428 31.2617 40.2668 31.1479 40.067 30.9468C39.8661 30.7471 39.7522 30.4712 39.7522 30.1875C39.7522 29.9048 39.8661 29.6279 40.067 29.4282C40.2668 29.228 40.5428 29.1133 40.8264 29.1133ZM9.67151 33.0601L9.67151 34.7397C9.67151 37.3545 11.799 39.4824 14.414 39.4824C17.0289 39.4824 19.1564 37.3545 19.1564 34.7397L19.1564 32.4248C19.1168 32.4487 19.0768 32.4721 19.0364 32.4948C18.3961 32.8548 17.658 33.0601 16.8726 33.0601L9.67151 33.0601ZM9.7915 33.1802L9.7915 34.7397Q9.7915 35.2514 9.89953 35.7392Q9.98974 36.1465 10.1553 36.5371Q10.3169 36.9185 10.5396 37.2599Q10.8012 37.6609 11.147 38.0068Q11.4905 38.3502 11.8883 38.6105Q12.2321 38.8355 12.6166 38.9985Q13.0089 39.1648 13.4181 39.255Q13.9042 39.3623 14.414 39.3623Q14.9234 39.3623 15.4091 39.2552Q15.8186 39.1649 16.2114 38.9985Q16.5965 38.8353 16.9408 38.6098Q17.338 38.3497 17.681 38.0068Q18.0271 37.6606 18.2888 37.2592Q18.5112 36.9181 18.6727 36.5371Q18.8382 36.1465 18.9284 35.7392Q19.0364 35.2514 19.0364 34.7397L19.0364 32.6321Q18.8344 32.7417 18.6235 32.8299Q18.3731 32.9347 18.11 33.0093Q17.8727 33.0764 17.6309 33.1172Q17.2571 33.1802 16.8726 33.1802L9.7915 33.1802ZM16.5822 41.6309L12.0759 41.6309L12.1956 41.7505L14.3291 43.8838L14.414 43.9688L16.6324 41.7505L16.752 41.6309L16.5822 41.6309ZM16.4626 41.7505L12.3654 41.7505L14.414 43.7989L16.4626 41.7505ZM26.4395 52.9717L2.26843 52.9717L2.26843 50.8232L6.72644 50.8232C7.3197 50.8232 7.80066 50.3423 7.80066 49.749C7.80066 49.1558 7.3197 48.6748 6.72644 48.6748L2.30762 48.6748C2.31161 48.6347 2.31592 48.5946 2.32052 48.5547C2.7315 44.9888 5.54927 42.1473 9.1026 41.6958L13.6544 46.2476C13.8558 46.4487 14.1291 46.562 14.414 46.562C14.6989 46.562 14.9722 46.4487 15.1736 46.2476L19.7253 41.6958C23.5736 42.1846 26.5595 45.4775 26.5595 49.4565L26.5595 52.9717L26.4395 52.9717ZM26.4395 52.8516L26.4395 49.4565Q26.4395 48.6513 26.2782 47.8799Q26.1503 47.2679 25.921 46.6772Q25.6948 46.0948 25.3821 45.5631Q25.0027 44.9177 24.4958 44.3472Q24.0094 43.7995 23.4399 43.3594Q22.9329 42.9677 22.36 42.6611Q21.7258 42.3215 21.0516 42.1085Q20.4271 41.9113 19.7684 41.8226L15.2584 46.3325Q15.1744 46.4166 15.0774 46.4813Q14.9806 46.5459 14.871 46.5913Q14.761 46.6368 14.6464 46.6595Q14.5325 46.6821 14.414 46.6821Q14.2951 46.6821 14.1807 46.6594Q14.0666 46.6367 13.957 46.5913Q13.8473 46.5459 13.7505 46.4813Q13.6536 46.4166 13.5695 46.3325L9.05956 41.8226Q8.43813 41.9063 7.84632 42.087Q7.2216 42.2778 6.62988 42.5767Q6.0942 42.8474 5.61216 43.1929Q5.06039 43.5884 4.57892 44.082Q4.08611 44.5874 3.69819 45.1634Q3.37509 45.6431 3.12476 46.1719Q2.8464 46.7599 2.67312 47.3773Q2.51152 47.9532 2.44132 48.5547L6.72644 48.5547Q6.85824 48.5547 6.9839 48.5824Q7.0898 48.6058 7.19135 48.6489Q7.29097 48.6909 7.37996 48.7491Q7.48246 48.8162 7.57086 48.9048Q7.65722 48.991 7.72321 49.0908Q7.78349 49.1819 7.82678 49.2842Q7.87005 49.3866 7.89338 49.4934Q7.92065 49.6182 7.92065 49.749Q7.92065 49.8798 7.89338 50.0047Q7.87005 50.1115 7.82678 50.2139Q7.78349 50.3162 7.72321 50.4073Q7.65722 50.507 7.57086 50.5933Q7.48246 50.6819 7.37996 50.7489Q7.29097 50.8071 7.19135 50.8491Q7.0898 50.8922 6.9839 50.9156Q6.85824 50.9434 6.72644 50.9434L2.38843 50.9434L2.38843 52.8516L26.4395 52.8516ZM11.2101 48.5695Q11.1179 48.5547 11.0233 48.5547Q10.9288 48.5547 10.8366 48.5695Q10.6989 48.5915 10.5666 48.6465Q10.4376 48.6998 10.3271 48.779Q10.2483 48.8353 10.179 48.9048Q10.1126 48.9711 10.0581 49.0461Q9.97573 49.1594 9.92065 49.2925Q9.86706 49.4217 9.84484 49.5561Q9.8291 49.6513 9.8291 49.749Q9.8291 49.8468 9.84484 49.942Q9.86706 50.0764 9.92065 50.2056Q9.97585 50.3389 10.0584 50.4524Q10.1127 50.5271 10.179 50.5933Q10.2485 50.6629 10.3275 50.7194Q10.4378 50.7983 10.5666 50.8516Q10.6989 50.9065 10.8366 50.9286Q10.9288 50.9434 11.0233 50.9434Q11.1179 50.9434 11.2101 50.9286Q11.3477 50.9065 11.48 50.8516Q11.6084 50.7985 11.7186 50.7198Q11.7978 50.6632 11.8676 50.5933Q11.9338 50.5271 11.9882 50.4524Q12.0707 50.3389 12.1259 50.2056Q12.1796 50.0762 12.2018 49.9417Q12.2175 49.8467 12.2175 49.749Q12.2175 49.6514 12.2018 49.5563Q12.1796 49.4218 12.1259 49.2925Q12.0707 49.1591 11.9882 49.0456Q11.9338 48.9709 11.8676 48.9048Q11.7978 48.8349 11.7186 48.7783Q11.6084 48.6996 11.48 48.6465Q11.3477 48.5915 11.2101 48.5695ZM11.7828 48.9897C11.583 48.7896 11.3058 48.6748 11.0233 48.6748C10.7408 48.6748 10.4636 48.7896 10.2639 48.9897C10.064 49.1895 9.9491 49.4663 9.9491 49.749C9.9491 50.0317 10.064 50.3086 10.2639 50.5083C10.4636 50.7085 10.7408 50.8232 11.0233 50.8232C11.3058 50.8232 11.583 50.7085 11.7828 50.5083C11.9826 50.3086 12.0975 50.0317 12.0975 49.749C12.0975 49.4663 11.9826 49.1895 11.7828 48.9897Z" clip-rule="evenodd" fill="#2C2C2C" fill-opacity="1.000000" fill-rule="evenodd"/>
</svg>
