<svg width="55.500977" height="55.500000" viewBox="0 0 55.501 55.5" fill="none" xmlns="http://www.w3.org/2000/svg" xmlns:xlink="http://www.w3.org/1999/xlink">
	<desc>
			Created with Pixso.
	</desc>
	<defs/>
	<mask id="mask_8_158" fill="white">
		<path d="M21.3334 0.25C20.8274 0.25 20.4167 0.659668 20.4167 1.1665L20.4167 3C20.4167 3.50684 20.8274 3.9165 21.3334 3.9165C21.8394 3.9165 22.25 3.50684 22.25 3L22.25 1.1665C22.25 0.659668 21.8394 0.25 21.3334 0.25ZM36 1.1665C35.4932 1.1665 35.0834 1.57666 35.0834 2.0835L35.0834 3.9165C35.0834 4.42334 35.4932 4.8335 36 4.8335C36.507 4.8335 36.9167 4.42334 36.9167 3.9165L36.9167 2.0835C36.9167 1.57666 36.507 1.1665 36 1.1665ZM36.8755 13.3418C36.891 13.2749 36.9167 13.1548 36.9167 13.0835L36.9167 7.5835C36.9167 7.07617 36.507 6.6665 36 6.6665C35.4932 6.6665 35.0834 7.07617 35.0834 7.5835L35.0834 11.7056C33.0621 10.2461 30.5898 9.4165 27.915 9.4165L27.8353 9.4165C25.8196 9.4165 23.9248 9.89795 22.25 10.7725L22.25 6.6665C22.25 6.15967 21.8394 5.75 21.3334 5.75C20.8274 5.75 20.4167 6.15967 20.4167 6.6665L20.4167 11.9521C17.5104 14.2021 15.6305 17.8237 15.6305 21.77Q15.6305 21.8101 15.6307 21.8501C15.6738 28.5962 21.1757 34.1665 27.9122 34.1665L27.9921 34.1665C34.7383 34.1665 40.1968 28.5103 40.1968 21.7729C40.1968 21.7456 40.1968 21.7188 40.1965 21.6919C40.1764 18.4834 38.9114 15.519 36.8755 13.3418ZM46.0834 7.5835C45.5764 7.5835 45.1667 7.99316 45.1667 8.5L45.1667 10.3335C45.1667 10.8403 45.5764 11.25 46.0834 11.25C46.5903 11.25 47 10.8403 47 10.3335L47 8.5C47 7.99316 46.5903 7.5835 46.0834 7.5835ZM27.9801 32.3335L27.9122 32.3335C22.1813 32.3335 17.5007 27.5977 17.4641 21.8584C17.464 21.8354 17.4639 21.8125 17.4639 21.7896C17.4639 16.0586 22.1082 11.25 27.8463 11.25L27.9141 11.25C33.6451 11.25 38.3257 15.9854 38.3623 21.7246C38.3624 21.748 38.3625 21.771 38.3625 21.7939C38.3625 27.5249 33.7192 32.3335 27.9801 32.3335ZM46.0834 13.0835C45.5764 13.0835 45.1667 13.4932 45.1667 14L45.1667 21.3335C45.1667 21.8403 45.5764 22.25 46.0834 22.25C46.5903 22.25 47 21.8403 47 21.3335L47 14C47 13.4932 46.5903 13.0835 46.0834 13.0835ZM31.4048 24.042L31.3983 23.1265C31.3938 22.3911 31.1041 21.7026 30.5807 21.1865C30.0573 20.6714 29.3368 20.3745 28.631 20.3994L26.7976 20.4165L26.7921 20.4165C26.2898 20.4165 25.8782 20.0034 25.8755 19.5L25.87 18.5815L25.87 18.5762C25.87 18.0728 26.2769 17.6602 26.7811 17.6577L27.6758 17.6509C27.7051 17.6528 27.7308 17.6665 27.762 17.6665L27.7675 17.6665C27.7986 17.6665 27.8252 17.6509 27.8555 17.6484L30.4459 17.6318C30.9506 17.6284 31.3572 17.2368 31.3572 16.7339L31.3572 16.7271C31.3535 16.2222 30.9446 15.8335 30.4404 15.8335L30.4349 15.8335L28.6722 15.8271L28.6667 14.9194C28.6639 14.415 28.2533 14 27.75 14L27.7445 14C27.2402 14.0034 26.8334 14.4199 26.8334 14.9233L26.8334 14.9287L26.8389 15.8335L26.7692 15.8335C25.2587 15.8335 24.0366 17.0688 24.0366 18.5781L24.0366 18.5952L24.0421 19.5146C24.0522 21.0254 25.2842 22.25 26.7931 22.25L28.6493 22.25C28.8912 22.25 29.1195 22.3325 29.2937 22.502C29.4669 22.6743 29.5641 22.8979 29.5659 23.1436L29.5724 24.0566L29.5724 24.0635C29.5724 24.5664 29.1649 24.9751 28.6613 24.978L24.9945 25.001C24.4902 25.0044 24.0834 25.4146 24.0834 25.918L24.0834 25.9229C24.0862 26.4272 24.4968 26.8335 25 26.8335L25.0055 26.8335L26.8389 26.8213L26.8444 27.7563C26.8472 28.2607 27.2578 28.6665 27.761 28.6665L27.7666 28.6665C28.2703 28.6631 28.6777 28.2544 28.6777 27.7505L28.6777 27.7437L28.6722 26.8096C30.1827 26.7993 31.4048 25.5684 31.4048 24.0591L31.4048 24.042ZM11.25 15.8335C10.744 15.8335 10.3334 16.2432 10.3334 16.75L10.3334 18.5835C10.3334 19.0903 10.744 19.5 11.25 19.5C11.756 19.5 12.1667 19.0903 12.1667 18.5835L12.1667 16.75C12.1667 16.2432 11.756 15.8335 11.25 15.8335ZM11.25 21.3335C10.744 21.3335 10.3334 21.7432 10.3334 22.25L10.3334 29.5835C10.3334 30.0903 10.744 30.5 11.25 30.5C11.756 30.5 12.1667 30.0903 12.1667 29.5835L12.1667 22.25C12.1667 21.7432 11.756 21.3335 11.25 21.3335ZM22.25 22.25C22.25 21.7437 21.8396 21.3335 21.3334 21.3335C20.8271 21.3335 20.4167 21.7437 20.4167 22.25C20.4167 22.7563 20.8271 23.1665 21.3334 23.1665C21.8396 23.1665 22.25 22.7563 22.25 22.25ZM35.0834 22.25C35.0834 21.7437 34.673 21.3335 34.1667 21.3335C33.6604 21.3335 33.25 21.7437 33.25 22.25C33.25 22.7563 33.6604 23.1665 34.1667 23.1665C34.673 23.1665 35.0834 22.7563 35.0834 22.25Z" clip-rule="evenodd" fill="" fill-opacity="1.000000" fill-rule="evenodd"/>
	</mask>
	<path d="M21.3334 0.25C20.8274 0.25 20.4167 0.659668 20.4167 1.1665L20.4167 3C20.4167 3.50684 20.8274 3.9165 21.3334 3.9165C21.8394 3.9165 22.25 3.50684 22.25 3L22.25 1.1665C22.25 0.659668 21.8394 0.25 21.3334 0.25ZM36 1.1665C35.4932 1.1665 35.0834 1.57666 35.0834 2.0835L35.0834 3.9165C35.0834 4.42334 35.4932 4.8335 36 4.8335C36.507 4.8335 36.9167 4.42334 36.9167 3.9165L36.9167 2.0835C36.9167 1.57666 36.507 1.1665 36 1.1665ZM36.8755 13.3418C36.891 13.2749 36.9167 13.1548 36.9167 13.0835L36.9167 7.5835C36.9167 7.07617 36.507 6.6665 36 6.6665C35.4932 6.6665 35.0834 7.07617 35.0834 7.5835L35.0834 11.7056C33.0621 10.2461 30.5898 9.4165 27.915 9.4165L27.8353 9.4165C25.8196 9.4165 23.9248 9.89795 22.25 10.7725L22.25 6.6665C22.25 6.15967 21.8394 5.75 21.3334 5.75C20.8274 5.75 20.4167 6.15967 20.4167 6.6665L20.4167 11.9521C17.5104 14.2021 15.6305 17.8237 15.6305 21.77Q15.6305 21.8101 15.6307 21.8501C15.6738 28.5962 21.1757 34.1665 27.9122 34.1665L27.9921 34.1665C34.7383 34.1665 40.1968 28.5103 40.1968 21.7729C40.1968 21.7456 40.1968 21.7188 40.1965 21.6919C40.1764 18.4834 38.9114 15.519 36.8755 13.3418ZM46.0834 7.5835C45.5764 7.5835 45.1667 7.99316 45.1667 8.5L45.1667 10.3335C45.1667 10.8403 45.5764 11.25 46.0834 11.25C46.5903 11.25 47 10.8403 47 10.3335L47 8.5C47 7.99316 46.5903 7.5835 46.0834 7.5835ZM27.9801 32.3335L27.9122 32.3335C22.1813 32.3335 17.5007 27.5977 17.4641 21.8584C17.464 21.8354 17.4639 21.8125 17.4639 21.7896C17.4639 16.0586 22.1082 11.25 27.8463 11.25L27.9141 11.25C33.6451 11.25 38.3257 15.9854 38.3623 21.7246C38.3624 21.748 38.3625 21.771 38.3625 21.7939C38.3625 27.5249 33.7192 32.3335 27.9801 32.3335ZM46.0834 13.0835C45.5764 13.0835 45.1667 13.4932 45.1667 14L45.1667 21.3335C45.1667 21.8403 45.5764 22.25 46.0834 22.25C46.5903 22.25 47 21.8403 47 21.3335L47 14C47 13.4932 46.5903 13.0835 46.0834 13.0835ZM31.4048 24.042L31.3983 23.1265C31.3938 22.3911 31.1041 21.7026 30.5807 21.1865C30.0573 20.6714 29.3368 20.3745 28.631 20.3994L26.7976 20.4165L26.7921 20.4165C26.2898 20.4165 25.8782 20.0034 25.8755 19.5L25.87 18.5815L25.87 18.5762C25.87 18.0728 26.2769 17.6602 26.7811 17.6577L27.6758 17.6509C27.7051 17.6528 27.7308 17.6665 27.762 17.6665L27.7675 17.6665C27.7986 17.6665 27.8252 17.6509 27.8555 17.6484L30.4459 17.6318C30.9506 17.6284 31.3572 17.2368 31.3572 16.7339L31.3572 16.7271C31.3535 16.2222 30.9446 15.8335 30.4404 15.8335L30.4349 15.8335L28.6722 15.8271L28.6667 14.9194C28.6639 14.415 28.2533 14 27.75 14L27.7445 14C27.2402 14.0034 26.8334 14.4199 26.8334 14.9233L26.8334 14.9287L26.8389 15.8335L26.7692 15.8335C25.2587 15.8335 24.0366 17.0688 24.0366 18.5781L24.0366 18.5952L24.0421 19.5146C24.0522 21.0254 25.2842 22.25 26.7931 22.25L28.6493 22.25C28.8912 22.25 29.1195 22.3325 29.2937 22.502C29.4669 22.6743 29.5641 22.8979 29.5659 23.1436L29.5724 24.0566L29.5724 24.0635C29.5724 24.5664 29.1649 24.9751 28.6613 24.978L24.9945 25.001C24.4902 25.0044 24.0834 25.4146 24.0834 25.918L24.0834 25.9229C24.0862 26.4272 24.4968 26.8335 25 26.8335L25.0055 26.8335L26.8389 26.8213L26.8444 27.7563C26.8472 28.2607 27.2578 28.6665 27.761 28.6665L27.7666 28.6665C28.2703 28.6631 28.6777 28.2544 28.6777 27.7505L28.6777 27.7437L28.6722 26.8096C30.1827 26.7993 31.4048 25.5684 31.4048 24.0591L31.4048 24.042ZM11.25 15.8335C10.744 15.8335 10.3334 16.2432 10.3334 16.75L10.3334 18.5835C10.3334 19.0903 10.744 19.5 11.25 19.5C11.756 19.5 12.1667 19.0903 12.1667 18.5835L12.1667 16.75C12.1667 16.2432 11.756 15.8335 11.25 15.8335ZM11.25 21.3335C10.744 21.3335 10.3334 21.7432 10.3334 22.25L10.3334 29.5835C10.3334 30.0903 10.744 30.5 11.25 30.5C11.756 30.5 12.1667 30.0903 12.1667 29.5835L12.1667 22.25C12.1667 21.7432 11.756 21.3335 11.25 21.3335ZM22.25 22.25C22.25 21.7437 21.8396 21.3335 21.3334 21.3335C20.8271 21.3335 20.4167 21.7437 20.4167 22.25C20.4167 22.7563 20.8271 23.1665 21.3334 23.1665C21.8396 23.1665 22.25 22.7563 22.25 22.25ZM35.0834 22.25C35.0834 21.7437 34.673 21.3335 34.1667 21.3335C33.6604 21.3335 33.25 21.7437 33.25 22.25C33.25 22.7563 33.6604 23.1665 34.1667 23.1665C34.673 23.1665 35.0834 22.7563 35.0834 22.25Z" clip-rule="evenodd" fill="#008D3D" fill-opacity="1.000000" fill-rule="evenodd" mask="url(#mask_8_158)"/>
	<path d="M21.5838 0.0268276Q21.4615 0 21.3334 0Q21.2052 0 21.083 0.0268276Q20.979 0.0496255 20.8794 0.0917969Q20.779 0.134147 20.6897 0.193202Q20.5926 0.257388 20.5085 0.341309Q20.4233 0.426713 20.3583 0.525479Q20.3003 0.61362 20.2585 0.712402Q20.2172 0.809946 20.1945 0.911641Q20.1667 1.03597 20.1667 1.1665L20.1667 3Q20.1667 3.12771 20.1933 3.24963Q20.2162 3.35424 20.2585 3.45459Q20.3013 3.55557 20.3609 3.64532Q20.425 3.74174 20.5085 3.8252Q20.5917 3.90822 20.6876 3.97206Q20.7779 4.03212 20.8794 4.0752Q20.9778 4.11664 21.0805 4.13927Q21.2039 4.1665 21.3334 4.1665Q21.4628 4.1665 21.5863 4.13927Q21.6889 4.11664 21.7874 4.0752Q21.8889 4.03212 21.9791 3.97206Q22.0751 3.90822 22.1582 3.8252Q22.2418 3.74174 22.3058 3.64532Q22.3655 3.55557 22.4082 3.45459Q22.4506 3.35424 22.4734 3.24963Q22.5 3.12771 22.5 3L22.5 1.1665Q22.5 1.03597 22.4722 0.911641Q22.4495 0.809946 22.4082 0.712402Q22.3664 0.61362 22.3084 0.525479Q22.2435 0.426713 22.1582 0.341309Q22.0742 0.257388 21.9771 0.193202Q21.8877 0.134147 21.7874 0.0917969Q21.6877 0.0496255 21.5838 0.0268276ZM20.4167 1.1665C20.4167 0.659668 20.8274 0.25 21.3334 0.25C21.8394 0.25 22.25 0.659668 22.25 1.1665L22.25 3C22.25 3.50684 21.8394 3.9165 21.3334 3.9165C20.8274 3.9165 20.4167 3.50684 20.4167 3L20.4167 1.1665ZM36.2551 0.944308Q36.1307 0.916504 36 0.916504Q35.8709 0.916504 35.7477 0.943683Q35.6446 0.966454 35.5457 1.0083Q35.4474 1.04976 35.3597 1.10734Q35.2605 1.1725 35.1748 1.2583Q35.0915 1.34157 35.0276 1.43774Q34.9678 1.52768 34.925 1.62891Q34.8828 1.72896 34.8601 1.83325Q34.8334 1.95546 34.8334 2.0835L34.8334 3.9165Q34.8334 4.04454 34.8601 4.16675Q34.8828 4.27104 34.925 4.37109Q34.9678 4.47232 35.0276 4.56226Q35.0915 4.65843 35.1748 4.7417Q35.2605 4.8275 35.3597 4.89266Q35.4474 4.95024 35.5457 4.9917Q35.6446 5.03355 35.7477 5.05632Q35.8709 5.0835 36 5.0835Q36.1307 5.0835 36.2551 5.05569Q36.3568 5.03298 36.4543 4.9917Q36.5539 4.94971 36.6426 4.89119Q36.7406 4.82654 36.8252 4.7417Q36.909 4.65802 36.9731 4.56131Q37.0325 4.47179 37.0751 4.37109Q37.1173 4.27104 37.1401 4.16675Q37.1667 4.04454 37.1667 3.9165L37.1667 2.0835Q37.1667 1.95546 37.1401 1.83325Q37.1173 1.72896 37.0751 1.62891Q37.0325 1.52821 36.9731 1.43869Q36.909 1.34198 36.8252 1.2583Q36.7406 1.17346 36.6426 1.10881Q36.5539 1.05029 36.4543 1.0083Q36.3568 0.967025 36.2551 0.944308ZM35.0834 2.0835C35.0834 1.57666 35.4932 1.1665 36 1.1665C36.507 1.1665 36.9167 1.57666 36.9167 2.0835L36.9167 3.9165C36.9167 4.42334 36.507 4.8335 36 4.8335C35.4932 4.8335 35.0834 4.42334 35.0834 3.9165L35.0834 2.0835ZM36.8755 13.3418C36.891 13.2749 36.9167 13.1548 36.9167 13.0835L36.9167 7.5835C36.9167 7.07617 36.507 6.6665 36 6.6665C35.4932 6.6665 35.0834 7.07617 35.0834 7.5835L35.0834 11.7056C35.0008 11.6459 34.9174 11.5874 34.8334 11.5298C32.8598 10.1797 30.4806 9.4165 27.915 9.4165L27.8353 9.4165C25.9192 9.4165 24.1124 9.85152 22.5 10.6456C22.4161 10.687 22.3328 10.7292 22.25 10.7725L22.25 6.6665C22.25 6.15967 21.8394 5.75 21.3334 5.75C20.8274 5.75 20.4167 6.15967 20.4167 6.6665L20.4167 11.9521C17.5104 14.2021 15.6305 17.8237 15.6305 21.77Q15.6305 21.8101 15.6307 21.8501C15.6738 28.5962 21.1757 34.1665 27.9122 34.1665L27.9921 34.1665C34.7383 34.1665 40.1968 28.5103 40.1968 21.7729C40.1968 21.7456 40.1968 21.7188 40.1965 21.6919C40.1764 18.4834 38.9114 15.519 36.8755 13.3418ZM20.1667 11.8302L20.1667 6.6665Q20.1667 6.53597 20.1945 6.41164Q20.2172 6.30995 20.2585 6.2124Q20.3003 6.11362 20.3583 6.02548Q20.4233 5.92671 20.5085 5.84131Q20.5926 5.75739 20.6897 5.6932Q20.779 5.63415 20.8794 5.5918Q20.979 5.54963 21.083 5.52683Q21.2052 5.5 21.3334 5.5Q21.4615 5.5 21.5838 5.52683Q21.6877 5.54963 21.7874 5.5918Q21.8877 5.63415 21.9771 5.6932Q22.0742 5.75739 22.1582 5.84131Q22.2435 5.92671 22.3084 6.02548Q22.3664 6.11362 22.4082 6.2124Q22.4495 6.30995 22.4722 6.41164Q22.5 6.53597 22.5 6.6665L22.5 10.3676Q22.9325 10.1599 23.3787 9.98768Q24.0991 9.7096 24.8552 9.52393Q25.1129 9.46059 25.3729 9.40848Q26.5798 9.1665 27.8353 9.1665L27.915 9.1665Q29.3673 9.1665 30.7481 9.48072Q31.2902 9.60408 31.8213 9.77588Q32.7745 10.0842 33.6541 10.536Q34.2613 10.8479 34.8334 11.2282L34.8334 7.5835Q34.8334 7.45546 34.8601 7.33325Q34.8828 7.22896 34.925 7.12891Q34.9678 7.02768 35.0276 6.93774Q35.0915 6.84157 35.1748 6.7583Q35.2605 6.6725 35.3597 6.60734Q35.4474 6.54976 35.5457 6.5083Q35.6446 6.46645 35.7477 6.44368Q35.8709 6.4165 36 6.4165Q36.1307 6.4165 36.2551 6.44431Q36.3568 6.46702 36.4543 6.5083Q36.5539 6.55029 36.6426 6.60881Q36.7406 6.67346 36.8252 6.7583Q36.909 6.84198 36.9731 6.93869Q37.0325 7.02821 37.0751 7.12891Q37.1173 7.22896 37.1401 7.33325Q37.1667 7.45546 37.1667 7.5835L37.1667 13.0835Q37.1667 13.1549 37.1465 13.2665Q37.8009 13.9807 38.3319 14.7772Q39.0364 15.8342 39.5236 17.0361Q39.9819 18.1668 40.2127 19.3422Q40.439 20.4951 40.4465 21.6909L40.4468 21.7729Q40.4468 23.0235 40.2087 24.227Q39.9644 25.4623 39.4692 26.6479Q39.01 27.7476 38.3683 28.7277Q37.6881 29.7667 36.803 30.6714Q35.768 31.729 34.5518 32.5014Q33.7388 33.0178 32.8448 33.4067Q31.6942 33.9075 30.4914 34.1599Q29.2686 34.4165 27.9921 34.4165L27.9122 34.4165Q26.6295 34.4165 25.4 34.1605Q24.2042 33.9115 23.0588 33.4204Q22.1129 33.0149 21.2567 32.4689Q20.0868 31.7228 19.0842 30.7144Q18.1699 29.7948 17.4707 28.7336Q16.8444 27.783 16.3906 26.7188Q15.9029 25.5748 15.6507 24.3812Q15.389 23.1429 15.3807 21.8511L15.3805 21.77Q15.3805 21.0727 15.4563 20.3837Q15.5425 19.6012 15.7264 18.8296Q15.8784 18.1924 16.0934 17.5773Q16.3549 16.8292 16.7098 16.1138Q17.0951 15.3369 17.577 14.6256Q17.8923 14.1601 18.249 13.7227Q18.9563 12.8547 19.793 12.1378Q19.9768 11.9804 20.1667 11.8302ZM46.341 7.36172Q46.2154 7.3335 46.0834 7.3335Q45.9514 7.3335 45.8257 7.36172Q45.7253 7.38426 45.629 7.4248Q45.5275 7.46788 45.4373 7.52794Q45.3413 7.59178 45.2582 7.6748Q45.1744 7.75848 45.1102 7.85519Q45.0508 7.94472 45.0083 8.04541Q44.9663 8.14516 44.9435 8.24913Q44.9167 8.37164 44.9167 8.5L44.9167 10.3335Q44.9167 10.4647 44.9447 10.5896Q44.9674 10.6907 45.0083 10.7876Q45.0499 10.8861 45.1076 10.974Q45.1727 11.0731 45.2582 11.1587Q45.3422 11.2426 45.4393 11.3068Q45.5287 11.3659 45.629 11.4082Q45.7266 11.4495 45.8282 11.4722Q45.9527 11.5 46.0834 11.5Q46.214 11.5 46.3385 11.4722Q46.4402 11.4495 46.5377 11.4082Q46.6394 11.3653 46.7297 11.3053Q46.8256 11.2416 46.9086 11.1587Q46.9941 11.0731 47.0591 10.974Q47.1168 10.8861 47.1584 10.7876Q47.1994 10.6907 47.222 10.5896Q47.25 10.4647 47.25 10.3335L47.25 8.5Q47.25 8.37164 47.2232 8.24913Q47.2005 8.14516 47.1584 8.04541Q47.1159 7.94472 47.0565 7.85519Q46.9924 7.75848 46.9086 7.6748Q46.8265 7.59275 46.7318 7.52944Q46.6406 7.46842 46.5377 7.4248Q46.4414 7.38426 46.341 7.36172ZM45.1667 8.5C45.1667 7.99316 45.5764 7.5835 46.0834 7.5835C46.5903 7.5835 47 7.99316 47 8.5L47 10.3335C47 10.8403 46.5903 11.25 46.0834 11.25C45.5764 11.25 45.1667 10.8403 45.1667 10.3335L45.1667 8.5ZM27.9122 32.3335L27.9801 32.3335C33.7192 32.3335 38.3625 27.5249 38.3625 21.7939C38.3625 21.771 38.3624 21.748 38.3623 21.7246C38.3257 15.9854 33.6451 11.25 27.9141 11.25L27.8463 11.25C22.1082 11.25 17.4639 16.0586 17.4639 21.7896C17.4639 21.8125 17.464 21.8354 17.4641 21.8584C17.5007 27.5977 22.1813 32.3335 27.9122 32.3335ZM30.0156 31.8741Q29.0199 32.0835 27.9801 32.0835L27.9122 32.0835Q26.867 32.0835 25.8653 31.8746Q24.895 31.6723 23.9656 31.2739Q23.1988 30.9453 22.5043 30.5031Q21.5488 29.8949 20.7301 29.0718Q19.9832 28.3209 19.4126 27.454Q18.9045 26.6822 18.5361 25.8184Q18.1398 24.8892 17.9345 23.9195Q17.7208 22.9101 17.7141 21.8569L17.7139 21.7886Q17.7139 20.7761 17.9058 19.8014Q18.1047 18.791 18.5099 17.8213Q18.8828 16.9289 19.4033 16.1332Q19.9586 15.2843 20.6819 14.5454Q21.5279 13.6816 22.5221 13.0516Q23.1801 12.6348 23.903 12.3203Q24.838 11.9136 25.8153 11.7085Q26.8089 11.5 27.8463 11.5L27.9141 11.5Q28.9601 11.5 29.9625 11.7092Q30.9321 11.9115 31.8608 12.3096Q32.6279 12.6381 33.3227 13.0803Q34.2779 13.6883 35.0963 14.5112Q35.8472 15.2664 36.42 16.1385Q36.9241 16.9063 37.2903 17.7646Q37.6877 18.6967 37.893 19.6694Q38.1056 20.6762 38.1123 21.7266L38.1125 21.7949Q38.1125 22.8077 37.9205 23.7827Q37.7216 24.7927 37.3167 25.7622Q36.943 26.6565 36.421 27.4537Q35.8666 28.3005 35.1448 29.0376Q34.2988 29.9018 33.3045 30.5319Q32.6466 30.9488 31.9238 31.2632Q30.9908 31.6691 30.0156 31.8741ZM46.341 12.8617Q46.2154 12.8335 46.0834 12.8335Q45.9514 12.8335 45.8257 12.8617Q45.7253 12.8843 45.629 12.9248Q45.5275 12.9679 45.4373 13.0279Q45.3413 13.0918 45.2582 13.1748Q45.1744 13.2585 45.1102 13.3552Q45.0508 13.4447 45.0083 13.5454Q44.9663 13.6452 44.9435 13.7491Q44.9167 13.8716 44.9167 14L44.9167 21.3335Q44.9167 21.4647 44.9447 21.5896Q44.9674 21.6907 45.0083 21.7876Q45.0499 21.8861 45.1076 21.974Q45.1727 22.0731 45.2582 22.1587Q45.3422 22.2426 45.4393 22.3068Q45.5287 22.3659 45.629 22.4082Q45.7266 22.4495 45.8282 22.4722Q45.9527 22.5 46.0834 22.5Q46.214 22.5 46.3385 22.4722Q46.4402 22.4495 46.5377 22.4082Q46.6394 22.3653 46.7297 22.3053Q46.8256 22.2416 46.9086 22.1587Q46.9941 22.0731 47.0591 21.974Q47.1168 21.8861 47.1584 21.7876Q47.1994 21.6907 47.222 21.5896Q47.25 21.4647 47.25 21.3335L47.25 14Q47.25 13.8716 47.2232 13.7491Q47.2005 13.6452 47.1584 13.5454Q47.1159 13.4447 47.0565 13.3552Q46.9924 13.2585 46.9086 13.1748Q46.8265 13.0928 46.7318 13.0294Q46.6406 12.9684 46.5377 12.9248Q46.4414 12.8843 46.341 12.8617ZM45.1667 14C45.1667 13.4932 45.5764 13.0835 46.0834 13.0835C46.5903 13.0835 47 13.4932 47 14L47 21.3335C47 21.8403 46.5903 22.25 46.0834 22.25C45.5764 22.25 45.1667 21.8403 45.1667 21.3335L45.1667 14ZM31.6548 24.0591L31.6548 24.0405L31.6483 23.1245Q31.6462 22.77 31.5652 22.4344Q31.5089 22.2011 31.4144 21.9771Q31.3192 21.7512 31.1902 21.5466Q31.0072 21.2563 30.7562 21.0088Q30.5359 20.7918 30.2819 20.6265Q30.0403 20.4693 29.7683 20.3589Q29.3231 20.1779 28.869 20.1521Q28.7459 20.145 28.6222 20.1494L28.6222 20.1495L26.7953 20.1665L26.7921 20.1665Q26.6633 20.1665 26.5517 20.1228Q26.4268 20.0738 26.3234 19.9702Q26.2224 19.8693 26.1729 19.7474Q26.1262 19.6323 26.1255 19.4985L26.12 18.5801L26.12 18.5757Q26.12 18.4413 26.1665 18.3256Q26.215 18.2051 26.3141 18.105Q26.4128 18.0054 26.5323 17.9561Q26.6477 17.9084 26.7825 17.9077L27.6535 17.9011Q27.7137 17.9165 27.762 17.9165L27.7675 17.9165Q27.8192 17.9165 27.8831 17.8983L30.4475 17.8818Q30.5907 17.8809 30.7259 17.8477Q30.813 17.8263 30.8967 17.7915Q31.0116 17.7442 31.1117 17.6755Q31.1936 17.6193 31.2656 17.5488Q31.3536 17.4628 31.4198 17.3624Q31.4753 17.2783 31.5156 17.1841Q31.5525 17.098 31.5745 17.0082Q31.6072 16.8751 31.6072 16.7339L31.6072 16.7261Q31.606 16.5748 31.5681 16.4335Q31.5463 16.3526 31.5126 16.2749Q31.4703 16.1776 31.4119 16.0913Q31.3463 15.9943 31.2603 15.9111Q31.1881 15.8414 31.1064 15.7859Q31.0055 15.7174 30.8899 15.6704Q30.805 15.636 30.7169 15.6152Q30.5824 15.5835 30.4404 15.5835L30.4349 15.5835L28.9207 15.578L28.9167 14.918Q28.9161 14.7986 28.8921 14.6841Q28.8687 14.5724 28.8231 14.4653Q28.7796 14.363 28.719 14.2721Q28.6556 14.1769 28.5734 14.0942Q28.4839 14.0043 28.3798 13.9367Q28.2964 13.8825 28.2036 13.8428Q28.0981 13.7977 27.9881 13.7745Q27.8716 13.75 27.75 13.75L27.7445 13.75Q27.6084 13.7511 27.4796 13.7821Q27.3826 13.8055 27.2898 13.8457Q27.197 13.886 27.1138 13.9407Q27.0104 14.0088 26.9216 14.0991Q26.8397 14.1823 26.7768 14.2779Q26.7169 14.3687 26.6742 14.4707Q26.6307 14.5744 26.6081 14.6825Q26.5834 14.8003 26.5834 14.9233L26.5834 14.9292L26.5874 15.5889Q26.3538 15.6027 26.1282 15.6525Q25.8621 15.7112 25.6069 15.8198Q25.3608 15.9249 25.1405 16.0695Q24.8819 16.2393 24.6591 16.4634Q24.4428 16.6811 24.2778 16.9325Q24.1283 17.1602 24.0208 17.4155Q23.9111 17.6759 23.8528 17.9473Q23.7866 18.2556 23.7866 18.5781L23.7866 18.5962L23.7921 19.5161Q23.7943 19.844 23.8647 20.1565Q23.9247 20.4229 24.0343 20.6782Q24.1414 20.9275 24.2887 21.1503Q24.4576 21.4056 24.6793 21.626Q24.9044 21.8499 25.1651 22.0189Q25.3853 22.1616 25.6309 22.2651Q25.8909 22.375 26.1619 22.4335Q26.4703 22.5 26.7931 22.5L28.6493 22.5Q28.8354 22.5 28.9795 22.5779Q29.0552 22.6188 29.1193 22.6812Q29.2218 22.7833 29.2709 22.9067Q29.315 23.0175 29.3159 23.1455L29.3224 24.0586L29.3224 24.0645Q29.3224 24.1984 29.2757 24.3135Q29.2273 24.4328 29.1287 24.5317Q29.0317 24.6292 28.9144 24.6782Q28.7972 24.7273 28.6598 24.728L24.9929 24.751Q24.8635 24.7518 24.7403 24.7799Q24.6385 24.8032 24.5409 24.8452Q24.4404 24.8883 24.3511 24.9482Q24.2554 25.0123 24.1725 25.0957Q24.0901 25.1786 24.0269 25.2741Q23.9671 25.3643 23.9244 25.4658Q23.8817 25.5673 23.8591 25.673Q23.8334 25.7927 23.8334 25.918L23.8334 25.9238Q23.8341 26.055 23.8628 26.1797Q23.886 26.2802 23.9272 26.3765Q23.9689 26.4735 24.0262 26.5602Q24.0918 26.6592 24.178 26.7446Q24.2624 26.8285 24.3599 26.8926Q24.4486 26.9508 24.548 26.9927Q24.6481 27.0347 24.7525 27.0573Q24.8734 27.0835 25 27.0835L25.0055 27.0835L26.5903 27.073L26.5944 27.7578Q26.5951 27.8856 26.6225 28.0074Q26.6457 28.1109 26.6882 28.21Q26.7299 28.307 26.7872 28.3936Q26.8528 28.4927 26.939 28.5781Q27.0243 28.6629 27.123 28.7273Q27.2107 28.7845 27.309 28.8257Q27.4091 28.8678 27.5135 28.8903Q27.6344 28.9165 27.761 28.9165L27.7666 28.9165Q27.9058 28.9156 28.0375 28.8836Q28.1306 28.861 28.2198 28.8228Q28.3203 28.7796 28.4096 28.7198Q28.5054 28.6556 28.5883 28.5723Q28.6731 28.487 28.7377 28.3885Q28.7951 28.3008 28.8365 28.2026Q28.8794 28.1009 28.9022 27.9948Q28.9277 27.8754 28.9277 27.7505L28.9277 27.7427L28.9237 27.0478Q29.1218 27.0304 29.314 26.987Q29.5801 26.927 29.8351 26.8174Q30.085 26.7102 30.3081 26.5625Q30.5626 26.3941 30.7823 26.1729Q31.0015 25.9522 31.168 25.6973Q31.3148 25.4726 31.4207 25.2212Q31.5292 24.9637 31.5874 24.6952Q31.6548 24.3845 31.6548 24.0591ZM28.6722 26.8096C30.1827 26.7993 31.4048 25.5684 31.4048 24.0591L31.4048 24.042L31.3983 23.1265C31.3938 22.3911 31.1041 21.7026 30.5807 21.1865C30.0573 20.6714 29.3368 20.3745 28.631 20.3994L26.7976 20.4165L26.7921 20.4165C26.2898 20.4165 25.8782 20.0034 25.8755 19.5L25.87 18.5815L25.87 18.5762C25.87 18.0728 26.2769 17.6602 26.7811 17.6577L27.6758 17.6509C27.7051 17.6528 27.7308 17.6665 27.762 17.6665L27.7675 17.6665C27.7986 17.6665 27.8252 17.6509 27.8555 17.6484L30.4459 17.6318C30.9506 17.6284 31.3572 17.2368 31.3572 16.7339L31.3572 16.7271C31.3535 16.2222 30.9446 15.8335 30.4404 15.8335L30.4349 15.8335L28.6722 15.8271L28.6667 14.9194C28.6639 14.415 28.2533 14 27.75 14L27.7445 14C27.2402 14.0034 26.8334 14.4199 26.8334 14.9233L26.8334 14.9287L26.8373 15.5835L26.8389 15.8335L26.7692 15.8335C26.747 15.8335 26.7248 15.8338 26.7028 15.8343C25.223 15.8699 24.0366 17.091 24.0366 18.5781L24.0366 18.5952L24.0421 19.5146C24.0522 21.0254 25.2842 22.25 26.7931 22.25L28.6493 22.25C28.8912 22.25 29.1195 22.3325 29.2937 22.502C29.4669 22.6743 29.5641 22.8979 29.5659 23.1436L29.5724 24.0566L29.5724 24.0635C29.5724 24.5664 29.1649 24.9751 28.6613 24.978L24.9945 25.001C24.4902 25.0044 24.0834 25.4146 24.0834 25.918L24.0834 25.9229C24.0862 26.4272 24.4968 26.8335 25 26.8335L25.0055 26.8335L26.5889 26.823L26.8389 26.8213L26.8403 27.0713L26.8444 27.7563C26.8472 28.2607 27.2578 28.6665 27.761 28.6665L27.7666 28.6665C28.2703 28.6631 28.6777 28.2544 28.6777 27.7505L28.6777 27.7437L28.6722 26.8096ZM11.5045 15.6111Q11.3803 15.5835 11.25 15.5835Q11.1205 15.5835 10.9971 15.6107Q10.8945 15.6334 10.796 15.6748Q10.6939 15.7181 10.6033 15.7786Q10.508 15.8422 10.4253 15.9248Q10.3412 16.0087 10.2769 16.1056Q10.2177 16.195 10.1752 16.2954Q10.1328 16.3958 10.11 16.5004Q10.0834 16.6223 10.0834 16.75L10.0834 18.5835Q10.0834 18.714 10.1111 18.8384Q10.1339 18.9401 10.1752 19.0376Q10.2167 19.1359 10.2743 19.2236Q10.3395 19.3229 10.4253 19.4087Q10.5089 19.4922 10.6054 19.5562Q10.6951 19.6156 10.796 19.6582Q10.8957 19.7004 10.9996 19.7232Q11.1218 19.75 11.25 19.75Q11.379 19.75 11.502 19.7228Q11.6052 19.7001 11.7041 19.6582Q11.8037 19.6162 11.8925 19.5576Q11.9902 19.4932 12.0748 19.4087Q12.1608 19.3227 12.2261 19.2231Q12.2834 19.1356 12.3248 19.0376Q12.3663 18.9398 12.3891 18.8377Q12.4167 18.7137 12.4167 18.5835L12.4167 16.75Q12.4167 16.6226 12.3903 16.501Q12.3674 16.3961 12.3248 16.2954Q12.2825 16.1952 12.2235 16.1061Q12.1591 16.0089 12.0748 15.9248Q11.9911 15.8412 11.8945 15.7771Q11.8049 15.7176 11.7041 15.6748Q11.6064 15.6337 11.5045 15.6111ZM10.3334 16.75C10.3334 16.2432 10.744 15.8335 11.25 15.8335C11.756 15.8335 12.1667 16.2432 12.1667 16.75L12.1667 18.5835C12.1667 19.0903 11.756 19.5 11.25 19.5C10.744 19.5 10.3334 19.0903 10.3334 18.5835L10.3334 16.75ZM11.5045 21.1111Q11.3803 21.0835 11.25 21.0835Q11.1205 21.0835 10.9971 21.1107Q10.8945 21.1334 10.796 21.1748Q10.6939 21.2181 10.6033 21.2786Q10.508 21.3422 10.4253 21.4248Q10.3412 21.5087 10.2769 21.6056Q10.2177 21.695 10.1752 21.7954Q10.1328 21.8958 10.11 22.0004Q10.0834 22.1223 10.0834 22.25L10.0834 29.5835Q10.0834 29.714 10.1111 29.8384Q10.1339 29.9401 10.1752 30.0376Q10.2167 30.1359 10.2743 30.2236Q10.3395 30.3229 10.4253 30.4087Q10.5089 30.4922 10.6054 30.5562Q10.6951 30.6156 10.796 30.6582Q10.8957 30.7004 10.9996 30.7232Q11.1218 30.75 11.25 30.75Q11.379 30.75 11.502 30.7228Q11.6052 30.7001 11.7041 30.6582Q11.8037 30.6162 11.8925 30.5576Q11.9902 30.4932 12.0748 30.4087Q12.1608 30.3227 12.2261 30.2231Q12.2834 30.1356 12.3248 30.0376Q12.3663 29.9398 12.3891 29.8377Q12.4167 29.7137 12.4167 29.5835L12.4167 22.25Q12.4167 22.1226 12.3903 22.001Q12.3674 21.8961 12.3248 21.7954Q12.2825 21.6952 12.2235 21.6061Q12.1591 21.5089 12.0748 21.4248Q11.9911 21.3412 11.8945 21.2771Q11.8049 21.2176 11.7041 21.1748Q11.6064 21.1337 11.5045 21.1111ZM22.4722 22.5049Q22.5 22.3805 22.5 22.25Q22.5 22.1195 22.4722 21.9951Q22.4495 21.8934 22.4082 21.7959Q22.3666 21.6974 22.3089 21.6095Q22.2438 21.5104 22.1583 21.4248Q22.0737 21.3403 21.976 21.2759Q21.8872 21.2173 21.7876 21.1753Q21.688 21.1331 21.5841 21.1104Q21.4617 21.0835 21.3334 21.0835Q21.2051 21.0835 21.0827 21.1104Q20.9788 21.1331 20.8792 21.1753Q20.7795 21.2173 20.6908 21.2759Q20.593 21.3403 20.5084 21.4248Q20.4229 21.5104 20.3579 21.6095Q20.3002 21.6974 20.2585 21.7959Q20.2172 21.8934 20.1945 21.9951Q20.1667 22.1195 20.1667 22.25Q20.1667 22.3805 20.1945 22.5049Q20.2172 22.6066 20.2585 22.7041Q20.3002 22.8026 20.3579 22.8905Q20.4229 22.9896 20.5084 23.0752Q20.593 23.1597 20.6908 23.2241Q20.7795 23.2827 20.8792 23.3247Q20.9788 23.3669 21.0827 23.3896Q21.2051 23.4165 21.3334 23.4165Q21.4617 23.4165 21.5841 23.3896Q21.688 23.3669 21.7876 23.3247Q21.8872 23.2827 21.976 23.2241Q22.0737 23.1597 22.1583 23.0752Q22.2438 22.9896 22.3089 22.8905Q22.3666 22.8026 22.4082 22.7041Q22.4495 22.6066 22.4722 22.5049ZM35.3056 22.5049Q35.3334 22.3805 35.3334 22.25Q35.3334 22.1195 35.3056 21.9951Q35.2829 21.8934 35.2416 21.7959Q35.2 21.6974 35.1422 21.6095Q35.0772 21.5104 34.9917 21.4248Q34.9076 21.3409 34.8106 21.2767Q34.7212 21.2176 34.6208 21.1753Q34.5219 21.1334 34.4187 21.1106Q34.2957 21.0835 34.1667 21.0835Q34.0385 21.0835 33.9161 21.1104Q33.8122 21.1331 33.7125 21.1753Q33.6116 21.2179 33.5219 21.2773Q33.4254 21.3413 33.3418 21.4248Q33.2565 21.5102 33.1916 21.609Q33.1336 21.6971 33.0918 21.7959Q33.0505 21.8934 33.0278 21.9951Q33 22.1195 33 22.25Q33 22.3805 33.0278 22.5049Q33.0505 22.6066 33.0918 22.7041Q33.1336 22.8029 33.1916 22.891Q33.2565 22.9898 33.3418 23.0752Q33.4254 23.1587 33.5219 23.2227Q33.6116 23.2821 33.7125 23.3247Q33.8122 23.3669 33.9161 23.3896Q34.0385 23.4165 34.1667 23.4165Q34.2957 23.4165 34.4187 23.3894Q34.5219 23.3666 34.6208 23.3247Q34.7212 23.2824 34.8106 23.2233Q34.9076 23.1591 34.9917 23.0752Q35.0765 22.9902 35.1412 22.892Q35.1996 22.8034 35.2416 22.7041Q35.2829 22.6066 35.3056 22.5049ZM10.3334 22.25C10.3334 21.7432 10.744 21.3335 11.25 21.3335C11.756 21.3335 12.1667 21.7432 12.1667 22.25L12.1667 29.5835C12.1667 30.0903 11.756 30.5 11.25 30.5C10.744 30.5 10.3334 30.0903 10.3334 29.5835L10.3334 22.25ZM21.3334 21.3335C21.8396 21.3335 22.25 21.7437 22.25 22.25C22.25 22.7563 21.8396 23.1665 21.3334 23.1665C20.8271 23.1665 20.4167 22.7563 20.4167 22.25C20.4167 21.7437 20.8271 21.3335 21.3334 21.3335ZM34.1667 21.3335C34.673 21.3335 35.0834 21.7437 35.0834 22.25C35.0834 22.7563 34.673 23.1665 34.1667 23.1665C33.6604 23.1665 33.25 22.7563 33.25 22.25C33.25 21.7437 33.6604 21.3335 34.1667 21.3335Z" clip-rule="evenodd" fill="#008D3D" fill-opacity="1.000000" fill-rule="evenodd"/>
	<mask id="mask_8_159" fill="white">
		<path d="M54.3334 36L44.25 36C43.0565 36 42.0482 36.769 41.6687 37.8335L37.0798 37.8335C36.5839 37.8335 36.1852 38.2285 36.1687 38.7207L28.5209 36.9854C27.9691 36.8608 27.3961 36.9038 26.8691 37.1138L19.6915 39.9609C18.7649 40.3286 18.0856 41.0747 17.806 41.9766L3.78931 37.8652C2.93494 37.6172 2.03845 37.7754 1.33081 38.3052C0.644165 38.8208 0.25 39.6016 0.25 40.4497L0.25 42.438C0.25 43.3472 0.712036 44.1885 1.48474 44.688L11.668 51.2783C11.7578 51.3359 11.8578 51.3779 11.9623 51.4019L27.1239 54.8643C27.3292 54.9116 27.54 54.9346 27.75 54.9346C27.9608 54.9346 28.1708 54.9116 28.3761 54.8643L36.3557 53.0337C36.5216 53.2598 36.7773 53.4165 37.0808 53.4165L41.6696 53.4165C42.0491 54.481 43.0574 55.25 44.251 55.25L54.3342 55.25C54.8412 55.25 55.251 54.8403 55.251 54.3335L55.251 36.9165C55.25 36.4097 54.8402 36 54.3334 36ZM53.4166 53.4165L44.25 53.4165C43.744 53.4165 43.3334 53.0059 43.3334 52.5L43.3334 38.75C43.3334 38.2441 43.744 37.8335 44.25 37.8335L53.4166 37.8335L53.4166 53.4165ZM35.9423 51.248L27.9655 53.0776C27.8252 53.1104 27.6758 53.1104 27.5337 53.0776L12.5288 49.6509L2.48022 43.1479C2.23181 42.9868 2.08337 42.7217 2.08337 42.437L2.08337 40.4487C2.08337 40.0854 2.29968 39.8701 2.42896 39.7739C2.6709 39.5933 2.97705 39.5366 3.27222 39.6255L17.8262 43.8999C18.2533 45.1631 19.4752 46.0835 20.9116 46.0835L27.75 46.0835C28.256 46.0835 28.6666 45.6733 28.6666 45.1665C28.6666 44.6597 28.256 44.25 27.75 44.25L20.9116 44.25C20.1334 44.25 19.5 43.6479 19.5 42.9116C19.5 42.3672 19.8409 41.8784 20.369 41.6685L27.5465 38.8198C27.728 38.7471 27.926 38.7314 28.1167 38.7749L35.9963 40.562L35.9423 51.248ZM41.5 51.5835L37.8334 51.5835L37.8334 39.6665L41.5 39.6665L41.5 51.5835ZM47.1641 49.75L49.9141 49.75C50.421 49.75 50.8308 50.1597 50.8308 50.6665C50.8308 51.1733 50.421 51.5835 49.9141 51.5835L47.1641 51.5835C46.6572 51.5835 46.2474 51.1733 46.2474 50.6665C46.2474 50.1597 46.6572 49.75 47.1641 49.75Z" clip-rule="evenodd" fill="" fill-opacity="1.000000" fill-rule="evenodd"/>
	</mask>
	<path d="M54.3334 36L44.25 36C43.0565 36 42.0482 36.769 41.6687 37.8335L37.0798 37.8335C36.5839 37.8335 36.1852 38.2285 36.1687 38.7207L28.5209 36.9854C27.9691 36.8608 27.3961 36.9038 26.8691 37.1138L19.6915 39.9609C18.7649 40.3286 18.0856 41.0747 17.806 41.9766L3.78931 37.8652C2.93494 37.6172 2.03845 37.7754 1.33081 38.3052C0.644165 38.8208 0.25 39.6016 0.25 40.4497L0.25 42.438C0.25 43.3472 0.712036 44.1885 1.48474 44.688L11.668 51.2783C11.7578 51.3359 11.8578 51.3779 11.9623 51.4019L27.1239 54.8643C27.3292 54.9116 27.54 54.9346 27.75 54.9346C27.9608 54.9346 28.1708 54.9116 28.3761 54.8643L36.3557 53.0337C36.5216 53.2598 36.7773 53.4165 37.0808 53.4165L41.6696 53.4165C42.0491 54.481 43.0574 55.25 44.251 55.25L54.3342 55.25C54.8412 55.25 55.251 54.8403 55.251 54.3335L55.251 36.9165C55.25 36.4097 54.8402 36 54.3334 36ZM53.4166 53.4165L44.25 53.4165C43.744 53.4165 43.3334 53.0059 43.3334 52.5L43.3334 38.75C43.3334 38.2441 43.744 37.8335 44.25 37.8335L53.4166 37.8335L53.4166 53.4165ZM35.9423 51.248L27.9655 53.0776C27.8252 53.1104 27.6758 53.1104 27.5337 53.0776L12.5288 49.6509L2.48022 43.1479C2.23181 42.9868 2.08337 42.7217 2.08337 42.437L2.08337 40.4487C2.08337 40.0854 2.29968 39.8701 2.42896 39.7739C2.6709 39.5933 2.97705 39.5366 3.27222 39.6255L17.8262 43.8999C18.2533 45.1631 19.4752 46.0835 20.9116 46.0835L27.75 46.0835C28.256 46.0835 28.6666 45.6733 28.6666 45.1665C28.6666 44.6597 28.256 44.25 27.75 44.25L20.9116 44.25C20.1334 44.25 19.5 43.6479 19.5 42.9116C19.5 42.3672 19.8409 41.8784 20.369 41.6685L27.5465 38.8198C27.728 38.7471 27.926 38.7314 28.1167 38.7749L35.9963 40.562L35.9423 51.248ZM41.5 51.5835L37.8334 51.5835L37.8334 39.6665L41.5 39.6665L41.5 51.5835ZM47.1641 49.75L49.9141 49.75C50.421 49.75 50.8308 50.1597 50.8308 50.6665C50.8308 51.1733 50.421 51.5835 49.9141 51.5835L47.1641 51.5835C46.6572 51.5835 46.2474 51.1733 46.2474 50.6665C46.2474 50.1597 46.6572 49.75 47.1641 49.75Z" clip-rule="evenodd" fill="#2C2C2C" fill-opacity="1.000000" fill-rule="evenodd" mask="url(#mask_8_159)"/>
	<path d="M54.5856 35.7772Q54.4625 35.75 54.3334 35.75L44.25 35.75Q43.9689 35.75 43.6974 35.8012Q43.5053 35.8375 43.318 35.8994Q43.126 35.963 42.946 36.0511Q42.717 36.1632 42.5073 36.3149Q42.3359 36.4394 42.1849 36.5849Q42.0112 36.7524 41.8644 36.9478Q41.7183 37.1423 41.6064 37.3548Q41.5474 37.4667 41.4979 37.5835L37.0798 37.5835Q36.9502 37.5835 36.8266 37.611Q36.7286 37.6328 36.6344 37.6719Q36.539 37.7116 36.4535 37.7666Q36.355 37.8299 36.2695 37.9136Q36.1902 37.9914 36.1278 38.0811Q36.0654 38.1709 36.02 38.2725Q35.9879 38.3442 35.9659 38.4185L28.5763 36.7417Q28.3083 36.6812 28.0382 36.6689Q27.8528 36.6605 27.6665 36.6748Q27.4484 36.6917 27.2371 36.739Q27.0027 36.7915 26.7766 36.8813L19.5994 39.7285Q19.1638 39.9013 18.7998 40.1708Q18.5436 40.3605 18.3229 40.5981Q18.0463 40.8959 17.852 41.2401Q17.7354 41.4467 17.6485 41.67L3.85962 37.6255Q3.43679 37.5025 3.0132 37.4998Q2.73729 37.4981 2.46106 37.5474Q2.1467 37.6035 1.85735 37.7212Q1.50007 37.8664 1.18091 38.1055Q0.838768 38.3619 0.590371 38.6895Q0.430653 38.9001 0.309692 39.1401Q0.170315 39.4166 0.0936645 39.7094Q0 40.0673 0 40.4497L0 42.438Q0 42.8126 0.0904529 43.1638Q0.18005 43.5118 0.358398 43.8369Q0.51921 44.13 0.735494 44.3739Q1.00058 44.6729 1.349 44.8979L11.5322 51.4878Q11.6315 51.5518 11.7392 51.5941Q11.8205 51.626 11.9066 51.6455L27.0682 55.1079Q27.3993 55.1846 27.75 55.1846Q28.1007 55.1846 28.4326 55.1074L36.2631 53.3114Q36.3389 53.3904 36.4263 53.4532Q36.4837 53.4945 36.5461 53.5288Q36.6738 53.5991 36.8104 53.6335Q36.9415 53.6665 37.0808 53.6665L41.4988 53.6665Q41.5483 53.7833 41.6072 53.8952Q41.7192 54.1077 41.8652 54.3022Q42.0126 54.4983 42.1871 54.6662Q42.3376 54.8111 42.5083 54.9351Q42.7179 55.0868 42.947 55.1989Q43.127 55.287 43.319 55.3506Q43.5063 55.4125 43.6984 55.4488Q43.9698 55.5 44.251 55.5L54.3342 55.5Q54.4649 55.5 54.5894 55.4722Q54.691 55.4495 54.7886 55.4082Q54.8903 55.3653 54.9806 55.3053Q55.0764 55.2416 55.1594 55.1587Q55.2449 55.0731 55.31 54.974Q55.3677 54.8861 55.4093 54.7876Q55.4504 54.6904 55.4731 54.589Q55.501 54.4644 55.501 54.3335L55.501 36.9165Q55.5007 36.7825 55.4714 36.6551Q55.4487 36.5565 55.4087 36.4619Q55.3658 36.3606 55.3059 36.2707Q55.2419 36.1745 55.1586 36.0913Q55.0745 36.0074 54.9774 35.9432Q54.8881 35.8841 54.7877 35.8418Q54.6888 35.7999 54.5856 35.7772ZM41.6696 53.4165C42.0491 54.481 43.0574 55.25 44.251 55.25L54.3342 55.25C54.8412 55.25 55.251 54.8403 55.251 54.3335L55.251 36.9165C55.25 36.4097 54.8402 36 54.3334 36L44.25 36C43.0565 36 42.0482 36.769 41.6687 37.8335L37.0798 37.8335C36.6702 37.8335 36.327 38.1029 36.2106 38.474C36.186 38.5522 36.1716 38.635 36.1687 38.7207L35.9214 38.6646L28.5209 36.9854C27.9691 36.8608 27.3961 36.9038 26.8691 37.1138L19.6915 39.9609C18.7649 40.3286 18.0856 41.0747 17.806 41.9766L3.78931 37.8652C2.93494 37.6172 2.03845 37.7754 1.33081 38.3052C0.644165 38.8208 0.25 39.6016 0.25 40.4497L0.25 42.438C0.25 43.3472 0.712036 44.1885 1.48474 44.688L11.668 51.2783C11.7578 51.3359 11.8578 51.3779 11.9623 51.4019L27.1239 54.8643C27.3292 54.9116 27.54 54.9346 27.75 54.9346C27.9608 54.9346 28.1708 54.9116 28.3761 54.8643L36.3557 53.0337C36.5216 53.2598 36.7773 53.4165 37.0808 53.4165L41.6696 53.4165ZM53.1666 53.4165L53.4166 53.4165L53.4166 37.8335L44.25 37.8335C43.744 37.8335 43.3334 38.2441 43.3334 38.75L43.3334 52.5C43.3334 53.0059 43.744 53.4165 44.25 53.4165L53.1666 53.4165ZM53.1666 53.1665L44.25 53.1665Q44.1128 53.1665 43.9955 53.1182Q43.8769 53.0694 43.7787 52.9712Q43.6806 52.8731 43.6318 52.7548Q43.5834 52.6374 43.5834 52.5L43.5834 38.75Q43.5834 38.6126 43.6318 38.4952Q43.6806 38.3769 43.7787 38.2788Q43.8766 38.1809 43.9948 38.1321Q44.1124 38.0835 44.25 38.0835L53.1666 38.0835L53.1666 53.1665ZM27.9655 53.0776L35.9423 51.248L35.9963 40.562L28.1167 38.7749C27.926 38.7314 27.728 38.7471 27.5465 38.8198L20.369 41.6685C19.8409 41.8784 19.5 42.3672 19.5 42.9116C19.5 43.6479 20.1334 44.25 20.9116 44.25L27.75 44.25C28.256 44.25 28.6666 44.6597 28.6666 45.1665C28.6666 45.6733 28.256 46.0835 27.75 46.0835L20.9116 46.0835C19.4752 46.0835 18.2533 45.1631 17.8262 43.8999L3.27222 39.6255C2.97705 39.5366 2.6709 39.5933 2.42896 39.7739C2.29968 39.8701 2.08337 40.0854 2.08337 40.4487L2.08337 42.437C2.08337 42.7217 2.23181 42.9868 2.48022 43.1479L12.5288 49.6509L27.5337 53.0776C27.6758 53.1104 27.8252 53.1104 27.9655 53.0776ZM12.6278 49.4172L27.5902 52.834Q27.6772 52.8541 27.7638 52.8524Q27.8368 52.851 27.9095 52.834L35.6933 51.0487L35.7453 40.7617L28.0615 39.0186Q27.9545 38.9944 27.8499 39.0024Q27.743 39.0105 27.6387 39.0522L20.4613 41.9009Q20.2617 41.9804 20.1116 42.1151Q20.0166 42.2005 19.9414 42.3081Q19.8384 42.4556 19.7908 42.6191Q19.75 42.7594 19.75 42.9116Q19.75 43.0147 19.77 43.1138Q19.7923 43.2239 19.8394 43.3291Q19.8657 43.3881 19.8987 43.443Q19.9748 43.5697 20.0861 43.6753Q20.1494 43.7354 20.2201 43.7849Q20.3293 43.8613 20.4562 43.9126Q20.5412 43.9468 20.6294 43.9676Q20.7667 44 20.9116 44L27.75 44Q27.8782 44 28.0004 44.0268Q28.1043 44.0496 28.204 44.0918Q28.3044 44.1341 28.3937 44.1932Q28.4908 44.2574 28.5748 44.3413Q28.6601 44.4267 28.7251 44.5255Q28.783 44.6136 28.8248 44.7124Q28.8661 44.8099 28.8889 44.9116Q28.9166 45.036 28.9166 45.1665Q28.9166 45.3004 28.8875 45.4276Q28.8649 45.5264 28.8248 45.6211Q28.7821 45.7221 28.7225 45.8118Q28.6584 45.9082 28.5748 45.9917Q28.4892 46.0775 28.3899 46.1427Q28.3022 46.2002 28.204 46.2417Q28.1043 46.2839 28.0004 46.3067Q27.8782 46.3335 27.75 46.3335L20.9116 46.3335Q20.5817 46.3335 20.2628 46.2743Q20.0313 46.2313 19.8057 46.1572Q19.5517 46.074 19.3159 45.9549Q19.0703 45.8309 18.8442 45.668Q18.5994 45.4917 18.3911 45.2795Q18.2273 45.1125 18.0862 44.9233Q17.8851 44.654 17.7426 44.3567Q17.6832 44.2327 17.634 44.1039L3.2002 39.8647Q3.09494 39.8332 2.98994 39.8341Q2.93225 39.8345 2.87463 39.8447Q2.81753 39.8549 2.76368 39.8742Q2.66557 39.9094 2.57825 39.9746Q2.44243 40.0756 2.38194 40.2104Q2.33337 40.3187 2.33337 40.4487L2.33337 42.437Q2.33337 42.5032 2.34797 42.5659Q2.36612 42.644 2.40686 42.7168Q2.43108 42.7602 2.46151 42.7987Q2.52521 42.8793 2.61609 42.9385L12.6278 49.4172ZM41.25 51.5835L37.8334 51.5835L37.8334 39.6665L41.5 39.6665L41.5 51.5835L41.25 51.5835ZM41.25 51.3335L38.0834 51.3335L38.0834 39.9165L41.25 39.9165L41.25 51.3335ZM49.9141 49.5L47.1641 49.5Q47.0349 49.5 46.9118 49.5272Q46.8087 49.5499 46.7097 49.5918Q46.6093 49.6341 46.52 49.6932Q46.4229 49.7574 46.3389 49.8413Q46.2538 49.9265 46.189 50.025Q46.131 50.1134 46.0891 50.2124Q46.048 50.3096 46.0253 50.411Q45.9974 50.5356 45.9974 50.6665Q45.9974 50.8007 46.0266 50.9283Q46.0492 51.0267 46.0891 51.1211Q46.1319 51.2223 46.1916 51.3123Q46.2555 51.4084 46.3389 51.4917Q46.4245 51.5775 46.5238 51.6427Q46.6115 51.7002 46.7097 51.7417Q46.8087 51.7835 46.9118 51.8063Q47.0349 51.8335 47.1641 51.8335L49.9141 51.8335Q50.0447 51.8335 50.1692 51.8057Q50.2709 51.783 50.3684 51.7417Q50.468 51.6997 50.5566 51.6412Q50.6546 51.5765 50.7393 51.4917Q50.8231 51.408 50.8872 51.3113Q50.9466 51.2218 50.9891 51.1211Q51.0291 51.0267 51.0516 50.9283Q51.0808 50.8007 51.0808 50.6665Q51.0808 50.5356 51.0529 50.411Q51.0303 50.3096 50.9891 50.2124Q50.9475 50.1139 50.8898 50.026Q50.8248 49.9269 50.7393 49.8413Q50.6562 49.7584 50.5604 49.6947Q50.4701 49.6347 50.3684 49.5918Q50.2709 49.5505 50.1692 49.5278Q50.0447 49.5 49.9141 49.5ZM49.9141 49.75L47.1641 49.75C46.6572 49.75 46.2474 50.1597 46.2474 50.6665C46.2474 51.1733 46.6572 51.5835 47.1641 51.5835L49.9141 51.5835C50.421 51.5835 50.8308 51.1733 50.8308 50.6665C50.8308 50.1597 50.421 49.75 49.9141 49.75Z" clip-rule="evenodd" fill="#2C2C2C" fill-opacity="1.000000" fill-rule="evenodd"/>
</svg>
