<svg width="59.661133" height="55.000000" viewBox="0 0 59.6611 55" fill="none" xmlns="http://www.w3.org/2000/svg" xmlns:xlink="http://www.w3.org/1999/xlink">
	<desc>
			Created with Pixso.
	</desc>
	<defs/>
	<path d="M39.7178 55L4.62952 55C2.07678 55 0 52.9233 0 50.3706L0 4.62988C0 2.07715 2.07678 0 4.62952 0L39.7177 0C42.2704 0 44.3473 2.07666 44.3473 4.62939L44.3473 22.2324C44.3473 22.876 43.8256 23.3975 43.182 23.3975C42.5385 23.3975 42.0167 22.876 42.0167 22.2324L42.0167 4.62988C42.0167 3.36182 40.9854 2.33057 39.7177 2.33057L4.62952 2.33057C3.36182 2.33057 2.33057 3.36182 2.33057 4.62988L2.33057 50.3706C2.33057 51.6382 3.36182 52.6694 4.62952 52.6694L39.7177 52.6694C40.9854 52.6694 42.0167 51.6382 42.0167 50.3706L42.0167 32.7676C42.0167 32.124 42.5385 31.6025 43.182 31.6025C43.8256 31.6025 44.3473 32.124 44.3473 32.7676L44.3473 50.3706C44.3473 52.9233 42.2705 55 39.7178 55ZM12.3273 17.7715C8.79749 17.7715 5.92578 14.8999 5.92578 11.3701C5.92578 7.83984 8.79749 4.96826 12.3273 4.96826C15.8571 4.96826 18.7286 7.83984 18.7286 11.3701C18.7286 14.8999 15.8572 17.7715 12.3273 17.7715ZM12.3273 7.29883C10.0825 7.29883 8.25635 9.12549 8.25635 11.3701C8.25635 13.6147 10.0825 15.4409 12.3273 15.4409C14.572 15.4409 16.3982 13.6147 16.3982 11.3701C16.3982 9.12549 14.572 7.29883 12.3273 7.29883ZM12.1349 13.1245C11.9385 13.1245 11.7407 13.0752 11.561 12.9731L10.4696 12.355C10.0909 12.1406 9.8783 11.7461 9.8783 11.3398C9.8783 11.1455 9.92712 10.9482 10.0298 10.7671C10.347 10.207 11.058 10.0098 11.6179 10.3271L11.9381 10.5088L12.8849 9.56152C13.34 9.10693 14.0778 9.10693 14.5328 9.56152C14.7604 9.78906 14.8741 10.0874 14.8741 10.3857C14.8741 10.6841 14.7604 10.9819 14.5328 11.21L12.9592 12.7832C12.7349 13.0078 12.4365 13.1245 12.1349 13.1245ZM32.2581 13.1245L22.9724 13.1245C22.3289 13.1245 21.8071 12.603 21.8071 11.9595C21.8071 11.3159 22.3289 10.7939 22.9724 10.7939L32.2581 10.7939C32.9016 10.7939 33.4233 11.3159 33.4233 11.9595C33.4233 12.603 32.9016 13.1245 32.2581 13.1245ZM37.2563 17.7715L22.9724 17.7715C22.3289 17.7715 21.8071 17.2495 21.8071 16.606C21.8071 15.9624 22.3289 15.4409 22.9724 15.4409L37.2563 15.4409C37.8999 15.4409 38.4216 15.9624 38.4216 16.606C38.4216 17.2495 37.8999 17.7715 37.2563 17.7715ZM12.3273 33.9014C8.79749 33.9014 5.92578 31.0298 5.92578 27.5C5.92578 23.9702 8.79749 21.0986 12.3273 21.0986C15.8571 21.0986 18.7286 23.9702 18.7286 27.5C18.7286 31.0298 15.8572 33.9014 12.3273 33.9014ZM12.3273 23.4292C10.0825 23.4292 8.25635 25.2554 8.25635 27.5C8.25635 29.7446 10.0825 31.5713 12.3273 31.5713C14.572 31.5713 16.3982 29.7446 16.3982 27.5C16.3982 25.2554 14.572 23.4292 12.3273 23.4292ZM12.1349 29.2549C11.9385 29.2549 11.7407 29.2051 11.561 29.1035L10.4696 28.4854C10.0909 28.271 9.8783 27.8765 9.8783 27.4702C9.8783 27.2759 9.92712 27.0786 10.0298 26.897C10.347 26.3369 11.058 26.1401 11.6179 26.4575L11.9381 26.6387L12.8849 25.6919C13.34 25.2368 14.0776 25.2373 14.5328 25.6919C14.7604 25.9194 14.8741 26.2178 14.8741 26.5161C14.8741 26.814 14.7604 27.1123 14.5328 27.3398L12.9592 28.9136C12.7349 29.1377 12.4365 29.2549 12.1349 29.2549ZM43.182 28.6445C42.7007 28.6445 42.2631 28.3369 42.0924 27.8892C42.0426 27.7583 42.0187 27.6211 42.0187 27.4844C42.0187 27.1411 42.1704 26.8013 42.4427 26.5781C42.8192 26.2695 43.3629 26.2295 43.7806 26.4795C44.1338 26.6909 44.3457 27.0801 44.3457 27.4839C44.3457 27.5576 44.3386 27.6323 44.324 27.7061C44.2172 28.2441 43.7308 28.6445 43.182 28.6445ZM32.2581 29.2549L22.9724 29.2549C22.3289 29.2549 21.8071 28.7329 21.8071 28.0894C21.8071 27.4458 22.3289 26.9243 22.9724 26.9243L32.2581 26.9243C32.9016 26.9243 33.4233 27.4458 33.4233 28.0894C33.4233 28.7329 32.9016 29.2549 32.2581 29.2549ZM37.2563 33.9014L22.9724 33.9014C22.3289 33.9014 21.8071 33.3799 21.8071 32.7363C21.8071 32.0928 22.3289 31.5708 22.9724 31.5708L37.2563 31.5708C37.8999 31.5708 38.4216 32.0928 38.4216 32.7363C38.4216 33.3799 37.8999 33.9014 37.2563 33.9014ZM12.3273 50.0317C8.79749 50.0317 5.92578 47.1602 5.92578 43.6304C5.92578 40.1006 8.79749 37.229 12.3273 37.229C15.8571 37.229 18.7286 40.1006 18.7286 43.6304L18.7286 43.6304C18.7286 47.1602 15.8571 50.0317 12.3273 50.0317ZM12.3273 39.5596C10.0825 39.5596 8.25635 41.3857 8.25635 43.6304C8.25635 45.875 10.0825 47.7012 12.3273 47.7012C14.572 47.7012 16.3982 45.875 16.3982 43.6304C16.3982 41.3857 14.572 39.5596 12.3273 39.5596ZM32.2581 43.0615L22.9724 43.0615C22.3289 43.0615 21.8071 42.54 21.8071 41.8965C21.8071 41.2529 22.3289 40.731 22.9724 40.731L32.2581 40.731C32.9016 40.731 33.4233 41.2529 33.4233 41.8965C33.4233 42.54 32.9016 43.0615 32.2581 43.0615ZM12.1349 45.3853C11.9385 45.3853 11.7407 45.3354 11.561 45.2339L10.4696 44.6152C10.0909 44.4009 9.8783 44.0068 9.8783 43.6006C9.8783 43.4058 9.92712 43.2085 10.0298 43.0273C10.347 42.4673 11.058 42.2705 11.6179 42.5879L11.9381 42.769L12.8849 41.8223C13.34 41.3672 14.0778 41.3672 14.5328 41.8223C14.7604 42.0498 14.8741 42.3481 14.8741 42.646C14.8741 42.9443 14.7604 43.2427 14.5328 43.4702L12.9592 45.0439C12.7349 45.2681 12.4365 45.3853 12.1349 45.3853ZM37.2563 47.7085L22.9724 47.7085C22.3289 47.7085 21.8071 47.1865 21.8071 46.543C21.8071 45.8999 22.3289 45.3779 22.9724 45.3779L37.2563 45.3779C37.8999 45.3779 38.4216 45.8999 38.4216 46.543C38.4216 47.1865 37.8999 47.7085 37.2563 47.7085Z" clip-rule="evenodd" fill="#2C2C2C" fill-opacity="1.000000" fill-rule="evenodd"/>
	<path d="M59.5571 45.874C59.6292 45.7153 59.6631 45.5469 59.661 45.3804L59.661 2.79541C59.661 1.25391 58.407 0 56.8657 0L50.1295 0C48.5883 0 47.3342 1.25391 47.3342 2.79541L47.3342 45.3804C47.3323 45.5469 47.3661 45.7153 47.4381 45.874C47.4386 45.875 52.4949 54.4282 52.4949 54.4282C52.7046 54.7827 53.0858 55 53.4976 55C53.9093 55 54.2905 54.7827 54.5002 54.4282C54.5002 54.4282 59.5566 45.875 59.5571 45.874ZM52.3323 41.29L49.6646 43.1558L49.6646 14.2236L52.3323 14.2236L52.3323 41.29ZM54.6628 14.2236L57.3306 14.2236L57.3306 43.1558L54.6628 41.29L54.6628 14.2236ZM57.3306 11.8931L49.6647 11.8931L49.6647 9.67139L57.3306 9.67139L57.3306 11.8931ZM50.0524 45.7285L53.4976 43.3188L56.9427 45.7285L56.4429 46.5732L50.5522 46.5732L50.0524 45.7285ZM49.6647 2.79541C49.6647 2.53906 49.8733 2.33057 50.1295 2.33057L56.8657 2.33057C57.1221 2.33057 57.3306 2.53906 57.3306 2.79541L57.3306 7.34131L49.6647 7.34131L49.6647 2.79541ZM53.4976 51.5474L51.932 48.9033L55.063 48.9033L53.4976 51.5474Z" fill="#008D3D" fill-opacity="1.000000" fill-rule="nonzero"/>
</svg>
