<svg width="51.833374" height="55.500488" viewBox="0 0 51.8334 55.5005" fill="none" xmlns="http://www.w3.org/2000/svg" xmlns:xlink="http://www.w3.org/1999/xlink">
	<desc>
			Created with Pixso.
	</desc>
	<defs/>
	<mask id="mask_8_26" fill="white">
		<path d="M4.83334 22.25L10.9868 22.25L18.0977 26.6943C18.4083 26.8882 18.8049 26.8789 19.1061 26.6699C19.4073 26.4609 19.5551 26.0928 19.4817 25.7334L18.7852 22.25L21.3333 22.25C23.8636 22.2471 25.9135 20.1968 25.9167 17.6665L25.9167 4.8335C25.9135 2.30322 23.8636 0.25293 21.3333 0.25L4.83334 0.25C2.3031 0.25293 0.253143 2.30322 0.25 4.8335L0.25 17.6665C0.253143 20.1968 2.3031 22.2471 4.83334 22.25ZM2.08334 4.8335C2.08334 3.31445 3.31467 2.0835 4.83334 2.0835L21.3333 2.0835C22.852 2.0835 24.0833 3.31445 24.0833 4.8335L24.0833 17.6665C24.0833 19.1855 22.852 20.4165 21.3333 20.4165L17.6667 20.4165C17.3914 20.4165 17.1305 20.54 16.9564 20.7539C16.7822 20.9668 16.7133 21.2471 16.7684 21.5171L17.2679 24.0176L11.7356 20.5557C11.5902 20.4648 11.4219 20.4165 11.25 20.4165L4.83334 20.4165C3.31467 20.4165 2.08334 19.1855 2.08334 17.6665L2.08334 4.8335ZM12.1667 16.75L11.4756 16.75C9.83292 16.7485 8.50134 15.417 8.5 13.7744L8.5 13.0835L10.3333 13.0835L10.3333 13.7744C10.3325 14.0781 10.4524 14.3691 10.6668 14.584C10.8812 14.7993 11.1721 14.9204 11.4756 14.9204L14.6956 14.9204C15.2716 14.918 15.7555 14.4873 15.8253 13.916C15.8951 13.3442 15.529 12.8101 14.9708 12.6689L10.7541 11.6167C9.28687 11.2598 8.31961 9.86084 8.50403 8.3623C8.68845 6.86377 9.96585 5.74072 11.4756 5.75L12.1667 5.75L12.1667 3.9165L14 3.9165L14 5.75L14.6911 5.75C16.3337 5.75146 17.6653 7.08301 17.6667 8.72559L17.6667 9.4165L15.8333 9.4165L15.8333 8.72559C15.8342 8.42139 15.7134 8.12939 15.4981 7.91406C15.2828 7.69922 14.991 7.5791 14.6866 7.57959L11.4711 7.57959C10.8951 7.58203 10.4112 8.0127 10.3414 8.58398C10.2716 9.15576 10.6377 9.68994 11.1959 9.83105L15.4126 10.8833C16.8798 11.2402 17.847 12.6392 17.6627 14.1377C17.4782 15.6362 16.2008 16.7593 14.6911 16.75L14 16.75L14 18.5835L12.1667 18.5835L12.1667 16.75Z" clip-rule="evenodd" fill="" fill-opacity="1.000000" fill-rule="evenodd"/>
	</mask>
	<path d="M4.83334 22.25L10.9868 22.25L18.0977 26.6943C18.4083 26.8882 18.8049 26.8789 19.1061 26.6699C19.4073 26.4609 19.5551 26.0928 19.4817 25.7334L18.7852 22.25L21.3333 22.25C23.8636 22.2471 25.9135 20.1968 25.9167 17.6665L25.9167 4.8335C25.9135 2.30322 23.8636 0.25293 21.3333 0.25L4.83334 0.25C2.3031 0.25293 0.253143 2.30322 0.25 4.8335L0.25 17.6665C0.253143 20.1968 2.3031 22.2471 4.83334 22.25ZM2.08334 4.8335C2.08334 3.31445 3.31467 2.0835 4.83334 2.0835L21.3333 2.0835C22.852 2.0835 24.0833 3.31445 24.0833 4.8335L24.0833 17.6665C24.0833 19.1855 22.852 20.4165 21.3333 20.4165L17.6667 20.4165C17.3914 20.4165 17.1305 20.54 16.9564 20.7539C16.7822 20.9668 16.7133 21.2471 16.7684 21.5171L17.2679 24.0176L11.7356 20.5557C11.5902 20.4648 11.4219 20.4165 11.25 20.4165L4.83334 20.4165C3.31467 20.4165 2.08334 19.1855 2.08334 17.6665L2.08334 4.8335ZM12.1667 16.75L11.4756 16.75C9.83292 16.7485 8.50134 15.417 8.5 13.7744L8.5 13.0835L10.3333 13.0835L10.3333 13.7744C10.3325 14.0781 10.4524 14.3691 10.6668 14.584C10.8812 14.7993 11.1721 14.9204 11.4756 14.9204L14.6956 14.9204C15.2716 14.918 15.7555 14.4873 15.8253 13.916C15.8951 13.3442 15.529 12.8101 14.9708 12.6689L10.7541 11.6167C9.28687 11.2598 8.31961 9.86084 8.50403 8.3623C8.68845 6.86377 9.96585 5.74072 11.4756 5.75L12.1667 5.75L12.1667 3.9165L14 3.9165L14 5.75L14.6911 5.75C16.3337 5.75146 17.6653 7.08301 17.6667 8.72559L17.6667 9.4165L15.8333 9.4165L15.8333 8.72559C15.8342 8.42139 15.7134 8.12939 15.4981 7.91406C15.2828 7.69922 14.991 7.5791 14.6866 7.57959L11.4711 7.57959C10.8951 7.58203 10.4112 8.0127 10.3414 8.58398C10.2716 9.15576 10.6377 9.68994 11.1959 9.83105L15.4126 10.8833C16.8798 11.2402 17.847 12.6392 17.6627 14.1377C17.4782 15.6362 16.2008 16.7593 14.6911 16.75L14 16.75L14 18.5835L12.1667 18.5835L12.1667 16.75Z" clip-rule="evenodd" fill="#008D3D" fill-opacity="1.000000" fill-rule="evenodd" mask="url(#mask_8_26)"/>
	<path d="M3.77589 22.3837Q4.29154 22.4995 4.83304 22.5L10.9152 22.5L17.9652 26.9062Q18.1134 26.999 18.2748 27.0432Q18.4365 27.0874 18.6114 27.083Q18.7864 27.0789 18.9459 27.0269Q19.105 26.975 19.2487 26.8755Q19.393 26.7752 19.4977 26.6435Q19.6016 26.5128 19.6664 26.3511Q19.731 26.1901 19.7463 26.0246Q19.7619 25.8562 19.7266 25.6831L19.0901 22.5L21.3333 22.5Q21.8771 22.4995 22.3947 22.3828Q22.8129 22.2886 23.214 22.1187Q23.6227 21.9455 23.9873 21.7055Q24.3961 21.4363 24.7495 21.083Q25.1054 20.7268 25.3759 20.3146Q25.6135 19.9526 25.7852 19.5474Q25.9551 19.1465 26.0493 18.7285Q26.166 18.2108 26.1667 17.667L26.1667 4.8335Q26.166 4.2863 26.048 3.76571Q25.9539 3.35072 25.7852 2.95264Q25.6134 2.5472 25.3757 2.18504Q25.1052 1.77301 24.7495 1.41699Q24.3961 1.06368 23.9873 0.794538Q23.6227 0.554461 23.214 0.381348Q22.8111 0.210629 22.3911 0.116336Q21.8753 0.000538261 21.3336 0L4.83334 0Q4.28974 0.000540005 3.77227 0.117088Q3.35393 0.211309 2.95267 0.381348Q2.54382 0.554519 2.17909 0.7947Q1.77047 1.06379 1.41724 1.41699Q1.06127 1.77317 0.790737 2.1854Q0.553166 2.5474 0.38147 2.95264Q0.211607 3.35355 0.117381 3.77151Q0.000675397 4.28918 0 4.83301L0 17.6665Q0.000679241 18.2137 0.118713 18.7343Q0.212804 19.1493 0.38147 19.5474Q0.553166 19.9526 0.790737 20.3146Q1.06127 20.7268 1.41724 21.083Q1.77047 21.4362 2.17909 21.7053Q2.54382 21.9455 2.95267 22.1187Q3.3557 22.2894 3.77589 22.3837ZM18.8352 22.5L18.7852 22.25L21.3333 22.25C23.8636 22.2471 25.9135 20.1968 25.9167 17.6665L25.9167 4.8335C25.9135 2.30322 23.8636 0.25293 21.3333 0.25L4.83334 0.25C2.3031 0.25293 0.253143 2.30322 0.25 4.8335L0.25 17.6665C0.253143 20.1968 2.3031 22.2471 4.83334 22.25L10.9868 22.25L18.0977 26.6943C18.4083 26.8882 18.8049 26.8789 19.1061 26.6699C19.4073 26.4609 19.5551 26.0928 19.4817 25.7334L18.8352 22.5ZM4.83334 2.0835C3.31467 2.0835 2.08334 3.31445 2.08334 4.8335L2.08334 17.6665C2.08334 19.1855 3.31467 20.4165 4.83334 20.4165L11.25 20.4165C11.4219 20.4165 11.5902 20.4648 11.7356 20.5557L16.9765 23.8353L17.2679 24.0176L17.2006 23.6806L16.7684 21.5171C16.7133 21.2471 16.7822 20.9668 16.9564 20.7539C17.1305 20.54 17.3914 20.4165 17.6667 20.4165L21.3333 20.4165C22.852 20.4165 24.0833 19.1855 24.0833 17.6665L24.0833 4.8335C24.0833 3.31445 22.852 2.0835 21.3333 2.0835L4.83334 2.0835ZM16.9092 23.4982L16.5234 21.5669Q16.4965 21.4349 16.4998 21.3037Q16.503 21.1786 16.5337 21.0542Q16.5659 20.9234 16.6251 20.8063Q16.6816 20.6948 16.7626 20.5957Q16.8448 20.495 16.9445 20.4164Q17.0464 20.3363 17.1664 20.2793Q17.2851 20.2229 17.41 20.1947Q17.5352 20.1665 17.6667 20.1665L21.3333 20.1665Q21.6174 20.1665 21.8877 20.1053Q22.1013 20.0569 22.3063 19.9702Q22.5142 19.8824 22.7001 19.7609Q22.9153 19.6203 23.1011 19.4346Q23.2855 19.2502 23.4255 19.0366Q23.5483 18.8493 23.637 18.6396Q23.7238 18.4342 23.7723 18.2201Q23.8333 17.9502 23.8333 17.6665L23.8333 4.8335Q23.8333 4.54977 23.7723 4.27985Q23.7238 4.06575 23.637 3.86035Q23.5483 3.65066 23.4255 3.46337Q23.2855 3.24985 23.1011 3.06543Q22.9153 2.87969 22.7001 2.73906Q22.5142 2.61759 22.3063 2.52979Q22.1013 2.44311 21.8877 2.39471Q21.6174 2.3335 21.3333 2.3335L4.83334 2.3335Q4.54887 2.3335 4.27831 2.39487Q4.06501 2.44325 3.86035 2.52979Q3.65212 2.61772 3.46597 2.73943Q3.25108 2.87993 3.06561 3.06543Q2.88111 3.24995 2.74104 3.4636Q2.61831 3.6508 2.52969 3.86035Q2.44287 4.06568 2.39444 4.27969Q2.33334 4.54968 2.33334 4.8335L2.33334 17.6665Q2.33334 17.9503 2.39444 18.2203Q2.44287 18.4343 2.52969 18.6396Q2.61831 18.8492 2.74104 19.0364Q2.88111 19.25 3.06561 19.4346Q3.25108 19.6201 3.46597 19.7606Q3.65212 19.8823 3.86035 19.9702Q4.06501 20.0567 4.27831 20.1051Q4.54887 20.1665 4.83334 20.1665L11.25 20.1665Q11.4167 20.1665 11.5707 20.2105Q11.7259 20.2548 11.8683 20.3438L16.9092 23.4982ZM12.1667 17L12.1667 16.75L11.4756 16.75C9.83292 16.7485 8.50134 15.417 8.5 13.7744L8.5 13.0835L10.3333 13.0835L10.3333 13.7744C10.3325 14.0781 10.4524 14.3691 10.6668 14.584C10.8812 14.7993 11.1721 14.9204 11.4756 14.9204L14.6956 14.9204C15.2716 14.918 15.7555 14.4873 15.8253 13.916C15.8951 13.3442 15.529 12.8101 14.9708 12.6689L10.7541 11.6167C9.28687 11.2598 8.31961 9.86084 8.50403 8.3623C8.68845 6.86377 9.96585 5.74072 11.4756 5.75L12.1667 5.75L12.1667 3.9165L14 3.9165L14 5.75L14.6911 5.75C16.3337 5.75146 17.6653 7.08301 17.6667 8.72559L17.6667 9.4165L15.8333 9.4165L15.8333 8.72559C15.8342 8.42139 15.7134 8.12939 15.4981 7.91406C15.2828 7.69922 14.991 7.5791 14.6866 7.57959L11.4711 7.57959C10.8951 7.58203 10.4112 8.0127 10.3414 8.58398C10.2716 9.15576 10.6377 9.68994 11.1959 9.83105L15.4126 10.8833C16.8798 11.2402 17.847 12.6392 17.6627 14.1377C17.4782 15.6362 16.2008 16.7593 14.6911 16.75L14 16.75L14 18.5835L12.1667 18.5835L12.1667 17ZM14.25 17L14.6895 17Q15.0164 17.0021 15.3308 16.9405Q15.5975 16.8882 15.8552 16.79Q16.1149 16.6913 16.3506 16.552Q16.6092 16.3991 16.8389 16.1973Q17.0725 15.9917 17.2598 15.7502Q17.4244 15.5379 17.5532 15.2979Q17.6842 15.0534 17.7704 14.794Q17.871 14.4914 17.9108 14.1685Q17.9507 13.8439 17.926 13.5243Q17.905 13.2535 17.8376 12.9863Q17.7685 12.7122 17.6548 12.4581Q17.5339 12.188 17.3626 11.9404Q17.188 11.6877 16.9731 11.4759Q16.7789 11.2845 16.5519 11.1265Q16.3176 10.9633 16.0623 10.8455Q15.7805 10.7154 15.4731 10.6406L11.2571 9.58887Q11.0939 9.54768 10.9646 9.4577Q10.8349 9.36742 10.7394 9.22803Q10.6436 9.08803 10.6062 8.93387Q10.5692 8.78102 10.5895 8.61426Q10.6101 8.44647 10.6835 8.3065Q10.7568 8.16703 10.8826 8.05518Q11.0098 7.94203 11.1586 7.88564Q11.3045 7.83032 11.4711 7.82959L14.6873 7.82959Q14.7769 7.82934 14.8631 7.84635Q14.9485 7.86319 15.0305 7.89697Q15.1127 7.93084 15.1853 7.97918Q15.2582 8.02771 15.3213 8.09082Q15.3875 8.15708 15.4377 8.23379Q15.4833 8.3035 15.5157 8.38184Q15.5494 8.46334 15.5663 8.54818Q15.5836 8.63513 15.5833 8.72559L15.5833 9.6665L17.9167 9.6665L17.9167 8.72559Q17.9164 8.36796 17.8408 8.02704Q17.7778 7.74283 17.6624 7.47021Q17.5471 7.19805 17.3874 6.95516Q17.2075 6.68168 16.9712 6.44531Q16.7368 6.21116 16.4659 6.03237Q16.221 5.87076 15.9463 5.75439Q15.6767 5.64014 15.3955 5.57719Q15.0519 5.50027 14.6911 5.5L14.25 5.5L14.25 3.6665L11.9167 3.6665L11.9167 5.5L11.4771 5.5Q11.1505 5.49789 10.8362 5.55945Q10.5693 5.61173 10.3114 5.70996Q10.052 5.80858 9.81651 5.94775Q9.55765 6.10074 9.32776 6.30273Q9.09423 6.5082 8.90702 6.74959Q8.74231 6.96196 8.61346 7.20215Q8.48258 7.44651 8.39637 7.70573Q8.29566 8.0085 8.25589 8.33154Q8.21595 8.65609 8.24069 8.97563Q8.26165 9.24645 8.32907 9.51367Q8.39822 9.7879 8.51201 10.0421Q8.63286 10.3121 8.80405 10.5596Q8.97858 10.8121 9.19333 11.0238Q9.3876 11.2154 9.61478 11.3735Q9.84912 11.5367 10.1044 11.6545Q10.3862 11.7846 10.6935 11.8594L14.9096 12.9111Q15.0728 12.9523 15.2021 13.0423Q15.3318 13.1326 15.4273 13.272Q15.5231 13.412 15.5604 13.5661Q15.5975 13.719 15.5771 13.8857Q15.5566 14.0535 15.4831 14.1935Q15.4099 14.333 15.2841 14.4448Q15.1568 14.558 15.0079 14.6144Q14.8621 14.6697 14.6956 14.6704L11.4756 14.6704Q11.3871 14.6704 11.302 14.6535Q11.2161 14.6364 11.1337 14.6021Q11.0527 14.5683 10.9811 14.5206Q10.9075 14.4716 10.8438 14.4077Q10.7813 14.3451 10.7332 14.2729Q10.6845 14.1999 10.6505 14.1172Q10.6197 14.0426 10.6031 13.9649Q10.5831 13.8718 10.5833 13.7744L10.5833 12.8335L8.25 12.8335L8.25 13.7744Q8.2503 14.132 8.3259 14.473Q8.38894 14.7572 8.5043 15.0298Q8.61956 15.302 8.77932 15.5448Q8.95921 15.8183 9.19553 16.0547Q9.42989 16.2888 9.7008 16.4676Q9.94565 16.6292 10.2204 16.7456Q10.49 16.8599 10.7712 16.9228Q11.1148 16.9997 11.4756 17L11.9167 17L11.9167 18.8335L14.25 18.8335L14.25 17Z" clip-rule="evenodd" fill="#008D3D" fill-opacity="1.000000" fill-rule="evenodd"/>
	<mask id="mask_8_25" fill="white">
		<path d="M51.5834 14.0005L51.5834 44.2505C51.5802 46.7808 49.5303 48.8306 47 48.8335L43.3333 48.8335L43.3333 47.0005L47 47.0005C48.5187 47.0005 49.75 45.769 49.75 44.2505L49.75 14.0005C49.75 12.4814 48.5187 11.2505 47 11.2505L27.75 11.2505L27.75 9.41699L47 9.41699C49.5303 9.41992 51.5802 11.4702 51.5834 14.0005ZM37.8333 13.0835L39.6667 13.0835L39.6667 14.917L37.8333 14.917L37.8333 13.0835ZM41.5 13.0835L43.3333 13.0835L43.3333 14.917L41.5 14.917L41.5 13.0835ZM45.1667 13.0835L47 13.0835L47 14.917L45.1667 14.917L45.1667 13.0835ZM27.75 16.7505L47 16.7505L47 18.5835L27.75 18.5835L27.75 16.7505ZM34.1667 23.167L36 23.167L36 26.8335L34.1667 26.8335L34.1667 23.167ZM3.91666 44.2505L3.91666 24.0835L5.75 24.0835L5.75 44.2505C5.75 45.769 6.98132 47.0005 8.5 47.0005L16.75 47.0005L16.75 48.8335L8.5 48.8335C5.96976 48.8306 3.9198 46.7808 3.91666 44.2505ZM38.1024 27.1021L40.8524 24.3521L42.1486 25.6484L39.3986 28.3989L38.1024 27.1021ZM16.7473 33.251C16.7473 32.0601 17.2118 30.8892 18.0865 30.0127C18.9481 29.1523 20.1154 28.668 21.3333 28.667L34.1667 28.667C36.6978 28.667 38.75 30.7192 38.75 33.2505C38.75 35.7812 36.6978 37.8335 34.1667 37.8335L32.3333 37.8335L32.3333 36.0005L34.1667 36.0005C35.6854 36.0005 36.9167 34.769 36.9167 33.2505C36.9167 31.7314 35.6854 30.5005 34.1667 30.5005L21.3333 30.5005C19.8146 30.5005 18.5833 31.7314 18.5833 33.2505C18.5833 34.769 19.8146 36.0005 21.3333 36.0005L23.1667 36.0005L23.1667 37.8335L21.3333 37.8335C19.4799 37.8345 17.8081 36.7197 17.0978 35.0078C16.8619 34.4395 16.7473 33.8428 16.7473 33.251ZM40.5833 30.5005L44.25 30.5005L44.25 32.3335L40.5833 32.3335L40.5833 30.5005ZM25.384 55.0791L19.645 50.9805L19.6468 50.9834C18.9776 50.5049 18.5854 49.7344 18.5854 48.9199C18.5854 48.854 18.588 48.7881 18.5932 48.7217C18.6625 47.8354 19.1907 47.0498 19.9856 46.6519L20.1306 46.5806C20.905 46.189 21.8261 46.2231 22.5691 46.6724L25.0018 48.1313L25.0018 35.9009C25.0018 35.0918 25.358 34.3232 25.9762 33.8008C26.5943 33.2778 27.4116 33.0537 28.2101 33.189C29.5418 33.4453 30.502 34.6108 30.502 35.9639Q30.502 35.9819 30.5018 36.0005L30.5018 41.6562C31.4507 41.3442 32.4936 41.5513 33.2518 42.2017C34.2947 41.2651 35.8755 41.2651 36.9185 42.2017C36.9368 42.1851 36.9543 42.1694 36.9726 42.1548C37.5908 41.6299 38.4085 41.4043 39.2083 41.5371C40.5403 41.7939 41.5002 42.9595 41.5002 44.3125C41.5002 44.3247 41.5001 44.3364 41.5 44.3481L41.5 54.3335C41.5 54.8398 41.0895 55.2505 40.5833 55.2505L25.9167 55.2505C25.7256 55.25 25.5393 55.1904 25.384 55.0791ZM20.9493 48.2178L20.8052 48.2891L20.8016 48.2891C20.5814 48.3994 20.4355 48.6177 20.4167 48.8633C20.4153 48.8813 20.4146 48.8989 20.4146 48.917C20.4146 49.1431 20.524 49.3569 20.7098 49.4888L26.2098 53.417L39.6667 53.417L39.6667 44.3481C39.6671 44.3359 39.6674 44.3237 39.6674 44.311C39.6674 43.8555 39.3561 43.4565 38.9102 43.3477C38.6412 43.2983 38.3646 43.373 38.1569 43.5508C37.9515 43.7251 37.8333 43.981 37.8333 44.2505C37.8333 44.7563 37.4229 45.167 36.9167 45.167C36.4105 45.167 36 44.7563 36 44.2505C36 43.7441 35.5895 43.3335 35.0833 43.3335C34.5771 43.3335 34.1667 43.7441 34.1667 44.2505C34.1667 44.7563 33.7562 45.167 33.25 45.167C32.7438 45.167 32.3333 44.7563 32.3333 44.2505C32.3333 43.7441 31.9229 43.3335 31.4167 43.3335C30.9105 43.3335 30.5 43.7441 30.5 44.2505C30.5 44.7563 30.0895 45.167 29.5833 45.167C29.0771 45.167 28.6667 44.7563 28.6667 44.2505L28.6667 36.0005Q28.6674 35.9819 28.6674 35.9634L28.6674 35.9634C28.6674 35.5073 28.356 35.1074 27.9102 34.9985C27.6412 34.9492 27.3642 35.0249 27.157 35.2036C26.9519 35.3779 26.8333 35.6333 26.8333 35.9023L26.8333 49.7505C26.8329 50.0806 26.6552 50.3848 26.3674 50.5474C26.08 50.7095 25.7278 50.7051 25.4445 50.5352L21.6229 48.2432C21.4179 48.1187 21.1632 48.1089 20.9493 48.2178Z" clip-rule="evenodd" fill="" fill-opacity="1.000000" fill-rule="evenodd"/>
	</mask>
	<path d="M51.5834 14.0005L51.5834 44.2505C51.5802 46.7808 49.5303 48.8306 47 48.8335L43.3333 48.8335L43.3333 47.0005L47 47.0005C48.5187 47.0005 49.75 45.769 49.75 44.2505L49.75 14.0005C49.75 12.4814 48.5187 11.2505 47 11.2505L27.75 11.2505L27.75 9.41699L47 9.41699C49.5303 9.41992 51.5802 11.4702 51.5834 14.0005ZM37.8333 13.0835L39.6667 13.0835L39.6667 14.917L37.8333 14.917L37.8333 13.0835ZM41.5 13.0835L43.3333 13.0835L43.3333 14.917L41.5 14.917L41.5 13.0835ZM45.1667 13.0835L47 13.0835L47 14.917L45.1667 14.917L45.1667 13.0835ZM27.75 16.7505L47 16.7505L47 18.5835L27.75 18.5835L27.75 16.7505ZM34.1667 23.167L36 23.167L36 26.8335L34.1667 26.8335L34.1667 23.167ZM3.91666 44.2505L3.91666 24.0835L5.75 24.0835L5.75 44.2505C5.75 45.769 6.98132 47.0005 8.5 47.0005L16.75 47.0005L16.75 48.8335L8.5 48.8335C5.96976 48.8306 3.9198 46.7808 3.91666 44.2505ZM38.1024 27.1021L40.8524 24.3521L42.1486 25.6484L39.3986 28.3989L38.1024 27.1021ZM16.7473 33.251C16.7473 32.0601 17.2118 30.8892 18.0865 30.0127C18.9481 29.1523 20.1154 28.668 21.3333 28.667L34.1667 28.667C36.6978 28.667 38.75 30.7192 38.75 33.2505C38.75 35.7812 36.6978 37.8335 34.1667 37.8335L32.3333 37.8335L32.3333 36.0005L34.1667 36.0005C35.6854 36.0005 36.9167 34.769 36.9167 33.2505C36.9167 31.7314 35.6854 30.5005 34.1667 30.5005L21.3333 30.5005C19.8146 30.5005 18.5833 31.7314 18.5833 33.2505C18.5833 34.769 19.8146 36.0005 21.3333 36.0005L23.1667 36.0005L23.1667 37.8335L21.3333 37.8335C19.4799 37.8345 17.8081 36.7197 17.0978 35.0078C16.8619 34.4395 16.7473 33.8428 16.7473 33.251ZM40.5833 30.5005L44.25 30.5005L44.25 32.3335L40.5833 32.3335L40.5833 30.5005ZM25.384 55.0791L19.645 50.9805L19.6468 50.9834C18.9776 50.5049 18.5854 49.7344 18.5854 48.9199C18.5854 48.854 18.588 48.7881 18.5932 48.7217C18.6625 47.8354 19.1907 47.0498 19.9856 46.6519L20.1306 46.5806C20.905 46.189 21.8261 46.2231 22.5691 46.6724L25.0018 48.1313L25.0018 35.9009C25.0018 35.0918 25.358 34.3232 25.9762 33.8008C26.5943 33.2778 27.4116 33.0537 28.2101 33.189C29.5418 33.4453 30.502 34.6108 30.502 35.9639Q30.502 35.9819 30.5018 36.0005L30.5018 41.6562C31.4507 41.3442 32.4936 41.5513 33.2518 42.2017C34.2947 41.2651 35.8755 41.2651 36.9185 42.2017C36.9368 42.1851 36.9543 42.1694 36.9726 42.1548C37.5908 41.6299 38.4085 41.4043 39.2083 41.5371C40.5403 41.7939 41.5002 42.9595 41.5002 44.3125C41.5002 44.3247 41.5001 44.3364 41.5 44.3481L41.5 54.3335C41.5 54.8398 41.0895 55.2505 40.5833 55.2505L25.9167 55.2505C25.7256 55.25 25.5393 55.1904 25.384 55.0791ZM20.9493 48.2178L20.8052 48.2891L20.8016 48.2891C20.5814 48.3994 20.4355 48.6177 20.4167 48.8633C20.4153 48.8813 20.4146 48.8989 20.4146 48.917C20.4146 49.1431 20.524 49.3569 20.7098 49.4888L26.2098 53.417L39.6667 53.417L39.6667 44.3481C39.6671 44.3359 39.6674 44.3237 39.6674 44.311C39.6674 43.8555 39.3561 43.4565 38.9102 43.3477C38.6412 43.2983 38.3646 43.373 38.1569 43.5508C37.9515 43.7251 37.8333 43.981 37.8333 44.2505C37.8333 44.7563 37.4229 45.167 36.9167 45.167C36.4105 45.167 36 44.7563 36 44.2505C36 43.7441 35.5895 43.3335 35.0833 43.3335C34.5771 43.3335 34.1667 43.7441 34.1667 44.2505C34.1667 44.7563 33.7562 45.167 33.25 45.167C32.7438 45.167 32.3333 44.7563 32.3333 44.2505C32.3333 43.7441 31.9229 43.3335 31.4167 43.3335C30.9105 43.3335 30.5 43.7441 30.5 44.2505C30.5 44.7563 30.0895 45.167 29.5833 45.167C29.0771 45.167 28.6667 44.7563 28.6667 44.2505L28.6667 36.0005Q28.6674 35.9819 28.6674 35.9634L28.6674 35.9634C28.6674 35.5073 28.356 35.1074 27.9102 34.9985C27.6412 34.9492 27.3642 35.0249 27.157 35.2036C26.9519 35.3779 26.8333 35.6333 26.8333 35.9023L26.8333 49.7505C26.8329 50.0806 26.6552 50.3848 26.3674 50.5474C26.08 50.7095 25.7278 50.7051 25.4445 50.5352L21.6229 48.2432C21.4179 48.1187 21.1632 48.1089 20.9493 48.2178Z" clip-rule="evenodd" fill="#2C2C2C" fill-opacity="1.000000" fill-rule="evenodd" mask="url(#mask_8_25)"/>
	<path d="M51.8334 44.2505L51.8334 14Q51.8327 13.4562 51.716 12.9385Q51.6218 12.5205 51.4519 12.1196Q51.2801 11.7142 51.0424 11.352Q50.7719 10.94 50.4161 10.584Q50.0625 10.2304 49.6534 9.96116Q49.2891 9.72132 48.8807 9.54834Q48.4791 9.37816 48.0604 9.28392Q47.5432 9.16753 47 9.16699L27.5 9.16699L27.5 11.5005L47 11.5005Q47.2847 11.5005 47.5554 11.5619Q47.7685 11.6103 47.973 11.6968Q48.1806 11.7844 48.3662 11.9057Q48.5818 12.0464 48.7678 12.2324Q48.9521 12.4168 49.0922 12.6304Q49.215 12.8177 49.3036 13.0273Q49.3905 13.2327 49.4389 13.4467Q49.5 13.7167 49.5 14.0005L49.5 44.2505Q49.5 44.5371 49.4377 44.8095Q49.3894 45.0206 49.3036 45.2231Q49.215 45.4328 49.0922 45.6201Q48.9521 45.8336 48.7678 46.0181Q48.5826 46.2032 48.3682 46.3436Q48.1817 46.4658 47.973 46.5542Q47.7685 46.6407 47.5554 46.689Q47.2847 46.7505 47 46.7505L43.0833 46.7505L43.0833 49.0835L47.0003 49.0835Q47.5414 49.083 48.0567 48.9674Q48.4773 48.8731 48.8807 48.7021Q49.2891 48.5292 49.6534 48.2893Q50.0625 48.0201 50.4161 47.6665Q50.768 47.3147 51.0364 46.9078Q51.278 46.5416 51.4519 46.1309Q51.6218 45.7299 51.716 45.312Q51.8327 44.7943 51.8334 44.2505ZM28 9.41699L47 9.41699C49.5303 9.41992 51.5802 11.4702 51.5834 14.0005L51.5834 44.2505C51.5802 46.7808 49.5303 48.8306 47 48.8335L43.3333 48.8335L43.3333 47.0005L47 47.0005C48.5187 47.0005 49.75 45.769 49.75 44.2505L49.75 14.0005C49.75 12.4814 48.5187 11.2505 47 11.2505L27.75 11.2505L27.75 9.41699L28 9.41699ZM39.9167 12.8335L37.5833 12.8335L37.5833 15.167L39.9167 15.167L39.9167 12.8335ZM43.5833 12.8335L41.25 12.8335L41.25 15.167L43.5833 15.167L43.5833 12.8335ZM47.25 12.8335L44.9167 12.8335L44.9167 15.167L47.25 15.167L47.25 12.8335ZM37.8333 13.0835L37.8333 14.917L39.6667 14.917L39.6667 13.0835L37.8333 13.0835ZM41.5 13.0835L41.5 14.917L43.3333 14.917L43.3333 13.0835L41.5 13.0835ZM45.1667 13.0835L45.1667 14.917L47 14.917L47 13.0835L45.1667 13.0835ZM47.25 16.5005L27.5 16.5005L27.5 18.8335L47.25 18.8335L47.25 16.5005ZM27.75 16.7505L27.75 18.5835L47 18.5835L47 16.7505L27.75 16.7505ZM36.25 22.917L33.9167 22.917L33.9167 27.0835L36.25 27.0835L36.25 22.917ZM34.1667 23.167L34.1667 26.8335L36 26.8335L36 23.167L34.1667 23.167ZM3.66666 23.8335L3.66666 44.2505Q3.66733 44.7943 3.78404 45.312Q3.87826 45.7299 4.04813 46.1309Q4.22197 46.5414 4.46335 46.9074Q4.73184 47.3145 5.08389 47.6665Q5.43713 48.0197 5.84575 48.2888Q6.21047 48.529 6.61932 48.7021Q7.02059 48.8722 7.43893 48.9664Q7.9564 49.083 8.5 49.0835L17 49.0835L17 46.7505L8.5 46.7505Q8.21552 46.7505 7.94497 46.6891Q7.73166 46.6407 7.52701 46.5542Q7.31799 46.4657 7.1312 46.3433Q6.91713 46.2029 6.73227 46.0181Q6.54776 45.8335 6.40769 45.6199Q6.28497 45.4327 6.19635 45.2231Q6.11061 45.0206 6.06231 44.8095Q6 44.5371 6 44.2505L6 23.8335L3.66666 23.8335ZM40.8524 23.9985L37.9255 26.9253L37.7488 27.1021L39.3986 28.7524L42.5021 25.6484L40.8524 23.9985ZM16.5 48.8335L8.5 48.8335C5.96976 48.8306 3.9198 46.7808 3.91666 44.2505L3.91666 24.0835L5.75 24.0835L5.75 44.2505C5.75 45.769 6.98132 47.0005 8.5 47.0005L16.75 47.0005L16.75 48.8335L16.5 48.8335ZM38.2792 26.9253L38.1024 27.1021L39.2218 28.2221L39.3986 28.3989L39.5753 28.2221L41.9718 25.8252L42.1486 25.6484L41.9718 25.4717L41.0291 24.5288L40.8524 24.3521L38.2791 26.9253L38.2792 26.9253ZM16.586 32.3238Q16.4973 32.7787 16.4973 33.251Q16.4973 33.7229 16.5861 34.1775Q16.6785 34.6499 16.8669 35.1035Q17.0134 35.4566 17.2108 35.7785Q17.3879 36.0674 17.606 36.3311Q17.8219 36.5921 18.0697 36.8184Q18.34 37.0654 18.6481 37.271Q18.9536 37.4749 19.2825 37.6287Q19.5892 37.7722 19.9163 37.8721Q20.2429 37.9721 20.577 38.0248Q20.9505 38.0838 21.3333 38.0835L23.4167 38.0835L23.4167 35.7505L21.3333 35.7505Q21.049 35.7505 20.7787 35.6892Q20.5652 35.6408 20.3604 35.5542Q20.151 35.4656 19.964 35.3429Q19.7502 35.2027 19.5656 35.0181Q19.3811 34.8335 19.241 34.6199Q19.1183 34.4327 19.0297 34.2231Q18.9439 34.0205 18.8956 33.8093Q18.8333 33.537 18.8333 33.2505Q18.8333 32.9668 18.8944 32.6968Q18.9428 32.4827 19.0297 32.2773Q19.1183 32.0678 19.241 31.8806Q19.3811 31.6669 19.5656 31.4824Q19.7511 31.2969 19.966 31.1564Q20.1521 31.0347 20.3604 30.9468Q20.5652 30.8602 20.7787 30.8118Q21.049 30.7505 21.3333 30.7505L34.1667 30.7505Q34.451 30.7505 34.7213 30.8118Q34.9348 30.8602 35.1396 30.9468Q35.3479 31.0347 35.534 31.1564Q35.7489 31.2969 35.9344 31.4824Q36.1191 31.6672 36.2593 31.8811Q36.3818 32.0681 36.4703 32.2773Q36.5572 32.4828 36.6056 32.697Q36.6667 32.9668 36.6667 33.2505Q36.6667 33.5369 36.6044 33.8092Q36.5561 34.0204 36.4703 34.2231Q36.3816 34.4328 36.2588 34.6201Q36.1188 34.8336 35.9344 35.0181Q35.7498 35.2027 35.536 35.3429Q35.349 35.4656 35.1396 35.5542Q34.9348 35.6408 34.7213 35.6892Q34.451 35.7505 34.1667 35.7505L32.0833 35.7505L32.0833 38.0835L34.1667 38.0835Q34.7079 38.0835 35.2234 37.9684Q35.6443 37.8744 36.048 37.7036Q36.4549 37.5316 36.818 37.2931Q37.2291 37.0231 37.5843 36.668Q37.9396 36.3126 38.2097 35.9013Q38.4481 35.5383 38.6201 35.1318Q38.7918 34.7258 38.8859 34.3025Q39 33.7892 39 33.2505Q39 32.7056 38.8834 32.187Q38.7895 31.7696 38.6201 31.3691Q38.4468 30.9596 38.2064 30.5943Q37.9374 30.1857 37.5843 29.8325Q37.2322 29.4806 36.825 29.2122Q36.4588 28.9707 36.048 28.7969Q35.6443 28.6261 35.2234 28.5321Q34.7079 28.417 34.1667 28.417L21.3331 28.417Q20.8545 28.4172 20.3939 28.5086Q19.928 28.601 19.4806 28.7866Q19.0409 28.9689 18.652 29.2274Q18.2543 29.4918 17.9095 29.8359Q17.5602 30.1859 17.2937 30.5903Q17.0373 30.9794 16.8575 31.4189Q16.6761 31.8625 16.586 32.3238ZM18.0865 30.0127C17.2118 30.8892 16.7473 32.0601 16.7473 33.251C16.7473 33.8428 16.8619 34.4395 17.0978 35.0078C17.8081 36.7197 19.4799 37.8345 21.3333 37.8335L23.1667 37.8335L23.1667 36.0005L21.3333 36.0005C19.8146 36.0005 18.5833 34.769 18.5833 33.2505C18.5833 31.7314 19.8146 30.5005 21.3333 30.5005L34.1667 30.5005C35.6854 30.5005 36.9167 31.7314 36.9167 33.2505C36.9167 34.769 35.6854 36.0005 34.1667 36.0005L32.3333 36.0005L32.3333 37.8335L34.1667 37.8335C36.6978 37.8335 38.75 35.7812 38.75 33.2505C38.75 30.7192 36.6978 28.667 34.1667 28.667L21.3333 28.667C20.1154 28.668 18.9481 29.1523 18.0865 30.0127ZM44.5 30.2505L40.3333 30.2505L40.3333 32.5835L44.5 32.5835L44.5 30.2505ZM44 30.5005L40.5833 30.5005L40.5833 32.3335L44.25 32.3335L44.25 30.5005L44 30.5005ZM19.5024 51.1855L25.2387 55.2822L25.2383 55.2822Q25.3843 55.387 25.5472 55.4414Q25.7222 55.5 25.9167 55.5005L40.5833 55.5005Q40.7116 55.5005 40.834 55.4736Q40.9379 55.4508 41.0375 55.4087Q41.139 55.3657 41.2291 55.3057Q41.3251 55.2418 41.4083 55.1587Q41.4936 55.0732 41.5587 54.9743Q41.6165 54.8862 41.6582 54.7876Q41.6995 54.6901 41.7222 54.5884Q41.75 54.464 41.75 54.3335L41.75 44.3501L41.7502 44.3125Q41.7502 44.0216 41.6972 43.7407Q41.6509 43.496 41.5643 43.2588Q41.4769 43.0194 41.3534 42.8005Q41.2209 42.5657 41.0466 42.3545Q40.8719 42.1428 40.666 41.9677Q40.475 41.8052 40.2571 41.6743Q40.045 41.5471 39.8183 41.4563Q39.5474 41.3479 39.2557 41.2915L39.2492 41.2905Q38.92 41.236 38.5947 41.2535Q38.2734 41.2708 37.9558 41.3584Q37.6333 41.4475 37.3449 41.6008Q37.1217 41.7194 36.9188 41.8764Q36.7659 41.7575 36.6004 41.6603Q36.3814 41.5317 36.1403 41.4409Q35.8977 41.3498 35.6469 41.302Q35.371 41.2495 35.0851 41.2495Q34.7983 41.2495 34.5215 41.3024Q34.2717 41.3501 34.03 41.4409Q33.7885 41.5319 33.5692 41.6607Q33.4024 41.7587 33.2486 41.8785Q33.0118 41.7011 32.7506 41.5742Q32.3963 41.4021 31.9969 41.3228Q31.5963 41.2432 31.2021 41.2674Q30.9759 41.2814 30.7518 41.3294L30.7518 36.0034Q30.752 35.9834 30.752 35.9639Q30.752 35.6767 30.7003 35.3993Q30.6539 35.1506 30.566 34.9097Q30.479 34.6713 30.3559 34.4533Q30.2231 34.218 30.0483 34.0063Q29.8696 33.7896 29.6584 33.6114Q29.4713 33.4537 29.2587 33.3262Q29.0454 33.1982 28.8173 33.1071Q28.5477 32.9994 28.2574 32.9434L28.2546 32.9429L28.2518 32.9424Q27.9245 32.8871 27.6008 32.9034Q27.2784 32.9196 26.9595 33.0068Q26.638 33.095 26.3503 33.2471Q26.0661 33.3973 25.8148 33.6099Q25.5641 33.8217 25.3692 34.0762Q25.1709 34.3351 25.0304 34.6382Q24.8912 34.9382 24.8216 35.2536Q24.7518 35.5695 24.7518 35.9009L24.7518 47.69L22.6984 46.4585Q22.3912 46.2729 22.0583 46.1736Q21.7274 46.0749 21.371 46.0615Q21.0049 46.0478 20.6593 46.1255Q20.3303 46.1995 20.02 46.3564L19.8737 46.4287Q19.5475 46.5919 19.2823 46.8246Q19.0151 47.0591 18.8099 47.3643Q18.6047 47.6694 18.4881 48.0052Q18.3724 48.3385 18.3439 48.7021Q18.3354 48.811 18.3354 48.9199Q18.3354 49.2541 18.4112 49.5702Q18.4881 49.8904 18.6427 50.1919Q18.7971 50.4928 19.0118 50.7415Q19.2264 50.9901 19.5013 51.1865L19.5024 51.1855ZM19.6476 50.9823L19.6923 51.0142L25.384 55.0791C25.5393 55.1904 25.7256 55.25 25.9167 55.2505L40.5833 55.2505C41.0895 55.2505 41.5 54.8398 41.5 54.3335L41.5 44.3481C41.5001 44.3364 41.5002 44.3247 41.5002 44.3125C41.5002 42.9595 40.5403 41.7939 39.2083 41.5371C38.4085 41.4043 37.5908 41.6299 36.9726 42.1548C36.9543 42.1694 36.9368 42.1851 36.9185 42.2017C35.8755 41.2651 34.2947 41.2651 33.2518 42.2017C32.5597 41.608 31.6303 41.3837 30.7518 41.5864C30.6679 41.6058 30.5845 41.6291 30.5018 41.6562L30.5018 36.0005Q30.502 35.9819 30.502 35.9639C30.502 34.6108 29.5418 33.4453 28.2101 33.189C27.4116 33.0537 26.5943 33.2778 25.9762 33.8008C25.358 34.3232 25.0018 35.0918 25.0018 35.9009L25.0018 48.1313L24.7518 47.9814L22.5691 46.6724C21.8261 46.2231 20.905 46.189 20.1306 46.5806L19.9856 46.6519C19.1907 47.0498 18.6625 47.8354 18.5932 48.7217C18.588 48.7881 18.5854 48.854 18.5854 48.9199C18.5854 49.7152 18.9593 50.4685 19.5999 50.949C19.6145 50.96 19.6293 50.9709 19.6442 50.9816C19.6451 50.9822 19.6459 50.9828 19.6468 50.9834L19.645 50.9805L19.6476 50.9823ZM28.6667 36.0005Q28.6674 35.9819 28.6674 35.9634C28.6674 35.5073 28.356 35.1074 27.9102 34.9985C27.6412 34.9492 27.3642 35.0249 27.157 35.2036C26.9519 35.3779 26.8333 35.6333 26.8333 35.9023L26.8333 49.7505C26.8329 50.0806 26.6552 50.3848 26.3674 50.5474C26.08 50.7095 25.7278 50.7051 25.4445 50.5352L21.6229 48.2432C21.4179 48.1187 21.1632 48.1089 20.9493 48.2178L20.8052 48.2891L20.8016 48.2891C20.5814 48.3994 20.4355 48.6177 20.4167 48.8633C20.4153 48.8813 20.4146 48.8989 20.4146 48.917C20.4146 49.1431 20.524 49.3569 20.7098 49.4888L26.2098 53.417L39.6667 53.417L39.6667 44.3481C39.6671 44.3359 39.6674 44.3237 39.6674 44.311C39.6674 43.8555 39.3561 43.4565 38.9102 43.3477C38.6412 43.2983 38.3646 43.373 38.1569 43.5508C37.9515 43.7251 37.8333 43.981 37.8333 44.2505C37.8333 44.7563 37.4229 45.167 36.9167 45.167C36.4105 45.167 36 44.7563 36 44.2505C36 43.7441 35.5895 43.3335 35.0833 43.3335C34.5771 43.3335 34.1667 43.7441 34.1667 44.2505C34.1667 44.7563 33.7562 45.167 33.25 45.167C32.7438 45.167 32.3333 44.7563 32.3333 44.2505C32.3333 43.7441 31.9229 43.3335 31.4167 43.3335C30.9105 43.3335 30.5 43.7441 30.5 44.2505C30.5 44.7563 30.0895 45.167 29.5833 45.167C29.0771 45.167 28.6667 44.7563 28.6667 44.2505L28.6667 36.0005ZM38.8567 43.5918Q38.7879 43.5802 38.7197 43.5831Q38.6474 43.5862 38.5757 43.6055Q38.5049 43.6245 38.4416 43.6577Q38.3766 43.6918 38.3195 43.7407Q38.2587 43.7923 38.2128 43.8547Q38.1735 43.9082 38.145 43.9697Q38.1155 44.0336 38.1001 44.1007Q38.0833 44.1737 38.0833 44.2505Q38.0833 44.3748 38.058 44.4938Q38.0351 44.6014 37.9915 44.7046Q37.9488 44.8057 37.8891 44.8955Q37.8251 44.9918 37.7416 45.0752Q37.6557 45.1613 37.5561 45.2266Q37.4687 45.2839 37.3708 45.3252Q37.2716 45.3672 37.168 45.39Q37.0453 45.417 36.9167 45.417Q36.7884 45.417 36.666 45.3901Q36.5621 45.3673 36.4625 45.3252Q36.3643 45.2838 36.2767 45.2262Q36.1774 45.1611 36.0917 45.0752Q36.008 44.9916 35.9439 44.8951Q35.8844 44.8054 35.8418 44.7046Q35.7982 44.6014 35.7753 44.4938Q35.75 44.3748 35.75 44.2505Q35.75 44.112 35.701 43.9938Q35.6521 43.8762 35.5547 43.7788Q35.457 43.681 35.339 43.6322Q35.2212 43.5835 35.0833 43.5835Q34.9455 43.5835 34.8279 43.6321Q34.7098 43.681 34.6119 43.7788Q34.5145 43.8762 34.4657 43.9938Q34.4167 44.112 34.4167 44.2505Q34.4167 44.3748 34.3914 44.4938Q34.3685 44.6014 34.3249 44.7046Q34.2821 44.8058 34.2222 44.8958Q34.1583 44.9919 34.075 45.0752Q33.989 45.1613 33.8894 45.2266Q33.802 45.2839 33.7042 45.3252Q33.6049 45.3672 33.5013 45.39Q33.3786 45.417 33.25 45.417Q33.1214 45.417 32.9987 45.39Q32.8951 45.3672 32.7958 45.3252Q32.698 45.2839 32.6106 45.2266Q32.511 45.1613 32.425 45.0752Q32.3417 44.9919 32.2778 44.8958Q32.2179 44.8058 32.1751 44.7046Q32.1315 44.6014 32.1086 44.4938Q32.0833 44.3748 32.0833 44.2505Q32.0833 44.112 32.0343 43.9938Q31.9854 43.8762 31.8881 43.7788Q31.7902 43.681 31.6721 43.6321Q31.5545 43.5835 31.4167 43.5835Q31.2788 43.5835 31.161 43.6322Q31.043 43.681 30.9453 43.7788Q30.8479 43.8762 30.7991 43.9938Q30.75 44.112 30.75 44.2505Q30.75 44.3748 30.7247 44.4938Q30.7018 44.6014 30.6582 44.7046Q30.6156 44.8054 30.5561 44.8951Q30.492 44.9916 30.4083 45.0752Q30.3226 45.1611 30.2233 45.2262Q30.1357 45.2838 30.0375 45.3252Q29.9379 45.3673 29.834 45.3901Q29.7116 45.417 29.5833 45.417Q29.4547 45.417 29.332 45.39Q29.2284 45.3672 29.1292 45.3252Q29.0313 45.2839 28.9439 45.2266Q28.8443 45.1613 28.7584 45.0752Q28.6749 44.9918 28.6109 44.8955Q28.5512 44.8057 28.5085 44.7046Q28.4649 44.6014 28.442 44.4938Q28.4167 44.3748 28.4167 44.2505L28.4167 35.9956L28.4168 35.9912Q28.4174 35.9771 28.4174 35.9634Q28.4174 35.836 28.3783 35.722Q28.3388 35.6066 28.2592 35.5049Q28.1793 35.4028 28.0762 35.3368Q27.9771 35.2732 27.8565 35.2431Q27.79 35.2317 27.7239 35.2341Q27.6497 35.2368 27.5761 35.2568Q27.5054 35.2761 27.4421 35.3095Q27.3772 35.3438 27.3201 35.3931Q27.2564 35.4471 27.209 35.5129Q27.1721 35.5642 27.1451 35.6226Q27.1133 35.6913 27.0978 35.7635Q27.0833 35.8314 27.0833 35.9023L27.0833 49.7505Q27.0831 49.9098 27.0425 50.0579Q27.0027 50.2032 26.924 50.3379Q26.844 50.4749 26.7348 50.5822Q26.6268 50.6882 26.4903 50.7651Q26.3522 50.843 26.2039 50.8806Q26.0575 50.9177 25.9011 50.9155Q25.7438 50.9136 25.5977 50.8722Q25.4511 50.8307 25.3158 50.7495L21.4944 48.4575Q21.4401 48.4248 21.3812 48.4086Q21.3322 48.3951 21.2799 48.3931Q21.2219 48.3908 21.1671 48.403Q21.1133 48.4148 21.0626 48.4404L21.06 48.4419L20.8809 48.5305Q20.846 48.5517 20.816 48.5785Q20.7738 48.6161 20.7413 48.6646Q20.7096 48.7117 20.691 48.7636Q20.6707 48.8202 20.6659 48.8823Q20.6646 48.8994 20.6646 48.917Q20.6646 48.9698 20.6763 49.0199Q20.6888 49.0735 20.7148 49.124Q20.7403 49.1736 20.7759 49.2143Q20.8105 49.2539 20.8546 49.2852L26.2902 53.167L39.4167 53.167L39.4167 44.3438L39.4169 44.3389Q39.4174 44.3252 39.4174 44.311Q39.4174 44.1841 39.3784 44.0705Q39.3389 43.9551 39.2592 43.8535Q39.1804 43.753 39.0789 43.6873Q38.9788 43.6226 38.8567 43.5918Z" clip-rule="evenodd" fill="#2C2C2C" fill-opacity="1.000000" fill-rule="evenodd"/>
</svg>
