<svg width="42.000000" height="35.539062" viewBox="0 0 42 35.5391" fill="none" xmlns="http://www.w3.org/2000/svg" xmlns:xlink="http://www.w3.org/1999/xlink">
	<desc>
			Created with Pixso.
	</desc>
	<defs/>
	<path id="Union" d="M37.1536 0C38.4999 0 39.6442 0.471191 40.5862 1.41333C41.529 2.35547 41.9998 3.49951 42 4.84595L42 22.6147C42 24.3647 41.659 26.0352 40.9778 27.625C40.2968 29.2148 39.3749 30.5903 38.2137 31.7517C37.0526 32.9128 35.6772 33.8342 34.0873 34.5156C32.4969 35.1968 30.8269 35.5381 29.077 35.5381L27.4615 35.5381C27.0239 35.5381 26.6451 35.3777 26.3257 35.0583C26.0059 34.7388 25.8458 34.3594 25.8458 33.9226L25.8458 30.6914C25.8458 30.2539 26.0059 29.8752 26.3257 29.5557C26.6452 29.2361 27.024 29.0759 27.4615 29.0759L29.077 29.0759C30.8611 29.0759 32.3835 28.4448 33.6454 27.1831C34.9075 25.9209 35.5387 24.3984 35.5387 22.6147L35.5387 21.8076C35.5387 21.1343 35.3026 20.562 34.832 20.0911C34.3608 19.6199 33.7881 19.3843 33.1153 19.3843L27.4615 19.3843C26.1152 19.3843 24.9709 18.9128 24.0288 17.9707C23.0868 17.0286 22.6157 15.8848 22.6157 14.5383L22.6157 4.84619C22.6157 3.49976 23.0868 2.35571 24.0288 1.41333C24.9709 0.471191 26.1151 0 27.4615 0L37.1536 0ZM14.5387 0.000732422L4.84625 0.000732422C3.49988 0.000732422 2.35577 0.471924 1.41327 1.41406C0.471191 2.35645 0 3.50073 0 4.84717L0 14.5393C0 15.8855 0.470947 17.0295 1.41327 17.9717C2.35565 18.9138 3.50018 19.385 4.84625 19.385L10.5001 19.385C11.1729 19.385 11.7452 19.6208 12.2164 20.0918C12.6876 20.5625 12.9231 21.135 12.9231 21.8083L12.9231 22.6157C12.9231 24.3994 12.292 25.9216 11.03 27.1841C9.76807 28.4456 8.24536 29.0767 6.46143 29.0767L4.84625 29.0767C4.40845 29.0767 4.02997 29.2371 3.71014 29.5564C3.39056 29.876 3.23059 30.2546 3.23059 30.6921L3.23059 33.9233C3.23059 34.3601 3.39056 34.7395 3.71014 35.0591C4.03027 35.3787 4.40839 35.5391 4.84625 35.5391L6.46149 35.5391C8.21167 35.5391 9.88177 35.1978 11.472 34.5164C13.0621 33.8352 14.4377 32.9136 15.5988 31.7524C16.7596 30.5913 17.681 29.2161 18.3624 27.6257C19.0438 26.0356 19.3846 24.3657 19.3846 22.6157L19.3846 4.84668C19.3846 3.50024 18.9134 2.3562 17.9713 1.41406C17.0291 0.471924 15.8847 0.000732422 14.5387 0.000732422Z" clip-rule="evenodd" fill="#B1F1CD" fill-opacity="1.000000" fill-rule="evenodd"/>
</svg>
